<?xml version="1.0" encoding="UTF-8" standalone="no"?>
<svg
   xmlns:dc="http://purl.org/dc/elements/1.1/"
   xmlns:cc="http://creativecommons.org/ns#"
   xmlns:rdf="http://www.w3.org/1999/02/22-rdf-syntax-ns#"
   xmlns:svg="http://www.w3.org/2000/svg"
   xmlns="http://www.w3.org/2000/svg"
   xmlns:sodipodi="http://sodipodi.sourceforge.net/DTD/sodipodi-0.dtd"
   xmlns:inkscape="http://www.inkscape.org/namespaces/inkscape"
   version="1.0"
   width="1500.000000pt"
   height="1050.000000pt"
   viewBox="0 0 1500.000000 1050.000000"
   preserveAspectRatio="xMidYMid meet"
   id="svg2"
   inkscape:version="0.48.4 r9939"
   sodipodi:docname="mod13.svg">
  <defs
     id="defs388" />
  <sodipodi:namedview
     pagecolor="#ffffff"
     bordercolor="#666666"
     borderopacity="1"
     objecttolerance="10"
     gridtolerance="10"
     guidetolerance="10"
     inkscape:pageopacity="0"
     inkscape:pageshadow="2"
     inkscape:window-width="640"
     inkscape:window-height="480"
     id="namedview386"
     showgrid="false"
     inkscape:zoom="0.44048038"
     inkscape:cx="1131.0415"
     inkscape:cy="709.32435"
     inkscape:window-x="2312"
     inkscape:window-y="148"
     inkscape:window-maximized="0"
     inkscape:current-layer="g6" />
  <metadata
     id="metadata4">
Created by potrace 1.11, written by Peter Selinger 2001-2013
<rdf:RDF>
  <cc:Work
     rdf:about="">
    <dc:format>image/svg+xml</dc:format>
    <dc:type
       rdf:resource="http://purl.org/dc/dcmitype/StillImage" />
    <dc:title></dc:title>
  </cc:Work>
</rdf:RDF>
</metadata>
  <g
     transform="translate(0.000000,1050.000000) scale(0.100000,-0.100000)"
     fill="#000000"
     stroke="none"
     id="g6">
    <path
       d="M1454 10032 c-73 -59 -81 -230 -14 -305 37 -41 95 -44 135 -7 35 33 59 119 51 183 -13 94 -54 147 -116 147 -19 0 -45 -8 -56 -18z m89 -10 c40 -43 47 -215 12 -282 -21 -41 -68 -43 -89 -2 -34 66 -28 241 11 284 21 23 45 23 66 0z"
       id="path8" />
    <path
       d="M1861 9942 c-41 -59 -77 -117 -79 -129 -4 -22 -2 -23 67 -23 l71 0 0 -45 c0 -38 3 -45 20 -45 17 0 20 7 20 45 0 43 1 45 30 45 20 0 30 5 30 15 0 10 -10 15 -30 15 l-30 0 0 115 c0 86 -3 115 -12 114 -7 0 -46 -48 -87 -107z m56 -119 c-3 -2 -30 -3 -61 -1 l-56 3 58 82 57 82 3 -81 c2 -44 1 -82 -1 -85z"
       id="path10" />
    <path
       d="M2336 9874 c-3 -9 -6 -1863 -6 -4120 l0 -4104 5861 0 c5066 0 5862 2 5875 14 22 23 18 66 -6 66 -15 0 -20 -7 -20 -25 l0 -25 -775 0 -775 0 0 25 c0 16 -6 25 -15 25 -9 0 -15 -9 -15 -25 l0 -25 -550 0 -550 0 0 25 c0 16 -6 25 -15 25 -9 0 -15 -9 -15 -25 l0 -25 -775 0 -775 0 0 25 c0 16 -6 25 -15 25 -9 0 -15 -9 -15 -25 l0 -25 -420 0 -420 0 0 25 c0 16 -6 25 -15 25 -9 0 -15 -9 -15 -25 l0 -25 -250 0 -250 0 0 25 c0 16 -6 25 -15 25 -9 0 -15 -9 -15 -25 l0 -25 -285 0 -285 0 0 25 c0 16 -6 25 -15 25 -9 0 -15 -9 -15 -25 l0 -25 -340 0 -340 0 0 25 c0 16 -6 25 -15 25 -9 0 -15 -9 -15 -25 l0 -25 -420 0 -420 0 0 25 c0 18 -5 25 -20 25 -15 0 -20 -7 -20 -25 l0 -25 -545 0 -545 0 0 25 c0 16 -6 25 -15 25 -9 0 -15 -9 -15 -25 l0 -25 -780 0 -780 0 0 25 c0 16 -6 25 -15 25 -9 0 -15 -9 -15 -25 l0 -25 -545 0 -545 0 0 500 0 500 25 0 c16 0 25 6 25 15 0 9 -9 15 -25 15 l-25 0 0 336 0 337 44 51 c25 28 72 80 106 116 34 36 78 89 98 119 20 30 43 56 51 58 21 7 144 147 147 169 3 20 53 74 69 74 18 0 141 142 137 157 -4 19 47 78 68 78 25 0 142 132 135 153 -7 25 53 96 70 82 10 -8 30 8 83 67 62 68 69 78 54 89 -15 11 -12 16 23 55 21 24 228 219 459 433 409 377 431 396 796 670 l375 282 557 327 557 327 428 177 c362 149 483 194 787 290 265 84 397 120 500 138 134 24 187 30 159 18 -7 -2 -13 -11 -13 -20 0 -10 6 -13 23 -8 114 33 164 51 172 60 11 14 144 33 460 69 228 26 256 28 1825 92 l875 36 1195 -6 c657 -3 1255 -9 1328 -12 114 -5 132 -4 132 9 0 24 -105 26 -1450 33 l-1245 6 -870 -36 c-1473 -61 -1575 -66 -1758 -87 -161 -18 -180 -19 -190 -5 -11 14 -23 12 -112 -14 -55 -16 -230 -52 -390 -79 -283 -49 -299 -53 -650 -164 -304 -97 -427 -142 -790 -292 l-430 -177 -565 -331 -565 -331 -356 -267 c-340 -256 -373 -284 -788 -666 l-433 -398 -535 -625 c-295 -344 -544 -634 -554 -645 -19 -19 -19 -17 -19 113 0 129 1 132 20 122 15 -8 21 -6 30 10 15 27 6 38 -25 32 l-25 -4 0 501 0 501 25 0 c16 0 25 6 25 15 0 9 -9 15 -25 15 l-25 0 0 495 0 495 25 0 c18 0 25 5 25 20 0 15 -7 20 -25 20 l-25 0 0 495 0 495 25 0 c16 0 25 6 25 15 0 9 -9 15 -25 15 l-25 0 0 500 0 500 25 0 c16 0 25 6 25 15 0 9 -9 15 -25 15 l-25 0 0 495 0 495 25 0 c16 0 25 6 25 15 0 9 -9 15 -25 15 l-25 0 0 500 0 500 25 0 c16 0 25 6 25 15 0 21 -66 21 -74 -1z m1054 -5298 c0 -2 -8 -10 -17 -17 -16 -13 -17 -12 -4 4 13 16 21 21 21 13z"
       id="path12" />
    <path
       d="M1687 9744 c-12 -12 -8 -42 6 -47 21 -8 39 8 35 29 -3 19 -29 30 -41 18z"
       id="path14" />
    <path
       d="M14023 9053 c-7 -2 -13 -11 -13 -20 0 -21 44 -13 48 10 3 17 -10 21 -35 10z"
       id="path16" />
    <path
       d="M13898 9043 c-10 -2 -18 -11 -18 -19 0 -22 44 -14 48 9 4 17 1 18 -30 10z"
       id="path18" />
    <path
       d="M13768 9033 c-28 -7 -22 -33 7 -33 18 0 25 5 25 20 0 20 -2 21 -32 13z"
       id="path20" />
    <path
       d="M1184 9012 c-73 -59 -81 -230 -14 -305 37 -41 95 -44 135 -7 35 33 59 119 51 183 -13 94 -54 147 -116 147 -19 0 -45 -8 -56 -18z m89 -10 c40 -43 47 -215 12 -282 -21 -41 -68 -43 -89 -2 -34 66 -28 241 11 284 21 23 45 23 66 0z"
       id="path22" />
    <path
       d="M1569 9001 c-16 -16 -29 -34 -29 -40 0 -5 11 1 25 14 37 38 89 32 106 -11 12 -34 -7 -70 -50 -91 l-36 -17 32 -6 c62 -10 94 -59 74 -113 -16 -43 -52 -54 -101 -32 -29 13 -44 15 -51 8 -29 -29 37 -50 99 -33 57 15 92 59 92 116 0 36 -5 50 -26 69 l-26 24 21 27 c27 35 27 59 -4 89 -35 36 -88 34 -126 -4z"
       id="path24" />
    <path
       d="M1917 9023 l-57 -4 -25 -49 c-34 -67 -32 -76 15 -84 23 -3 54 -18 71 -34 26 -24 32 -36 32 -72 0 -35 -6 -48 -27 -67 -32 -27 -45 -28 -72 -8 -25 19 -64 19 -64 0 0 -36 64 -44 127 -16 49 23 73 62 73 120 0 52 -46 107 -96 117 -39 7 -47 15 -38 38 5 12 20 16 58 16 29 0 57 5 64 12 13 13 16 39 5 36 -5 -1 -34 -3 -66 -5z"
       id="path26" />
    <path
       d="M13643 9023 c-32 -6 -30 -33 2 -33 18 0 25 5 25 20 0 11 -1 19 -2 19 -2 -1 -13 -4 -25 -6z"
       id="path28" />
    <path
       d="M13513 9013 c-32 -6 -30 -33 2 -33 18 0 25 5 25 20 0 11 -1 19 -2 19 -2 -1 -13 -4 -25 -6z"
       id="path30" />
    <path
       d="M13360 8985 c0 -9 9 -15 25 -15 16 0 25 6 25 15 0 9 -9 15 -25 15 -16 0 -25 -6 -25 -15z"
       id="path32" />
    <path
       d="M13230 8975 c0 -9 9 -15 25 -15 16 0 25 6 25 15 0 9 -9 15 -25 15 -16 0 -25 -6 -25 -15z"
       id="path34" />
    <path
       d="M13100 8965 c0 -9 9 -15 25 -15 16 0 25 6 25 15 0 9 -9 15 -25 15 -16 0 -25 -6 -25 -15z"
       id="path36" />
    <path
       d="M12973 8955 c-7 -21 -2 -25 25 -18 12 3 22 12 22 19 0 19 -39 18 -47 -1z"
       id="path38" />
    <path
       d="M12858 8953 c-10 -2 -18 -11 -18 -19 0 -22 44 -14 48 9 4 17 1 18 -30 10z"
       id="path40" />
    <path
       d="M12710 8925 c0 -9 9 -15 25 -15 16 0 25 6 25 15 0 9 -9 15 -25 15 -16 0 -25 -6 -25 -15z"
       id="path42" />
    <path
       d="M12580 8915 c0 -9 9 -15 25 -15 16 0 25 6 25 15 0 9 -9 15 -25 15 -16 0 -25 -6 -25 -15z"
       id="path44" />
    <path
       d="M12450 8905 c0 -9 9 -15 25 -15 16 0 25 6 25 15 0 9 -9 15 -25 15 -16 0 -25 -6 -25 -15z"
       id="path46" />
    <path
       d="M12343 8902 c-31 -5 -30 -32 1 -32 14 0 27 4 30 8 9 14 -8 27 -31 24z"
       id="path48" />
    <path
       d="M12190 8876 c0 -11 10 -16 31 -16 38 0 35 24 -4 28 -19 2 -27 -1 -27 -12z"
       id="path50" />
    <path
       d="M12082 8872 c-26 -4 -25 -25 2 -30 22 -5 44 15 31 26 -6 4 -20 6 -33 4z"
       id="path52" />
    <path
       d="M11937 8854 c-11 -12 3 -24 29 -24 15 0 24 6 24 15 0 15 -40 21 -53 9z"
       id="path54" />
    <path
       d="M11823 8842 c-14 -2 -20 -8 -16 -18 6 -16 39 -19 49 -3 9 15 -7 26 -33 21z"
       id="path56" />
    <path
       d="M11680 8815 c0 -9 9 -15 25 -15 16 0 25 6 25 15 0 9 -9 15 -25 15 -16 0 -25 -6 -25 -15z"
       id="path58" />
    <path
       d="M11568 8813 c-24 -6 -23 -33 1 -33 23 0 38 18 25 29 -5 4 -17 6 -26 4z"
       id="path60" />
    <path
       d="M11420 8785 c0 -9 9 -15 25 -15 16 0 25 6 25 15 0 9 -9 15 -25 15 -16 0 -25 -6 -25 -15z"
       id="path62" />
    <path
       d="M11308 8783 c-10 -2 -18 -11 -18 -19 0 -22 44 -14 48 9 4 17 1 18 -30 10z"
       id="path64" />
    <path
       d="M11173 8763 c-15 -5 -18 -33 -4 -33 21 0 41 13 41 26 0 14 -14 17 -37 7z"
       id="path66" />
    <path
       d="M11033 8735 c-7 -21 -2 -25 25 -18 12 3 22 12 22 19 0 19 -39 18 -47 -1z"
       id="path68" />
    <path
       d="M1427 8724 c-12 -12 -8 -42 6 -47 21 -8 39 8 35 29 -3 19 -29 30 -41 18z"
       id="path70" />
    <path
       d="M10900 8715 c0 -9 9 -15 25 -15 16 0 25 6 25 15 0 9 -9 15 -25 15 -16 0 -25 -6 -25 -15z"
       id="path72" />
    <path
       d="M10770 8695 c0 -9 9 -15 25 -15 16 0 25 6 25 15 0 9 -9 15 -25 15 -16 0 -25 -6 -25 -15z"
       id="path74" />
    <path
       d="M10663 8692 c-31 -5 -30 -32 1 -32 14 0 27 4 30 8 9 14 -8 27 -31 24z"
       id="path76" />
    <path
       d="M10512 8658 c7 -20 58 -23 58 -4 0 11 -10 16 -31 16 -20 0 -29 -4 -27 -12z"
       id="path78" />
    <path
       d="M10390 8635 c0 -9 9 -15 25 -15 16 0 25 6 25 15 0 9 -9 15 -25 15 -16 0 -25 -6 -25 -15z"
       id="path80" />
    <path
       d="M10263 8615 c-7 -21 -2 -25 25 -18 12 3 22 12 22 19 0 19 -39 18 -47 -1z"
       id="path82" />
    <path
       d="M10143 8603 c-15 -5 -18 -33 -4 -33 21 0 41 13 41 26 0 14 -14 17 -37 7z"
       id="path84" />
    <path
       d="M10018 8583 c-10 -2 -18 -11 -18 -19 0 -22 44 -14 48 9 4 17 1 18 -30 10z"
       id="path86" />
    <path
       d="M9870 8545 c0 -12 7 -15 25 -13 14 2 26 8 26 13 0 6 -12 11 -26 13 -18 2 -25 -1 -25 -13z"
       id="path88" />
    <path
       d="M9742 8528 c7 -20 58 -23 58 -4 0 11 -10 16 -31 16 -20 0 -29 -4 -27 -12z"
       id="path90" />
    <path
       d="M9638 8513 c-10 -2 -18 -11 -18 -19 0 -22 44 -14 48 9 4 17 1 18 -30 10z"
       id="path92" />
    <path
       d="M13980 8504 c-8 -1 -41 -6 -72 -9 -43 -5 -58 -10 -58 -22 0 -13 9 -15 48 -10 26 3 73 9 105 13 39 4 57 11 57 20 0 13 -39 17 -80 8z"
       id="path94" />
    <path
       d="M9493 8475 c-7 -21 -2 -25 25 -18 12 3 22 12 22 19 0 19 -39 18 -47 -1z"
       id="path96" />
    <path
       d="M13640 8465 c-113 -15 -100 -12 -100 -30 0 -12 8 -14 38 -10 20 4 66 9 102 13 50 5 65 11 68 25 2 9 0 16 -5 16 -4 -1 -51 -7 -103 -14z"
       id="path98" />
    <path
       d="M9383 8463 c-32 -6 -30 -33 2 -33 18 0 25 5 25 20 0 11 -1 19 -2 19 -2 -1 -13 -4 -25 -6z"
       id="path100" />
    <path
       d="M9240 8430 c-10 -6 -12 -12 -5 -19 13 -13 57 -2 52 13 -5 15 -29 18 -47 6z"
       id="path102" />
    <path
       d="M13308 8427 c-59 -7 -78 -13 -78 -24 0 -13 12 -15 73 -9 109 10 137 17 137 32 0 16 -17 16 -132 1z"
       id="path104" />
    <path
       d="M9110 8391 c0 -14 6 -17 25 -13 14 2 25 11 25 18 0 8 -10 14 -25 14 -18 0 -25 -5 -25 -19z"
       id="path106" />
    <path
       d="M13015 8393 c-78 -9 -95 -14 -95 -30 0 -12 7 -14 38 -10 20 4 67 9 105 13 46 5 67 11 67 20 0 14 -41 16 -115 7z"
       id="path108" />
    <path
       d="M8985 8370 c-3 -5 -4 -14 -1 -19 9 -13 46 -1 46 15 0 16 -36 19 -45 4z"
       id="path110" />
    <path
       d="M12698 8357 c-67 -8 -88 -14 -88 -25 0 -13 13 -14 83 -8 45 4 92 9 105 13 26 6 30 34 5 31 -10 0 -57 -6 -105 -11z"
       id="path112" />
    <path
       d="M8855 8341 c-3 -6 -4 -15 -1 -20 8 -12 58 -1 53 13 -5 15 -43 20 -52 7z"
       id="path114" />
    <path
       d="M12410 8319 c-25 -4 -60 -11 -77 -14 -21 -4 -33 -12 -33 -22 0 -12 7 -14 28 -10 15 3 62 11 105 17 52 9 77 17 77 26 0 16 -30 17 -100 3z"
       id="path116" />
    <path
       d="M8733 8305 c-7 -21 -2 -25 25 -18 12 3 22 12 22 19 0 19 -39 18 -47 -1z"
       id="path118" />
    <path
       d="M8613 8283 c-14 -5 -18 -33 -5 -33 27 1 50 14 45 26 -5 14 -18 17 -40 7z"
       id="path120" />
    <path
       d="M12071 8264 c-79 -14 -90 -19 -75 -34 14 -14 204 20 204 37 0 16 -30 15 -129 -3z"
       id="path122" />
    <path
       d="M8488 8253 c-20 -5 -23 -18 -8 -28 15 -9 52 5 47 18 -4 13 -16 16 -39 10z"
       id="path124" />
    <path
       d="M8368 8223 c-18 -5 -25 -33 -9 -33 21 0 41 13 41 26 0 14 -3 15 -32 7z"
       id="path126" />
    <path
       d="M11835 8225 c-5 -2 -42 -9 -82 -15 -57 -9 -71 -15 -66 -27 4 -10 15 -13 37 -9 17 3 61 10 99 17 45 7 67 16 67 25 0 13 -30 18 -55 9z"
       id="path128" />
    <path
       d="M8230 8180 c-10 -6 -12 -12 -5 -19 13 -13 57 -2 52 13 -5 15 -29 18 -47 6z"
       id="path130" />
    <path
       d="M11490 8169 c-25 -4 -60 -11 -77 -14 -21 -4 -33 -12 -33 -22 0 -12 7 -14 28 -10 15 3 62 11 104 17 58 9 75 16 71 26 -6 15 -26 16 -93 3z"
       id="path132" />
    <path
       d="M8100 8131 c0 -14 6 -17 25 -13 14 2 25 11 25 18 0 8 -10 14 -25 14 -18 0 -25 -5 -25 -19z"
       id="path134" />
    <path
       d="M11185 8114 c-108 -21 -115 -23 -115 -39 0 -18 -11 -19 105 5 53 11 99 20 101 20 2 0 1 7 -2 15 -4 8 -9 15 -13 14 -3 0 -37 -7 -76 -15z"
       id="path136" />
    <path
       d="M7988 8113 c-20 -5 -23 -18 -8 -28 17 -11 49 5 43 21 -5 15 -6 15 -35 7z"
       id="path138" />
    <path
       d="M7863 8073 c-15 -5 -18 -33 -4 -33 21 0 41 13 41 26 0 14 -14 17 -37 7z"
       id="path140" />
    <path
       d="M10858 8051 c-92 -18 -108 -25 -92 -40 5 -5 48 -1 104 10 52 10 96 19 98 19 1 0 2 7 2 15 0 18 -2 18 -112 -4z"
       id="path142" />
    <path
       d="M7733 8032 c-7 -4 -9 -13 -5 -19 9 -15 54 -5 49 11 -5 14 -28 18 -44 8z"
       id="path144" />
    <path
       d="M10550 7992 c-67 -13 -85 -21 -88 -35 -3 -14 1 -18 15 -14 10 3 45 11 78 17 100 18 105 20 105 35 0 18 -1 18 -110 -3z"
       id="path146" />
    <path
       d="M1454 7982 c-73 -59 -81 -230 -14 -305 37 -41 95 -44 135 -7 35 33 59 119 51 183 -13 94 -54 147 -116 147 -19 0 -45 -8 -56 -18z m89 -10 c40 -43 47 -215 12 -282 -21 -41 -68 -43 -89 -2 -34 66 -28 241 11 284 21 23 45 23 66 0z"
       id="path148" />
    <path
       d="M1829 7971 c-16 -16 -29 -34 -29 -40 0 -5 11 1 25 14 37 38 89 32 106 -11 12 -34 -7 -70 -50 -91 l-36 -17 32 -6 c62 -10 94 -59 74 -113 -16 -43 -52 -54 -101 -32 -29 13 -44 15 -51 8 -29 -29 37 -50 99 -33 57 15 92 59 92 116 0 36 -5 50 -26 69 l-26 24 21 27 c27 35 27 59 -4 89 -35 36 -88 34 -126 -4z"
       id="path150" />
    <path
       d="M7618 7993 c-21 -5 -24 -33 -4 -33 27 0 45 12 39 26 -5 14 -6 15 -35 7z"
       id="path152" />
    <path
       d="M7498 7949 c-17 -9 -26 -39 -12 -39 16 0 44 23 44 35 0 17 -8 18 -32 4z"
       id="path154" />
    <path
       d="M10240 7931 c-67 -13 -85 -20 -88 -34 -3 -14 1 -18 15 -13 16 4 180 36 189 36 2 0 1 7 -2 15 -7 17 -3 18 -114 -4z"
       id="path156" />
    <path
       d="M7363 7902 c-7 -4 -9 -13 -5 -19 9 -15 54 -5 49 11 -5 14 -28 18 -44 8z"
       id="path158" />
    <path
       d="M9933 7871 c-84 -17 -99 -23 -89 -39 3 -6 30 -5 68 3 35 7 80 16 101 19 23 4 37 12 37 21 0 18 -11 17 -117 -4z"
       id="path160" />
    <path
       d="M7248 7863 c-20 -5 -23 -18 -8 -28 17 -11 49 5 43 21 -5 15 -6 15 -35 7z"
       id="path162" />
    <path
       d="M7132 7819 c-28 -10 -24 -36 4 -31 24 5 26 7 22 25 -2 11 -9 12 -26 6z"
       id="path164" />
    <path
       d="M9633 7799 c-86 -28 -106 -40 -85 -53 5 -3 48 8 98 23 60 19 90 33 92 44 4 21 6 21 -105 -14z"
       id="path166" />
    <path
       d="M7008 7773 c-10 -2 -18 -11 -18 -19 0 -22 44 -14 48 9 4 17 1 18 -30 10z"
       id="path168" />
    <path
       d="M9340 7708 c-52 -17 -97 -32 -99 -34 -3 -2 0 -9 6 -15 8 -8 36 -3 99 17 100 32 106 35 96 50 -5 8 -36 2 -102 -18z"
       id="path170" />
    <path
       d="M6885 7717 c-24 -18 -11 -41 16 -27 10 6 19 17 19 25 0 19 -11 19 -35 2z"
       id="path172" />
    <path
       d="M1687 7694 c-12 -12 -8 -42 6 -47 21 -8 39 8 35 29 -3 19 -29 30 -41 18z"
       id="path174" />
    <path
       d="M6760 7660 c-11 -6 -12 -12 -4 -20 13 -13 44 -2 44 16 0 16 -18 18 -40 4z"
       id="path176" />
    <path
       d="M9025 7613 c-92 -30 -92 -30 -78 -44 14 -14 205 40 200 56 -6 17 -40 14 -122 -12z"
       id="path178" />
    <path
       d="M6640 7610 c-11 -6 -12 -12 -4 -20 13 -13 44 -2 44 16 0 16 -18 18 -40 4z"
       id="path180" />
    <path
       d="M6528 7559 c-9 -5 -15 -16 -12 -24 4 -11 11 -11 29 -3 14 6 21 16 18 24 -6 16 -12 17 -35 3z"
       id="path182" />
    <path
       d="M8740 7524 c-102 -33 -100 -32 -94 -47 4 -12 24 -9 105 16 55 17 98 35 96 41 -6 18 -28 16 -107 -10z"
       id="path184" />
    <path
       d="M6408 7509 c-9 -5 -15 -16 -12 -24 4 -11 11 -11 29 -3 14 6 21 16 18 24 -6 16 -12 17 -35 3z"
       id="path186" />
    <path
       d="M6293 7457 c-15 -8 -19 -17 -14 -26 12 -18 52 3 45 24 -4 8 -7 15 -8 15 0 -1 -11 -6 -23 -13z"
       id="path188" />
    <path
       d="M6161 7396 c-8 -10 -9 -16 -1 -21 15 -9 52 5 47 18 -6 18 -32 20 -46 3z"
       id="path190" />
    <path
       d="M6062 7337 c-22 -10 -25 -28 -6 -34 16 -5 44 21 36 33 -5 8 -14 8 -30 1z"
       id="path192" />
    <path
       d="M5946 7265 c-14 -11 -17 -18 -9 -26 15 -15 54 6 47 26 -7 18 -14 18 -38 0z"
       id="path194" />
    <path
       d="M7885 7259 c-33 -10 -77 -24 -97 -29 -22 -6 -38 -17 -38 -25 0 -19 -1 -19 99 11 89 27 106 35 100 52 -3 6 -28 2 -64 -9z"
       id="path196" />
    <path
       d="M5836 7195 c-14 -11 -17 -18 -9 -26 14 -14 53 9 46 28 -6 16 -13 16 -37 -2z"
       id="path198" />
    <path
       d="M7553 7141 c-51 -20 -93 -41 -93 -48 0 -19 17 -16 105 18 89 34 97 40 87 55 -5 7 -38 -2 -99 -25z"
       id="path200" />
    <path
       d="M5724 7126 c-14 -11 -16 -18 -8 -26 15 -15 54 8 47 27 -7 17 -15 16 -39 -1z"
       id="path202" />
    <path
       d="M5615 7057 c-10 -8 -15 -19 -11 -25 10 -16 56 6 49 24 -6 17 -14 18 -38 1z"
       id="path204" />
    <path
       d="M7251 7024 c-97 -39 -92 -36 -83 -52 11 -16 201 58 195 76 -6 17 -16 15 -112 -24z"
       id="path206" />
    <path
       d="M5500 6985 c-6 -8 -9 -19 -5 -25 9 -14 45 6 45 25 0 19 -24 19 -40 0z"
       id="path208" />
    <path
       d="M1184 6962 c-73 -59 -81 -230 -14 -305 37 -41 95 -44 135 -7 35 33 59 119 51 183 -13 94 -54 147 -116 147 -19 0 -45 -8 -56 -18z m89 -10 c40 -43 47 -215 12 -282 -21 -41 -68 -43 -89 -2 -34 66 -28 241 11 284 21 23 45 23 66 0z"
       id="path210" />
    <path
       d="M1564 6946 c-19 -19 -34 -42 -34 -52 0 -15 6 -12 26 14 48 60 129 33 127 -43 -1 -45 -39 -108 -102 -170 -28 -27 -51 -53 -51 -57 0 -4 44 -8 98 -8 96 0 99 1 110 25 15 32 15 57 1 33 -8 -15 -24 -18 -87 -18 l-76 0 51 53 c108 111 129 173 74 228 -42 42 -92 40 -137 -5z"
       id="path212" />
    <path
       d="M1917 6973 l-57 -4 -25 -49 c-34 -67 -32 -76 15 -84 23 -3 54 -18 71 -34 26 -24 32 -36 32 -72 0 -35 -6 -48 -27 -67 -32 -27 -45 -28 -72 -8 -25 19 -64 19 -64 0 0 -36 64 -44 127 -16 49 23 73 62 73 120 0 52 -46 107 -96 117 -39 7 -47 15 -38 38 5 12 20 16 58 16 29 0 57 5 64 12 13 13 16 39 5 36 -5 -1 -34 -3 -66 -5z"
       id="path214" />
    <path
       d="M6963 6912 c-67 -27 -90 -41 -84 -50 11 -19 202 54 194 74 -7 18 -3 19 -110 -24z"
       id="path216" />
    <path
       d="M5390 6915 c-6 -8 -9 -19 -5 -24 8 -13 45 9 45 26 0 18 -25 16 -40 -2z"
       id="path218" />
    <path
       d="M5287 6856 c-18 -14 -23 -36 -8 -36 20 0 41 13 41 25 0 21 -13 25 -33 11z"
       id="path220" />
    <path
       d="M6699 6810 c-113 -46 -119 -49 -113 -63 4 -11 24 -7 99 22 52 20 95 42 95 49 0 17 -27 14 -81 -8z"
       id="path222" />
    <path
       d="M5177 6786 c-18 -14 -23 -36 -8 -36 20 0 41 13 41 25 0 21 -13 25 -33 11z"
       id="path224" />
    <path
       d="M5064 6716 c-15 -12 -17 -17 -6 -27 10 -11 15 -10 29 4 24 23 4 43 -23 23z"
       id="path226" />
    <path
       d="M6380 6686 c-50 -20 -85 -39 -85 -47 0 -17 10 -15 113 23 46 18 82 37 82 45 0 19 -14 16 -110 -21z"
       id="path228" />
    <path
       d="M1427 6674 c-12 -12 -8 -42 6 -47 21 -8 39 8 35 29 -3 19 -29 30 -41 18z"
       id="path230" />
    <path
       d="M4968 6639 c-21 -12 -24 -39 -4 -39 7 0 19 7 26 15 17 21 1 37 -22 24z"
       id="path232" />
    <path
       d="M6095 6563 c-95 -54 -91 -51 -78 -64 12 -12 185 79 180 95 -6 19 -22 14 -102 -31z"
       id="path234" />
    <path
       d="M4862 6551 c-20 -15 -21 -19 -9 -29 11 -9 17 -8 30 6 24 26 7 45 -21 23z"
       id="path236" />
    <path
       d="M4760 6465 c-18 -22 0 -37 24 -20 10 8 15 18 11 24 -9 15 -20 14 -35 -4z"
       id="path238" />
    <path
       d="M5818 6412 c-64 -35 -85 -51 -78 -61 11 -18 191 76 183 96 -7 18 -8 18 -105 -35z"
       id="path240" />
    <path
       d="M4662 6388 c-16 -16 -15 -38 2 -38 18 0 39 27 31 40 -8 13 -18 13 -33 -2z"
       id="path242" />
    <path
       d="M4562 6301 c-20 -15 -21 -19 -9 -29 11 -9 17 -8 30 6 24 26 7 45 -21 23z"
       id="path244" />
    <path
       d="M5550 6264 c-101 -55 -96 -52 -83 -65 14 -14 183 76 183 97 0 20 -6 18 -100 -32z"
       id="path246" />
    <path
       d="M4460 6215 c-18 -22 0 -37 24 -20 10 8 15 18 11 24 -9 15 -20 14 -35 -4z"
       id="path248" />
    <path
       d="M5273 6113 c-46 -25 -83 -51 -83 -60 0 -19 11 -16 108 37 74 40 93 59 66 66 -5 2 -46 -18 -91 -43z"
       id="path250" />
    <path
       d="M4355 6130 c-17 -18 -17 -20 -1 -26 20 -8 52 19 42 35 -10 16 -21 14 -41 -9z"
       id="path252" />
    <path
       d="M4266 6041 c-12 -14 -14 -21 -6 -26 17 -10 47 22 34 35 -7 7 -16 4 -28 -9z"
       id="path254" />
    <path
       d="M5055 5992 c-55 -34 -129 -108 -121 -121 6 -8 23 1 59 32 29 24 64 52 80 62 15 9 27 24 27 31 0 19 -9 18 -45 -4z"
       id="path256" />
    <path
       d="M4176 5951 c-14 -15 -14 -20 -3 -30 11 -8 18 -7 31 8 14 15 14 20 3 30 -11 8 -18 7 -31 -8z"
       id="path258" />
    <path
       d="M1454 5932 c-73 -59 -81 -230 -14 -305 37 -41 95 -44 135 -7 35 33 59 119 51 183 -13 94 -54 147 -116 147 -19 0 -45 -8 -56 -18z m89 -10 c40 -43 47 -215 12 -282 -21 -41 -68 -43 -89 -2 -34 66 -28 241 11 284 21 23 45 23 66 0z"
       id="path260" />
    <path
       d="M1824 5916 c-19 -19 -34 -42 -34 -52 0 -15 6 -12 26 14 48 60 129 33 127 -43 -1 -45 -39 -108 -102 -170 -28 -27 -51 -53 -51 -57 0 -4 44 -8 98 -8 96 0 99 1 110 25 15 32 15 57 1 33 -8 -15 -24 -18 -87 -18 l-76 0 51 53 c108 111 129 173 74 228 -42 42 -92 40 -137 -5z"
       id="path262" />
    <path
       d="M4086 5851 c-12 -13 -14 -21 -6 -26 13 -8 52 24 44 36 -8 14 -19 11 -38 -10z"
       id="path264" />
    <path
       d="M4767 5754 c-75 -63 -86 -77 -69 -88 9 -5 162 121 162 134 0 24 -23 13 -93 -46z"
       id="path266" />
    <path
       d="M3996 5761 c-14 -15 -14 -20 -3 -30 11 -8 18 -7 31 8 14 15 14 20 3 30 -11 8 -18 7 -31 -8z"
       id="path268" />
    <path
       d="M3906 5661 c-12 -13 -14 -21 -6 -26 13 -8 52 24 44 36 -8 14 -19 11 -38 -10z"
       id="path270" />
    <path
       d="M1687 5644 c-12 -12 -8 -42 6 -47 21 -8 39 8 35 29 -3 19 -29 30 -41 18z"
       id="path272" />
    <path
       d="M4530 5554 c-71 -60 -87 -81 -66 -86 14 -4 155 114 155 129 2 27 -18 18 -89 -43z"
       id="path274" />
    <path
       d="M3816 5571 c-12 -14 -14 -21 -6 -26 17 -10 47 22 34 35 -7 7 -16 4 -28 -9z"
       id="path276" />
    <path
       d="M3727 5482 c-21 -23 -21 -28 -3 -35 8 -3 21 2 30 12 14 15 14 20 3 30 -11 8 -18 7 -30 -7z"
       id="path278" />
    <path
       d="M4335 5392 c-17 -15 -53 -46 -80 -69 -37 -32 -47 -45 -38 -54 9 -9 29 4 85 52 40 34 74 68 76 75 6 24 -14 22 -43 -4z"
       id="path280" />
    <path
       d="M3635 5380 c-24 -26 1 -38 27 -13 16 17 17 21 5 26 -8 3 -23 -3 -32 -13z"
       id="path282" />
    <path
       d="M3546 5291 c-14 -15 -14 -20 -3 -30 11 -8 18 -7 31 8 14 15 14 20 3 30 -11 8 -18 7 -31 -8z"
       id="path284" />
    <path
       d="M3456 5191 c-12 -13 -14 -21 -6 -26 13 -8 52 24 44 36 -8 14 -19 11 -38 -10z"
       id="path286" />
    <path
       d="M4085 5182 c-17 -15 -50 -44 -75 -65 -32 -27 -41 -40 -33 -48 8 -8 32 6 87 52 71 60 93 89 64 89 -7 0 -27 -13 -43 -28z"
       id="path288" />
    <path
       d="M3380 5089 c-16 -29 -2 -44 21 -23 23 21 24 30 4 38 -9 3 -19 -3 -25 -15z"
       id="path290" />
    <path
       d="M3808 4948 c-40 -34 -75 -63 -77 -65 -3 -2 0 -8 6 -14 9 -9 32 5 87 51 69 56 93 90 66 90 -5 0 -42 -28 -82 -62z"
       id="path292" />
    <path
       d="M3300 4981 c-7 -14 -7 -22 1 -27 14 -8 43 21 35 35 -11 17 -24 13 -36 -8z"
       id="path294" />
    <path
       d="M1184 4912 c-73 -59 -81 -230 -14 -305 37 -41 95 -44 135 -7 35 33 59 119 51 183 -13 94 -54 147 -116 147 -19 0 -45 -8 -56 -18z m89 -10 c40 -43 47 -215 12 -282 -21 -41 -68 -43 -89 -2 -34 66 -28 241 11 284 21 23 45 23 66 0z"
       id="path296" />
    <path
       d="M1610 4905 c-35 -19 -40 -24 -20 -22 l25 2 0 -145 0 -144 -25 -7 c-15 -4 4 -7 50 -7 54 -1 69 2 53 8 -23 9 -23 13 -23 175 0 91 -3 165 -7 165 -5 -1 -28 -12 -53 -25z"
       id="path298" />
    <path
       d="M1917 4923 l-57 -4 -25 -49 c-34 -67 -32 -76 15 -84 23 -3 54 -18 71 -34 26 -24 32 -36 32 -72 0 -35 -6 -48 -27 -67 -32 -27 -45 -28 -72 -8 -25 19 -64 19 -64 0 0 -36 64 -44 127 -16 49 23 73 62 73 120 0 52 -46 107 -96 117 -39 7 -47 15 -38 38 5 12 20 16 58 16 29 0 57 5 64 12 13 13 16 39 5 36 -5 -1 -34 -3 -66 -5z"
       id="path300" />
    <path
       d="M3226 4878 c-12 -17 -13 -24 -4 -29 14 -9 38 8 38 27 0 23 -18 25 -34 2z"
       id="path302" />
    <path
       d="M3566 4744 c-53 -46 -74 -70 -67 -77 11 -11 14 -10 104 67 51 44 72 76 49 76 -5 0 -43 -30 -86 -66z"
       id="path304" />
    <path
       d="M3152 4778 c-17 -17 -15 -38 3 -38 16 0 38 34 28 44 -9 9 -18 7 -31 -6z"
       id="path306" />
    <path
       d="M3076 4671 c-10 -11 -15 -25 -11 -30 10 -17 23 -13 36 10 16 30 -3 45 -25 20z"
       id="path308" />
    <path
       d="M1427 4624 c-12 -12 -8 -42 6 -47 21 -8 39 8 35 29 -3 19 -29 30 -41 18z"
       id="path310" />
    <path
       d="M2996 4561 c-14 -15 -14 -20 -3 -30 12 -9 18 -6 30 13 24 36 3 50 -27 17z"
       id="path312" />
    <path
       d="M2921 4458 c-18 -29 3 -49 24 -22 18 24 18 31 2 37 -7 3 -19 -4 -26 -15z"
       id="path314" />
    <path
       d="M2843 4351 c-9 -15 -9 -22 0 -30 9 -7 16 -4 25 10 12 19 9 39 -6 39 -4 0 -13 -9 -19 -19z"
       id="path316" />
    <path
       d="M2767 4246 c-13 -20 -14 -25 -3 -29 8 -3 21 2 30 12 14 15 14 20 3 30 -12 9 -18 6 -30 -13z"
       id="path318" />
    <path
       d="M2690 4140 c-6 -12 -9 -25 -5 -28 9 -9 40 13 40 28 0 23 -23 22 -35 0z"
       id="path320" />
    <path
       d="M2610 4031 c-7 -14 -7 -22 0 -26 13 -8 40 13 40 31 0 21 -28 17 -40 -5z"
       id="path322" />
    <path
       d="M2540 3935 c-14 -17 -5 -50 10 -40 5 3 14 14 20 25 12 23 -13 36 -30 15z"
       id="path324" />
    <path
       d="M1454 3882 c-73 -59 -81 -230 -14 -305 37 -41 95 -44 135 -7 35 33 59 119 51 183 -13 94 -54 147 -116 147 -19 0 -45 -8 -56 -18z m89 -10 c40 -43 47 -215 12 -282 -21 -41 -68 -43 -89 -2 -34 66 -28 241 11 284 21 23 45 23 66 0z"
       id="path326" />
    <path
       d="M1870 3875 c-35 -19 -40 -24 -20 -22 l25 2 0 -145 0 -144 -25 -7 c-15 -4 4 -7 50 -7 54 -1 69 2 53 8 -23 9 -23 13 -23 175 0 91 -3 165 -7 165 -5 -1 -28 -12 -53 -25z"
       id="path328" />
    <path
       d="M2460 3825 c-10 -13 -11 -18 -1 -28 10 -9 15 -8 26 7 23 31 -1 50 -25 21z"
       id="path330" />
    <path
       d="M1687 3594 c-12 -12 -8 -42 6 -47 21 -8 39 8 35 29 -3 19 -29 30 -41 18z"
       id="path332" />
    <path
       d="M1184 2852 c-73 -59 -81 -230 -14 -305 37 -41 95 -44 135 -7 35 33 59 119 51 183 -13 94 -54 147 -116 147 -19 0 -45 -8 -56 -18z m89 -10 c40 -43 47 -215 12 -282 -21 -41 -68 -43 -89 -2 -34 66 -28 241 11 284 21 23 45 23 66 0z"
       id="path334" />
    <path
       d="M1584 2852 c-73 -59 -81 -230 -14 -305 37 -41 95 -44 135 -7 35 33 59 119 51 183 -13 94 -54 147 -116 147 -19 0 -45 -8 -56 -18z m89 -10 c40 -43 47 -215 12 -282 -21 -41 -68 -43 -89 -2 -34 66 -28 241 11 284 21 23 45 23 66 0z"
       id="path336" />
    <path
       d="M1917 2863 l-57 -4 -25 -49 c-34 -67 -32 -76 15 -84 23 -3 54 -18 71 -34 26 -24 32 -36 32 -72 0 -35 -6 -48 -27 -67 -32 -27 -45 -28 -72 -8 -25 19 -64 19 -64 0 0 -36 64 -44 127 -16 49 23 73 62 73 120 0 52 -46 107 -96 117 -39 7 -47 15 -38 38 5 12 20 16 58 16 29 0 57 5 64 12 13 13 16 39 5 36 -5 -1 -34 -3 -66 -5z"
       id="path338" />
    <path
       d="M1427 2564 c-12 -12 -8 -42 6 -47 21 -8 39 8 35 29 -3 19 -29 30 -41 18z"
       id="path340" />
    <path
       d="M1844 1832 c-73 -59 -81 -230 -14 -305 37 -41 95 -44 135 -7 35 33 59 119 51 183 -13 94 -54 147 -116 147 -19 0 -45 -8 -56 -18z m89 -10 c40 -43 47 -215 12 -282 -21 -41 -68 -43 -89 -2 -34 66 -28 241 11 284 21 23 45 23 66 0z"
       id="path342" />
    <path
       d="M7808 1326 c-26 -7 -63 -25 -83 -41 -109 -83 -96 -289 20 -311 38 -7 86 14 109 48 30 43 17 134 -23 165 -20 16 -76 16 -103 2 -18 -10 -20 -9 -15 6 4 9 7 20 7 25 0 20 58 75 97 92 24 10 43 21 43 23 0 3 -1 5 -2 4 -2 0 -24 -6 -50 -13z m-9 -165 c26 -26 34 -81 19 -127 -11 -33 -18 -39 -44 -42 -45 -4 -67 26 -72 100 -4 51 -2 64 14 75 25 18 61 16 83 -6z"
       id="path344" />
    <path
       d="M2110 1305 c-35 -19 -40 -24 -20 -22 l25 2 0 -145 0 -144 -25 -7 c-15 -4 4 -7 50 -7 54 -1 69 2 53 8 -23 9 -23 13 -23 175 0 91 -3 165 -7 165 -5 -1 -28 -12 -53 -25z"
       id="path346" />
    <path
       d="M2547 1323 l-57 -4 -25 -49 c-34 -67 -32 -76 15 -84 23 -3 54 -18 71 -34 26 -24 32 -36 32 -72 0 -35 -6 -48 -27 -67 -32 -27 -45 -28 -72 -8 -25 19 -64 19 -64 0 0 -36 64 -44 127 -16 49 23 73 62 73 120 0 52 -46 107 -96 117 -39 7 -47 15 -38 38 5 12 20 16 58 16 29 0 57 5 64 12 13 13 16 39 5 36 -5 -1 -34 -3 -66 -5z"
       id="path348" />
    <path
       d="M3384 1296 c-19 -19 -34 -42 -34 -52 0 -15 6 -12 26 14 48 60 129 33 127 -43 -1 -45 -39 -108 -102 -170 -28 -27 -51 -53 -51 -57 0 -4 44 -8 98 -8 96 0 99 1 110 25 15 32 15 57 1 33 -8 -15 -24 -18 -87 -18 l-76 0 51 53 c108 111 129 173 74 228 -42 42 -92 40 -137 -5z"
       id="path350" />
    <path
       d="M4979 1301 c-16 -16 -29 -34 -29 -40 0 -5 11 1 25 14 37 38 89 32 106 -11 12 -34 -7 -70 -50 -91 l-36 -17 32 -6 c62 -10 94 -59 74 -113 -16 -43 -52 -54 -101 -32 -29 13 -44 15 -51 8 -29 -29 37 -50 99 -33 57 15 92 59 92 116 0 36 -5 50 -26 69 l-26 24 21 27 c27 35 27 59 -4 89 -35 36 -88 34 -126 -4z"
       id="path352" />
    <path
       d="M6141 1222 c-41 -59 -77 -117 -79 -129 -4 -22 -2 -23 67 -23 l71 0 0 -45 c0 -38 3 -45 20 -45 17 0 20 7 20 45 0 43 1 45 30 45 20 0 30 5 30 15 0 10 -10 15 -30 15 l-30 0 0 115 c0 86 -3 115 -12 114 -7 0 -46 -48 -87 -107z m56 -119 c-3 -2 -30 -3 -61 -1 l-56 3 58 82 57 82 3 -81 c2 -44 1 -82 -1 -85z"
       id="path354" />
    <path
       d="M7067 1323 l-57 -4 -25 -49 c-34 -67 -32 -76 15 -84 23 -3 54 -18 71 -34 26 -24 32 -36 32 -72 0 -35 -6 -48 -27 -67 -32 -27 -45 -28 -72 -8 -25 19 -64 19 -64 0 0 -36 64 -44 127 -16 49 23 73 62 73 120 0 52 -46 107 -96 117 -39 7 -47 15 -38 38 5 12 20 16 58 16 29 0 57 5 64 12 13 13 16 39 5 36 -5 -1 -34 -3 -66 -5z"
       id="path356" />
    <path
       d="M8819 1301 c-40 -40 -36 -73 13 -127 19 -21 19 -22 -11 -52 -38 -38 -41 -80 -7 -119 21 -24 31 -28 77 -27 44 0 56 5 76 28 37 44 28 98 -25 143 l-26 22 32 29 c39 37 42 73 7 107 -36 37 -97 35 -136 -4z m99 3 c30 -21 30 -73 -2 -103 l-23 -22 -32 36 c-36 42 -38 58 -11 85 24 24 38 25 68 4z m-4 -198 c56 -52 43 -116 -24 -116 -35 0 -60 31 -60 75 0 31 24 75 40 75 5 0 25 -15 44 -34z"
       id="path358" />
    <path
       d="M9600 1305 c-35 -19 -40 -24 -20 -22 l25 2 0 -145 0 -144 -25 -7 c-15 -4 4 -7 50 -7 54 -1 69 2 53 8 -23 9 -23 13 -23 175 0 91 -3 165 -7 165 -5 -1 -28 -12 -53 -25z"
       id="path360" />
    <path
       d="M9834 1312 c-73 -59 -81 -230 -14 -305 37 -41 95 -44 135 -7 35 33 59 119 51 183 -13 94 -54 147 -116 147 -19 0 -45 -8 -56 -18z m89 -10 c40 -43 47 -215 12 -282 -21 -41 -68 -43 -89 -2 -34 66 -28 241 11 284 21 23 45 23 66 0z"
       id="path362" />
    <path
       d="M11180 1305 c-35 -19 -40 -24 -20 -22 l25 2 0 -145 0 -144 -25 -7 c-15 -4 4 -7 50 -7 54 -1 69 2 53 8 -23 9 -23 13 -23 175 0 91 -3 165 -7 165 -5 -1 -28 -12 -53 -25z"
       id="path364" />
    <path
       d="M11487 1323 l-57 -4 -25 -49 c-34 -67 -32 -76 15 -84 23 -3 54 -18 71 -34 26 -24 32 -36 32 -72 0 -35 -6 -48 -27 -67 -32 -27 -45 -28 -72 -8 -25 19 -64 19 -64 0 0 -36 64 -44 127 -16 49 23 73 62 73 120 0 52 -46 107 -96 117 -39 7 -47 15 -38 38 5 12 20 16 58 16 29 0 57 5 64 12 13 13 16 39 5 36 -5 -1 -34 -3 -66 -5z"
       id="path366" />
    <path
       d="M12264 1296 c-19 -19 -34 -42 -34 -52 0 -15 6 -12 26 14 48 60 129 33 127 -43 -1 -45 -39 -108 -102 -170 -28 -27 -51 -53 -51 -57 0 -4 44 -8 98 -8 96 0 99 1 110 25 15 32 15 57 1 33 -8 -15 -24 -18 -87 -18 l-76 0 51 53 c108 111 129 173 74 228 -42 42 -92 40 -137 -5z"
       id="path368" />
    <path
       d="M12544 1312 c-73 -59 -81 -230 -14 -305 37 -41 95 -44 135 -7 35 33 59 119 51 183 -13 94 -54 147 -116 147 -19 0 -45 -8 -56 -18z m89 -10 c40 -43 47 -215 12 -282 -21 -41 -68 -43 -89 -2 -34 66 -28 241 11 284 21 23 45 23 66 0z"
       id="path370" />
    <path
       d="M13859 1301 c-16 -16 -29 -34 -29 -40 0 -5 11 1 25 14 37 38 89 32 106 -11 12 -34 -7 -70 -50 -91 l-36 -17 32 -6 c62 -10 94 -59 74 -113 -16 -43 -52 -54 -101 -32 -29 13 -44 15 -51 8 -29 -29 37 -50 99 -33 57 15 92 59 92 116 0 36 -5 50 -26 69 l-26 24 21 27 c27 35 27 59 -4 89 -35 36 -88 34 -126 -4z"
       id="path372" />
    <path
       d="M14134 1312 c-73 -59 -81 -230 -14 -305 37 -41 95 -44 135 -7 35 33 59 119 51 183 -13 94 -54 147 -116 147 -19 0 -45 -8 -56 -18z m89 -10 c40 -43 47 -215 12 -282 -21 -41 -68 -43 -89 -2 -34 66 -28 241 11 284 21 23 45 23 66 0z"
       id="path374" />
    <path
       d="M8256 1288 c-15 -39 -12 -50 8 -23 11 15 30 20 85 23 39 2 71 0 71 -5 0 -5 -22 -75 -49 -156 -43 -128 -47 -147 -32 -147 14 0 28 34 69 164 29 90 52 167 52 170 0 3 -43 6 -95 6 l-95 0 -14 -32z"
       id="path376" />
    <path
       d="M2317 1024 c-12 -12 -8 -42 6 -47 21 -8 39 8 35 29 -3 19 -29 30 -41 18z"
       id="path378" />
    <path
       d="M8197 377 c-31 -95 -57 -176 -57 -180 0 -4 6 -7 14 -7 10 0 34 60 74 180 51 152 58 180 44 180 -14 0 -31 -40 -75 -173z"
       id="path382" />
    <flowRoot
       xml:space="preserve"
       id="flowRoot3365"
       style="fill:black;stroke:none;stroke-opacity:1;stroke-width:1px;stroke-linejoin:miter;stroke-linecap:butt;fill-opacity:1;font-family:Sans;font-style:normal;font-weight:normal;font-size:40px;line-height:125%;letter-spacing:0px;word-spacing:0px"><flowRegion
         id="flowRegion3367"><rect
           id="rect3369"
           width="96.318497"
           height="86.686646"
           x="889.34076"
           y="853.38184" /></flowRegion><flowPara
         id="flowPara3371"></flowPara></flowRoot>    <flowRoot
       xml:space="preserve"
       id="flowRoot3373"
       style="font-size:64px;font-style:italic;font-variant:normal;font-weight:normal;font-stretch:normal;text-align:start;line-height:125%;letter-spacing:0px;word-spacing:0px;writing-mode:lr-tb;text-anchor:start;fill:#000000;fill-opacity:1;stroke:none;font-family:Times New Roman;-inkscape-font-specification:'Times New Roman, Italic'"
       transform="matrix(8,0,0,-8,1936,6036)"><flowRegion
         id="flowRegion3375"><rect
           id="rect3377"
           width="410.95889"
           height="240.79623"
           x="738.44177"
           y="660.74487"
           style="font-size:64px;font-style:italic;font-variant:normal;font-weight:normal;font-stretch:normal;text-align:start;line-height:125%;writing-mode:lr-tb;text-anchor:start;font-family:Times New Roman;-inkscape-font-specification:'Times New Roman, Italic'" /></flowRegion><flowPara
         id="flowPara3379">b</flowPara></flowRoot>    <flowRoot
       xml:space="preserve"
       id="flowRoot3381"
       style="fill:black;stroke:none;stroke-opacity:1;stroke-width:1px;stroke-linejoin:miter;stroke-linecap:butt;fill-opacity:1;font-family:Sans;font-style:normal;font-weight:normal;font-size:56px;line-height:125%;letter-spacing:0px;word-spacing:0px;-inkscape-font-specification:Sans;font-stretch:normal;font-variant:normal;text-anchor:start;text-align:start;writing-mode:lr"><flowRegion
         id="flowRegion3383"><rect
           id="rect3385"
           width="128.42465"
           height="73.844177"
           x="696.7038"
           y="667.16608"
           style="-inkscape-font-specification:Sans;font-family:Sans;font-weight:normal;font-style:normal;font-stretch:normal;font-variant:normal;font-size:56px;text-anchor:start;text-align:start;writing-mode:lr;line-height:125%" /></flowRegion><flowPara
         id="flowPara3387"></flowPara></flowRoot>    <flowRoot
       xml:space="preserve"
       id="flowRoot3373-7"
       style="font-size:64px;font-style:italic;font-variant:normal;font-weight:normal;font-stretch:normal;text-align:start;line-height:125%;letter-spacing:0px;word-spacing:0px;writing-mode:lr-tb;text-anchor:start;fill:#000000;fill-opacity:1;stroke:none;font-family:Times New Roman;-inkscape-font-specification:'Times New Roman, Italic'"
       transform="matrix(8,0,0,-8,2383.274,6020.6178)"><flowRegion
         id="flowRegion3375-9"><rect
           id="rect3377-6"
           width="410.95889"
           height="240.79623"
           x="738.44177"
           y="660.74487"
           style="font-size:64px;font-style:italic;font-variant:normal;font-weight:normal;font-stretch:normal;text-align:start;line-height:125%;writing-mode:lr-tb;text-anchor:start;font-family:Times New Roman;-inkscape-font-specification:'Times New Roman, Italic'" /></flowRegion><flowPara
         id="flowPara3416">a</flowPara></flowRoot>    <flowRoot
       xml:space="preserve"
       id="flowRoot3418"
       style="font-size:72px;font-style:normal;font-variant:normal;font-weight:normal;font-stretch:normal;text-align:start;line-height:125%;letter-spacing:0px;word-spacing:0px;writing-mode:lr-tb;text-anchor:start;fill:#000000;fill-opacity:1;stroke:none;font-family:Times New Roman;-inkscape-font-specification:'Times New Roman,'"
       transform="matrix(8,0,0,-8,-3856,7380)"><flowRegion
         id="flowRegion3420"><rect
           id="rect3422"
           width="812.74902"
           height="438.15799"
           x="556.21094"
           y="88.835976"
           style="font-size:72px;font-style:normal;font-variant:normal;font-weight:normal;font-stretch:normal;text-align:start;line-height:125%;writing-mode:lr-tb;text-anchor:start;font-family:Times New Roman;-inkscape-font-specification:'Times New Roman,'" /></flowRegion><flowPara
         id="flowPara3424">ω</flowPara></flowRoot>    <flowRoot
       xml:space="preserve"
       id="flowRoot3426"
       style="font-size:72px;font-style:normal;font-variant:normal;font-weight:normal;font-stretch:normal;text-align:start;line-height:125%;letter-spacing:0px;word-spacing:0px;writing-mode:lr-tb;text-anchor:start;fill:#000000;fill-opacity:1;stroke:none;font-family:Times New Roman;-inkscape-font-specification:'Times New Roman,'"
       transform="matrix(8,0,0,-8,-7312,7428)"><flowRegion
         id="flowRegion3428"><rect
           id="rect3430"
           width="658.37213"
           height="413.18524"
           x="960.31519"
           y="97.916969"
           style="font-size:72px;font-style:normal;font-variant:normal;font-weight:normal;font-stretch:normal;text-align:start;line-height:125%;writing-mode:lr-tb;text-anchor:start;font-family:Times New Roman;-inkscape-font-specification:'Times New Roman,'" /></flowRegion><flowPara
         id="flowPara3432">-</flowPara></flowRoot>  </g>
</svg>
