<?xml version="1.0" encoding="UTF-8" standalone="no"?>
<svg
   xmlns:dc="http://purl.org/dc/elements/1.1/"
   xmlns:cc="http://creativecommons.org/ns#"
   xmlns:rdf="http://www.w3.org/1999/02/22-rdf-syntax-ns#"
   xmlns:svg="http://www.w3.org/2000/svg"
   xmlns="http://www.w3.org/2000/svg"
   xmlns:sodipodi="http://sodipodi.sourceforge.net/DTD/sodipodi-0.dtd"
   xmlns:inkscape="http://www.inkscape.org/namespaces/inkscape"
   version="1.0"
   width="1500.000000pt"
   height="1050.000000pt"
   viewBox="0 0 1500.000000 1050.000000"
   preserveAspectRatio="xMidYMid meet"
   id="svg2"
   inkscape:version="0.48.4 r9939"
   sodipodi:docname="mod12.svg">
  <defs
     id="defs364" />
  <sodipodi:namedview
     pagecolor="#ffffff"
     bordercolor="#666666"
     borderopacity="1"
     objecttolerance="10"
     gridtolerance="10"
     guidetolerance="10"
     inkscape:pageopacity="0"
     inkscape:pageshadow="2"
     inkscape:window-width="1215"
     inkscape:window-height="1000"
     id="namedview362"
     showgrid="false"
     inkscape:zoom="0.44048038"
     inkscape:cx="1022.4173"
     inkscape:cy="732.10965"
     inkscape:window-x="1985"
     inkscape:window-y="24"
     inkscape:window-maximized="1"
     inkscape:current-layer="g6" />
  <metadata
     id="metadata4">
Created by potrace 1.11, written by Peter Selinger 2001-2013
<rdf:RDF>
  <cc:Work
     rdf:about="">
    <dc:format>image/svg+xml</dc:format>
    <dc:type
       rdf:resource="http://purl.org/dc/dcmitype/StillImage" />
  </cc:Work>
</rdf:RDF>
</metadata>
  <g
     transform="translate(0.000000,1050.000000) scale(0.100000,-0.100000)"
     fill="#000000"
     stroke="none"
     id="g6">
    <path
       d="M1134 10032 c-73 -59 -81 -230 -14 -305 37 -41 95 -44 135 -7 35 33 59 119 51 183 -13 94 -54 147 -116 147 -19 0 -45 -8 -56 -18z m89 -10 c40 -43 47 -215 12 -282 -21 -41 -68 -43 -89 -2 -34 66 -28 241 11 284 21 23 45 23 66 0z"
       id="path8" />
    <path
       d="M1597 10043 l-57 -4 -25 -49 c-34 -67 -32 -76 15 -84 23 -3 54 -18 71 -34 26 -24 32 -36 32 -72 0 -35 -6 -48 -27 -67 -32 -27 -45 -28 -72 -8 -25 19 -64 19 -64 0 0 -36 64 -44 127 -16 49 23 73 62 73 120 0 52 -46 107 -96 117 -39 7 -47 15 -38 38 5 12 20 16 58 16 29 0 57 5 64 12 13 13 16 39 5 36 -5 -1 -34 -3 -66 -5z"
       id="path10" />
    <path
       d="M2026 9874 c-3 -9 -6 -1863 -6 -4120 l0 -4104 6016 0 c5200 0 6017 2 6030 14 22 23 18 66 -6 66 -15 0 -20 -7 -20 -25 l0 -25 -795 0 -795 0 0 25 c0 16 -6 25 -15 25 -9 0 -15 -9 -15 -25 l0 -25 -565 0 -565 0 0 25 c0 16 -6 25 -15 25 -9 0 -15 -9 -15 -25 l0 -25 -800 0 -800 0 0 25 c0 16 -6 25 -15 25 -9 0 -15 -9 -15 -25 l0 -25 -430 0 -430 0 0 25 c0 16 -6 25 -15 25 -9 0 -15 -9 -15 -25 l0 -25 -255 0 -255 0 0 25 c0 16 -6 25 -15 25 -9 0 -15 -9 -15 -25 l0 -25 -295 0 -295 0 0 25 c0 16 -6 25 -15 25 -9 0 -15 -9 -15 -25 l0 -25 -350 0 -350 0 0 25 c0 16 -6 25 -15 25 -9 0 -15 -9 -15 -25 l0 -25 -430 0 -430 0 0 25 c0 18 -5 25 -20 25 -15 0 -20 -7 -20 -25 l0 -25 -560 0 -560 0 0 25 c0 16 -6 25 -15 25 -9 0 -15 -9 -15 -25 l0 -25 -800 0 -800 0 0 25 c0 16 -6 25 -15 25 -9 0 -15 -9 -15 -25 l0 -25 -560 0 -560 0 1 548 0 547 582 527 c320 290 640 573 712 630 71 57 145 118 165 135 19 18 39 33 44 33 15 0 175 123 170 131 -7 12 69 70 84 64 7 -3 49 22 93 56 60 46 77 64 70 73 -8 10 0 21 30 45 35 29 42 31 52 17 10 -13 22 -7 92 45 84 63 93 73 76 84 -9 5 -38 -14 -148 -98 -7 -5 -13 -7 -13 -4 0 3 172 133 383 290 358 267 419 307 957 642 l575 358 435 205 c280 131 510 232 647 283 117 43 217 79 222 79 5 0 11 -6 14 -12 3 -9 29 -1 87 27 46 22 89 46 97 54 8 7 46 24 86 38 141 48 1199 296 1637 384 l445 90 830 84 830 85 1378 0 c1217 0 1377 2 1377 15 0 13 -160 15 -1382 15 l-1383 0 -830 -84 -830 -85 -470 -95 c-258 -53 -645 -138 -860 -190 -214 -52 -391 -94 -392 -92 -2 2 30 15 72 31 44 16 75 33 75 41 0 19 -2 19 -105 -20 -65 -24 -90 -38 -89 -50 2 -19 -66 -41 -100 -32 -23 6 -33 2 -581 -202 -293 -109 -423 -165 -795 -339 l-445 -210 -572 -356 c-532 -331 -597 -375 -945 -635 -206 -153 -484 -369 -619 -478 -134 -110 -300 -245 -369 -299 -69 -54 -147 -118 -174 -142 -26 -24 -52 -43 -58 -43 -5 0 -30 -22 -56 -50 -26 -27 -283 -264 -572 -526 l-525 -476 -3 87 c-2 57 1 92 9 101 9 11 9 18 1 26 -8 8 -12 55 -12 135 l0 123 25 0 c16 0 25 6 25 15 0 9 -9 15 -25 15 l-25 0 0 805 0 805 25 0 c16 0 25 6 25 15 0 9 -9 15 -25 15 l-25 0 0 810 0 810 25 0 c16 0 25 6 25 15 0 9 -9 15 -25 15 l-25 0 0 805 0 805 25 0 c16 0 25 6 25 15 0 9 -9 15 -25 15 l-25 0 0 805 0 805 25 0 c16 0 25 6 25 15 0 21 -66 21 -74 -1z"
       id="path12" />
    <path
       d="M1367 9744 c-12 -12 -8 -42 6 -47 21 -8 39 8 35 29 -3 19 -29 30 -41 18z"
       id="path14" />
    <path
       d="M14010 9511 c0 -14 6 -17 25 -13 14 2 25 11 25 18 0 8 -10 14 -25 14 -18 0 -25 -5 -25 -19z"
       id="path16" />
    <path
       d="M13880 9491 c0 -14 6 -17 25 -13 14 2 25 11 25 18 0 8 -10 14 -25 14 -18 0 -25 -5 -25 -19z"
       id="path18" />
    <path
       d="M13750 9475 c0 -9 9 -15 25 -15 16 0 25 6 25 15 0 9 -9 15 -25 15 -16 0 -25 -6 -25 -15z"
       id="path20" />
    <path
       d="M13620 9455 c0 -10 10 -15 30 -15 22 0 28 4 24 15 -4 8 -17 15 -30 15 -15 0 -24 -6 -24 -15z"
       id="path22" />
    <path
       d="M13490 9436 c0 -11 10 -16 31 -16 38 0 35 24 -4 28 -19 2 -27 -1 -27 -12z"
       id="path24" />
    <path
       d="M13367 9424 c-11 -12 3 -24 29 -24 15 0 24 6 24 15 0 15 -40 21 -53 9z"
       id="path26" />
    <path
       d="M13240 9391 c0 -14 6 -17 25 -13 14 2 25 11 25 18 0 8 -10 14 -25 14 -18 0 -25 -5 -25 -19z"
       id="path28" />
    <path
       d="M13113 9375 c-7 -21 -2 -25 25 -18 12 3 22 12 22 19 0 19 -39 18 -47 -1z"
       id="path30" />
    <path
       d="M12998 9363 c-10 -2 -18 -11 -18 -19 0 -22 44 -14 48 9 4 17 1 18 -30 10z"
       id="path32" />
    <path
       d="M12873 9343 c-32 -6 -30 -33 2 -33 18 0 25 5 25 20 0 11 -1 19 -2 19 -2 -1 -13 -4 -25 -6z"
       id="path34" />
    <path
       d="M12720 9306 c0 -11 10 -16 31 -16 38 0 35 24 -4 28 -19 2 -27 -1 -27 -12z"
       id="path36" />
    <path
       d="M12603 9292 c-7 -4 -9 -13 -5 -19 10 -16 52 -5 52 13 0 15 -27 19 -47 6z"
       id="path38" />
    <path
       d="M12483 9273 c-15 -5 -18 -33 -4 -33 21 0 41 13 41 26 0 14 -14 17 -37 7z"
       id="path40" />
    <path
       d="M12340 9235 c0 -9 9 -15 25 -15 16 0 25 6 25 15 0 9 -9 15 -25 15 -16 0 -25 -6 -25 -15z"
       id="path42" />
    <path
       d="M12228 9223 c-10 -2 -18 -11 -18 -19 0 -22 44 -14 48 9 4 17 1 18 -30 10z"
       id="path44" />
    <path
       d="M12090 9190 c-10 -6 -12 -12 -5 -19 13 -13 57 -2 52 13 -5 15 -29 18 -47 6z"
       id="path46" />
    <path
       d="M11960 9151 c0 -14 6 -17 25 -13 14 2 25 11 25 18 0 8 -10 14 -25 14 -18 0 -25 -5 -25 -19z"
       id="path48" />
    <path
       d="M11848 9143 c-10 -2 -18 -11 -18 -19 0 -22 44 -14 48 9 4 17 1 18 -30 10z"
       id="path50" />
    <path
       d="M11713 9113 c-14 -5 -18 -33 -5 -33 27 1 50 14 45 26 -5 14 -18 17 -40 7z"
       id="path52" />
    <path
       d="M11578 9084 c-4 -3 -4 -12 -2 -18 6 -16 56 -8 51 8 -4 12 -39 20 -49 10z"
       id="path54" />
    <path
       d="M11468 9063 c-10 -2 -18 -11 -18 -19 0 -22 44 -14 48 9 4 17 1 18 -30 10z"
       id="path56" />
    <path
       d="M11333 9033 c-15 -5 -18 -33 -4 -33 21 0 41 13 41 26 0 14 -14 17 -37 7z"
       id="path58" />
    <path
       d="M11200 9000 c-21 -13 -1 -31 27 -24 13 4 20 11 16 20 -6 16 -22 18 -43 4z"
       id="path60" />
    <path
       d="M11078 8972 c-11 -5 -14 -12 -9 -21 11 -17 51 -5 51 15 0 15 -14 17 -42 6z"
       id="path62" />
    <path
       d="M10958 8943 c-10 -2 -18 -11 -18 -19 0 -22 44 -14 48 9 4 17 1 18 -30 10z"
       id="path64" />
    <path
       d="M10832 8912 c-13 -2 -21 -9 -19 -15 5 -15 36 -22 48 -10 13 13 -4 29 -29 25z"
       id="path66" />
    <path
       d="M10690 8861 c0 -14 6 -17 25 -13 14 2 25 11 25 18 0 8 -10 14 -25 14 -18 0 -25 -5 -25 -19z"
       id="path68" />
    <path
       d="M10565 8840 c-3 -5 -4 -14 -1 -19 9 -13 46 -1 46 15 0 16 -36 19 -45 4z"
       id="path70" />
    <path
       d="M10448 8812 c-26 -11 -6 -36 21 -27 12 4 20 12 18 18 -4 14 -18 17 -39 9z"
       id="path72" />
    <path
       d="M10313 8765 c-7 -21 -2 -25 25 -18 12 3 22 12 22 19 0 19 -39 18 -47 -1z"
       id="path74" />
    <path
       d="M10202 8739 c-13 -5 -20 -13 -17 -19 8 -13 42 -13 51 1 10 17 -9 28 -34 18z"
       id="path76" />
    <path
       d="M10073 8703 c-15 -5 -18 -33 -4 -33 21 0 41 13 41 26 0 14 -14 17 -37 7z"
       id="path78" />
    <path
       d="M9936 8662 c-2 -4 -2 -13 2 -19 8 -13 52 1 52 17 0 12 -46 14 -54 2z"
       id="path80" />
    <path
       d="M9828 8633 c-10 -2 -18 -11 -18 -19 0 -22 44 -14 48 9 4 17 1 18 -30 10z"
       id="path82" />
    <path
       d="M9693 8592 c-7 -4 -9 -13 -5 -19 9 -15 54 -5 49 11 -5 14 -28 18 -44 8z"
       id="path84" />
    <path
       d="M9582 8559 c-28 -10 -24 -36 4 -31 24 5 26 7 22 25 -2 11 -9 12 -26 6z"
       id="path86" />
    <path
       d="M9443 8512 c-7 -4 -9 -13 -5 -19 10 -16 52 -5 52 13 0 15 -27 19 -47 6z"
       id="path88" />
    <path
       d="M9320 8470 c-10 -6 -12 -12 -5 -19 13 -13 57 -2 52 13 -5 15 -29 18 -47 6z"
       id="path90" />
    <path
       d="M9203 8433 c-15 -5 -18 -33 -4 -33 21 0 41 13 41 26 0 14 -14 17 -37 7z"
       id="path92" />
    <path
       d="M1134 8392 c-73 -59 -81 -230 -14 -305 37 -41 95 -44 135 -7 35 33 59 119 51 183 -13 94 -54 147 -116 147 -19 0 -45 -8 -56 -18z m89 -10 c40 -43 47 -215 12 -282 -21 -41 -68 -43 -89 -2 -34 66 -28 241 11 284 21 23 45 23 66 0z"
       id="path94" />
    <path
       d="M1541 8302 c-41 -59 -77 -117 -79 -129 -4 -22 -2 -23 67 -23 l71 0 0 -45 c0 -38 3 -45 20 -45 17 0 20 7 20 45 0 43 1 45 30 45 20 0 30 5 30 15 0 10 -10 15 -30 15 l-30 0 0 115 c0 86 -3 115 -12 114 -7 0 -46 -48 -87 -107z m56 -119 c-3 -2 -30 -3 -61 -1 l-56 3 58 82 57 82 3 -81 c2 -44 1 -82 -1 -85z"
       id="path96" />
    <path
       d="M14025 8405 c-5 -2 -45 -11 -87 -20 -52 -11 -78 -22 -78 -31 0 -20 -2 -20 178 21 12 3 22 12 22 20 0 14 -13 18 -35 10z"
       id="path98" />
    <path
       d="M9083 8393 c-7 -2 -13 -11 -13 -19 0 -8 6 -14 13 -14 21 0 40 17 33 29 -8 12 -13 12 -33 4z"
       id="path100" />
    <path
       d="M8963 8350 c-14 -6 -21 -15 -17 -24 4 -12 11 -13 29 -4 14 6 21 16 18 24 -3 8 -6 14 -7 13 0 0 -11 -4 -23 -9z"
       id="path102" />
    <path
       d="M13633 8318 c-56 -13 -83 -24 -83 -34 0 -18 -3 -18 113 8 57 12 96 26 94 32 -6 17 -36 16 -124 -6z"
       id="path104" />
    <path
       d="M8835 8297 c-12 -10 -15 -16 -6 -21 18 -11 51 3 44 20 -6 17 -14 18 -38 1z"
       id="path106" />
    <path
       d="M13327 8250 c-87 -20 -89 -21 -79 -37 10 -16 202 25 202 44 0 17 -27 15 -123 -7z"
       id="path108" />
    <path
       d="M8718 8253 c-19 -5 -24 -18 -10 -27 16 -10 51 6 45 20 -5 14 -6 15 -35 7z"
       id="path110" />
    <path
       d="M8590 8200 c-11 -6 -12 -12 -4 -20 13 -13 44 -2 44 16 0 16 -18 18 -40 4z"
       id="path112" />
    <path
       d="M13040 8186 c-57 -13 -95 -26 -95 -34 0 -17 6 -17 103 3 93 19 105 24 94 41 -5 7 -36 4 -102 -10z"
       id="path114" />
    <path
       d="M8471 8151 c-7 -5 -11 -13 -7 -19 8 -14 46 -3 46 14 0 16 -18 18 -39 5z"
       id="path116" />
    <path
       d="M12728 8117 c-57 -13 -88 -25 -88 -34 0 -17 14 -16 97 2 97 23 103 25 103 41 0 17 -3 17 -112 -9z"
       id="path118" />
    <path
       d="M8363 8109 c-13 -5 -23 -16 -23 -24 0 -12 6 -15 23 -9 28 8 29 10 25 27 -2 11 -9 12 -25 6z"
       id="path120" />
    <path
       d="M1367 8104 c-12 -12 -8 -42 6 -47 21 -8 39 8 35 29 -3 19 -29 30 -41 18z"
       id="path122" />
    <path
       d="M8238 8059 c-18 -10 -25 -39 -10 -39 5 0 17 6 28 14 24 18 8 40 -18 25z"
       id="path124" />
    <path
       d="M12418 8048 c-57 -14 -88 -26 -88 -35 0 -17 9 -17 118 8 56 13 91 26 89 33 -6 17 -25 16 -119 -6z"
       id="path126" />
    <path
       d="M8118 8009 c-18 -10 -25 -39 -10 -39 5 0 17 6 28 14 24 18 8 40 -18 25z"
       id="path128" />
    <path
       d="M12160 7984 c-30 -9 -72 -20 -92 -25 -22 -6 -38 -16 -38 -24 0 -19 -3 -19 105 8 65 17 91 28 93 40 4 20 4 20 -68 1z"
       id="path130" />
    <path
       d="M7993 7953 c-15 -5 -18 -33 -4 -33 21 0 41 13 41 26 0 14 -14 17 -37 7z"
       id="path132" />
    <path
       d="M11810 7897 c-96 -22 -98 -23 -83 -38 15 -15 203 29 203 48 0 17 -16 15 -120 -10z"
       id="path134" />
    <path
       d="M7878 7903 c-10 -2 -18 -11 -18 -19 0 -22 44 -14 48 9 4 17 1 18 -30 10z"
       id="path136" />
    <path
       d="M7755 7847 c-10 -8 -15 -19 -11 -25 10 -16 56 6 49 24 -6 17 -14 18 -38 1z"
       id="path138" />
    <path
       d="M11550 7834 c-30 -9 -72 -20 -92 -25 -22 -6 -38 -16 -38 -24 0 -18 -1 -18 74 1 136 34 135 34 130 49 -7 17 -3 17 -74 -1z"
       id="path140" />
    <path
       d="M7642 7797 c-22 -10 -25 -28 -6 -34 16 -5 44 21 36 33 -5 8 -14 8 -30 1z"
       id="path142" />
    <path
       d="M11203 7743 c-50 -16 -83 -31 -83 -39 0 -18 -1 -18 107 13 56 16 93 32 93 40 0 18 -22 15 -117 -14z"
       id="path144" />
    <path
       d="M7518 7737 c-10 -8 -13 -18 -9 -26 7 -10 12 -10 30 1 21 13 24 29 5 35 -5 1 -17 -3 -26 -10z"
       id="path146" />
    <path
       d="M7405 7677 c-24 -18 -11 -41 16 -27 10 6 19 17 19 25 0 19 -11 19 -35 2z"
       id="path148" />
    <path
       d="M10990 7680 c-14 -5 -58 -19 -97 -30 -46 -14 -73 -27 -73 -36 0 -18 -1 -18 107 13 73 21 93 31 93 45 0 10 -1 18 -2 17 -2 0 -14 -4 -28 -9z"
       id="path150" />
    <path
       d="M7288 7617 c-25 -20 -7 -43 21 -27 22 11 24 31 5 37 -5 1 -17 -3 -26 -10z"
       id="path152" />
    <path
       d="M10705 7595 c-5 -2 -49 -16 -97 -30 -62 -18 -88 -31 -88 -42 0 -10 6 -14 18 -11 145 40 182 54 182 70 0 10 -1 18 -2 17 -2 0 -7 -2 -13 -4z"
       id="path154" />
    <path
       d="M7174 7556 c-13 -10 -16 -18 -8 -25 7 -8 16 -7 30 3 13 10 16 18 8 25 -7 8 -16 7 -30 -3z"
       id="path156" />
    <path
       d="M7058 7497 c-10 -8 -13 -18 -9 -26 12 -18 52 4 45 24 -7 18 -14 18 -36 2z"
       id="path158" />
    <path
       d="M10322 7480 c-100 -29 -111 -35 -96 -50 6 -6 41 0 94 16 89 27 105 36 99 52 -2 6 -43 -2 -97 -18z"
       id="path160" />
    <path
       d="M6944 7436 c-13 -10 -16 -18 -8 -25 7 -8 16 -7 30 3 13 10 16 18 8 25 -7 8 -16 7 -30 -3z"
       id="path162" />
    <path
       d="M10012 7388 c-59 -18 -92 -34 -89 -41 5 -15 19 -12 124 19 62 19 81 28 76 39 -6 18 2 19 -111 -17z"
       id="path164" />
    <path
       d="M6832 7377 c-22 -10 -25 -28 -6 -34 16 -5 44 21 36 33 -5 8 -14 8 -30 1z"
       id="path166" />
    <path
       d="M9715 7300 c-57 -17 -90 -32 -90 -41 0 -17 16 -15 122 17 62 19 81 28 76 39 -6 18 2 19 -108 -15z"
       id="path168" />
    <path
       d="M6716 7305 c-14 -11 -17 -18 -9 -26 14 -14 53 9 46 28 -6 16 -13 16 -37 -2z"
       id="path170" />
    <path
       d="M6605 7237 c-10 -8 -15 -19 -11 -25 10 -16 56 6 49 24 -6 17 -14 18 -38 1z"
       id="path172" />
    <path
       d="M9420 7197 c-60 -23 -86 -38 -88 -51 -3 -15 0 -17 14 -11 11 4 56 21 102 37 73 27 96 46 66 54 -5 2 -47 -12 -94 -29z"
       id="path174" />
    <path
       d="M6490 7165 c-6 -8 -9 -19 -5 -25 9 -14 45 6 45 25 0 19 -24 19 -40 0z"
       id="path176" />
    <path
       d="M9125 7089 c-88 -33 -98 -39 -87 -55 10 -14 200 57 194 74 -5 17 -15 15 -107 -19z"
       id="path178" />
    <path
       d="M6381 7101 c-8 -5 -11 -16 -8 -25 6 -14 10 -14 27 -4 22 14 27 38 8 38 -7 0 -19 -4 -27 -9z"
       id="path180" />
    <path
       d="M6278 7036 c-10 -7 -18 -18 -18 -25 0 -16 25 -14 40 4 18 22 0 37 -22 21z"
       id="path182" />
    <path
       d="M8825 6978 c-93 -36 -92 -35 -79 -48 14 -14 194 50 194 67 0 19 -27 15 -115 -19z"
       id="path184" />
    <path
       d="M6168 6969 c-18 -10 -25 -39 -10 -39 5 0 17 6 28 14 24 18 8 40 -18 25z"
       id="path186" />
    <path
       d="M6047 6896 c-14 -11 -15 -15 -4 -25 17 -13 54 10 43 27 -9 15 -17 15 -39 -2z"
       id="path188" />
    <path
       d="M8590 6891 c-25 -10 -66 -25 -92 -35 -27 -10 -48 -24 -48 -32 0 -19 2 -19 99 18 95 35 110 43 96 57 -6 6 -28 2 -55 -8z"
       id="path190" />
    <path
       d="M5940 6825 c-9 -10 -10 -19 -4 -25 13 -13 49 13 40 28 -10 16 -21 15 -36 -3z"
       id="path192" />
    <path
       d="M8245 6764 c-49 -19 -90 -36 -92 -37 -1 -2 1 -8 5 -14 11 -18 203 54 195 73 -7 18 -3 19 -108 -22z"
       id="path194" />
    <path
       d="M1134 6752 c-73 -59 -81 -230 -14 -305 37 -41 95 -44 135 -7 35 33 59 119 51 183 -13 94 -54 147 -116 147 -19 0 -45 -8 -56 -18z m89 -10 c40 -43 47 -215 12 -282 -21 -41 -68 -43 -89 -2 -34 66 -28 241 11 284 21 23 45 23 66 0z"
       id="path196" />
    <path
       d="M1509 6741 c-16 -16 -29 -34 -29 -40 0 -5 11 1 25 14 37 38 89 32 106 -11 12 -34 -7 -70 -50 -91 l-36 -17 32 -6 c62 -10 94 -59 74 -113 -16 -43 -52 -54 -101 -32 -29 13 -44 15 -51 8 -29 -29 37 -50 99 -33 57 15 92 59 92 116 0 36 -5 50 -26 69 l-26 24 21 27 c27 35 27 59 -4 89 -35 36 -88 34 -126 -4z"
       id="path198" />
    <path
       d="M5837 6748 c-11 -9 -14 -18 -7 -28 7 -12 12 -12 29 4 31 28 12 49 -22 24z"
       id="path200" />
    <path
       d="M5730 6665 c-6 -8 -9 -19 -5 -25 9 -14 45 6 45 25 0 19 -24 19 -40 0z"
       id="path202" />
    <path
       d="M5630 6585 c-18 -22 0 -37 24 -20 10 8 15 18 11 24 -9 15 -20 14 -35 -4z"
       id="path204" />
    <path
       d="M5520 6505 c-10 -12 -9 -16 4 -21 18 -7 49 13 40 27 -8 14 -30 11 -44 -6z"
       id="path206" />
    <path
       d="M1367 6464 c-12 -12 -8 -42 6 -47 21 -8 39 8 35 29 -3 19 -29 30 -41 18z"
       id="path208" />
    <path
       d="M5427 6432 c-24 -26 -7 -45 21 -23 20 15 21 19 9 29 -11 9 -17 8 -30 -6z"
       id="path210" />
    <path
       d="M5326 6355 c-12 -9 -16 -20 -12 -31 6 -16 9 -16 29 4 26 26 12 48 -17 27z"
       id="path212" />
    <path
       d="M7093 6281 c-68 -34 -90 -49 -84 -59 6 -11 28 -4 100 32 84 43 103 58 84 69 -5 3 -49 -16 -100 -42z"
       id="path214" />
    <path
       d="M5216 6271 c-21 -23 -6 -37 23 -21 12 6 18 16 15 25 -8 20 -17 19 -38 -4z"
       id="path216" />
    <path
       d="M5116 6194 c-16 -11 -17 -17 -8 -26 9 -9 16 -8 29 5 23 23 5 41 -21 21z"
       id="path218" />
    <path
       d="M6806 6144 c-66 -34 -86 -48 -77 -57 8 -8 34 0 101 33 81 40 102 59 74 66 -5 2 -49 -17 -98 -42z"
       id="path220" />
    <path
       d="M5012 6118 c-16 -16 -15 -38 2 -38 18 0 39 27 31 40 -8 13 -18 13 -33 -2z"
       id="path222" />
    <path
       d="M6533 6012 c-68 -35 -90 -50 -84 -60 12 -20 193 71 185 93 -4 8 -7 15 -8 14 0 0 -42 -21 -93 -47z"
       id="path224" />
    <path
       d="M4906 6035 c-28 -21 -7 -42 23 -23 21 13 23 29 5 35 -5 1 -18 -4 -28 -12z"
       id="path226" />
    <path
       d="M4804 5956 c-15 -12 -17 -17 -6 -27 10 -11 15 -10 29 4 24 23 4 43 -23 23z"
       id="path228" />
    <path
       d="M6253 5876 c-68 -33 -91 -49 -87 -60 4 -12 24 -6 97 30 51 25 91 47 90 50 -1 2 -3 9 -5 15 -2 5 -45 -11 -95 -35z"
       id="path230" />
    <path
       d="M4707 5869 c-14 -8 -16 -14 -6 -25 10 -13 14 -12 30 2 29 26 11 43 -24 23z"
       id="path232" />
    <path
       d="M4615 5780 c-12 -14 -15 -24 -9 -30 7 -7 17 -4 29 10 12 14 15 24 9 30 -7 7 -17 4 -29 -10z"
       id="path234" />
    <path
       d="M5975 5739 c-93 -47 -97 -50 -86 -67 6 -10 22 -5 67 22 32 20 73 41 91 47 21 7 30 15 26 25 -7 19 -9 19 -98 -27z"
       id="path236" />
    <path
       d="M4516 5691 c-12 -14 -14 -21 -6 -26 17 -10 47 22 34 35 -7 7 -16 4 -28 -9z"
       id="path238" />
    <path
       d="M5693 5579 c-59 -35 -81 -54 -76 -64 5 -13 11 -12 42 6 20 12 60 35 89 51 28 17 52 36 52 44 0 22 -20 16 -107 -37z"
       id="path240" />
    <path
       d="M4416 5601 c-12 -13 -14 -21 -6 -26 13 -8 52 24 44 36 -8 14 -19 11 -38 -10z"
       id="path242" />
    <path
       d="M4320 5515 c-9 -10 -10 -19 -4 -25 13 -13 49 13 40 28 -10 16 -21 15 -36 -3z"
       id="path244" />
    <path
       d="M5430 5425 c-41 -25 -79 -47 -85 -49 -6 -2 -5 -8 2 -16 10 -10 29 -3 97 36 47 27 86 55 86 62 0 21 -22 14 -100 -33z"
       id="path246" />
    <path
       d="M4226 5431 c-14 -15 -14 -20 -3 -30 11 -8 18 -7 31 8 14 15 14 20 3 30 -11 8 -18 7 -31 -8z"
       id="path248" />
    <path
       d="M4126 5341 c-14 -15 -14 -20 -3 -30 11 -8 18 -7 31 8 10 11 15 25 11 30 -9 16 -20 14 -39 -8z"
       id="path250" />
    <path
       d="M5170 5274 c-41 -25 -82 -49 -90 -54 -11 -7 -12 -12 -4 -20 9 -9 32 0 93 36 86 50 99 61 85 74 -5 4 -43 -12 -84 -36z"
       id="path252" />
    <path
       d="M4036 5251 c-12 -14 -14 -21 -6 -26 17 -10 47 22 34 35 -7 7 -16 4 -28 -9z"
       id="path254" />
    <path
       d="M3945 5160 c-14 -16 -16 -23 -7 -32 10 -10 17 -8 33 8 17 17 18 22 6 32 -11 9 -18 8 -32 -8z"
       id="path256" />
    <path
       d="M4891 5111 c-45 -27 -83 -51 -83 -55 1 -26 18 -22 95 24 48 29 87 56 87 61 0 21 -22 14 -99 -30z"
       id="path258" />
    <path
       d="M1134 5112 c-73 -59 -81 -230 -14 -305 37 -41 95 -44 135 -7 35 33 59 119 51 183 -13 94 -54 147 -116 147 -19 0 -45 -8 -56 -18z m89 -10 c40 -43 47 -215 12 -282 -21 -41 -68 -43 -89 -2 -34 66 -28 241 11 284 21 23 45 23 66 0z"
       id="path260" />
    <path
       d="M1504 5096 c-19 -19 -34 -42 -34 -52 0 -15 6 -12 26 14 48 60 129 33 127 -43 -1 -45 -39 -108 -102 -170 -28 -27 -51 -53 -51 -57 0 -4 44 -8 98 -8 96 0 99 1 110 25 15 32 15 57 1 33 -8 -15 -24 -18 -87 -18 l-76 0 51 53 c108 111 129 173 74 228 -42 42 -92 40 -137 -5z"
       id="path262" />
    <path
       d="M3856 5061 c-12 -14 -14 -21 -6 -26 17 -10 47 22 34 35 -7 7 -16 4 -28 -9z"
       id="path264" />
    <path
       d="M3766 4971 c-14 -15 -14 -20 -3 -30 11 -8 18 -7 31 8 14 15 14 20 3 30 -11 8 -18 7 -31 -8z"
       id="path266" />
    <path
       d="M4645 4943 c-33 -25 -69 -51 -80 -59 -14 -10 -16 -17 -8 -25 9 -9 32 2 93 46 73 53 90 75 64 81 -5 1 -36 -18 -69 -43z"
       id="path268" />
    <path
       d="M3676 4871 c-12 -13 -14 -21 -6 -26 13 -8 52 24 44 36 -8 14 -19 11 -38 -10z"
       id="path270" />
    <path
       d="M1367 4824 c-12 -12 -8 -42 6 -47 21 -8 39 8 35 29 -3 19 -29 30 -41 18z"
       id="path272" />
    <path
       d="M4390 4754 c-95 -70 -96 -72 -84 -84 16 -16 176 104 168 125 -4 8 -7 15 -8 15 0 -1 -35 -26 -76 -56z"
       id="path274" />
    <path
       d="M3586 4781 c-12 -14 -14 -21 -6 -26 17 -10 47 22 34 35 -7 7 -16 4 -28 -9z"
       id="path276" />
    <path
       d="M3490 4685 c-22 -26 4 -43 30 -20 20 18 18 35 -4 35 -8 0 -19 -7 -26 -15z"
       id="path278" />
    <path
       d="M3406 4591 c-12 -14 -14 -21 -6 -26 17 -10 47 22 34 35 -7 7 -16 4 -28 -9z"
       id="path280" />
    <path
       d="M3316 4502 c-12 -14 -13 -21 -4 -30 13 -13 38 2 38 24 0 22 -16 25 -34 6z"
       id="path282" />
    <path
       d="M3223 4400 c-9 -13 -9 -21 -2 -26 12 -7 51 25 43 37 -9 15 -29 10 -41 -11z"
       id="path284" />
    <path
       d="M3142 4318 c-7 -7 -12 -18 -12 -24 0 -22 17 -24 34 -5 14 15 14 20 3 29 -10 9 -17 8 -25 0z"
       id="path286" />
    <path
       d="M3055 4210 c-12 -14 -15 -24 -9 -30 7 -7 17 -4 29 10 12 14 15 24 9 30 -7 7 -17 4 -29 -10z"
       id="path288" />
    <path
       d="M2966 4111 c-14 -15 -14 -20 -3 -30 14 -11 22 -6 40 25 11 20 -20 24 -37 5z"
       id="path290" />
    <path
       d="M2883 4010 c-9 -13 -9 -21 -2 -26 14 -8 43 21 35 35 -10 16 -20 14 -33 -9z"
       id="path292" />
    <path
       d="M2795 3910 c-16 -18 -17 -20 -1 -26 17 -7 49 24 40 38 -8 13 -20 9 -39 -12z"
       id="path294" />
    <path
       d="M2710 3815 c-10 -12 -10 -19 -2 -27 15 -15 48 14 38 31 -10 15 -21 14 -36 -4z"
       id="path296" />
    <path
       d="M2626 3711 c-14 -16 -15 -19 -2 -24 16 -6 50 26 39 36 -10 11 -19 8 -37 -12z"
       id="path298" />
    <path
       d="M2540 3615 c-10 -12 -10 -19 -2 -27 13 -13 42 6 42 28 0 19 -24 18 -40 -1z"
       id="path300" />
    <path
       d="M2460 3520 c-16 -30 1 -46 23 -22 15 17 16 21 3 31 -12 10 -17 8 -26 -9z"
       id="path302" />
    <path
       d="M1134 3472 c-73 -59 -81 -230 -14 -305 37 -41 95 -44 135 -7 35 33 59 119 51 183 -13 94 -54 147 -116 147 -19 0 -45 -8 -56 -18z m89 -10 c40 -43 47 -215 12 -282 -21 -41 -68 -43 -89 -2 -34 66 -28 241 11 284 21 23 45 23 66 0z"
       id="path304" />
    <path
       d="M1550 3465 c-35 -19 -40 -24 -20 -22 l25 2 0 -145 0 -144 -25 -7 c-15 -4 4 -7 50 -7 54 -1 69 2 53 8 -23 9 -23 13 -23 175 0 91 -3 165 -7 165 -5 -1 -28 -12 -53 -25z"
       id="path306" />
    <path
       d="M2375 3420 c-16 -18 -17 -23 -5 -30 10 -6 18 -2 28 12 21 29 1 44 -23 18z"
       id="path308" />
    <path
       d="M2290 3325 c-7 -8 -9 -22 -6 -31 6 -15 8 -15 26 1 11 10 20 21 20 25 0 15 -29 18 -40 5z"
       id="path310" />
    <path
       d="M2206 3221 c-12 -14 -14 -21 -6 -26 17 -10 47 22 34 35 -7 7 -16 4 -28 -9z"
       id="path312" />
    <path
       d="M1367 3184 c-12 -12 -8 -42 6 -47 21 -8 39 8 35 29 -3 19 -29 30 -41 18z"
       id="path314" />
    <path
       d="M2122 3128 c-17 -17 -15 -38 3 -38 16 0 38 34 28 44 -9 9 -18 7 -31 -6z"
       id="path316" />
    <path
       d="M1524 1832 c-73 -59 -81 -230 -14 -305 37 -41 95 -44 135 -7 35 33 59 119 51 183 -13 94 -54 147 -116 147 -19 0 -45 -8 -56 -18z m89 -10 c40 -43 47 -215 12 -282 -21 -41 -68 -43 -89 -2 -34 66 -28 241 11 284 21 23 45 23 66 0z"
       id="path318" />
    <path
       d="M7638 1326 c-26 -7 -63 -25 -83 -41 -109 -83 -96 -289 20 -311 38 -7 86 14 109 48 30 43 17 134 -23 165 -20 16 -76 16 -103 2 -18 -10 -20 -9 -15 6 4 9 7 20 7 25 0 20 58 75 97 92 24 10 43 21 43 23 0 3 -1 5 -2 4 -2 0 -24 -6 -50 -13z m-9 -165 c26 -26 34 -81 19 -127 -11 -33 -18 -39 -44 -42 -45 -4 -67 26 -72 100 -4 51 -2 64 14 75 25 18 61 16 83 -6z"
       id="path320" />
    <path
       d="M1800 1305 c-35 -19 -40 -24 -20 -22 l25 2 0 -145 0 -144 -25 -7 c-15 -4 4 -7 50 -7 54 -1 69 2 53 8 -23 9 -23 13 -23 175 0 91 -3 165 -7 165 -5 -1 -28 -12 -53 -25z"
       id="path322" />
    <path
       d="M2237 1323 l-57 -4 -25 -49 c-34 -67 -32 -76 15 -84 23 -3 54 -18 71 -34 26 -24 32 -36 32 -72 0 -35 -6 -48 -27 -67 -32 -27 -45 -28 -72 -8 -25 19 -64 19 -64 0 0 -36 64 -44 127 -16 49 23 73 62 73 120 0 52 -46 107 -96 117 -39 7 -47 15 -38 38 5 12 20 16 58 16 29 0 57 5 64 12 13 13 16 39 5 36 -5 -1 -34 -3 -66 -5z"
       id="path324" />
    <path
       d="M3104 1296 c-19 -19 -34 -42 -34 -52 0 -15 6 -12 26 14 48 60 129 33 127 -43 -1 -45 -39 -108 -102 -170 -28 -27 -51 -53 -51 -57 0 -4 44 -8 98 -8 96 0 99 1 110 25 15 32 15 57 1 33 -8 -15 -24 -18 -87 -18 l-76 0 51 53 c108 111 129 173 74 228 -42 42 -92 40 -137 -5z"
       id="path326" />
    <path
       d="M4739 1301 c-16 -16 -29 -34 -29 -40 0 -5 11 1 25 14 37 38 89 32 106 -11 12 -34 -7 -70 -50 -91 l-36 -17 32 -6 c62 -10 94 -59 74 -113 -16 -43 -52 -54 -101 -32 -29 13 -44 15 -51 8 -29 -29 37 -50 99 -33 57 15 92 59 92 116 0 36 -5 50 -26 69 l-26 24 21 27 c27 35 27 59 -4 89 -35 36 -88 34 -126 -4z"
       id="path328" />
    <path
       d="M5921 1222 c-41 -59 -77 -117 -79 -129 -4 -22 -2 -23 67 -23 l71 0 0 -45 c0 -38 3 -45 20 -45 17 0 20 7 20 45 0 43 1 45 30 45 20 0 30 5 30 15 0 10 -10 15 -30 15 l-30 0 0 115 c0 86 -3 115 -12 114 -7 0 -46 -48 -87 -107z m56 -119 c-3 -2 -30 -3 -61 -1 l-56 3 58 82 57 82 3 -81 c2 -44 1 -82 -1 -85z"
       id="path330" />
    <path
       d="M6877 1323 l-57 -4 -25 -49 c-34 -67 -32 -76 15 -84 23 -3 54 -18 71 -34 26 -24 32 -36 32 -72 0 -35 -6 -48 -27 -67 -32 -27 -45 -28 -72 -8 -25 19 -64 19 -64 0 0 -36 64 -44 127 -16 49 23 73 62 73 120 0 52 -46 107 -96 117 -39 7 -47 15 -38 38 5 12 20 16 58 16 29 0 57 5 64 12 13 13 16 39 5 36 -5 -1 -34 -3 -66 -5z"
       id="path332" />
    <path
       d="M8679 1301 c-40 -40 -36 -73 13 -127 19 -21 19 -22 -11 -52 -38 -38 -41 -80 -7 -119 21 -24 31 -28 77 -27 44 0 56 5 76 28 37 44 28 98 -25 143 l-26 22 32 29 c39 37 42 73 7 107 -36 37 -97 35 -136 -4z m99 3 c30 -21 30 -73 -2 -103 l-23 -22 -32 36 c-36 42 -38 58 -11 85 24 24 38 25 68 4z m-4 -198 c56 -52 43 -116 -24 -116 -35 0 -60 31 -60 75 0 31 24 75 40 75 5 0 25 -15 44 -34z"
       id="path334" />
    <path
       d="M9480 1305 c-35 -19 -40 -24 -20 -22 l25 2 0 -145 0 -144 -25 -7 c-15 -4 4 -7 50 -7 54 -1 69 2 53 8 -23 9 -23 13 -23 175 0 91 -3 165 -7 165 -5 -1 -28 -12 -53 -25z"
       id="path336" />
    <path
       d="M9714 1312 c-73 -59 -81 -230 -14 -305 37 -41 95 -44 135 -7 35 33 59 119 51 183 -13 94 -54 147 -116 147 -19 0 -45 -8 -56 -18z m89 -10 c40 -43 47 -215 12 -282 -21 -41 -68 -43 -89 -2 -34 66 -28 241 11 284 21 23 45 23 66 0z"
       id="path338" />
    <path
       d="M11110 1305 c-35 -19 -40 -24 -20 -22 l25 2 0 -145 0 -144 -25 -7 c-15 -4 4 -7 50 -7 54 -1 69 2 53 8 -23 9 -23 13 -23 175 0 91 -3 165 -7 165 -5 -1 -28 -12 -53 -25z"
       id="path340" />
    <path
       d="M11417 1323 l-57 -4 -25 -49 c-34 -67 -32 -76 15 -84 23 -3 54 -18 71 -34 26 -24 32 -36 32 -72 0 -35 -6 -48 -27 -67 -32 -27 -45 -28 -72 -8 -25 19 -64 19 -64 0 0 -36 64 -44 127 -16 49 23 73 62 73 120 0 52 -46 107 -96 117 -39 7 -47 15 -38 38 5 12 20 16 58 16 29 0 57 5 64 12 13 13 16 39 5 36 -5 -1 -34 -3 -66 -5z"
       id="path342" />
    <path
       d="M12224 1296 c-19 -19 -34 -42 -34 -52 0 -15 6 -12 26 14 48 60 129 33 127 -43 -1 -45 -39 -108 -102 -170 -28 -27 -51 -53 -51 -57 0 -4 44 -8 98 -8 96 0 99 1 110 25 15 32 15 57 1 33 -8 -15 -24 -18 -87 -18 l-76 0 51 53 c108 111 129 173 74 228 -42 42 -92 40 -137 -5z"
       id="path344" />
    <path
       d="M12504 1312 c-73 -59 -81 -230 -14 -305 37 -41 95 -44 135 -7 35 33 59 119 51 183 -13 94 -54 147 -116 147 -19 0 -45 -8 -56 -18z m89 -10 c40 -43 47 -215 12 -282 -21 -41 -68 -43 -89 -2 -34 66 -28 241 11 284 21 23 45 23 66 0z"
       id="path346" />
    <path
       d="M13859 1301 c-16 -16 -29 -34 -29 -40 0 -5 11 1 25 14 37 38 89 32 106 -11 12 -34 -7 -70 -50 -91 l-36 -17 32 -6 c62 -10 94 -59 74 -113 -16 -43 -52 -54 -101 -32 -29 13 -44 15 -51 8 -29 -29 37 -50 99 -33 57 15 92 59 92 116 0 36 -5 50 -26 69 l-26 24 21 27 c27 35 27 59 -4 89 -35 36 -88 34 -126 -4z"
       id="path348" />
    <path
       d="M14134 1312 c-73 -59 -81 -230 -14 -305 37 -41 95 -44 135 -7 35 33 59 119 51 183 -13 94 -54 147 -116 147 -19 0 -45 -8 -56 -18z m89 -10 c40 -43 47 -215 12 -282 -21 -41 -68 -43 -89 -2 -34 66 -28 241 11 284 21 23 45 23 66 0z"
       id="path350" />
    <path
       d="M8106 1288 c-15 -39 -12 -50 8 -23 11 15 30 20 85 23 39 2 71 0 71 -5 0 -5 -22 -75 -49 -156 -43 -128 -47 -147 -32 -147 14 0 28 34 69 164 29 90 52 167 52 170 0 3 -43 6 -95 6 l-95 0 -14 -32z"
       id="path352" />
    <path
       d="M2007 1024 c-12 -12 -8 -42 6 -47 21 -8 39 8 35 29 -3 19 -29 30 -41 18z"
       id="path354" />
    <path
       d="M8037 377 c-31 -95 -57 -176 -57 -180 0 -4 6 -7 14 -7 10 0 34 60 74 180 51 152 58 180 44 180 -14 0 -31 -40 -75 -173z"
       id="path358" />
    <flowRoot
       xml:space="preserve"
       id="flowRoot3341"
       style="font-size:56px;font-style:italic;font-variant:normal;font-weight:normal;font-stretch:normal;text-align:start;line-height:125%;letter-spacing:0px;word-spacing:0px;writing-mode:lr-tb;text-anchor:start;fill:#000000;fill-opacity:1;stroke:none;font-family:Times New Roman;-inkscape-font-specification:'Times New Roman, Italic'"
       transform="matrix(8,0,0,-8,3732.7218,1550.4633)"><flowRegion
         id="flowRegion3343"><rect
           id="rect3345"
           width="724.20935"
           height="528.96796"
           x="501.72495"
           y="104.72771"
           style="font-size:56px;font-style:italic;font-variant:normal;font-weight:normal;font-stretch:normal;text-align:start;line-height:125%;writing-mode:lr-tb;text-anchor:start;font-family:Times New Roman;-inkscape-font-specification:'Times New Roman, Italic'" /></flowRegion><flowPara
         id="flowPara3347">b</flowPara></flowRoot>    <flowRoot
       xml:space="preserve"
       id="flowRoot3341-4"
       style="font-size:56px;font-style:italic;font-variant:normal;font-weight:normal;font-stretch:normal;text-align:start;line-height:125%;letter-spacing:0px;word-spacing:0px;writing-mode:lr-tb;text-anchor:start;fill:#000000;fill-opacity:1;stroke:none;font-family:Times New Roman;-inkscape-font-specification:'Times New Roman, Italic'"
       transform="matrix(8,0,0,-8,4129.8553,1534.3778)"><flowRegion
         id="flowRegion3343-4"><rect
           id="rect3345-7"
           width="724.20935"
           height="528.96796"
           x="501.72495"
           y="104.72771"
           style="font-size:56px;font-style:italic;font-variant:normal;font-weight:normal;font-stretch:normal;text-align:start;line-height:125%;writing-mode:lr-tb;text-anchor:start;font-family:Times New Roman;-inkscape-font-specification:'Times New Roman, Italic'" /></flowRegion><flowPara
         id="flowPara3376">a</flowPara></flowRoot>    <flowRoot
       xml:space="preserve"
       id="flowRoot3378"
       style="font-size:72px;font-style:normal;font-variant:normal;font-weight:normal;font-stretch:normal;text-align:start;line-height:125%;letter-spacing:0px;word-spacing:0px;writing-mode:lr-tb;text-anchor:start;fill:#000000;fill-opacity:1;stroke:none;font-family:Times New Roman;-inkscape-font-specification:'Times New Roman,'"
       transform="matrix(8,0,0,-8,-3379.8622,7830.1876)"><flowRegion
         id="flowRegion3380"><rect
           id="rect3382"
           width="980.74744"
           height="610.6969"
           x="481.29272"
           y="186.45667"
           style="font-size:72px;font-style:normal;font-variant:normal;font-weight:normal;font-stretch:normal;text-align:start;line-height:125%;writing-mode:lr-tb;text-anchor:start;font-family:Times New Roman;-inkscape-font-specification:'Times New Roman,'" /></flowRegion><flowPara
         id="flowPara3384">ω</flowPara></flowRoot>    <flowRoot
       xml:space="preserve"
       id="flowRoot3386"
       style="font-size:72px;font-style:normal;font-variant:normal;font-weight:normal;font-stretch:normal;text-align:start;line-height:125%;letter-spacing:0px;word-spacing:0px;writing-mode:lr-tb;text-anchor:start;fill:#000000;fill-opacity:1;stroke:none;font-family:Times New Roman;-inkscape-font-specification:'Times New Roman,'"
       transform="matrix(8,0,0,-8,-6839.2881,7067.384)"><flowRegion
         id="flowRegion3388"><rect
           id="rect3390"
           width="1107.8813"
           height="696.96631"
           x="887.66724"
           y="91.106224"
           style="font-size:72px;font-style:normal;font-variant:normal;font-weight:normal;font-stretch:normal;text-align:start;line-height:125%;writing-mode:lr-tb;text-anchor:start;font-family:Times New Roman;-inkscape-font-specification:'Times New Roman,'" /></flowRegion><flowPara
         id="flowPara3392">-</flowPara></flowRoot>  </g>
</svg>
