<?xml version="1.0" encoding="UTF-8" standalone="no"?>
<svg
   xmlns:dc="http://purl.org/dc/elements/1.1/"
   xmlns:cc="http://creativecommons.org/ns#"
   xmlns:rdf="http://www.w3.org/1999/02/22-rdf-syntax-ns#"
   xmlns:svg="http://www.w3.org/2000/svg"
   xmlns="http://www.w3.org/2000/svg"
   xmlns:sodipodi="http://sodipodi.sourceforge.net/DTD/sodipodi-0.dtd"
   xmlns:inkscape="http://www.inkscape.org/namespaces/inkscape"
   version="1.0"
   width="1500.000000pt"
   height="1050.000000pt"
   viewBox="0 0 1500.000000 1050.000000"
   preserveAspectRatio="xMidYMid meet"
   id="svg2"
   inkscape:version="0.48.4 r9939"
   sodipodi:docname="mod11.svg">
  <defs
     id="defs348" />
  <sodipodi:namedview
     pagecolor="#ffffff"
     bordercolor="#666666"
     borderopacity="1"
     objecttolerance="10"
     gridtolerance="10"
     guidetolerance="10"
     inkscape:pageopacity="0"
     inkscape:pageshadow="2"
     inkscape:window-width="1215"
     inkscape:window-height="1000"
     id="namedview346"
     showgrid="false"
     inkscape:zoom="0.44048038"
     inkscape:cx="920.49558"
     inkscape:cy="932.51396"
     inkscape:window-x="1985"
     inkscape:window-y="24"
     inkscape:window-maximized="1"
     inkscape:current-layer="g6" />
  <metadata
     id="metadata4">
Created by potrace 1.11, written by Peter Selinger 2001-2013
<rdf:RDF>
  <cc:Work
     rdf:about="">
    <dc:format>image/svg+xml</dc:format>
    <dc:type
       rdf:resource="http://purl.org/dc/dcmitype/StillImage" />
  </cc:Work>
</rdf:RDF>
</metadata>
  <g
     transform="translate(0.000000,1050.000000) scale(0.100000,-0.100000)"
     fill="#000000"
     stroke="none"
     id="g6">
    <path
       d="M1628 10046 c-26 -7 -63 -25 -83 -41 -109 -83 -96 -289 20 -311 38 -7 86 14 109 48 30 43 17 134 -23 165 -20 16 -76 16 -103 2 -18 -10 -20 -9 -15 6 4 9 7 20 7 25 0 20 58 75 97 92 24 10 43 21 43 23 0 3 -1 5 -2 4 -2 0 -24 -6 -50 -13z m-9 -165 c26 -26 34 -81 19 -127 -11 -33 -18 -39 -44 -42 -45 -4 -67 26 -72 100 -4 51 -2 64 14 75 25 18 61 16 83 -6z"
       id="path8" />
    <path
       d="M1134 10032 c-73 -59 -81 -230 -14 -305 37 -41 95 -44 135 -7 35 33 59 119 51 183 -13 94 -54 147 -116 147 -19 0 -45 -8 -56 -18z m89 -10 c40 -43 47 -215 12 -282 -21 -41 -68 -43 -89 -2 -34 66 -28 241 11 284 21 23 45 23 66 0z"
       id="path10" />
    <path
       d="M2026 9874 c-3 -9 -6 -1863 -6 -4120 l0 -4104 6016 0 c5200 0 6017 2 6030 14 22 23 18 66 -6 66 -15 0 -20 -7 -20 -25 l0 -25 -795 0 -795 0 0 25 c0 16 -6 25 -15 25 -9 0 -15 -9 -15 -25 l0 -25 -565 0 -565 0 0 25 c0 16 -6 25 -15 25 -9 0 -15 -9 -15 -25 l0 -25 -800 0 -800 0 0 25 c0 16 -6 25 -15 25 -9 0 -15 -9 -15 -25 l0 -25 -430 0 -430 0 0 25 c0 16 -6 25 -15 25 -9 0 -15 -9 -15 -25 l0 -25 -255 0 -255 0 0 25 c0 16 -6 25 -15 25 -9 0 -15 -9 -15 -25 l0 -25 -295 0 -295 0 0 25 c0 16 -6 25 -15 25 -9 0 -15 -9 -15 -25 l0 -25 -350 0 -350 0 0 25 c0 16 -6 25 -15 25 -9 0 -15 -9 -15 -25 l0 -25 -430 0 -430 0 0 25 c0 18 -5 25 -20 25 -15 0 -20 -7 -20 -25 l0 -25 -560 0 -560 0 0 25 c0 16 -6 25 -15 25 -9 0 -15 -9 -15 -25 l0 -25 -800 0 -800 0 0 25 c0 16 -6 25 -15 25 -9 0 -15 -9 -15 -25 l0 -25 -560 0 -560 0 0 255 0 256 88 42 c48 22 89 44 92 48 7 10 90 50 90 44 0 -7 183 85 190 95 7 11 69 41 93 46 36 6 187 82 187 93 0 13 71 50 91 48 24 -3 190 76 185 88 -5 14 81 58 96 49 16 -10 189 78 183 93 -7 20 83 62 94 44 6 -10 29 -2 100 34 74 37 91 49 87 63 -5 14 5 23 39 40 39 19 45 20 53 6 8 -14 22 -9 101 30 75 38 91 50 86 65 -4 15 66 54 452 252 357 182 745 369 769 369 1 0 0 -9 -3 -20 -3 -11 -3 -20 0 -20 4 0 47 19 97 42 70 32 90 45 87 58 -3 13 8 23 44 38 33 14 49 16 52 8 5 -13 161 59 187 86 9 10 52 31 96 46 43 16 108 44 142 61 57 29 1015 438 1317 563 66 27 149 62 185 78 157 70 293 125 395 160 61 22 193 69 295 105 102 36 235 84 295 105 61 21 182 64 270 96 122 43 266 82 605 160 444 103 447 104 1270 228 l825 125 566 40 565 41 822 0 c724 0 822 2 822 15 0 13 -99 15 -830 15 l-829 0 -563 -40 -562 -40 -826 -126 c-763 -115 -851 -131 -1170 -204 -189 -44 -346 -78 -347 -76 -2 2 26 16 62 32 36 16 65 35 65 42 0 19 -26 12 -123 -33 -42 -19 -76 -41 -74 -47 2 -10 -29 -22 -83 -32 -25 -4 -51 -13 -335 -115 -154 -54 -379 -134 -610 -216 -245 -87 -296 -106 -375 -142 -41 -19 -130 -56 -197 -83 -68 -27 -140 -58 -160 -69 -21 -10 -78 -35 -128 -54 -49 -19 -125 -51 -167 -71 -42 -20 -81 -36 -86 -36 -11 0 -72 -26 -190 -81 -46 -22 -87 -39 -91 -39 -12 0 -138 -53 -211 -89 -36 -17 -69 -31 -75 -31 -13 0 -175 -68 -190 -79 -5 -5 -271 -121 -590 -259 -570 -247 -595 -259 -1460 -702 -484 -249 -1102 -564 -1372 -702 l-493 -250 0 73 c0 57 4 75 18 85 16 13 16 15 -1 28 -15 12 -17 39 -17 310 l0 296 25 0 c16 0 25 6 25 15 0 9 -9 15 -25 15 l-25 0 0 670 0 670 25 0 c16 0 25 6 25 15 0 9 -9 15 -25 15 l-25 0 0 665 0 665 25 0 c18 0 25 5 25 20 0 15 -7 20 -25 20 l-25 0 0 665 0 665 25 0 c16 0 25 6 25 15 0 9 -9 15 -25 15 l-25 0 0 670 0 670 25 0 c16 0 25 6 25 15 0 9 -9 15 -25 15 l-25 0 0 670 0 670 25 0 c16 0 25 6 25 15 0 21 -66 21 -74 -1z"
       id="path12" />
    <path
       d="M13693 9879 c-28 -10 -21 -39 8 -32 24 7 30 15 21 30 -4 6 -15 7 -29 2z"
       id="path14" />
    <path
       d="M13563 9833 c-7 -2 -13 -12 -13 -20 0 -10 6 -13 16 -9 9 3 20 6 25 6 5 0 9 7 9 15 0 15 -14 18 -37 8z"
       id="path16" />
    <path
       d="M13443 9793 c-15 -5 -18 -33 -4 -33 21 0 41 13 41 26 0 14 -14 17 -37 7z"
       id="path18" />
    <path
       d="M13318 9749 c-9 -5 -15 -16 -12 -24 4 -11 11 -11 29 -3 14 6 21 16 18 24 -6 16 -12 17 -35 3z"
       id="path20" />
    <path
       d="M1367 9744 c-12 -12 -8 -42 6 -47 21 -8 39 8 35 29 -3 19 -29 30 -41 18z"
       id="path22" />
    <path
       d="M13190 9700 c-21 -13 -1 -31 27 -24 13 4 20 11 16 20 -6 16 -22 18 -43 4z"
       id="path24" />
    <path
       d="M13082 9659 c-28 -10 -24 -36 4 -31 24 5 26 7 22 25 -2 11 -9 12 -26 6z"
       id="path26" />
    <path
       d="M12958 9613 c-10 -2 -18 -11 -18 -19 0 -22 44 -14 48 9 4 17 1 18 -30 10z"
       id="path28" />
    <path
       d="M12833 9563 c-15 -5 -18 -33 -4 -33 21 0 41 13 41 26 0 14 -14 17 -37 7z"
       id="path30" />
    <path
       d="M12713 9517 c-29 -16 -16 -38 15 -26 22 8 29 24 14 33 -4 2 -17 -1 -29 -7z"
       id="path32" />
    <path
       d="M12588 9473 c-20 -5 -23 -18 -8 -28 15 -9 52 5 47 18 -4 13 -16 16 -39 10z"
       id="path34" />
    <path
       d="M12460 9420 c-10 -6 -12 -12 -5 -19 13 -13 57 -2 52 13 -5 15 -29 18 -47 6z"
       id="path36" />
    <path
       d="M12340 9370 c-11 -7 -12 -12 -3 -21 13 -13 57 6 48 22 -8 12 -26 11 -45 -1z"
       id="path38" />
    <path
       d="M12220 9320 c-10 -6 -12 -12 -5 -19 13 -13 57 -2 52 13 -5 15 -29 18 -47 6z"
       id="path40" />
    <path
       d="M12108 9273 c-20 -5 -23 -18 -8 -28 17 -11 49 5 43 21 -5 15 -6 15 -35 7z"
       id="path42" />
    <path
       d="M11988 9219 c-9 -5 -15 -16 -12 -24 4 -11 11 -11 29 -3 14 6 21 16 18 24 -6 16 -12 17 -35 3z"
       id="path44" />
    <path
       d="M11873 9169 c-28 -10 -21 -39 8 -32 24 7 30 15 21 30 -4 6 -15 7 -29 2z"
       id="path46" />
    <path
       d="M11753 9117 c-15 -8 -19 -17 -14 -26 12 -18 52 3 45 24 -4 8 -7 15 -8 15 0 -1 -11 -6 -23 -13z"
       id="path48" />
    <path
       d="M11633 9067 c-15 -8 -19 -17 -14 -26 12 -18 52 3 45 24 -4 8 -7 15 -8 15 0 -1 -11 -6 -23 -13z"
       id="path50" />
    <path
       d="M11508 9012 c-26 -11 -6 -36 21 -27 12 4 20 12 18 18 -4 14 -18 17 -39 9z"
       id="path52" />
    <path
       d="M11393 8963 c-7 -2 -13 -11 -13 -19 0 -8 6 -14 13 -14 21 0 40 17 33 29 -8 12 -13 12 -33 4z"
       id="path54" />
    <path
       d="M11268 8909 c-9 -5 -15 -16 -12 -24 5 -11 11 -12 30 -3 14 6 23 16 21 22 -5 14 -20 17 -39 5z"
       id="path56" />
    <path
       d="M11153 8853 c-15 -5 -18 -33 -4 -33 21 0 41 13 41 26 0 14 -14 17 -37 7z"
       id="path58" />
    <path
       d="M11035 8797 c-10 -8 -15 -19 -11 -25 10 -16 56 6 49 24 -6 17 -14 18 -38 1z"
       id="path60" />
    <path
       d="M10916 8737 c-13 -10 -16 -16 -7 -21 15 -10 53 3 48 17 -5 17 -21 18 -41 4z"
       id="path62" />
    <path
       d="M10803 8687 c-15 -8 -19 -17 -14 -26 7 -10 13 -11 30 -2 21 12 27 26 13 35 -4 2 -17 -1 -29 -7z"
       id="path64" />
    <path
       d="M1134 8672 c-73 -59 -81 -230 -14 -305 37 -41 95 -44 135 -7 35 33 59 119 51 183 -13 94 -54 147 -116 147 -19 0 -45 -8 -56 -18z m89 -10 c40 -43 47 -215 12 -282 -21 -41 -68 -43 -89 -2 -34 66 -28 241 11 284 21 23 45 23 66 0z"
       id="path66" />
    <path
       d="M1597 8683 l-57 -4 -25 -49 c-34 -67 -32 -76 15 -84 23 -3 54 -18 71 -34 26 -24 32 -36 32 -72 0 -35 -6 -48 -27 -67 -32 -27 -45 -28 -72 -8 -25 19 -64 19 -64 0 0 -36 64 -44 127 -16 49 23 73 62 73 120 0 52 -46 107 -96 117 -39 7 -47 15 -38 38 5 12 20 16 58 16 29 0 57 5 64 12 13 13 16 39 5 36 -5 -1 -34 -3 -66 -5z"
       id="path68" />
    <path
       d="M10688 8633 c-10 -2 -18 -11 -18 -19 0 -22 44 -14 48 9 4 17 1 18 -30 10z"
       id="path70" />
    <path
       d="M10560 8570 c-11 -6 -12 -12 -4 -20 13 -13 44 -2 44 16 0 16 -18 18 -40 4z"
       id="path72" />
    <path
       d="M10457 8516 c-20 -16 -22 -36 -3 -36 19 0 36 23 28 37 -5 8 -12 8 -25 -1z"
       id="path74" />
    <path
       d="M10338 8449 c-9 -5 -15 -16 -12 -24 4 -11 11 -11 29 -3 14 6 21 16 18 24 -6 16 -12 17 -35 3z"
       id="path76" />
    <path
       d="M10223 8387 c-15 -8 -19 -17 -14 -26 7 -10 13 -11 30 -2 21 12 27 26 13 35 -4 2 -17 -1 -29 -7z"
       id="path78" />
    <path
       d="M1367 8384 c-12 -12 -8 -42 6 -47 21 -8 39 8 35 29 -3 19 -29 30 -41 18z"
       id="path80" />
    <path
       d="M10112 8327 c-22 -10 -25 -28 -6 -34 16 -5 44 21 36 33 -5 8 -14 8 -30 1z"
       id="path82" />
    <path
       d="M9993 8263 c-15 -5 -18 -33 -4 -33 21 0 41 13 41 26 0 14 -14 17 -37 7z"
       id="path84" />
    <path
       d="M9878 8199 c-9 -5 -15 -16 -12 -24 5 -11 11 -12 30 -3 14 6 23 16 21 22 -5 14 -20 17 -39 5z"
       id="path86" />
    <path
       d="M9765 8137 c-10 -8 -15 -19 -11 -25 10 -16 56 6 49 24 -6 17 -14 18 -38 1z"
       id="path88" />
    <path
       d="M9653 8077 c-15 -8 -19 -17 -14 -26 7 -10 13 -11 30 -2 21 12 27 26 13 35 -4 2 -17 -1 -29 -7z"
       id="path90" />
    <path
       d="M9530 8010 c-11 -7 -12 -12 -3 -21 13 -13 57 6 48 22 -8 12 -26 11 -45 -1z"
       id="path92" />
    <path
       d="M9421 7951 c-8 -5 -11 -16 -8 -25 6 -14 10 -14 27 -4 20 13 22 29 4 35 -5 1 -15 -1 -23 -6z"
       id="path94" />
    <path
       d="M9308 7887 c-10 -8 -13 -18 -9 -26 11 -17 51 7 44 26 -6 16 -13 16 -35 0z"
       id="path96" />
    <path
       d="M9195 7824 c-13 -10 -16 -17 -9 -24 13 -13 44 -2 44 15 0 21 -13 25 -35 9z"
       id="path98" />
    <path
       d="M9076 7757 c-13 -10 -16 -16 -7 -21 15 -10 53 3 48 17 -5 17 -21 18 -41 4z"
       id="path100" />
    <path
       d="M8965 7697 c-10 -8 -15 -19 -11 -25 10 -16 56 6 49 24 -6 17 -14 18 -38 1z"
       id="path102" />
    <path
       d="M8850 7625 c-6 -8 -9 -19 -5 -24 8 -13 45 9 45 26 0 18 -25 16 -40 -2z"
       id="path104" />
    <path
       d="M8747 7566 c-18 -14 -23 -36 -8 -36 20 0 41 13 41 25 0 21 -13 25 -33 11z"
       id="path106" />
    <path
       d="M8638 7499 c-18 -10 -25 -39 -10 -39 5 0 17 6 28 14 24 18 8 40 -18 25z"
       id="path108" />
    <path
       d="M8517 7428 c-11 -9 -14 -18 -8 -26 7 -12 12 -12 30 0 21 13 23 29 5 35 -5 2 -17 -2 -27 -9z"
       id="path110" />
    <path
       d="M8404 7356 c-18 -14 -18 -15 -1 -21 19 -8 50 12 41 26 -7 13 -17 11 -40 -5z"
       id="path112" />
    <path
       d="M1134 7302 c-73 -59 -81 -230 -14 -305 37 -41 95 -44 135 -7 35 33 59 119 51 183 -13 94 -54 147 -116 147 -19 0 -45 -8 -56 -18z m89 -10 c40 -43 47 -215 12 -282 -21 -41 -68 -43 -89 -2 -34 66 -28 241 11 284 21 23 45 23 66 0z"
       id="path114" />
    <path
       d="M1541 7212 c-41 -59 -77 -117 -79 -129 -4 -22 -2 -23 67 -23 l71 0 0 -45 c0 -38 3 -45 20 -45 17 0 20 7 20 45 0 43 1 45 30 45 20 0 30 5 30 15 0 10 -10 15 -30 15 l-30 0 0 115 c0 86 -3 115 -12 114 -7 0 -46 -48 -87 -107z m56 -119 c-3 -2 -30 -3 -61 -1 l-56 3 58 82 57 82 3 -81 c2 -44 1 -82 -1 -85z"
       id="path116" />
    <path
       d="M8302 7297 c-22 -10 -25 -28 -6 -34 16 -5 44 21 36 33 -5 8 -14 8 -30 1z"
       id="path118" />
    <path
       d="M8186 7225 c-14 -11 -17 -18 -9 -26 14 -14 53 9 46 28 -6 16 -13 16 -37 -2z"
       id="path120" />
    <path
       d="M8079 7151 c-22 -18 -23 -20 -6 -27 23 -8 50 15 38 34 -6 10 -13 9 -32 -7z"
       id="path122" />
    <path
       d="M13948 7118 c-55 -18 -88 -35 -88 -44 0 -19 1 -19 107 17 59 19 93 36 93 45 0 19 -11 17 -112 -18z"
       id="path124" />
    <path
       d="M7966 7077 c-15 -11 -15 -15 -4 -24 16 -14 54 9 43 26 -8 14 -17 14 -39 -2z"
       id="path126" />
    <path
       d="M13653 7017 c-72 -25 -90 -35 -84 -46 7 -11 26 -8 105 19 53 19 95 38 93 44 -6 17 -20 15 -114 -17z"
       id="path128" />
    <path
       d="M1367 7014 c-12 -12 -8 -42 6 -47 21 -8 39 8 35 29 -3 19 -29 30 -41 18z"
       id="path130" />
    <path
       d="M7860 7005 c-9 -10 -10 -19 -4 -25 13 -13 49 13 40 28 -10 16 -21 15 -36 -3z"
       id="path132" />
    <path
       d="M7756 6934 c-29 -21 -6 -42 23 -22 17 12 19 17 9 26 -9 7 -19 6 -32 -4z"
       id="path134" />
    <path
       d="M13358 6918 c-55 -18 -88 -35 -88 -44 0 -19 1 -19 107 17 59 19 93 36 93 45 0 19 -11 17 -112 -18z"
       id="path136" />
    <path
       d="M7640 6855 c-10 -12 -9 -16 4 -21 18 -7 49 13 40 27 -8 14 -30 11 -44 -6z"
       id="path138" />
    <path
       d="M13061 6819 c-93 -32 -99 -35 -85 -49 14 -14 194 47 194 66 0 19 -11 17 -109 -17z"
       id="path140" />
    <path
       d="M7538 6787 c-10 -8 -13 -18 -9 -26 7 -10 12 -10 30 1 21 13 24 29 5 35 -5 1 -17 -3 -26 -10z"
       id="path142" />
    <path
       d="M12758 6719 c-66 -23 -86 -34 -81 -45 3 -8 11 -13 17 -11 6 2 50 17 99 33 48 15 86 33 84 39 -6 18 -30 15 -119 -16z"
       id="path144" />
    <path
       d="M7436 6715 c-12 -9 -16 -20 -12 -31 6 -16 9 -16 29 4 26 26 12 48 -17 27z"
       id="path146" />
    <path
       d="M7325 6636 c-29 -21 -6 -43 24 -24 21 13 23 29 5 35 -5 2 -19 -3 -29 -11z"
       id="path148" />
    <path
       d="M12468 6618 c-58 -19 -88 -35 -88 -45 0 -17 -3 -17 113 22 49 16 87 35 87 42 0 18 -12 16 -112 -19z"
       id="path150" />
    <path
       d="M7222 6561 c-20 -15 -21 -19 -9 -29 11 -9 18 -8 32 8 25 28 7 44 -23 21z"
       id="path152" />
    <path
       d="M12178 6518 c-67 -24 -88 -36 -88 -50 0 -17 2 -17 48 1 26 10 70 26 99 35 37 12 50 21 46 32 -7 18 -2 19 -105 -18z"
       id="path154" />
    <path
       d="M7114 6486 c-15 -12 -16 -17 -7 -27 10 -10 15 -9 28 1 16 13 21 40 7 40 -5 0 -17 -6 -28 -14z"
       id="path156" />
    <path
       d="M11877 6411 c-86 -31 -95 -37 -81 -51 11 -11 186 50 192 68 6 18 -25 14 -111 -17z"
       id="path158" />
    <path
       d="M7000 6405 c-10 -12 -9 -16 4 -21 18 -7 49 13 40 27 -8 14 -30 11 -44 -6z"
       id="path160" />
    <path
       d="M6904 6336 c-15 -12 -17 -17 -6 -27 10 -11 15 -10 29 4 24 23 4 43 -23 23z"
       id="path162" />
    <path
       d="M11588 6308 c-51 -18 -88 -37 -88 -45 0 -18 2 -17 108 18 52 17 91 36 89 42 -6 18 -19 17 -109 -15z"
       id="path164" />
    <path
       d="M6797 6258 c-11 -9 -14 -18 -7 -28 7 -12 12 -12 29 4 31 28 12 49 -22 24z"
       id="path166" />
    <path
       d="M11296 6205 c-84 -30 -109 -46 -89 -58 4 -2 48 9 98 27 62 21 91 36 93 49 4 21 6 21 -102 -18z"
       id="path168" />
    <path
       d="M6690 6175 c-6 -8 -9 -19 -5 -25 9 -14 45 6 45 25 0 19 -24 19 -40 0z"
       id="path170" />
    <path
       d="M11010 6109 c-47 -16 -91 -31 -97 -34 -7 -2 -10 -11 -7 -19 4 -12 21 -9 97 16 101 34 109 38 99 54 -5 8 -33 2 -92 -17z"
       id="path172" />
    <path
       d="M6587 6099 c-14 -8 -16 -14 -6 -25 10 -13 14 -12 30 2 29 26 11 43 -24 23z"
       id="path174" />
    <path
       d="M6482 6017 c-6 -7 -8 -18 -3 -25 5 -9 12 -8 29 4 23 16 21 34 -2 34 -8 0 -18 -6 -24 -13z"
       id="path176" />
    <path
       d="M10698 6002 c-83 -29 -93 -35 -84 -51 8 -13 188 50 194 67 6 18 -25 13 -110 -16z"
       id="path178" />
    <path
       d="M6386 5945 c-12 -9 -16 -20 -12 -31 6 -16 9 -16 29 4 26 26 12 48 -17 27z"
       id="path180" />
    <path
       d="M1134 5932 c-73 -59 -81 -230 -14 -305 37 -41 95 -44 135 -7 35 33 59 119 51 183 -13 94 -54 147 -116 147 -19 0 -45 -8 -56 -18z m89 -10 c40 -43 47 -215 12 -282 -21 -41 -68 -43 -89 -2 -34 66 -28 241 11 284 21 23 45 23 66 0z"
       id="path182" />
    <path
       d="M1509 5921 c-16 -16 -29 -34 -29 -40 0 -5 11 1 25 14 37 38 89 32 106 -11 12 -34 -7 -70 -50 -91 l-36 -17 32 -6 c62 -10 94 -59 74 -113 -16 -43 -52 -54 -101 -32 -29 13 -44 15 -51 8 -29 -29 37 -50 99 -33 57 15 92 59 92 116 0 36 -5 50 -26 69 l-26 24 21 27 c27 35 27 59 -4 89 -35 36 -88 34 -126 -4z"
       id="path184" />
    <path
       d="M10420 5909 c-47 -16 -91 -31 -97 -34 -7 -2 -10 -11 -7 -19 4 -12 21 -9 97 16 101 34 109 38 99 54 -5 8 -33 2 -92 -17z"
       id="path186" />
    <path
       d="M6279 5861 c-22 -18 -23 -20 -6 -27 23 -9 56 21 41 36 -8 8 -18 5 -35 -9z"
       id="path188" />
    <path
       d="M10113 5807 c-69 -23 -93 -36 -93 -48 0 -16 10 -14 93 13 99 33 117 43 102 57 -6 5 -49 -5 -102 -22z"
       id="path190" />
    <path
       d="M6176 5781 c-21 -23 -6 -37 23 -21 12 6 18 16 15 25 -8 20 -17 19 -38 -4z"
       id="path192" />
    <path
       d="M9813 5707 c-53 -18 -93 -37 -93 -44 0 -19 16 -16 110 15 56 19 86 34 88 45 4 21 5 21 -105 -16z"
       id="path194" />
    <path
       d="M6074 5706 c-15 -12 -17 -17 -6 -27 10 -11 15 -10 29 4 24 23 4 43 -23 23z"
       id="path196" />
    <path
       d="M1367 5644 c-12 -12 -8 -42 6 -47 21 -8 39 8 35 29 -3 19 -29 30 -41 18z"
       id="path198" />
    <path
       d="M5972 5628 c-14 -14 -16 -38 -4 -38 18 0 45 28 38 38 -9 15 -19 15 -34 0z"
       id="path200" />
    <path
       d="M9513 5589 c-59 -27 -81 -43 -77 -53 5 -12 15 -10 61 10 97 43 134 65 128 74 -9 15 -24 11 -112 -31z"
       id="path202" />
    <path
       d="M5866 5541 c-21 -23 -6 -37 23 -21 12 6 18 16 15 25 -8 20 -17 19 -38 -4z"
       id="path204" />
    <path
       d="M9232 5460 c-70 -33 -95 -55 -72 -63 14 -5 180 78 180 90 0 20 -17 16 -108 -27z"
       id="path206" />
    <path
       d="M5760 5455 c-10 -12 -9 -16 4 -21 18 -7 49 13 40 27 -8 14 -30 11 -44 -6z"
       id="path208" />
    <path
       d="M5662 5377 c-7 -8 -7 -18 -2 -27 7 -12 12 -11 29 4 21 19 20 36 -3 36 -8 0 -18 -6 -24 -13z"
       id="path210" />
    <path
       d="M5564 5296 c-15 -12 -16 -17 -7 -27 10 -10 15 -9 28 1 16 13 21 40 7 40 -5 0 -17 -6 -28 -14z"
       id="path212" />
    <path
       d="M5466 5214 c-16 -11 -17 -17 -8 -26 9 -9 16 -8 29 5 23 23 5 41 -21 21z"
       id="path214" />
    <path
       d="M5368 5132 c-22 -24 -13 -45 13 -29 20 12 25 32 10 41 -4 3 -15 -2 -23 -12z"
       id="path216" />
    <path
       d="M5260 5045 c-6 -8 -9 -19 -5 -24 8 -13 45 9 45 26 0 18 -25 16 -40 -2z"
       id="path218" />
    <path
       d="M5160 4965 c-9 -10 -10 -19 -4 -25 13 -13 49 13 40 28 -10 16 -21 15 -36 -3z"
       id="path220" />
    <path
       d="M5064 4886 c-15 -12 -17 -17 -6 -27 10 -11 15 -10 29 4 24 23 4 43 -23 23z"
       id="path222" />
    <path
       d="M4962 4801 c-20 -15 -21 -19 -9 -29 11 -9 18 -8 32 8 25 28 7 44 -23 21z"
       id="path224" />
    <path
       d="M4857 4719 c-14 -8 -16 -14 -6 -25 10 -13 14 -12 30 2 29 26 11 43 -24 23z"
       id="path226" />
    <path
       d="M4760 4635 c-18 -22 0 -37 24 -20 10 8 15 18 11 24 -9 15 -20 14 -35 -4z"
       id="path228" />
    <path
       d="M1134 4562 c-73 -59 -81 -230 -14 -305 37 -41 95 -44 135 -7 35 33 59 119 51 183 -13 94 -54 147 -116 147 -19 0 -45 -8 -56 -18z m89 -10 c40 -43 47 -215 12 -282 -21 -41 -68 -43 -89 -2 -34 66 -28 241 11 284 21 23 45 23 66 0z"
       id="path230" />
    <path
       d="M1504 4546 c-19 -19 -34 -42 -34 -52 0 -15 6 -12 26 14 48 60 129 33 127 -43 -1 -45 -39 -108 -102 -170 -28 -27 -51 -53 -51 -57 0 -4 44 -8 98 -8 96 0 99 1 110 25 15 32 15 57 1 33 -8 -15 -24 -18 -87 -18 l-76 0 51 53 c108 111 129 173 74 228 -42 42 -92 40 -137 -5z"
       id="path232" />
    <path
       d="M4655 4550 c-17 -18 -17 -20 -1 -26 20 -8 52 19 42 35 -10 16 -21 14 -41 -9z"
       id="path234" />
    <path
       d="M4557 4466 c-14 -11 -15 -15 -4 -25 11 -8 18 -7 31 7 25 29 5 42 -27 18z"
       id="path236" />
    <path
       d="M4462 4388 c-14 -14 -16 -38 -4 -38 18 0 45 28 38 38 -9 15 -19 15 -34 0z"
       id="path238" />
    <path
       d="M4362 4301 c-20 -15 -21 -19 -9 -29 11 -9 18 -8 32 8 25 28 7 44 -23 21z"
       id="path240" />
    <path
       d="M1367 4274 c-12 -12 -8 -42 6 -47 21 -8 39 8 35 29 -3 19 -29 30 -41 18z"
       id="path242" />
    <path
       d="M4260 4215 c-18 -22 0 -37 24 -20 10 8 15 18 11 24 -9 15 -20 14 -35 -4z"
       id="path244" />
    <path
       d="M4162 4138 c-16 -16 -15 -38 2 -38 18 0 39 27 31 40 -8 13 -18 13 -33 -2z"
       id="path246" />
    <path
       d="M4065 4050 c-12 -14 -15 -24 -9 -30 7 -7 17 -4 29 10 12 14 15 24 9 30 -7 7 -17 4 -29 -10z"
       id="path248" />
    <path
       d="M3960 3965 c-10 -12 -10 -19 -2 -27 15 -15 48 14 38 31 -10 15 -21 14 -36 -4z"
       id="path250" />
    <path
       d="M3865 3880 c-12 -14 -15 -24 -9 -30 7 -7 17 -4 29 10 12 14 15 24 9 30 -7 7 -17 4 -29 -10z"
       id="path252" />
    <path
       d="M3764 3796 c-15 -12 -16 -17 -7 -27 10 -10 15 -9 28 1 16 13 21 40 7 40 -5 0 -17 -6 -28 -14z"
       id="path254" />
    <path
       d="M3666 3711 c-21 -23 -5 -37 24 -21 17 9 19 14 9 26 -14 17 -13 18 -33 -5z"
       id="path256" />
    <path
       d="M4928 3634 c-83 -42 -96 -52 -82 -67 8 -8 184 80 184 93 0 21 -19 16 -102 -26z"
       id="path258" />
    <path
       d="M3564 3626 c-15 -12 -16 -17 -7 -27 10 -10 17 -9 33 6 32 29 10 47 -26 21z"
       id="path260" />
    <path
       d="M3465 3540 c-16 -18 -16 -20 -1 -26 21 -8 47 13 39 32 -7 19 -17 18 -38 -6z"
       id="path262" />
    <path
       d="M4648 3496 c-78 -37 -111 -66 -75 -66 21 0 177 78 177 89 0 21 -18 17 -102 -23z"
       id="path264" />
    <path
       d="M3367 3456 c-14 -11 -15 -15 -4 -25 11 -8 18 -7 31 7 25 29 5 42 -27 18z"
       id="path266" />
    <path
       d="M4363 3357 c-46 -23 -83 -47 -83 -54 0 -20 13 -16 105 29 77 38 97 57 69 64 -5 2 -46 -16 -91 -39z"
       id="path268" />
    <path
       d="M3265 3370 c-17 -18 -17 -20 -1 -26 20 -8 52 19 42 35 -10 16 -21 14 -41 -9z"
       id="path270" />
    <path
       d="M3170 3285 c-19 -23 -1 -39 21 -19 10 9 16 21 13 25 -8 13 -20 11 -34 -6z"
       id="path272" />
    <path
       d="M4083 3217 c-46 -23 -83 -47 -83 -54 0 -19 6 -17 102 29 49 23 88 47 88 55 0 20 -18 15 -107 -30z"
       id="path274" />
    <path
       d="M1134 3202 c-73 -59 -81 -230 -14 -305 37 -41 95 -44 135 -7 35 33 59 119 51 183 -13 94 -54 147 -116 147 -19 0 -45 -8 -56 -18z m89 -10 c40 -43 47 -215 12 -282 -21 -41 -68 -43 -89 -2 -34 66 -28 241 11 284 21 23 45 23 66 0z"
       id="path276" />
    <path
       d="M1550 3195 c-35 -19 -40 -24 -20 -22 l25 2 0 -145 0 -144 -25 -7 c-15 -4 4 -7 50 -7 54 -1 69 2 53 8 -23 9 -23 13 -23 175 0 91 -3 165 -7 165 -5 -1 -28 -12 -53 -25z"
       id="path278" />
    <path
       d="M3067 3209 c-14 -8 -16 -14 -6 -25 10 -13 14 -12 30 2 29 26 11 43 -24 23z"
       id="path280" />
    <path
       d="M2960 3125 c-22 -26 4 -43 30 -20 20 18 18 35 -4 35 -8 0 -19 -7 -26 -15z"
       id="path282" />
    <path
       d="M2860 3045 c-6 -8 -9 -19 -5 -25 9 -14 45 6 45 25 0 19 -24 19 -40 0z"
       id="path284" />
    <path
       d="M2760 2965 c-18 -22 0 -37 24 -20 10 8 15 18 11 24 -9 15 -20 14 -35 -4z"
       id="path286" />
    <path
       d="M1367 2914 c-12 -12 -8 -42 6 -47 21 -8 39 8 35 29 -3 19 -29 30 -41 18z"
       id="path288" />
    <path
       d="M2657 2888 c-11 -9 -14 -18 -7 -28 7 -12 12 -12 29 4 31 28 12 49 -22 24z"
       id="path290" />
    <path
       d="M2550 2805 c-22 -26 4 -43 30 -20 20 18 18 35 -4 35 -8 0 -19 -7 -26 -15z"
       id="path292" />
    <path
       d="M2450 2725 c-9 -10 -10 -19 -4 -25 13 -13 49 13 40 28 -10 16 -21 15 -36 -3z"
       id="path294" />
    <path
       d="M2347 2646 c-14 -11 -15 -16 -5 -24 16 -13 53 11 43 27 -8 14 -16 13 -38 -3z"
       id="path296" />
    <path
       d="M2247 2568 c-11 -9 -14 -18 -7 -28 7 -12 12 -12 29 4 31 28 12 49 -22 24z"
       id="path298" />
    <path
       d="M2140 2485 c-10 -12 -10 -19 -2 -27 13 -13 42 6 42 28 0 19 -24 18 -40 -1z"
       id="path300" />
    <path
       d="M1524 1832 c-73 -59 -81 -230 -14 -305 37 -41 95 -44 135 -7 35 33 59 119 51 183 -13 94 -54 147 -116 147 -19 0 -45 -8 -56 -18z m89 -10 c40 -43 47 -215 12 -282 -21 -41 -68 -43 -89 -2 -34 66 -28 241 11 284 21 23 45 23 66 0z"
       id="path302" />
    <path
       d="M7638 1326 c-26 -7 -63 -25 -83 -41 -109 -83 -96 -289 20 -311 38 -7 86 14 109 48 30 43 17 134 -23 165 -20 16 -76 16 -103 2 -18 -10 -20 -9 -15 6 4 9 7 20 7 25 0 20 58 75 97 92 24 10 43 21 43 23 0 3 -1 5 -2 4 -2 0 -24 -6 -50 -13z m-9 -165 c26 -26 34 -81 19 -127 -11 -33 -18 -39 -44 -42 -45 -4 -67 26 -72 100 -4 51 -2 64 14 75 25 18 61 16 83 -6z"
       id="path304" />
    <path
       d="M1800 1305 c-35 -19 -40 -24 -20 -22 l25 2 0 -145 0 -144 -25 -7 c-15 -4 4 -7 50 -7 54 -1 69 2 53 8 -23 9 -23 13 -23 175 0 91 -3 165 -7 165 -5 -1 -28 -12 -53 -25z"
       id="path306" />
    <path
       d="M2237 1323 l-57 -4 -25 -49 c-34 -67 -32 -76 15 -84 23 -3 54 -18 71 -34 26 -24 32 -36 32 -72 0 -35 -6 -48 -27 -67 -32 -27 -45 -28 -72 -8 -25 19 -64 19 -64 0 0 -36 64 -44 127 -16 49 23 73 62 73 120 0 52 -46 107 -96 117 -39 7 -47 15 -38 38 5 12 20 16 58 16 29 0 57 5 64 12 13 13 16 39 5 36 -5 -1 -34 -3 -66 -5z"
       id="path308" />
    <path
       d="M3104 1296 c-19 -19 -34 -42 -34 -52 0 -15 6 -12 26 14 48 60 129 33 127 -43 -1 -45 -39 -108 -102 -170 -28 -27 -51 -53 -51 -57 0 -4 44 -8 98 -8 96 0 99 1 110 25 15 32 15 57 1 33 -8 -15 -24 -18 -87 -18 l-76 0 51 53 c108 111 129 173 74 228 -42 42 -92 40 -137 -5z"
       id="path310" />
    <path
       d="M4739 1301 c-16 -16 -29 -34 -29 -40 0 -5 11 1 25 14 37 38 89 32 106 -11 12 -34 -7 -70 -50 -91 l-36 -17 32 -6 c62 -10 94 -59 74 -113 -16 -43 -52 -54 -101 -32 -29 13 -44 15 -51 8 -29 -29 37 -50 99 -33 57 15 92 59 92 116 0 36 -5 50 -26 69 l-26 24 21 27 c27 35 27 59 -4 89 -35 36 -88 34 -126 -4z"
       id="path312" />
    <path
       d="M5921 1222 c-41 -59 -77 -117 -79 -129 -4 -22 -2 -23 67 -23 l71 0 0 -45 c0 -38 3 -45 20 -45 17 0 20 7 20 45 0 43 1 45 30 45 20 0 30 5 30 15 0 10 -10 15 -30 15 l-30 0 0 115 c0 86 -3 115 -12 114 -7 0 -46 -48 -87 -107z m56 -119 c-3 -2 -30 -3 -61 -1 l-56 3 58 82 57 82 3 -81 c2 -44 1 -82 -1 -85z"
       id="path314" />
    <path
       d="M6877 1323 l-57 -4 -25 -49 c-34 -67 -32 -76 15 -84 23 -3 54 -18 71 -34 26 -24 32 -36 32 -72 0 -35 -6 -48 -27 -67 -32 -27 -45 -28 -72 -8 -25 19 -64 19 -64 0 0 -36 64 -44 127 -16 49 23 73 62 73 120 0 52 -46 107 -96 117 -39 7 -47 15 -38 38 5 12 20 16 58 16 29 0 57 5 64 12 13 13 16 39 5 36 -5 -1 -34 -3 -66 -5z"
       id="path316" />
    <path
       d="M8679 1301 c-40 -40 -36 -73 13 -127 19 -21 19 -22 -11 -52 -38 -38 -41 -80 -7 -119 21 -24 31 -28 77 -27 44 0 56 5 76 28 37 44 28 98 -25 143 l-26 22 32 29 c39 37 42 73 7 107 -36 37 -97 35 -136 -4z m99 3 c30 -21 30 -73 -2 -103 l-23 -22 -32 36 c-36 42 -38 58 -11 85 24 24 38 25 68 4z m-4 -198 c56 -52 43 -116 -24 -116 -35 0 -60 31 -60 75 0 31 24 75 40 75 5 0 25 -15 44 -34z"
       id="path318" />
    <path
       d="M9480 1305 c-35 -19 -40 -24 -20 -22 l25 2 0 -145 0 -144 -25 -7 c-15 -4 4 -7 50 -7 54 -1 69 2 53 8 -23 9 -23 13 -23 175 0 91 -3 165 -7 165 -5 -1 -28 -12 -53 -25z"
       id="path320" />
    <path
       d="M9714 1312 c-73 -59 -81 -230 -14 -305 37 -41 95 -44 135 -7 35 33 59 119 51 183 -13 94 -54 147 -116 147 -19 0 -45 -8 -56 -18z m89 -10 c40 -43 47 -215 12 -282 -21 -41 -68 -43 -89 -2 -34 66 -28 241 11 284 21 23 45 23 66 0z"
       id="path322" />
    <path
       d="M11110 1305 c-35 -19 -40 -24 -20 -22 l25 2 0 -145 0 -144 -25 -7 c-15 -4 4 -7 50 -7 54 -1 69 2 53 8 -23 9 -23 13 -23 175 0 91 -3 165 -7 165 -5 -1 -28 -12 -53 -25z"
       id="path324" />
    <path
       d="M11417 1323 l-57 -4 -25 -49 c-34 -67 -32 -76 15 -84 23 -3 54 -18 71 -34 26 -24 32 -36 32 -72 0 -35 -6 -48 -27 -67 -32 -27 -45 -28 -72 -8 -25 19 -64 19 -64 0 0 -36 64 -44 127 -16 49 23 73 62 73 120 0 52 -46 107 -96 117 -39 7 -47 15 -38 38 5 12 20 16 58 16 29 0 57 5 64 12 13 13 16 39 5 36 -5 -1 -34 -3 -66 -5z"
       id="path326" />
    <path
       d="M12224 1296 c-19 -19 -34 -42 -34 -52 0 -15 6 -12 26 14 48 60 129 33 127 -43 -1 -45 -39 -108 -102 -170 -28 -27 -51 -53 -51 -57 0 -4 44 -8 98 -8 96 0 99 1 110 25 15 32 15 57 1 33 -8 -15 -24 -18 -87 -18 l-76 0 51 53 c108 111 129 173 74 228 -42 42 -92 40 -137 -5z"
       id="path328" />
    <path
       d="M12504 1312 c-73 -59 -81 -230 -14 -305 37 -41 95 -44 135 -7 35 33 59 119 51 183 -13 94 -54 147 -116 147 -19 0 -45 -8 -56 -18z m89 -10 c40 -43 47 -215 12 -282 -21 -41 -68 -43 -89 -2 -34 66 -28 241 11 284 21 23 45 23 66 0z"
       id="path330" />
    <path
       d="M13859 1301 c-16 -16 -29 -34 -29 -40 0 -5 11 1 25 14 37 38 89 32 106 -11 12 -34 -7 -70 -50 -91 l-36 -17 32 -6 c62 -10 94 -59 74 -113 -16 -43 -52 -54 -101 -32 -29 13 -44 15 -51 8 -29 -29 37 -50 99 -33 57 15 92 59 92 116 0 36 -5 50 -26 69 l-26 24 21 27 c27 35 27 59 -4 89 -35 36 -88 34 -126 -4z"
       id="path332" />
    <path
       d="M14134 1312 c-73 -59 -81 -230 -14 -305 37 -41 95 -44 135 -7 35 33 59 119 51 183 -13 94 -54 147 -116 147 -19 0 -45 -8 -56 -18z m89 -10 c40 -43 47 -215 12 -282 -21 -41 -68 -43 -89 -2 -34 66 -28 241 11 284 21 23 45 23 66 0z"
       id="path334" />
    <path
       d="M8106 1288 c-15 -39 -12 -50 8 -23 11 15 30 20 85 23 39 2 71 0 71 -5 0 -5 -22 -75 -49 -156 -43 -128 -47 -147 -32 -147 14 0 28 34 69 164 29 90 52 167 52 170 0 3 -43 6 -95 6 l-95 0 -14 -32z"
       id="path336" />
    <path
       d="M2007 1024 c-12 -12 -8 -42 6 -47 21 -8 39 8 35 29 -3 19 -29 30 -41 18z"
       id="path338" />
    <path
       d="M8037 377 c-31 -95 -57 -176 -57 -180 0 -4 6 -7 14 -7 10 0 34 60 74 180 51 152 58 180 44 180 -14 0 -31 -40 -75 -173z"
       id="path342" />
    <flowRoot
       xml:space="preserve"
       id="flowRoot3349"
       style="fill:black;stroke:none;stroke-opacity:1;stroke-width:1px;stroke-linejoin:miter;stroke-linecap:butt;fill-opacity:1;font-family:Sans;font-style:normal;font-weight:normal;font-size:40px;line-height:125%;letter-spacing:0px;word-spacing:0px"><flowRegion
         id="flowRegion3351"><rect
           id="rect3353"
           width="86.269447"
           height="45.404972"
           x="592.53491"
           y="356.72531" /></flowRegion><flowPara
         id="flowPara3355"></flowPara></flowRoot>    <flowRoot
       xml:space="preserve"
       id="flowRoot3357"
       style="font-size:56px;font-style:italic;font-variant:normal;font-weight:normal;font-stretch:normal;text-align:start;line-height:125%;letter-spacing:0px;word-spacing:0px;writing-mode:lr-tb;text-anchor:start;fill:#000000;fill-opacity:1;stroke:none;font-family:Times New Roman;-inkscape-font-specification:'Times New Roman, Italic'"
       transform="matrix(8,0,0,-8,3904.8277,2803.6405)"><flowRegion
         id="flowRegion3359"><rect
           id="rect3361"
           width="313.29431"
           height="245.18686"
           x="472.21173"
           y="263.64511"
           style="font-size:56px;font-style:italic;font-variant:normal;font-weight:normal;font-stretch:normal;text-align:start;line-height:125%;writing-mode:lr-tb;text-anchor:start;font-family:Times New Roman;-inkscape-font-specification:'Times New Roman, Italic'" /></flowRegion><flowPara
         id="flowPara3363">b</flowPara></flowRoot>    <flowRoot
       xml:space="preserve"
       id="flowRoot3357-0"
       style="font-size:56px;font-style:italic;font-variant:normal;font-weight:normal;font-stretch:normal;text-align:start;line-height:125%;letter-spacing:0px;word-spacing:0px;writing-mode:lr-tb;text-anchor:start;fill:#000000;fill-opacity:1;stroke:none;font-family:Times New Roman;-inkscape-font-specification:'Times New Roman, Italic'"
       transform="matrix(8,0,0,-8,4372.7775,2805.8778)"><flowRegion
         id="flowRegion3359-1"><rect
           id="rect3361-4"
           width="313.29431"
           height="245.18686"
           x="472.21173"
           y="263.64511"
           style="font-size:56px;font-style:italic;font-variant:normal;font-weight:normal;font-stretch:normal;text-align:start;line-height:125%;writing-mode:lr-tb;text-anchor:start;font-family:Times New Roman;-inkscape-font-specification:'Times New Roman, Italic'" /></flowRegion><flowPara
         id="flowPara3392">a</flowPara></flowRoot>    <flowRoot
       xml:space="preserve"
       id="flowRoot3394"
       style="font-size:72px;font-style:normal;font-variant:normal;font-weight:normal;font-stretch:normal;text-align:start;line-height:125%;letter-spacing:0px;word-spacing:0px;writing-mode:lr-tb;text-anchor:start;fill:#000000;fill-opacity:1;stroke:none;font-family:Times New Roman;-inkscape-font-specification:'Times New Roman,'"
       transform="matrix(8,0,0,-8,369.72575,9789.5204)"><flowRegion
         id="flowRegion3396"><rect
           id="rect3398"
           width="111.24219"
           height="140.75542"
           x="20.432238"
           y="379.4278"
           style="font-size:72px;font-style:normal;font-variant:normal;font-weight:normal;font-stretch:normal;text-align:start;line-height:125%;writing-mode:lr-tb;text-anchor:start;font-family:Times New Roman;-inkscape-font-specification:'Times New Roman,'" /></flowRegion><flowPara
         id="flowPara3400">ω</flowPara></flowRoot>    <flowRoot
       xml:space="preserve"
       id="flowRoot3402"
       style="fill:black;stroke:none;stroke-opacity:1;stroke-width:1px;stroke-linejoin:miter;stroke-linecap:butt;fill-opacity:1;font-family:Sans;font-style:normal;font-weight:normal;font-size:40px;line-height:125%;letter-spacing:0px;word-spacing:0px"><flowRegion
         id="flowRegion3404"><rect
           id="rect3406"
           width="74.918205"
           height="47.67522"
           x="18.161989"
           y="277.2666" /></flowRegion><flowPara
         id="flowPara3408"></flowPara></flowRoot>    <flowRoot
       xml:space="preserve"
       id="flowRoot3410"
       style="font-size:72px;font-style:normal;font-variant:normal;font-weight:normal;font-stretch:normal;text-align:start;line-height:125%;letter-spacing:0px;word-spacing:0px;writing-mode:lr-tb;text-anchor:start;fill:#000000;fill-opacity:1;stroke:none;font-family:Times New Roman;-inkscape-font-specification:'Times New Roman,'"
       transform="matrix(8,0,0,-8,-3712,8132)"><flowRegion
         id="flowRegion3412"><rect
           id="rect3414"
           width="299.67282"
           height="149.83641"
           x="503.99521"
           y="175.10542"
           style="font-size:72px;font-style:normal;font-variant:normal;font-weight:normal;font-stretch:normal;text-align:start;line-height:125%;writing-mode:lr-tb;text-anchor:start;font-family:Times New Roman;-inkscape-font-specification:'Times New Roman,'" /></flowRegion><flowPara
         id="flowPara3416">-</flowPara></flowRoot>  </g>
  <text
     xml:space="preserve"
     style="font-size:32px;font-style:normal;font-weight:bold;line-height:125%;letter-spacing:0px;word-spacing:0px;fill:#000000;fill-opacity:1;stroke:none;font-family:Sans;-inkscape-font-specification:Sans Bold;font-stretch:normal;font-variant:normal;text-anchor:start;text-align:start;writing-mode:lr"
     x="352.34259"
     y="759.27838"
     id="text3325"
     sodipodi:linespacing="125%"><tspan
       sodipodi:role="line"
       id="tspan3327"
       x="352.34259"
       y="759.27838">X</tspan></text>
  <text
     xml:space="preserve"
     style="font-size:40px;font-style:normal;font-weight:bold;line-height:125%;letter-spacing:0px;word-spacing:0px;fill:#000000;fill-opacity:1;stroke:none;font-family:Sans;-inkscape-font-specification:Sans Bold;font-stretch:normal;font-variant:normal;text-anchor:start;text-align:start;writing-mode:lr"
     x="649.29114"
     y="824.39655"
     id="text3329"
     sodipodi:linespacing="125%"
     transform="scale(0.8,0.8)"><tspan
       sodipodi:role="line"
       id="tspan3331"
       x="649.29114"
       y="824.39655">X</tspan></text>
  <text
     xml:space="preserve"
     style="font-size:40px;font-style:normal;font-weight:bold;line-height:125%;letter-spacing:0px;word-spacing:0px;fill:#000000;fill-opacity:1;stroke:none;font-family:Sans;-inkscape-font-specification:Sans Bold;font-stretch:normal;font-variant:normal;text-anchor:start;text-align:start;writing-mode:lr"
     x="839.992"
     y="756.28906"
     id="text3333"
     sodipodi:linespacing="125%"
     transform="scale(0.8,0.8)"><tspan
       sodipodi:role="line"
       id="tspan3335"
       x="839.992"
       y="756.28906">X</tspan></text>
  <text
     xml:space="preserve"
     style="font-size:32px;font-style:normal;font-weight:bold;line-height:125%;letter-spacing:0px;word-spacing:0px;fill:#000000;fill-opacity:1;stroke:none;font-family:Sans;-inkscape-font-specification:Sans Bold;font-stretch:normal;font-variant:normal;text-anchor:start;text-align:start;writing-mode:lr"
     x="817.28949"
     y="563.56134"
     id="text3337"
     sodipodi:linespacing="125%"><tspan
       sodipodi:role="line"
       id="tspan3339"
       x="817.28949"
       y="563.56134">X</tspan></text>
  <text
     xml:space="preserve"
     style="font-size:40px;font-style:normal;font-weight:bold;line-height:125%;letter-spacing:0px;word-spacing:0px;fill:#000000;fill-opacity:1;stroke:none;font-family:Sans;-inkscape-font-specification:Sans Bold;font-stretch:normal;font-variant:normal;text-anchor:start;text-align:start;writing-mode:lr"
     x="1389.3922"
     y="633.69568"
     id="text3341"
     sodipodi:linespacing="125%"
     transform="scale(0.8,0.8)"><tspan
       sodipodi:role="line"
       id="tspan3343"
       x="1389.3922"
       y="633.69568">X</tspan></text>
  <text
     xml:space="preserve"
     style="font-size:40px;font-style:normal;font-weight:bold;line-height:125%;letter-spacing:0px;word-spacing:0px;fill:#000000;fill-opacity:1;stroke:none;font-family:Sans;-inkscape-font-specification:Sans Bold;font-stretch:normal;font-variant:normal;text-anchor:start;text-align:start;writing-mode:lr"
     x="1714.0377"
     y="626.88489"
     id="text3345"
     sodipodi:linespacing="125%"
     transform="scale(0.8,0.8)"><tspan
       sodipodi:role="line"
       id="tspan3347"
       x="1714.0377"
       y="626.88489">X</tspan></text>
</svg>
