<?xml version="1.0" encoding="UTF-8" standalone="no"?>
<svg
   xmlns:dc="http://purl.org/dc/elements/1.1/"
   xmlns:cc="http://creativecommons.org/ns#"
   xmlns:rdf="http://www.w3.org/1999/02/22-rdf-syntax-ns#"
   xmlns:svg="http://www.w3.org/2000/svg"
   xmlns="http://www.w3.org/2000/svg"
   xmlns:sodipodi="http://sodipodi.sourceforge.net/DTD/sodipodi-0.dtd"
   xmlns:inkscape="http://www.inkscape.org/namespaces/inkscape"
   version="1.0"
   width="1500.000000pt"
   height="1050.000000pt"
   viewBox="0 0 1500.000000 1050.000000"
   preserveAspectRatio="xMidYMid meet"
   id="svg2"
   inkscape:version="0.48.4 r9939"
   sodipodi:docname="mod23.svg">
  <defs
     id="defs354" />
  <sodipodi:namedview
     pagecolor="#ffffff"
     bordercolor="#666666"
     borderopacity="1"
     objecttolerance="10"
     gridtolerance="10"
     guidetolerance="10"
     inkscape:pageopacity="0"
     inkscape:pageshadow="2"
     inkscape:window-width="1215"
     inkscape:window-height="1000"
     id="namedview352"
     showgrid="false"
     inkscape:zoom="0.44048038"
     inkscape:cx="798.7384"
     inkscape:cy="603.21657"
     inkscape:window-x="1985"
     inkscape:window-y="24"
     inkscape:window-maximized="1"
     inkscape:current-layer="g6" />
  <metadata
     id="metadata4">
Created by potrace 1.11, written by Peter Selinger 2001-2013
<rdf:RDF>
  <cc:Work
     rdf:about="">
    <dc:format>image/svg+xml</dc:format>
    <dc:type
       rdf:resource="http://purl.org/dc/dcmitype/StillImage" />
  </cc:Work>
</rdf:RDF>
</metadata>
  <g
     transform="translate(0.000000,1050.000000) scale(0.100000,-0.100000)"
     id="g6"
     stroke="none"
     fill="#000000">
    <path
       d="M1454 10032 c-73 -59 -81 -230 -14 -305 37 -41 95 -44 135 -7 35 33 59 119 51 183 -13 94 -54 147 -116 147 -19 0 -45 -8 -56 -18z m89 -10 c40 -43 47 -215 12 -282 -21 -41 -68 -43 -89 -2 -34 66 -28 241 11 284 21 23 45 23 66 0z"
       id="path8" />
    <path
       d="M1829 10021 c-16 -16 -29 -34 -29 -40 0 -5 11 1 25 14 37 38 89 32 106 -11 12 -34 -7 -70 -50 -91 l-36 -17 32 -6 c62 -10 94 -59 74 -113 -16 -43 -52 -54 -101 -32 -29 13 -44 15 -51 8 -29 -29 37 -50 99 -33 57 15 92 59 92 116 0 36 -5 50 -26 69 l-26 24 21 27 c27 35 27 59 -4 89 -35 36 -88 34 -126 -4z"
       id="path10" />
    <path
       d="M2336 9874 c-3 -9 -6 -1863 -6 -4120 l0 -4104 5861 0 c5066 0 5862 2 5875 14 22 23 18 66 -6 66 -15 0 -20 -7 -20 -25 l0 -25 -775 0 -775 0 0 25 c0 16 -6 25 -15 25 -9 0 -15 -9 -15 -25 l0 -25 -550 0 -550 0 0 25 c0 16 -6 25 -15 25 -9 0 -15 -9 -15 -25 l0 -25 -775 0 -775 0 0 25 c0 16 -6 25 -15 25 -9 0 -15 -9 -15 -25 l0 -25 -420 0 -420 0 0 25 c0 16 -6 25 -15 25 -9 0 -15 -9 -15 -25 l0 -25 -250 0 -250 0 0 25 c0 16 -6 25 -15 25 -9 0 -15 -9 -15 -25 l0 -25 -285 0 -285 0 0 25 c0 16 -6 25 -15 25 -9 0 -15 -9 -15 -25 l0 -25 -340 0 -340 0 0 25 c0 16 -6 25 -15 25 -9 0 -15 -9 -15 -25 l0 -25 -420 0 -420 0 0 25 c0 18 -5 25 -20 25 -15 0 -20 -7 -20 -25 l0 -25 -545 0 -545 0 0 25 c0 16 -6 25 -15 25 -9 0 -15 -9 -15 -25 l0 -25 -780 0 -780 0 0 25 c0 16 -6 25 -15 25 -9 0 -15 -9 -15 -25 l0 -25 -545 0 -545 0 0 289 0 289 83 64 c45 36 299 228 565 427 266 200 514 388 551 419 38 32 223 183 412 337 189 154 512 422 719 596 206 173 629 513 940 755 536 417 588 455 1000 726 382 250 480 310 790 477 304 163 397 208 650 311 242 99 345 135 570 199 343 98 661 164 920 191 370 38 1523 60 3116 60 1224 0 1384 2 1384 15 0 25 -2590 21 -3575 -5 -859 -23 -1007 -34 -1355 -106 -379 -77 -705 -176 -1060 -321 -267 -108 -350 -148 -669 -319 -200 -108 -403 -221 -450 -253 -101 -68 -111 -74 -111 -68 0 3 35 28 78 57 42 30 79 55 81 57 3 2 -1 9 -7 15 -9 9 -32 -2 -97 -46 -70 -49 -83 -61 -75 -76 8 -15 -1 -24 -48 -55 -31 -21 -52 -32 -45 -25 6 7 9 19 6 26 -8 22 -175 -96 -169 -119 6 -24 -69 -76 -86 -59 -14 14 -181 -96 -174 -114 7 -18 -50 -57 -84 -59 -33 -2 -169 -103 -169 -126 -1 -20 -67 -72 -81 -64 -13 8 -172 -115 -167 -129 5 -15 -63 -68 -79 -62 -16 6 -172 -115 -167 -130 5 -14 -62 -66 -80 -62 -19 4 -167 -112 -167 -131 0 -18 -62 -64 -89 -66 -26 -2 -161 -108 -156 -122 5 -15 -66 -75 -81 -69 -14 5 -166 -122 -159 -133 7 -12 -52 -64 -74 -66 -24 -2 -173 -124 -165 -136 7 -12 -58 -68 -80 -69 -21 0 -161 -117 -161 -135 0 -16 -59 -65 -78 -65 -17 0 -168 -125 -161 -133 6 -6 -67 -67 -80 -67 -12 0 -82 -58 -163 -135 -37 -36 -71 -65 -76 -65 -5 0 -49 -35 -98 -77 -134 -116 -338 -276 -455 -358 -32 -22 -82 -61 -113 -87 -31 -26 -60 -48 -64 -48 -5 0 -28 -14 -53 -31 -32 -24 -47 -29 -56 -21 -18 15 -57 -13 -41 -29 14 -14 -80 -109 -108 -109 -10 0 -21 -5 -24 -10 -4 -6 -14 -10 -23 -8 -26 3 -62 -20 -56 -36 5 -14 -28 -40 -51 -41 -5 -1 -20 -7 -33 -14 -18 -9 -21 -16 -12 -26 14 -17 -35 -58 -61 -50 -13 4 -27 -3 -44 -21 -14 -15 -47 -41 -73 -59 -29 -19 -46 -37 -44 -47 1 -9 -2 -19 -8 -23 -7 -4 -10 110 -10 354 l0 361 25 0 c16 0 25 6 25 15 0 9 -9 15 -25 15 l-25 0 0 670 0 670 25 0 c16 0 25 6 25 15 0 9 -9 15 -25 15 l-25 0 0 665 0 665 25 0 c18 0 25 5 25 20 0 15 -7 20 -25 20 l-25 0 0 665 0 665 25 0 c16 0 25 6 25 15 0 9 -9 15 -25 15 l-25 0 0 670 0 670 25 0 c16 0 25 6 25 15 0 9 -9 15 -25 15 l-25 0 0 670 0 670 25 0 c16 0 25 6 25 15 0 21 -66 21 -74 -1z"
       id="path12" />
    <path
       d="M1687 9744 c-12 -12 -8 -42 6 -47 21 -8 39 8 35 29 -3 19 -29 30 -41 18z"
       id="path14" />
    <path
       d="M14023 9743 c-15 -5 -18 -33 -4 -33 21 0 41 13 41 26 0 14 -14 17 -37 7z"
       id="path16" />
    <path
       d="M13893 9702 c-7 -4 -9 -13 -5 -19 9 -15 54 -5 49 11 -5 14 -28 18 -44 8z"
       id="path18" />
    <path
       d="M13763 9655 c-7 -21 -2 -25 25 -18 12 3 22 12 22 19 0 19 -39 18 -47 -1z"
       id="path20" />
    <path
       d="M13636 9622 c-2 -4 -2 -13 2 -19 8 -13 52 1 52 17 0 12 -46 14 -54 2z"
       id="path22" />
    <path
       d="M13533 9592 c-13 -2 -23 -10 -23 -18 0 -15 27 -19 47 -6 18 11 1 28 -24 24z"
       id="path24" />
    <path
       d="M13408 9553 c-18 -5 -25 -33 -9 -33 21 0 41 13 41 26 0 14 -3 15 -32 7z"
       id="path26" />
    <path
       d="M13278 9513 c-19 -5 -24 -18 -10 -27 16 -10 51 6 45 20 -5 14 -6 15 -35 7z"
       id="path28" />
    <path
       d="M13153 9473 c-15 -5 -18 -33 -4 -33 21 0 41 13 41 26 0 14 -14 17 -37 7z"
       id="path30" />
    <path
       d="M13020 9430 c-10 -6 -12 -12 -5 -19 13 -13 57 -2 52 13 -5 15 -29 18 -47 6z"
       id="path32" />
    <path
       d="M12893 9385 c-7 -21 -2 -25 25 -18 12 3 22 12 22 19 0 19 -39 18 -47 -1z"
       id="path34" />
    <path
       d="M12773 9352 c-7 -4 -9 -13 -5 -19 10 -16 52 -5 52 13 0 15 -27 19 -47 6z"
       id="path36" />
    <path
       d="M12662 9319 c-28 -10 -24 -36 4 -31 24 5 26 7 22 25 -2 11 -9 12 -26 6z"
       id="path38" />
    <path
       d="M12538 9283 c-10 -3 -18 -13 -18 -23 0 -13 5 -17 20 -13 39 10 36 44 -2 36z"
       id="path40" />
    <path
       d="M12413 9237 c-29 -16 -16 -38 14 -26 15 5 21 14 17 24 -3 8 -7 15 -8 15 0 -1 -11 -6 -23 -13z"
       id="path42" />
    <path
       d="M12288 9193 c-19 -5 -24 -18 -10 -27 16 -10 51 6 45 20 -5 14 -6 15 -35 7z"
       id="path44" />
    <path
       d="M12153 9135 c-3 -9 -3 -18 0 -21 7 -8 47 15 47 26 0 16 -40 11 -47 -5z"
       id="path46" />
    <path
       d="M13958 9116 c-94 -34 -103 -39 -94 -55 10 -15 190 52 194 73 4 20 4 20 -100 -18z"
       id="path48" />
    <path
       d="M12043 9103 c-15 -5 -18 -33 -4 -33 21 0 41 13 41 26 0 14 -14 17 -37 7z"
       id="path50" />
    <path
       d="M11923 9059 c-28 -10 -21 -39 8 -32 24 7 30 15 21 30 -4 6 -15 7 -29 2z"
       id="path52" />
    <path
       d="M13660 9013 c-52 -19 -95 -35 -97 -36 -1 -2 2 -8 6 -15 6 -10 28 -5 97 19 99 35 106 39 96 55 -5 7 -38 -1 -102 -23z"
       id="path54" />
    <path
       d="M11790 9010 c-21 -13 -1 -31 27 -24 13 4 20 11 16 20 -6 16 -22 18 -43 4z"
       id="path56" />
    <path
       d="M11678 8973 c-10 -2 -18 -11 -18 -19 0 -22 44 -14 48 9 4 17 1 18 -30 10z"
       id="path58" />
    <path
       d="M13356 8908 c-90 -32 -94 -34 -80 -48 14 -14 194 50 194 67 0 18 -24 14 -114 -19z"
       id="path60" />
    <path
       d="M11543 8922 c-7 -4 -9 -13 -5 -19 10 -16 52 -5 52 13 0 15 -27 19 -47 6z"
       id="path62" />
    <path
       d="M11433 8879 c-14 -5 -21 -14 -17 -23 5 -12 11 -13 30 -4 39 18 27 43 -13 27z"
       id="path64" />
    <path
       d="M11308 8833 c-19 -5 -24 -18 -10 -27 14 -8 53 6 49 17 -4 13 -16 16 -39 10z"
       id="path66" />
    <path
       d="M13058 8806 c-68 -24 -85 -34 -79 -45 8 -12 26 -8 105 20 53 18 95 38 93 44 -6 17 -29 14 -119 -19z"
       id="path68" />
    <path
       d="M11193 8779 c-28 -10 -21 -39 8 -32 11 3 22 10 25 15 10 16 -10 26 -33 17z"
       id="path70" />
    <path
       d="M12768 8706 c-49 -17 -88 -36 -88 -43 0 -19 21 -16 114 18 53 19 86 36 86 45 0 18 -9 17 -112 -20z"
       id="path72" />
    <path
       d="M11073 8723 c-15 -5 -18 -33 -4 -33 21 0 41 13 41 26 0 14 -14 17 -37 7z"
       id="path74" />
    <path
       d="M1184 8672 c-73 -59 -81 -230 -14 -305 37 -41 95 -44 135 -7 35 33 59 119 51 183 -13 94 -54 147 -116 147 -19 0 -45 -8 -56 -18z m89 -10 c40 -43 47 -215 12 -282 -21 -41 -68 -43 -89 -2 -34 66 -28 241 11 284 21 23 45 23 66 0z"
       id="path76" />
    <path
       d="M1564 8656 c-19 -19 -34 -42 -34 -52 0 -15 6 -12 26 14 48 60 129 33 127 -43 -1 -45 -39 -108 -102 -170 -28 -27 -51 -53 -51 -57 0 -4 44 -8 98 -8 96 0 99 1 110 25 15 32 15 57 1 33 -8 -15 -24 -18 -87 -18 l-76 0 51 53 c108 111 129 173 74 228 -42 42 -92 40 -137 -5z"
       id="path78" />
    <path
       d="M1917 8683 l-57 -4 -25 -49 c-34 -67 -32 -76 15 -84 23 -3 54 -18 71 -34 26 -24 32 -36 32 -72 0 -35 -6 -48 -27 -67 -32 -27 -45 -28 -72 -8 -25 19 -64 19 -64 0 0 -36 64 -44 127 -16 49 23 73 62 73 120 0 52 -46 107 -96 117 -39 7 -47 15 -38 38 5 12 20 16 58 16 29 0 57 5 64 12 13 13 16 39 5 36 -5 -1 -34 -3 -66 -5z"
       id="path80" />
    <path
       d="M10955 8667 c-24 -18 -11 -41 16 -27 10 6 19 17 19 25 0 19 -11 19 -35 2z"
       id="path82" />
    <path
       d="M12475 8605 c-49 -18 -89 -35 -87 -39 1 -3 2 -10 2 -16 0 -5 44 6 98 25 53 19 98 35 99 35 1 0 0 7 -3 15 -7 18 1 20 -109 -20z"
       id="path84" />
    <path
       d="M10830 8610 c-11 -6 -12 -12 -4 -20 13 -13 44 -2 44 16 0 16 -18 18 -40 4z"
       id="path86" />
    <path
       d="M10718 8559 c-9 -5 -15 -16 -12 -24 4 -11 11 -11 29 -3 14 6 21 16 18 24 -6 16 -12 17 -35 3z"
       id="path88" />
    <path
       d="M12185 8506 c-58 -21 -91 -38 -93 -49 -3 -14 11 -11 90 15 100 33 118 43 103 57 -6 6 -45 -3 -100 -23z"
       id="path90" />
    <path
       d="M10603 8507 c-15 -8 -19 -17 -14 -26 12 -18 52 3 45 24 -4 8 -7 15 -8 15 0 -1 -11 -6 -23 -13z"
       id="path92" />
    <path
       d="M10483 8453 c-7 -2 -13 -13 -13 -24 0 -16 3 -17 25 -7 35 16 23 46 -12 31z"
       id="path94" />
    <path
       d="M11890 8406 c-81 -28 -112 -48 -89 -58 3 -2 46 10 97 26 71 23 92 34 92 48 0 10 -1 18 -2 17 -2 0 -46 -15 -98 -33z"
       id="path96" />
    <path
       d="M10363 8393 c-7 -2 -13 -12 -13 -20 0 -10 6 -13 16 -9 9 3 20 6 25 6 5 0 9 7 9 15 0 15 -14 18 -37 8z"
       id="path98" />
    <path
       d="M1427 8384 c-12 -12 -8 -42 6 -47 21 -8 39 8 35 29 -3 19 -29 30 -41 18z"
       id="path100" />
    <path
       d="M10245 8337 c-10 -8 -15 -19 -11 -25 10 -16 56 6 49 24 -6 17 -14 18 -38 1z"
       id="path102" />
    <path
       d="M11595 8304 c-58 -20 -91 -37 -93 -48 -4 -21 -8 -21 95 15 95 34 112 44 98 57 -6 5 -50 -6 -100 -24z"
       id="path104" />
    <path
       d="M10120 8280 c-11 -7 -12 -12 -3 -21 13 -13 57 6 48 22 -8 12 -26 11 -45 -1z"
       id="path106" />
    <path
       d="M10013 8229 c-14 -5 -21 -14 -17 -23 5 -12 11 -13 30 -4 39 18 27 43 -13 27z"
       id="path108" />
    <path
       d="M11283 8193 c-58 -25 -80 -40 -76 -50 3 -8 11 -12 17 -9 6 2 48 20 93 38 45 18 83 39 83 46 0 20 -30 14 -117 -25z"
       id="path110" />
    <path
       d="M9893 8173 c-15 -5 -18 -33 -4 -33 21 0 41 13 41 26 0 14 -14 17 -37 7z"
       id="path112" />
    <path
       d="M9775 8117 c-24 -18 -11 -41 16 -27 10 6 19 17 19 25 0 19 -11 19 -35 2z"
       id="path114" />
    <path
       d="M11003 8073 c-46 -20 -83 -42 -83 -49 0 -20 5 -19 103 22 49 21 87 43 87 50 0 20 -15 17 -107 -23z"
       id="path116" />
    <path
       d="M9663 8057 c-15 -8 -19 -17 -14 -26 12 -18 52 3 45 24 -4 8 -7 15 -8 15 0 -1 -11 -6 -23 -13z"
       id="path118" />
    <path
       d="M9542 7992 c-7 -5 -10 -16 -6 -25 5 -13 9 -14 25 -4 10 6 19 17 19 24 0 15 -19 17 -38 5z"
       id="path120" />
    <path
       d="M10725 7954 c-87 -38 -100 -47 -91 -62 8 -13 198 68 193 82 -6 18 -21 15 -102 -20z"
       id="path122" />
    <path
       d="M9432 7926 c-19 -10 -21 -14 -9 -24 10 -9 18 -8 33 2 27 21 7 39 -24 22z"
       id="path124" />
    <path
       d="M9322 7867 c-22 -10 -25 -28 -6 -34 16 -5 44 21 36 33 -5 8 -14 8 -30 1z"
       id="path126" />
    <path
       d="M10435 7828 c-49 -22 -91 -40 -92 -42 -1 -1 2 -7 6 -14 6 -10 28 -4 92 23 92 40 108 50 94 64 -6 5 -48 -9 -100 -31z"
       id="path128" />
    <path
       d="M9201 7801 c-8 -5 -11 -16 -8 -25 6 -14 10 -14 27 -4 22 14 27 38 8 38 -7 0 -19 -4 -27 -9z"
       id="path130" />
    <path
       d="M9098 7739 c-18 -10 -25 -39 -10 -39 5 0 17 6 28 14 24 18 8 40 -18 25z"
       id="path132" />
    <path
       d="M10143 7703 c-46 -20 -83 -42 -83 -49 0 -20 5 -19 103 22 49 21 87 43 87 50 0 20 -15 17 -107 -23z"
       id="path134" />
    <path
       d="M8978 7667 c-10 -8 -13 -18 -9 -26 7 -10 12 -10 30 1 21 13 24 29 5 35 -5 1 -17 -3 -26 -10z"
       id="path136" />
    <path
       d="M9860 7580 c-48 -21 -85 -43 -85 -51 0 -18 13 -15 112 28 58 25 80 39 76 49 -7 18 -3 19 -103 -26z"
       id="path138" />
    <path
       d="M8868 7599 c-9 -5 -15 -16 -12 -24 5 -11 11 -12 30 -3 14 6 23 16 21 22 -5 14 -20 17 -39 5z"
       id="path140" />
    <path
       d="M8750 7525 c-10 -12 -9 -16 4 -21 18 -7 49 13 40 27 -8 14 -30 11 -44 -6z"
       id="path142" />
    <path
       d="M9583 7439 c-67 -36 -91 -53 -86 -64 4 -12 22 -6 92 31 101 55 102 56 93 71 -5 8 -34 -3 -99 -38z"
       id="path144" />
    <path
       d="M8652 7467 c-22 -10 -25 -28 -6 -34 16 -5 44 21 36 33 -5 8 -14 8 -30 1z"
       id="path146" />
    <path
       d="M8536 7395 c-14 -11 -17 -18 -9 -26 14 -14 53 9 46 28 -6 16 -13 16 -37 -2z"
       id="path148" />
    <path
       d="M8425 7327 c-10 -8 -15 -19 -11 -25 10 -16 56 6 49 24 -6 17 -14 18 -38 1z"
       id="path150" />
    <path
       d="M9315 7294 c-92 -52 -100 -58 -91 -73 4 -6 32 4 75 27 99 54 118 68 106 80 -7 7 -35 -4 -90 -34z"
       id="path152" />
    <path
       d="M1454 7302 c-73 -59 -81 -230 -14 -305 37 -41 95 -44 135 -7 35 33 59 119 51 183 -13 94 -54 147 -116 147 -19 0 -45 -8 -56 -18z m89 -10 c40 -43 47 -215 12 -282 -21 -41 -68 -43 -89 -2 -34 66 -28 241 11 284 21 23 45 23 66 0z"
       id="path154" />
    <path
       d="M1824 7286 c-19 -19 -34 -42 -34 -52 0 -15 6 -12 26 14 48 60 129 33 127 -43 -1 -45 -39 -108 -102 -170 -28 -27 -51 -53 -51 -57 0 -4 44 -8 98 -8 96 0 99 1 110 25 15 32 15 57 1 33 -8 -15 -24 -18 -87 -18 l-76 0 51 53 c108 111 129 173 74 228 -42 42 -92 40 -137 -5z"
       id="path156" />
    <path
       d="M8310 7255 c-6 -8 -9 -19 -5 -25 9 -14 45 6 45 25 0 19 -24 19 -40 0z"
       id="path158" />
    <path
       d="M8200 7185 c-6 -8 -9 -19 -5 -25 9 -14 45 6 45 25 0 19 -24 19 -40 0z"
       id="path160" />
    <path
       d="M9032 7138 c-70 -38 -91 -53 -82 -62 8 -8 33 0 96 34 94 49 96 51 86 67 -5 8 -38 -5 -100 -39z"
       id="path162" />
    <path
       d="M8090 7115 c-6 -8 -9 -19 -5 -25 9 -14 45 6 45 25 0 19 -24 19 -40 0z"
       id="path164" />
    <path
       d="M7980 7045 c-6 -8 -9 -19 -5 -25 9 -14 45 6 45 25 0 19 -24 19 -40 0z"
       id="path166" />
    <path
       d="M8825 7025 c-11 -7 -50 -29 -87 -49 -47 -25 -65 -41 -62 -51 5 -11 25 -4 95 33 81 43 102 63 82 75 -5 3 -17 -1 -28 -8z"
       id="path168" />
    <path
       d="M1687 7014 c-12 -12 -8 -42 6 -47 21 -8 39 8 35 29 -3 19 -29 30 -41 18z"
       id="path170" />
    <path
       d="M7870 6975 c-6 -8 -9 -19 -5 -25 9 -14 45 6 45 25 0 19 -24 19 -40 0z"
       id="path172" />
    <path
       d="M7760 6905 c-6 -8 -9 -19 -5 -25 9 -14 45 6 45 25 0 19 -24 19 -40 0z"
       id="path174" />
    <path
       d="M8490 6842 c-47 -26 -85 -54 -85 -62 0 -21 9 -18 102 35 58 32 80 50 76 60 -3 8 -6 15 -7 15 0 -1 -39 -22 -86 -48z"
       id="path176" />
    <path
       d="M7656 6831 c-11 -12 -14 -21 -7 -25 14 -9 53 13 48 27 -6 19 -23 18 -41 -2z"
       id="path178" />
    <path
       d="M7550 6755 c-6 -8 -9 -19 -5 -25 9 -14 45 6 45 25 0 19 -24 19 -40 0z"
       id="path180" />
    <path
       d="M8203 6684 c-58 -32 -80 -49 -76 -60 4 -11 24 -4 95 34 49 27 89 53 89 58 0 20 -30 11 -108 -32z"
       id="path182" />
    <path
       d="M7440 6675 c-10 -12 -9 -16 4 -21 18 -7 49 13 40 27 -8 14 -30 11 -44 -6z"
       id="path184" />
    <path
       d="M7346 6604 c-16 -11 -17 -17 -8 -26 9 -9 16 -8 29 5 23 23 5 41 -21 21z"
       id="path186" />
    <path
       d="M7943 6542 c-93 -54 -97 -57 -88 -71 4 -7 34 4 83 31 90 48 110 64 97 77 -6 6 -42 -9 -92 -37z"
       id="path188" />
    <path
       d="M7238 6527 c-10 -8 -13 -18 -9 -26 7 -10 12 -10 30 1 21 13 24 29 5 35 -5 1 -17 -3 -26 -10z"
       id="path190" />
    <path
       d="M7135 6450 c-22 -24 -11 -44 15 -27 11 6 20 17 20 24 0 21 -17 23 -35 3z"
       id="path192" />
    <path
       d="M7661 6374 c-54 -38 -79 -60 -72 -67 13 -13 23 -8 109 52 40 29 70 56 67 61 -10 16 -17 13 -104 -46z"
       id="path194" />
    <path
       d="M7027 6372 c-13 -14 -14 -21 -5 -30 15 -15 49 13 41 34 -7 19 -17 18 -36 -4z"
       id="path196" />
    <path
       d="M6934 6286 c-15 -12 -17 -17 -6 -27 10 -11 15 -10 29 4 24 23 4 43 -23 23z"
       id="path198" />
    <path
       d="M7415 6204 c-83 -57 -93 -68 -75 -79 11 -7 170 100 170 115 0 23 -22 14 -95 -36z"
       id="path200" />
    <path
       d="M6836 6195 c-15 -12 -17 -18 -8 -27 9 -9 16 -7 32 7 32 29 11 47 -24 20z"
       id="path202" />
    <path
       d="M6740 6105 c-19 -23 -1 -39 21 -19 10 9 16 21 13 25 -8 13 -20 11 -34 -6z"
       id="path204" />
    <path
       d="M7154 6024 c-82 -57 -92 -68 -75 -79 11 -6 171 101 171 115 0 23 -23 15 -96 -36z"
       id="path206" />
    <path
       d="M6645 6020 c-12 -14 -15 -24 -9 -30 7 -7 17 -4 29 10 12 14 15 24 9 30 -7 7 -17 4 -29 -10z"
       id="path208" />
    <path
       d="M1184 5932 c-73 -59 -81 -230 -14 -305 37 -41 95 -44 135 -7 35 33 59 119 51 183 -13 94 -54 147 -116 147 -19 0 -45 -8 -56 -18z m89 -10 c40 -43 47 -215 12 -282 -21 -41 -68 -43 -89 -2 -34 66 -28 241 11 284 21 23 45 23 66 0z"
       id="path210" />
    <path
       d="M1610 5925 c-35 -19 -40 -24 -20 -22 l25 2 0 -145 0 -144 -25 -7 c-15 -4 4 -7 50 -7 54 -1 69 2 53 8 -23 9 -23 13 -23 175 0 91 -3 165 -7 165 -5 -1 -28 -12 -53 -25z"
       id="path212" />
    <path
       d="M1917 5943 l-57 -4 -25 -49 c-34 -67 -32 -76 15 -84 23 -3 54 -18 71 -34 26 -24 32 -36 32 -72 0 -35 -6 -48 -27 -67 -32 -27 -45 -28 -72 -8 -25 19 -64 19 -64 0 0 -36 64 -44 127 -16 49 23 73 62 73 120 0 52 -46 107 -96 117 -39 7 -47 15 -38 38 5 12 20 16 58 16 29 0 57 5 64 12 13 13 16 39 5 36 -5 -1 -34 -3 -66 -5z"
       id="path214" />
    <path
       d="M6546 5931 c-11 -12 -13 -21 -7 -25 15 -10 50 15 44 31 -7 18 -17 16 -37 -6z"
       id="path216" />
    <path
       d="M6450 5845 c-9 -10 -10 -19 -4 -25 13 -13 49 13 40 28 -10 16 -21 15 -36 -3z"
       id="path218" />
    <path
       d="M6350 5755 c-22 -26 4 -43 30 -20 20 18 18 35 -4 35 -8 0 -19 -7 -26 -15z"
       id="path220" />
    <path
       d="M6256 5671 c-14 -15 -14 -20 -3 -30 11 -8 18 -7 31 8 14 15 14 20 3 30 -11 8 -18 7 -31 -8z"
       id="path222" />
    <path
       d="M1427 5644 c-12 -12 -8 -42 6 -47 21 -8 39 8 35 29 -3 19 -29 30 -41 18z"
       id="path224" />
    <path
       d="M6168 5589 c-21 -12 -24 -39 -4 -39 7 0 19 7 26 15 17 21 1 37 -22 24z"
       id="path226" />
    <path
       d="M6059 5501 c-22 -18 -23 -20 -6 -27 23 -9 56 21 41 36 -8 8 -18 5 -35 -9z"
       id="path228" />
    <path
       d="M5950 5415 c-10 -12 -9 -16 4 -21 18 -7 49 13 40 27 -8 14 -30 11 -44 -6z"
       id="path230" />
    <path
       d="M5852 5337 c-7 -8 -7 -18 -2 -27 7 -12 12 -11 29 4 21 19 20 36 -3 36 -8 0 -18 -6 -24 -13z"
       id="path232" />
    <path
       d="M5750 5255 c-22 -26 4 -43 30 -20 20 18 18 35 -4 35 -8 0 -19 -7 -26 -15z"
       id="path234" />
    <path
       d="M5650 5175 c-10 -12 -10 -19 -2 -27 15 -15 48 14 38 31 -10 15 -21 14 -36 -4z"
       id="path236" />
    <path
       d="M5550 5095 c-10 -12 -10 -19 -2 -27 15 -15 48 14 38 31 -10 15 -21 14 -36 -4z"
       id="path238" />
    <path
       d="M5452 5018 c-16 -16 -15 -38 2 -38 18 0 39 27 31 40 -8 13 -18 13 -33 -2z"
       id="path240" />
    <path
       d="M5349 4931 c-22 -18 -23 -20 -6 -27 23 -8 50 15 38 34 -6 10 -13 9 -32 -7z"
       id="path242" />
    <path
       d="M5240 4845 c-10 -12 -9 -16 4 -21 18 -7 49 13 40 27 -8 14 -30 11 -44 -6z"
       id="path244" />
    <path
       d="M5142 4767 c-6 -7 -8 -18 -3 -25 5 -9 12 -8 29 4 23 16 21 34 -2 34 -8 0 -18 -6 -24 -13z"
       id="path246" />
    <path
       d="M5040 4685 c-10 -12 -10 -19 -2 -27 13 -13 42 6 42 28 0 19 -24 18 -40 -1z"
       id="path248" />
    <path
       d="M4941 4596 c-8 -10 -8 -16 2 -25 11 -8 18 -7 31 7 16 19 13 32 -9 32 -7 0 -18 -6 -24 -14z"
       id="path250" />
    <path
       d="M1454 4562 c-73 -59 -81 -230 -14 -305 37 -41 95 -44 135 -7 35 33 59 119 51 183 -13 94 -54 147 -116 147 -19 0 -45 -8 -56 -18z m89 -10 c40 -43 47 -215 12 -282 -21 -41 -68 -43 -89 -2 -34 66 -28 241 11 284 21 23 45 23 66 0z"
       id="path252" />
    <path
       d="M1870 4555 c-35 -19 -40 -24 -20 -22 l25 2 0 -145 0 -144 -25 -7 c-15 -4 4 -7 50 -7 54 -1 69 2 53 8 -23 9 -23 13 -23 175 0 91 -3 165 -7 165 -5 -1 -28 -12 -53 -25z"
       id="path254" />
    <path
       d="M4855 4510 c-12 -14 -15 -24 -9 -30 7 -7 17 -4 29 10 12 14 15 24 9 30 -7 7 -17 4 -29 -10z"
       id="path256" />
    <path
       d="M4756 4421 c-22 -24 -4 -38 24 -18 17 12 18 16 7 26 -11 8 -18 7 -31 -8z"
       id="path258" />
    <path
       d="M4660 4335 c-10 -12 -10 -19 -2 -27 15 -15 48 14 38 31 -10 15 -21 14 -36 -4z"
       id="path260" />
    <path
       d="M1687 4274 c-12 -12 -8 -42 6 -47 21 -8 39 8 35 29 -3 19 -29 30 -41 18z"
       id="path262" />
    <path
       d="M4560 4245 c-10 -12 -10 -19 -2 -27 13 -13 42 6 42 28 0 19 -24 18 -40 -1z"
       id="path264" />
    <path
       d="M4470 4155 c-19 -23 -1 -39 21 -19 10 9 16 21 13 25 -8 13 -20 11 -34 -6z"
       id="path266" />
    <path
       d="M4375 4070 c-12 -14 -15 -24 -9 -30 7 -7 17 -4 29 10 12 14 15 24 9 30 -7 7 -17 4 -29 -10z"
       id="path268" />
    <path
       d="M4276 3981 c-14 -15 -14 -20 -3 -30 11 -8 18 -7 31 8 14 15 14 20 3 30 -11 8 -18 7 -31 -8z"
       id="path270" />
    <path
       d="M4186 3891 c-12 -14 -14 -21 -6 -26 17 -10 47 22 34 35 -7 7 -16 4 -28 -9z"
       id="path272" />
    <path
       d="M4085 3800 c-17 -18 -17 -20 -1 -26 20 -8 52 19 42 35 -10 16 -21 14 -41 -9z"
       id="path274" />
    <path
       d="M3996 3714 c-16 -11 -17 -17 -8 -26 9 -9 16 -8 29 5 23 23 5 41 -21 21z"
       id="path276" />
    <path
       d="M3896 3621 c-12 -13 -14 -21 -6 -26 13 -8 52 24 44 36 -8 14 -19 11 -38 -10z"
       id="path278" />
    <path
       d="M3800 3535 c-10 -12 -10 -19 -2 -27 15 -15 48 14 38 31 -10 15 -21 14 -36 -4z"
       id="path280" />
    <path
       d="M3710 3445 c-19 -23 -1 -39 21 -19 10 9 16 21 13 25 -8 13 -20 11 -34 -6z"
       id="path282" />
    <path
       d="M3610 3355 c-10 -12 -10 -19 -2 -27 13 -13 42 6 42 28 0 19 -24 18 -40 -1z"
       id="path284" />
    <path
       d="M3520 3265 c-19 -23 -1 -39 21 -19 10 9 16 21 13 25 -8 13 -20 11 -34 -6z"
       id="path286" />
    <path
       d="M1184 3202 c-73 -59 -81 -230 -14 -305 37 -41 95 -44 135 -7 35 33 59 119 51 183 -13 94 -54 147 -116 147 -19 0 -45 -8 -56 -18z m89 -10 c40 -43 47 -215 12 -282 -21 -41 -68 -43 -89 -2 -34 66 -28 241 11 284 21 23 45 23 66 0z"
       id="path288" />
    <path
       d="M1584 3202 c-73 -59 -81 -230 -14 -305 37 -41 95 -44 135 -7 35 33 59 119 51 183 -13 94 -54 147 -116 147 -19 0 -45 -8 -56 -18z m89 -10 c40 -43 47 -215 12 -282 -21 -41 -68 -43 -89 -2 -34 66 -28 241 11 284 21 23 45 23 66 0z"
       id="path290" />
    <path
       d="M1917 3213 l-57 -4 -25 -49 c-34 -67 -32 -76 15 -84 23 -3 54 -18 71 -34 26 -24 32 -36 32 -72 0 -35 -6 -48 -27 -67 -32 -27 -45 -28 -72 -8 -25 19 -64 19 -64 0 0 -36 64 -44 127 -16 49 23 73 62 73 120 0 52 -46 107 -96 117 -39 7 -47 15 -38 38 5 12 20 16 58 16 29 0 57 5 64 12 13 13 16 39 5 36 -5 -1 -34 -3 -66 -5z"
       id="path292" />
    <path
       d="M3426 3185 c-12 -9 -16 -20 -12 -31 6 -16 9 -16 29 4 26 26 12 48 -17 27z"
       id="path294" />
    <path
       d="M3322 3101 c-20 -15 -21 -19 -9 -29 11 -9 17 -8 30 6 24 26 7 45 -21 23z"
       id="path296" />
    <path
       d="M3217 3019 c-14 -8 -16 -14 -6 -25 10 -13 14 -12 30 2 29 26 11 43 -24 23z"
       id="path298" />
    <path
       d="M3117 2938 c-11 -9 -14 -18 -7 -28 7 -12 12 -12 29 4 31 28 12 49 -22 24z"
       id="path300" />
    <path
       d="M1427 2914 c-12 -12 -8 -42 6 -47 21 -8 39 8 35 29 -3 19 -29 30 -41 18z"
       id="path302" />
    <path
       d="M3014 2856 c-15 -12 -16 -17 -7 -27 10 -10 15 -9 28 1 16 13 21 40 7 40 -5 0 -17 -6 -28 -14z"
       id="path304" />
    <path
       d="M2818 2696 c-10 -7 -18 -18 -18 -25 0 -16 25 -14 40 4 18 22 0 37 -22 21z"
       id="path306" />
    <path
       d="M1844 1832 c-73 -59 -81 -230 -14 -305 37 -41 95 -44 135 -7 35 33 59 119 51 183 -13 94 -54 147 -116 147 -19 0 -45 -8 -56 -18z m89 -10 c40 -43 47 -215 12 -282 -21 -41 -68 -43 -89 -2 -34 66 -28 241 11 284 21 23 45 23 66 0z"
       id="path308" />
    <path
       d="M7808 1326 c-26 -7 -63 -25 -83 -41 -109 -83 -96 -289 20 -311 38 -7 86 14 109 48 30 43 17 134 -23 165 -20 16 -76 16 -103 2 -18 -10 -20 -9 -15 6 4 9 7 20 7 25 0 20 58 75 97 92 24 10 43 21 43 23 0 3 -1 5 -2 4 -2 0 -24 -6 -50 -13z m-9 -165 c26 -26 34 -81 19 -127 -11 -33 -18 -39 -44 -42 -45 -4 -67 26 -72 100 -4 51 -2 64 14 75 25 18 61 16 83 -6z"
       id="path310" />
    <path
       d="M2110 1305 c-35 -19 -40 -24 -20 -22 l25 2 0 -145 0 -144 -25 -7 c-15 -4 4 -7 50 -7 54 -1 69 2 53 8 -23 9 -23 13 -23 175 0 91 -3 165 -7 165 -5 -1 -28 -12 -53 -25z"
       id="path312" />
    <path
       d="M2547 1323 l-57 -4 -25 -49 c-34 -67 -32 -76 15 -84 23 -3 54 -18 71 -34 26 -24 32 -36 32 -72 0 -35 -6 -48 -27 -67 -32 -27 -45 -28 -72 -8 -25 19 -64 19 -64 0 0 -36 64 -44 127 -16 49 23 73 62 73 120 0 52 -46 107 -96 117 -39 7 -47 15 -38 38 5 12 20 16 58 16 29 0 57 5 64 12 13 13 16 39 5 36 -5 -1 -34 -3 -66 -5z"
       id="path314" />
    <path
       d="M3384 1296 c-19 -19 -34 -42 -34 -52 0 -15 6 -12 26 14 48 60 129 33 127 -43 -1 -45 -39 -108 -102 -170 -28 -27 -51 -53 -51 -57 0 -4 44 -8 98 -8 96 0 99 1 110 25 15 32 15 57 1 33 -8 -15 -24 -18 -87 -18 l-76 0 51 53 c108 111 129 173 74 228 -42 42 -92 40 -137 -5z"
       id="path316" />
    <path
       d="M4979 1301 c-16 -16 -29 -34 -29 -40 0 -5 11 1 25 14 37 38 89 32 106 -11 12 -34 -7 -70 -50 -91 l-36 -17 32 -6 c62 -10 94 -59 74 -113 -16 -43 -52 -54 -101 -32 -29 13 -44 15 -51 8 -29 -29 37 -50 99 -33 57 15 92 59 92 116 0 36 -5 50 -26 69 l-26 24 21 27 c27 35 27 59 -4 89 -35 36 -88 34 -126 -4z"
       id="path318" />
    <path
       d="M6141 1222 c-41 -59 -77 -117 -79 -129 -4 -22 -2 -23 67 -23 l71 0 0 -45 c0 -38 3 -45 20 -45 17 0 20 7 20 45 0 43 1 45 30 45 20 0 30 5 30 15 0 10 -10 15 -30 15 l-30 0 0 115 c0 86 -3 115 -12 114 -7 0 -46 -48 -87 -107z m56 -119 c-3 -2 -30 -3 -61 -1 l-56 3 58 82 57 82 3 -81 c2 -44 1 -82 -1 -85z"
       id="path320" />
    <path
       d="M7067 1323 l-57 -4 -25 -49 c-34 -67 -32 -76 15 -84 23 -3 54 -18 71 -34 26 -24 32 -36 32 -72 0 -35 -6 -48 -27 -67 -32 -27 -45 -28 -72 -8 -25 19 -64 19 -64 0 0 -36 64 -44 127 -16 49 23 73 62 73 120 0 52 -46 107 -96 117 -39 7 -47 15 -38 38 5 12 20 16 58 16 29 0 57 5 64 12 13 13 16 39 5 36 -5 -1 -34 -3 -66 -5z"
       id="path322" />
    <path
       d="M8819 1301 c-40 -40 -36 -73 13 -127 19 -21 19 -22 -11 -52 -38 -38 -41 -80 -7 -119 21 -24 31 -28 77 -27 44 0 56 5 76 28 37 44 28 98 -25 143 l-26 22 32 29 c39 37 42 73 7 107 -36 37 -97 35 -136 -4z m99 3 c30 -21 30 -73 -2 -103 l-23 -22 -32 36 c-36 42 -38 58 -11 85 24 24 38 25 68 4z m-4 -198 c56 -52 43 -116 -24 -116 -35 0 -60 31 -60 75 0 31 24 75 40 75 5 0 25 -15 44 -34z"
       id="path324" />
    <path
       d="M9600 1305 c-35 -19 -40 -24 -20 -22 l25 2 0 -145 0 -144 -25 -7 c-15 -4 4 -7 50 -7 54 -1 69 2 53 8 -23 9 -23 13 -23 175 0 91 -3 165 -7 165 -5 -1 -28 -12 -53 -25z"
       id="path326" />
    <path
       d="M9834 1312 c-73 -59 -81 -230 -14 -305 37 -41 95 -44 135 -7 35 33 59 119 51 183 -13 94 -54 147 -116 147 -19 0 -45 -8 -56 -18z m89 -10 c40 -43 47 -215 12 -282 -21 -41 -68 -43 -89 -2 -34 66 -28 241 11 284 21 23 45 23 66 0z"
       id="path328" />
    <path
       d="M11180 1305 c-35 -19 -40 -24 -20 -22 l25 2 0 -145 0 -144 -25 -7 c-15 -4 4 -7 50 -7 54 -1 69 2 53 8 -23 9 -23 13 -23 175 0 91 -3 165 -7 165 -5 -1 -28 -12 -53 -25z"
       id="path330" />
    <path
       d="M11487 1323 l-57 -4 -25 -49 c-34 -67 -32 -76 15 -84 23 -3 54 -18 71 -34 26 -24 32 -36 32 -72 0 -35 -6 -48 -27 -67 -32 -27 -45 -28 -72 -8 -25 19 -64 19 -64 0 0 -36 64 -44 127 -16 49 23 73 62 73 120 0 52 -46 107 -96 117 -39 7 -47 15 -38 38 5 12 20 16 58 16 29 0 57 5 64 12 13 13 16 39 5 36 -5 -1 -34 -3 -66 -5z"
       id="path332" />
    <path
       d="M12264 1296 c-19 -19 -34 -42 -34 -52 0 -15 6 -12 26 14 48 60 129 33 127 -43 -1 -45 -39 -108 -102 -170 -28 -27 -51 -53 -51 -57 0 -4 44 -8 98 -8 96 0 99 1 110 25 15 32 15 57 1 33 -8 -15 -24 -18 -87 -18 l-76 0 51 53 c108 111 129 173 74 228 -42 42 -92 40 -137 -5z"
       id="path334" />
    <path
       d="M12544 1312 c-73 -59 -81 -230 -14 -305 37 -41 95 -44 135 -7 35 33 59 119 51 183 -13 94 -54 147 -116 147 -19 0 -45 -8 -56 -18z m89 -10 c40 -43 47 -215 12 -282 -21 -41 -68 -43 -89 -2 -34 66 -28 241 11 284 21 23 45 23 66 0z"
       id="path336" />
    <path
       d="M13859 1301 c-16 -16 -29 -34 -29 -40 0 -5 11 1 25 14 37 38 89 32 106 -11 12 -34 -7 -70 -50 -91 l-36 -17 32 -6 c62 -10 94 -59 74 -113 -16 -43 -52 -54 -101 -32 -29 13 -44 15 -51 8 -29 -29 37 -50 99 -33 57 15 92 59 92 116 0 36 -5 50 -26 69 l-26 24 21 27 c27 35 27 59 -4 89 -35 36 -88 34 -126 -4z"
       id="path338" />
    <path
       d="M14134 1312 c-73 -59 -81 -230 -14 -305 37 -41 95 -44 135 -7 35 33 59 119 51 183 -13 94 -54 147 -116 147 -19 0 -45 -8 -56 -18z m89 -10 c40 -43 47 -215 12 -282 -21 -41 -68 -43 -89 -2 -34 66 -28 241 11 284 21 23 45 23 66 0z"
       id="path340" />
    <path
       d="M8256 1288 c-15 -39 -12 -50 8 -23 11 15 30 20 85 23 39 2 71 0 71 -5 0 -5 -22 -75 -49 -156 -43 -128 -47 -147 -32 -147 14 0 28 34 69 164 29 90 52 167 52 170 0 3 -43 6 -95 6 l-95 0 -14 -32z"
       id="path342" />
    <path
       d="M2317 1024 c-12 -12 -8 -42 6 -47 21 -8 39 8 35 29 -3 19 -29 30 -41 18z"
       id="path344" />
    <path
       d="M8197 377 c-31 -95 -57 -176 -57 -180 0 -4 6 -7 14 -7 10 0 34 60 74 180 51 152 58 180 44 180 -14 0 -31 -40 -75 -173z"
       id="path348" />
    <flowRoot
       xml:space="preserve"
       id="flowRoot3343"
       style="font-size:40px;font-style:normal;font-weight:normal;line-height:125%;letter-spacing:0px;word-spacing:0px;fill:#000000;fill-opacity:1;stroke:none;font-family:Sans"
       transform="matrix(8,0,0,-8,0,10500)"><flowRegion
         id="flowRegion3345"><rect
           id="rect3347"
           width="56.756218"
           height="43.134724"
           x="835.45148"
           y="1246.6628" /></flowRegion><flowPara
         id="flowPara3349">BbB</flowPara></flowRoot>    <flowRoot
       xml:space="preserve"
       id="flowRoot3351"
       style="font-size:48px;font-style:italic;font-weight:normal;line-height:125%;letter-spacing:0px;word-spacing:0px;fill:#000000;fill-opacity:1;stroke:none;font-family:Times New Roman;-inkscape-font-specification:'Times New Roman, Italic';font-stretch:normal;font-variant:normal;text-anchor:start;text-align:start;writing-mode:lr"
       transform="matrix(8,0,0,-8,0,10500)"><flowRegion
         id="flowRegion3353"><rect
           id="rect3355"
           width="93.080193"
           height="52.215717"
           x="869.50525"
           y="942.44946"
           style="-inkscape-font-specification:'Times New Roman, Italic';font-family:Times New Roman;font-weight:normal;font-style:italic;font-stretch:normal;font-variant:normal;font-size:48px;text-anchor:start;text-align:start;writing-mode:lr;line-height:125%" /></flowRegion><flowPara
         id="flowPara3357"
         style="-inkscape-font-specification:'Times New Roman, Italic';font-family:Times New Roman;font-weight:normal;font-style:italic;font-stretch:normal;font-variant:normal;font-size:56px;text-anchor:start;text-align:start;writing-mode:lr;line-height:125%">b</flowPara></flowRoot>    <flowRoot
       xml:space="preserve"
       id="flowRoot3359"
       style="fill:black;stroke:none;stroke-opacity:1;stroke-width:1px;stroke-linejoin:miter;stroke-linecap:butt;fill-opacity:1;font-family:Sans;font-style:normal;font-weight:normal;font-size:40px;line-height:125%;letter-spacing:0px;word-spacing:0px"><flowRegion
         id="flowRegion3361"><rect
           id="rect3363"
           width="231.56537"
           height="95.350441"
           x="792.31677"
           y="940.1792" /></flowRegion><flowPara
         id="flowPara3365" /></flowRoot>    <flowRoot
       xml:space="preserve"
       id="flowRoot3367"
       style="font-size:56px;font-style:italic;font-variant:normal;font-weight:normal;font-stretch:normal;text-align:start;line-height:125%;letter-spacing:0px;word-spacing:0px;writing-mode:lr-tb;text-anchor:start;fill:#000000;fill-opacity:1;stroke:none;font-family:Times New Roman;-inkscape-font-specification:'Times New Roman, Italic'"
       transform="matrix(8,0,0,-8,358.91581,8454.1812)"><flowRegion
         id="flowRegion3369"><rect
           id="rect3371"
           width="431.34726"
           height="95.350441"
           x="939.88293"
           y="969.69244"
           style="font-size:56px;font-style:italic;font-variant:normal;font-weight:normal;font-stretch:normal;text-align:start;line-height:125%;writing-mode:lr-tb;text-anchor:start;font-family:Times New Roman;-inkscape-font-specification:'Times New Roman, Italic'" /></flowRegion><flowPara
         id="flowPara3373">b</flowPara></flowRoot>    <flowRoot
       xml:space="preserve"
       id="flowRoot3367-8"
       style="font-size:56px;font-style:italic;font-variant:normal;font-weight:normal;font-stretch:normal;text-align:start;line-height:125%;letter-spacing:0px;word-spacing:0px;writing-mode:lr-tb;text-anchor:start;fill:#000000;fill-opacity:1;stroke:none;font-family:Times New Roman;-inkscape-font-specification:'Times New Roman, Italic'"
       transform="matrix(8,0,0,-8,801.4714,8454.1279)"><flowRegion
         id="flowRegion3369-0"><rect
           id="rect3371-8"
           width="431.34726"
           height="95.350441"
           x="939.88293"
           y="969.69244"
           style="font-size:56px;font-style:italic;font-variant:normal;font-weight:normal;font-stretch:normal;text-align:start;line-height:125%;writing-mode:lr-tb;text-anchor:start;font-family:Times New Roman;-inkscape-font-specification:'Times New Roman, Italic'" /></flowRegion><flowPara
         id="flowPara3402">a</flowPara></flowRoot>    <flowRoot
       xml:space="preserve"
       id="flowRoot3404"
       style="font-size:72px;font-style:normal;font-variant:normal;font-weight:normal;font-stretch:normal;text-align:start;line-height:125%;letter-spacing:0px;word-spacing:0px;writing-mode:lr;text-anchor:start;fill:#000000;fill-opacity:1;stroke:none;font-family:Times New Roman;-inkscape-font-specification:'Times New Roman,'"
       transform="matrix(8,0,0,-8,140.5421,11293.508)"><flowRegion
         id="flowRegion3406"><rect
           id="rect3408"
           width="81.728951"
           height="88.539696"
           x="68.10746"
           y="554.23694"
           style="font-size:72px;font-style:normal;font-variant:normal;font-weight:normal;font-stretch:normal;text-align:start;line-height:125%;writing-mode:lr;text-anchor:start;font-family:Times New Roman;-inkscape-font-specification:'Times New Roman,'" /></flowRegion><flowPara
         id="flowPara3416">ω</flowPara></flowRoot>    <flowRoot
       xml:space="preserve"
       id="flowRoot3418"
       style="font-size:64px;font-style:normal;font-weight:normal;line-height:125%;letter-spacing:0px;word-spacing:0px;fill:#000000;fill-opacity:1;stroke:none;font-family:Times New Roman;-inkscape-font-specification:'Times New Roman,';font-stretch:normal;font-variant:normal;text-anchor:start;text-align:start;writing-mode:lr"
       transform="matrix(8,0,0,-8,0,10500)"><flowRegion
         id="flowRegion3420"><rect
           id="rect3422"
           width="31.783482"
           height="47.67522"
           x="86.269447"
           y="324.94183"
           style="-inkscape-font-specification:'Times New Roman,';font-family:Times New Roman;font-weight:normal;font-style:normal;font-stretch:normal;font-variant:normal;font-size:64px;text-anchor:start;text-align:start;writing-mode:lr;line-height:125%" /></flowRegion><flowPara
         id="flowPara3424">-</flowPara></flowRoot>    <flowRoot
       xml:space="preserve"
       id="flowRoot3426"
       style="font-size:72px;font-style:normal;font-variant:normal;font-weight:normal;font-stretch:normal;text-align:start;line-height:125%;letter-spacing:0px;word-spacing:0px;writing-mode:lr;text-anchor:start;fill:#000000;fill-opacity:1;stroke:none;font-family:Times New Roman;-inkscape-font-specification:'Times New Roman,'"
       transform="matrix(8,0,0,-8,-3936,8004)"><flowRegion
         id="flowRegion3428"><rect
           id="rect3430"
           width="447.23898"
           height="233.83562"
           x="551.67041"
           y="145.59219"
           style="font-size:72px;font-style:normal;font-variant:normal;font-weight:normal;font-stretch:normal;text-align:start;line-height:125%;writing-mode:lr;text-anchor:start;font-family:Times New Roman;-inkscape-font-specification:'Times New Roman,'" /></flowRegion><flowPara
         id="flowPara3432">-</flowPara></flowRoot>  </g>
  <text
     xml:space="preserve"
     style="font-size:32px;font-style:normal;font-variant:normal;font-weight:bold;font-stretch:normal;text-align:start;line-height:125%;letter-spacing:0px;word-spacing:0px;writing-mode:lr-tb;text-anchor:start;fill:#000000;fill-opacity:1;stroke:none;font-family:Sans;-inkscape-font-specification:Sans Bold"
     x="1318.2578"
     y="450.04956"
     id="text3331"
     sodipodi:linespacing="125%"><tspan
       sodipodi:role="line"
       id="tspan3333"
       x="1318.2578"
       y="450.04956">X</tspan></text>
  <text
     xml:space="preserve"
     style="font-size:32px;font-style:normal;font-variant:normal;font-weight:bold;font-stretch:normal;text-align:start;line-height:125%;letter-spacing:0px;word-spacing:0px;writing-mode:lr-tb;text-anchor:start;fill:#000000;fill-opacity:1;stroke:none;font-family:Sans;-inkscape-font-specification:Sans Bold"
     x="1100.53"
     y="469.29251"
     id="text3335"
     sodipodi:linespacing="125%"><tspan
       sodipodi:role="line"
       id="tspan3337"
       x="1100.53"
       y="469.29251">X</tspan></text>
  <text
     xml:space="preserve"
     style="font-size:40px;font-style:normal;font-weight:bold;line-height:125%;letter-spacing:0px;word-spacing:0px;fill:#000000;fill-opacity:1;stroke:none;font-family:Sans;-inkscape-font-specification:Sans Bold;font-stretch:normal;font-variant:normal;text-anchor:start;text-align:start;writing-mode:lr"
     x="849.073"
     y="754.01886"
     id="text3339"
     sodipodi:linespacing="125%"
     transform="scale(0.8,0.8)"><tspan
       sodipodi:role="line"
       id="tspan3341"
       x="849.073"
       y="754.01886">X</tspan></text>
</svg>
