<?xml version="1.0" standalone="no"?>
<!DOCTYPE svg PUBLIC "-//W3C//DTD SVG 20010904//EN"
 "http://www.w3.org/TR/2001/REC-SVG-20010904/DTD/svg10.dtd">
<svg version="1.0" xmlns="http://www.w3.org/2000/svg"
 width="1500.000000pt" height="1050.000000pt" viewBox="0 0 1500.000000 1050.000000"
 preserveAspectRatio="xMidYMid meet">
<metadata>
Created by potrace 1.11, written by Peter Selinger 2001-2013
</metadata>
<g transform="translate(0.000000,1050.000000) scale(0.100000,-0.100000)"
fill="#000000" stroke="none">
<path d="M865 9997 c-27 -27 -34 -44 -40 -89 -4 -31 -4 -74 0 -97 20 -120 131
-159 198 -69 28 38 35 153 13 212 -32 83 -111 103 -171 43z m110 -37 c25 -28
32 -124 12 -171 -18 -44 -48 -54 -82 -27 -23 18 -25 26 -25 97 0 85 16 121 54
121 13 0 31 -9 41 -20z"/>
<path d="M1440 9996 c0 -14 8 -32 17 -41 15 -16 18 -16 28 -1 9 11 28 16 69
16 31 0 56 -4 56 -8 0 -5 -18 -59 -39 -121 -39 -110 -42 -141 -16 -141 21 0
31 20 74 150 60 181 64 170 -74 170 l-115 0 0 -24z"/>
<path d="M2020 5460 l0 -4430 6030 0 6030 0 0 4430 0 4430 -6030 0 -6030 0 0
-4430z m1150 4375 c0 -16 6 -25 15 -25 9 0 15 9 15 25 l0 25 800 0 800 0 0
-25 c0 -16 6 -25 15 -25 9 0 15 9 15 25 l0 25 560 0 560 0 0 -25 c0 -18 5 -25
20 -25 15 0 20 7 20 25 l0 25 430 0 430 0 0 -25 c0 -16 6 -25 15 -25 9 0 15 9
15 25 l0 25 350 0 350 0 0 -25 c0 -16 6 -25 15 -25 9 0 15 9 15 25 l0 25 295
0 295 0 0 -25 c0 -16 6 -25 15 -25 9 0 15 9 15 25 l0 25 255 0 255 0 0 -25 c0
-16 6 -25 15 -25 9 0 15 9 15 25 l0 25 430 0 430 0 0 -25 c0 -16 6 -25 15 -25
9 0 15 9 15 25 l0 25 800 0 800 0 0 -25 c0 -16 6 -25 15 -25 9 0 15 9 15 25
l0 25 565 0 565 0 0 -25 c0 -16 6 -25 15 -25 9 0 15 9 15 25 l0 25 795 0 795
0 -2 -572 -3 -571 -340 -108 c-192 -62 -348 -106 -359 -103 -11 4 -16 2 -12
-4 3 -5 -185 -77 -441 -167 -515 -181 -1462 -555 -1963 -775 -457 -201 -1763
-858 -2310 -1163 -653 -364 -1411 -848 -2192 -1398 -656 -462 -1725 -1272
-2800 -2120 -267 -211 -628 -482 -965 -725 -296 -213 -553 -398 -570 -412
l-33 -24 0 286 0 286 25 0 c16 0 25 6 25 15 0 9 -9 15 -25 15 l-25 0 0 615 0
615 25 0 c16 0 25 6 25 15 0 9 -9 15 -25 15 l-25 0 0 615 0 615 25 0 c16 0 25
6 25 15 0 9 -9 15 -25 15 l-25 0 0 615 0 615 25 0 c16 0 25 6 25 15 0 9 -9 15
-25 15 l-25 0 0 615 0 615 25 0 c18 0 25 5 25 20 0 15 -7 20 -25 20 l-25 0 0
615 0 615 25 0 c16 0 25 6 25 15 0 9 -9 15 -25 15 l-25 0 0 615 0 615 560 0
560 0 0 -25z m10870 -1170 c0 -31 -3 -35 -25 -35 -16 0 -25 -6 -25 -15 0 -9 9
-15 25 -15 l25 0 0 -615 0 -615 -25 0 c-18 0 -25 -5 -25 -20 0 -15 7 -20 25
-20 l25 0 0 -615 0 -615 -25 0 c-16 0 -25 -6 -25 -15 0 -8 -7 -15 -15 -15 -8
0 -15 -4 -15 -10 0 -6 9 -6 26 0 58 22 54 63 54 -605 l0 -615 -25 0 c-16 0
-25 -6 -25 -15 0 -9 9 -15 25 -15 l25 0 0 -615 0 -615 -25 0 c-16 0 -25 -6
-25 -15 0 -9 9 -15 25 -15 l25 0 0 -615 0 -615 -25 0 c-16 0 -25 -6 -25 -15 0
-9 9 -15 25 -15 l25 0 0 -615 0 -615 -795 0 -795 0 0 25 c0 16 -6 25 -15 25
-9 0 -15 -9 -15 -25 l0 -25 -565 0 -565 0 0 25 c0 16 -6 25 -15 25 -9 0 -15
-9 -15 -25 l0 -25 -800 0 -800 0 0 25 c0 16 -6 25 -15 25 -9 0 -15 -9 -15 -25
l0 -25 -430 0 -430 0 0 25 c0 16 -6 25 -15 25 -9 0 -15 -9 -15 -25 l0 -25
-255 0 -255 0 0 25 c0 16 -6 25 -15 25 -9 0 -15 -9 -15 -25 l0 -25 -295 0
-295 0 0 25 c0 16 -6 25 -15 25 -9 0 -15 -9 -15 -25 l0 -25 -350 0 -350 0 0
25 c0 16 -6 25 -15 25 -9 0 -15 -9 -15 -25 l0 -25 -430 0 -430 0 0 25 c0 18
-5 25 -20 25 -15 0 -20 -7 -20 -25 l0 -25 -560 0 -560 0 0 25 c0 16 -6 25 -15
25 -9 0 -15 -9 -15 -25 l0 -25 -800 0 -800 0 0 25 c0 16 -6 25 -15 25 -9 0
-15 -9 -15 -25 l0 -25 -560 0 -560 0 0 323 1 322 556 400 c353 253 713 523
982 735 2358 1858 3709 2811 5031 3547 556 310 1806 940 2285 1151 525 232
1463 603 2018 798 257 90 475 166 485 168 9 1 24 6 32 9 31 14 576 186 588
187 7 0 12 -13 12 -35z"/>
<path d="M8398 9703 c-25 -6 -23 -44 2 -50 18 -5 20 -14 20 -113 0 -101 -1
-108 -21 -113 -13 -4 -20 -12 -17 -24 2 -14 14 -19 57 -21 35 -2 57 1 62 9 10
16 0 39 -17 39 -22 0 -19 93 4 113 19 18 48 22 76 11 22 -8 23 -124 2 -124
-19 0 -28 -14 -20 -35 10 -24 117 -18 122 8 3 12 -4 20 -17 24 -19 5 -21 13
-21 70 0 55 -4 67 -25 88 -26 26 -85 34 -115 15 -13 -8 -16 0 -20 48 -5 52 -7
57 -30 59 -14 0 -33 -1 -42 -4z"/>
<path d="M9198 9703 c-25 -6 -23 -44 2 -50 14 -4 20 -14 20 -35 0 -25 -2 -27
-19 -18 -30 15 -113 12 -139 -6 -29 -20 -52 -65 -52 -101 0 -71 78 -132 149
-117 20 4 61 8 91 8 44 1 55 4 58 19 2 12 -4 20 -17 24 -19 5 -21 13 -23 142
l-3 136 -25 2 c-14 0 -33 -1 -42 -4z m5 -174 c34 -46 1 -99 -62 -99 -69 0
-100 53 -60 103 18 24 28 28 62 25 30 -2 45 -10 60 -29z"/>
<path d="M11068 9699 c-24 -13 -23 -36 2 -44 14 -4 20 -15 20 -36 0 -26 -2
-29 -19 -19 -11 5 -40 10 -65 10 -106 0 -159 -125 -85 -200 30 -29 97 -48 121
-34 7 4 40 7 74 6 45 -2 63 1 67 11 6 17 -3 32 -25 40 -16 6 -18 22 -18 142
l0 135 -27 0 c-16 0 -36 -5 -45 -11z m2 -159 c44 -44 11 -112 -54 -112 -48 0
-76 25 -76 68 0 59 86 88 130 44z"/>
<path d="M11290 9675 c0 -22 4 -25 35 -25 31 0 35 3 35 25 0 22 -4 25 -35 25
-31 0 -35 -3 -35 -25z"/>
<path d="M8703 9603 c-18 -7 -16 -27 5 -46 10 -9 35 -52 57 -96 34 -70 37 -83
27 -106 -8 -18 -19 -25 -40 -25 -15 0 -37 -6 -47 -14 -16 -12 -17 -16 -6 -30
10 -12 31 -16 76 -16 35 0 70 3 79 6 20 8 21 44 1 44 -8 0 -15 3 -15 7 0 17
104 210 122 225 33 29 20 53 -33 56 -56 4 -80 -16 -52 -43 16 -17 15 -20 -12
-71 l-30 -54 -28 56 c-27 53 -27 57 -11 69 39 28 -39 60 -93 38z"/>
<path d="M9357 9603 c-15 -15 -6 -42 16 -45 20 -3 22 -9 25 -65 l3 -63 -29 0
c-30 0 -43 -14 -35 -37 3 -9 34 -13 108 -13 73 0 104 4 107 13 10 27 -4 37
-53 37 l-49 0 0 39 c0 34 5 44 36 67 30 24 40 26 63 18 34 -13 51 -8 51 16 0
38 -77 54 -116 25 -25 -19 -34 -19 -34 0 0 11 -11 15 -43 15 -24 0 -47 -3 -50
-7z"/>
<path d="M9699 9593 c-34 -21 -59 -63 -59 -100 0 -62 66 -123 133 -123 12 0
43 10 67 23 33 16 48 31 59 59 17 48 8 83 -34 125 -29 29 -39 33 -86 33 -32 0
-65 -7 -80 -17z m131 -51 c62 -50 -6 -138 -87 -111 -56 18 -69 64 -28 104 29
30 83 33 115 7z"/>
<path d="M9963 9603 c-18 -7 -16 -43 2 -43 12 0 15 -14 15 -65 0 -50 -3 -65
-14 -65 -19 0 -28 -14 -20 -35 10 -24 117 -18 122 8 3 12 -4 20 -17 24 -18 4
-21 13 -21 54 0 40 4 51 24 64 14 9 37 15 53 13 27 -3 28 -6 31 -62 2 -46 -1
-61 -14 -71 -10 -7 -15 -19 -11 -29 9 -24 102 -23 111 1 4 11 1 22 -8 29 -10
7 -16 26 -16 50 0 53 -16 103 -37 120 -23 17 -95 18 -112 2 -11 -10 -14 -10
-18 0 -5 12 -46 15 -70 5z"/>
<path d="M10319 9587 c-116 -78 -17 -249 120 -208 78 23 112 101 76 171 -32
61 -132 80 -196 37z m138 -49 c40 -37 26 -89 -30 -107 -55 -19 -107 11 -107
61 0 63 87 93 137 46z"/>
<path d="M10579 9594 c-11 -14 -11 -18 4 -29 24 -17 24 -123 0 -140 -31 -23
-9 -45 47 -45 56 0 78 22 47 45 -24 17 -23 103 1 121 21 17 64 18 80 2 19 -19
15 -108 -5 -123 -30 -22 -9 -45 42 -45 51 0 72 23 42 45 -13 9 -17 28 -17 74
0 52 -4 66 -25 86 -26 27 -80 34 -115 15 -13 -7 -21 -7 -25 0 -10 16 -61 12
-76 -6z"/>
<path d="M11247 9603 c-4 -3 -7 -15 -7 -25 0 -14 8 -18 35 -18 l35 0 0 -65 0
-65 -44 0 c-48 0 -60 -8 -50 -34 5 -14 23 -16 123 -14 108 3 116 4 116 23 0
17 -8 20 -47 23 l-48 3 0 90 0 89 -53 0 c-30 0 -57 -3 -60 -7z"/>
<path d="M11500 9595 c-14 -16 -6 -35 15 -35 8 0 35 -40 60 -90 41 -81 48 -90
73 -90 25 0 32 9 72 90 32 65 49 90 63 90 13 0 18 6 15 23 -3 20 -8 22 -63 22
-55 0 -60 -2 -63 -22 -2 -16 2 -23 12 -23 9 0 16 -4 16 -10 0 -14 -43 -100
-50 -100 -4 0 -17 23 -30 51 -23 47 -23 52 -7 60 21 12 22 35 1 43 -30 12
-101 6 -114 -9z"/>
<path d="M12448 9543 c184 -2 481 -2 660 0 180 1 30 2 -333 2 -363 0 -510 -1
-327 -2z"/>
<path d="M9333 9180 c-28 -12 -29 -26 -3 -42 18 -12 20 -24 20 -117 0 -85 -3
-106 -17 -116 -10 -7 -14 -19 -10 -29 5 -14 17 -16 59 -14 46 3 53 6 56 26 2
15 -2 22 -12 22 -13 0 -16 11 -16 51 0 57 16 78 61 79 37 0 49 -18 49 -76 0
-44 -3 -52 -21 -57 -13 -4 -20 -12 -17 -24 5 -26 112 -32 122 -8 8 21 -1 35
-20 35 -11 0 -14 15 -14 65 0 57 -3 69 -25 90 -26 26 -85 34 -115 15 -13 -8
-16 0 -20 48 -5 52 -7 57 -30 59 -14 1 -35 -2 -47 -7z"/>
<path d="M10133 9180 c-28 -12 -29 -26 -3 -42 11 -7 20 -22 20 -33 0 -19 -5
-21 -65 -17 -63 4 -66 3 -100 -31 -30 -30 -35 -42 -35 -80 0 -79 75 -139 153
-121 17 4 57 8 87 8 44 1 55 4 58 19 2 12 -4 20 -17 24 -19 5 -21 13 -23 142
l-3 136 -25 2 c-14 1 -35 -2 -47 -7z m-1 -157 c24 -22 23 -75 -1 -97 -29 -26
-91 -24 -113 4 -40 49 -7 110 59 110 20 0 45 -7 55 -17z"/>
<path d="M11068 9179 c-24 -13 -23 -36 2 -44 14 -4 20 -15 20 -36 0 -26 -2
-29 -19 -19 -11 5 -40 10 -65 10 -106 0 -159 -125 -85 -200 30 -29 97 -48 121
-34 7 4 40 7 74 6 45 -2 63 1 67 11 6 17 -3 32 -25 40 -16 6 -18 22 -18 142
l0 135 -27 0 c-16 0 -36 -5 -45 -11z m2 -159 c44 -44 11 -112 -54 -112 -48 0
-76 25 -76 68 0 59 86 88 130 44z"/>
<path d="M11290 9155 c0 -22 4 -25 35 -25 31 0 35 3 35 25 0 22 -4 25 -35 25
-31 0 -35 -3 -35 -25z"/>
<path d="M9643 9084 c-7 -3 -13 -14 -13 -24 0 -10 6 -20 13 -23 6 -2 32 -41
55 -86 40 -75 43 -85 32 -112 -8 -19 -20 -29 -34 -29 -40 0 -66 -12 -66 -30 0
-24 20 -30 95 -30 45 0 66 4 76 16 11 14 10 18 -6 31 -19 14 -18 17 35 120 30
59 64 114 74 124 27 26 6 49 -44 49 -47 0 -73 -25 -46 -45 16 -12 16 -16 -12
-72 l-30 -58 -28 58 c-23 46 -26 60 -15 66 7 5 11 17 9 27 -2 14 -13 19 -43
21 -22 1 -46 0 -52 -3z"/>
<path d="M10290 9075 c-15 -18 -5 -31 25 -37 17 -3 20 -11 20 -63 0 -59 -1
-60 -30 -65 -22 -4 -30 -11 -30 -25 0 -19 7 -20 105 -20 101 0 105 1 108 23 3
20 0 22 -47 22 l-51 0 0 39 c0 34 5 44 36 67 31 24 39 26 64 17 23 -9 32 -8
41 3 9 11 8 19 -6 34 -22 24 -65 26 -105 5 -27 -14 -30 -14 -30 0 0 21 -83 21
-100 0z"/>
<path d="M10638 9074 c-60 -32 -76 -121 -32 -173 89 -106 272 -20 230 109 -22
69 -127 103 -198 64z m132 -54 c56 -56 -8 -136 -87 -109 -55 18 -69 66 -31
106 28 30 89 32 118 3z"/>
<path d="M11247 9083 c-4 -3 -7 -15 -7 -25 0 -14 8 -18 35 -18 l35 0 0 -65 0
-65 -44 0 c-48 0 -60 -8 -50 -34 5 -14 23 -16 123 -14 108 3 116 4 116 23 0
17 -8 20 -47 23 l-48 3 0 90 0 89 -53 0 c-30 0 -57 -3 -60 -7z"/>
<path d="M11500 9075 c-14 -16 -6 -35 15 -35 8 0 35 -40 60 -90 41 -81 48 -90
73 -90 25 0 32 9 72 90 32 65 49 90 63 90 13 0 18 6 15 23 -3 20 -8 22 -63 22
-55 0 -60 -2 -63 -22 -2 -16 2 -23 12 -23 9 0 16 -4 16 -10 0 -14 -43 -100
-50 -100 -4 0 -17 23 -30 51 -23 47 -23 52 -7 60 21 12 22 35 1 43 -30 12
-101 6 -114 -9z"/>
<path d="M12128 9023 c6 -2 18 -2 25 0 6 3 1 5 -13 5 -14 0 -19 -2 -12 -5z"/>
<path d="M12188 9023 c6 -2 18 -2 25 0 6 3 1 5 -13 5 -14 0 -19 -2 -12 -5z"/>
<path d="M12258 9023 c7 -3 16 -2 19 1 4 3 -2 6 -13 5 -11 0 -14 -3 -6 -6z"/>
<path d="M12318 9023 c6 -2 18 -2 25 0 6 3 1 5 -13 5 -14 0 -19 -2 -12 -5z"/>
<path d="M12378 9023 c6 -2 18 -2 25 0 6 3 1 5 -13 5 -14 0 -19 -2 -12 -5z"/>
<path d="M12438 9023 c6 -2 18 -2 25 0 6 3 1 5 -13 5 -14 0 -19 -2 -12 -5z"/>
<path d="M12508 9023 c7 -3 16 -2 19 1 4 3 -2 6 -13 5 -11 0 -14 -3 -6 -6z"/>
<path d="M12568 9023 c6 -2 18 -2 25 0 6 3 1 5 -13 5 -14 0 -19 -2 -12 -5z"/>
<path d="M12628 9023 c6 -2 18 -2 25 0 6 3 1 5 -13 5 -14 0 -19 -2 -12 -5z"/>
<path d="M12688 9023 c6 -2 18 -2 25 0 6 3 1 5 -13 5 -14 0 -19 -2 -12 -5z"/>
<path d="M12758 9023 c7 -3 16 -2 19 1 4 3 -2 6 -13 5 -11 0 -14 -3 -6 -6z"/>
<path d="M12818 9023 c6 -2 18 -2 25 0 6 3 1 5 -13 5 -14 0 -19 -2 -12 -5z"/>
<path d="M12878 9023 c6 -2 18 -2 25 0 6 3 1 5 -13 5 -14 0 -19 -2 -12 -5z"/>
<path d="M12938 9023 c6 -2 18 -2 25 0 6 3 1 5 -13 5 -14 0 -19 -2 -12 -5z"/>
<path d="M13008 9023 c7 -3 16 -2 19 1 4 3 -2 6 -13 5 -11 0 -14 -3 -6 -6z"/>
<path d="M13068 9023 c6 -2 18 -2 25 0 6 3 1 5 -13 5 -14 0 -19 -2 -12 -5z"/>
<path d="M13128 9023 c6 -2 18 -2 25 0 6 3 1 5 -13 5 -14 0 -19 -2 -12 -5z"/>
<path d="M13188 9023 c6 -2 18 -2 25 0 6 3 1 5 -13 5 -14 0 -19 -2 -12 -5z"/>
<path d="M13258 9023 c7 -3 16 -2 19 1 4 3 -2 6 -13 5 -11 0 -14 -3 -6 -6z"/>
<path d="M13318 9023 c6 -2 18 -2 25 0 6 3 1 5 -13 5 -14 0 -19 -2 -12 -5z"/>
<path d="M13378 9023 c6 -2 18 -2 25 0 6 3 1 5 -13 5 -14 0 -19 -2 -12 -5z"/>
<path d="M9333 8660 c-28 -12 -29 -26 -3 -42 18 -12 20 -24 20 -117 0 -85 -3
-106 -17 -116 -10 -7 -14 -19 -10 -29 5 -14 17 -16 59 -14 46 3 53 6 56 26 2
15 -2 22 -12 22 -13 0 -16 11 -16 51 0 57 16 78 61 79 37 0 49 -18 49 -76 0
-44 -3 -52 -21 -57 -13 -4 -20 -12 -17 -24 5 -26 112 -32 122 -8 8 21 -1 35
-20 35 -11 0 -14 15 -14 65 0 57 -3 69 -25 90 -26 26 -85 34 -115 15 -13 -8
-16 0 -20 48 -5 52 -7 57 -30 59 -14 1 -35 -2 -47 -7z"/>
<path d="M10133 8660 c-28 -12 -29 -26 -3 -42 11 -7 20 -22 20 -33 0 -19 -5
-21 -65 -17 -63 4 -66 3 -100 -31 -30 -30 -35 -42 -35 -80 0 -79 75 -139 153
-121 17 4 57 8 87 8 44 1 55 4 58 19 2 12 -4 20 -17 24 -19 5 -21 13 -23 142
l-3 136 -25 2 c-14 1 -35 -2 -47 -7z m-1 -157 c24 -22 23 -75 -1 -97 -29 -26
-91 -24 -113 4 -40 49 -7 110 59 110 20 0 45 -7 55 -17z"/>
<path d="M11068 8659 c-24 -13 -23 -36 2 -44 14 -4 20 -15 20 -36 0 -26 -2
-29 -19 -19 -11 5 -40 10 -65 10 -106 0 -159 -125 -85 -200 30 -29 97 -48 121
-34 7 4 40 7 74 6 45 -2 63 1 67 11 6 17 -3 32 -25 40 -16 6 -18 22 -18 142
l0 135 -27 0 c-16 0 -36 -5 -45 -11z m2 -159 c44 -44 11 -112 -54 -112 -48 0
-76 25 -76 68 0 59 86 88 130 44z"/>
<path d="M11290 8635 c0 -22 4 -25 35 -25 31 0 35 3 35 25 0 22 -4 25 -35 25
-31 0 -35 -3 -35 -25z"/>
<path d="M8397 8563 c-12 -12 -7 -41 8 -47 11 -4 15 -21 15 -65 0 -51 -3 -59
-21 -64 -13 -4 -20 -12 -17 -24 2 -14 14 -19 51 -21 27 -2 55 2 62 8 16 14 9
40 -11 40 -10 0 -14 14 -14 48 0 60 22 85 72 80 33 -3 33 -3 36 -62 2 -46 -1
-61 -14 -71 -11 -7 -15 -19 -11 -29 5 -13 17 -16 54 -14 41 3 48 6 51 26 2 15
-2 22 -12 22 -13 0 -16 13 -16 69 0 63 -2 71 -26 90 -29 23 -83 28 -115 11
-13 -7 -19 -7 -19 0 0 11 -63 14 -73 3z"/>
<path d="M8746 8539 c-67 -59 -54 -153 26 -189 24 -11 53 -20 66 -20 40 0 91
28 112 62 53 87 -7 178 -119 178 -42 0 -56 -5 -85 -31z m149 -44 c40 -40 27
-85 -32 -105 -59 -21 -124 31 -104 83 20 52 95 64 136 22z"/>
<path d="M9023 8563 c-18 -7 -16 -32 2 -39 22 -9 22 -134 -1 -134 -10 0 -14
-7 -12 -22 3 -20 10 -23 56 -26 42 -2 54 0 59 14 4 12 -1 22 -15 32 -32 21
-31 94 0 116 31 22 75 20 88 -3 18 -34 12 -95 -11 -114 -30 -26 -9 -47 48 -47
48 0 69 23 41 44 -10 8 -17 34 -20 80 -3 57 -8 72 -27 87 -27 22 -100 26 -120
7 -11 -10 -14 -10 -18 0 -5 12 -46 15 -70 5z"/>
<path d="M9643 8564 c-7 -3 -13 -14 -13 -24 0 -10 6 -20 13 -23 6 -2 32 -41
55 -86 40 -75 43 -85 32 -112 -8 -19 -20 -29 -34 -29 -40 0 -66 -12 -66 -30 0
-24 20 -30 95 -30 45 0 66 4 76 16 11 14 10 18 -6 31 -19 14 -18 17 35 120 30
59 64 114 74 124 27 26 6 49 -44 49 -47 0 -73 -25 -46 -45 16 -12 16 -16 -12
-72 l-30 -58 -28 58 c-23 46 -26 60 -15 66 7 5 11 17 9 27 -2 14 -13 19 -43
21 -22 1 -46 0 -52 -3z"/>
<path d="M10290 8555 c-15 -18 -5 -31 25 -37 17 -3 20 -11 20 -63 0 -59 -1
-60 -30 -65 -22 -4 -30 -11 -30 -25 0 -19 7 -20 105 -20 101 0 105 1 108 23 3
20 0 22 -47 22 l-51 0 0 39 c0 34 5 44 36 67 31 24 39 26 64 17 23 -9 32 -8
41 3 9 11 8 19 -6 34 -22 24 -65 26 -105 5 -27 -14 -30 -14 -30 0 0 21 -83 21
-100 0z"/>
<path d="M10638 8554 c-60 -32 -76 -121 -32 -173 89 -106 272 -20 230 109 -22
69 -127 103 -198 64z m132 -54 c56 -56 -8 -136 -87 -109 -55 18 -69 66 -31
106 28 30 89 32 118 3z"/>
<path d="M11247 8563 c-4 -3 -7 -15 -7 -25 0 -14 8 -18 35 -18 l35 0 0 -65 0
-65 -44 0 c-48 0 -60 -8 -50 -34 5 -14 23 -16 123 -14 108 3 116 4 116 23 0
17 -8 20 -47 23 l-48 3 0 90 0 89 -53 0 c-30 0 -57 -3 -60 -7z"/>
<path d="M11500 8555 c-14 -16 -6 -35 15 -35 8 0 35 -40 60 -90 41 -81 48 -90
73 -90 25 0 32 9 72 90 32 65 49 90 63 90 13 0 18 6 15 23 -3 20 -8 22 -63 22
-55 0 -60 -2 -63 -22 -2 -16 2 -23 12 -23 9 0 16 -4 16 -10 0 -14 -43 -100
-50 -100 -4 0 -17 23 -30 51 -23 47 -23 52 -7 60 21 12 22 35 1 43 -30 12
-101 6 -114 -9z"/>
<path d="M13915 6050 c-19 -8 -19 -9 3 -9 12 -1 22 4 22 9 0 6 -1 10 -2 9 -2
0 -12 -4 -23 -9z"/>
<path d="M13855 6030 c-19 -8 -19 -9 3 -9 12 -1 22 4 22 9 0 6 -1 10 -2 9 -2
0 -12 -4 -23 -9z"/>
<path d="M13790 6010 c-13 -8 -13 -10 2 -10 9 0 20 5 23 10 8 13 -5 13 -25 0z"/>
<path d="M13730 5990 c-13 -8 -13 -10 2 -10 9 0 20 5 23 10 8 13 -5 13 -25 0z"/>
<path d="M13665 5970 c-8 -13 5 -13 25 0 13 8 13 10 -2 10 -9 0 -20 -4 -23
-10z"/>
<path d="M13605 5950 c-8 -13 5 -13 25 0 13 8 13 10 -2 10 -9 0 -20 -4 -23
-10z"/>
<path d="M13548 5933 c6 -2 18 -2 25 0 6 3 1 5 -13 5 -14 0 -19 -2 -12 -5z"/>
<path d="M13495 5920 c-19 -8 -19 -9 3 -9 12 -1 22 4 22 9 0 6 -1 10 -2 9 -2
0 -12 -4 -23 -9z"/>
<path d="M13435 5900 c-19 -8 -19 -9 3 -9 12 -1 22 4 22 9 0 6 -1 10 -2 9 -2
0 -12 -4 -23 -9z"/>
<path d="M13370 5880 c-13 -8 -13 -10 2 -10 9 0 20 5 23 10 8 13 -5 13 -25 0z"/>
<path d="M13315 5860 c-3 -5 -2 -10 4 -10 5 0 13 5 16 10 3 6 2 10 -4 10 -5 0
-13 -4 -16 -10z"/>
<path d="M13250 5840 c0 -5 7 -7 15 -4 8 4 15 8 15 10 0 2 -7 4 -15 4 -8 0
-15 -4 -15 -10z"/>
<path d="M13190 5820 c0 -5 7 -7 15 -4 8 4 15 8 15 10 0 2 -7 4 -15 4 -8 0
-15 -4 -15 -10z"/>
<path d="M13130 5800 c0 -5 7 -7 15 -4 8 4 15 8 15 10 0 2 -7 4 -15 4 -8 0
-15 -4 -15 -10z"/>
<path d="M13080 5790 c-13 -8 -12 -10 3 -10 9 0 17 5 17 10 0 12 -1 12 -20 0z"/>
<path d="M13020 5770 c-13 -8 -12 -10 3 -10 9 0 17 5 17 10 0 12 -1 12 -20 0z"/>
<path d="M12955 5750 c-3 -5 -2 -10 4 -10 5 0 13 5 16 10 3 6 2 10 -4 10 -5 0
-13 -4 -16 -10z"/>
<path d="M12895 5730 c-8 -13 5 -13 25 0 13 8 13 10 -2 10 -9 0 -20 -4 -23
-10z"/>
<path d="M12835 5710 c-8 -13 5 -13 25 0 13 8 13 10 -2 10 -9 0 -20 -4 -23
-10z"/>
<path d="M12770 5691 c0 -5 9 -7 20 -4 11 3 20 7 20 9 0 2 -9 4 -20 4 -11 0
-20 -4 -20 -9z"/>
<path d="M12710 5671 c0 -5 9 -7 20 -4 11 3 20 7 20 9 0 2 -9 4 -20 4 -11 0
-20 -4 -20 -9z"/>
<path d="M12660 5660 c-13 -8 -13 -10 2 -10 9 0 20 5 23 10 8 13 -5 13 -25 0z"/>
<path d="M12600 5640 c-13 -8 -13 -10 2 -10 9 0 20 5 23 10 8 13 -5 13 -25 0z"/>
<path d="M12540 5620 c-13 -8 -13 -10 2 -10 9 0 20 5 23 10 8 13 -5 13 -25 0z"/>
<path d="M12475 5600 c-8 -13 5 -13 25 0 13 8 13 10 -2 10 -9 0 -20 -4 -23
-10z"/>
<path d="M12415 5580 c-8 -13 5 -13 25 0 13 8 13 10 -2 10 -9 0 -20 -4 -23
-10z"/>
<path d="M12355 5560 c-8 -13 5 -13 25 0 13 8 13 10 -2 10 -9 0 -20 -4 -23
-10z"/>
<path d="M12296 5541 c-4 -5 3 -7 14 -4 23 6 26 13 6 13 -8 0 -17 -4 -20 -9z"/>
<path d="M12248 5533 c-10 -2 -18 -8 -18 -13 0 -4 9 -6 20 -3 11 3 20 9 20 14
0 5 -1 8 -2 8 -2 -1 -11 -3 -20 -6z"/>
<path d="M12188 5513 c-10 -2 -18 -8 -18 -13 0 -4 9 -6 20 -3 11 3 20 9 20 14
0 5 -1 8 -2 8 -2 -1 -11 -3 -20 -6z"/>
<path d="M12128 5493 c-10 -2 -18 -8 -18 -13 0 -4 9 -6 20 -3 11 3 20 9 20 14
0 5 -1 8 -2 8 -2 -1 -11 -3 -20 -6z"/>
<path d="M12065 5470 c-19 -8 -19 -9 3 -9 12 -1 22 4 22 9 0 6 -1 10 -2 9 -2
0 -12 -4 -23 -9z"/>
<path d="M12005 5450 c-19 -8 -19 -9 3 -9 12 -1 22 4 22 9 0 6 -1 10 -2 9 -2
0 -12 -4 -23 -9z"/>
<path d="M11945 5430 c-19 -8 -19 -9 3 -9 12 -1 22 4 22 9 0 6 -1 10 -2 9 -2
0 -12 -4 -23 -9z"/>
<path d="M11885 5410 c-19 -8 -19 -9 3 -9 12 -1 22 4 22 9 0 6 -1 10 -2 9 -2
0 -12 -4 -23 -9z"/>
<path d="M11830 5390 c-13 -8 -12 -10 3 -10 9 0 17 5 17 10 0 12 -1 12 -20 0z"/>
<path d="M11770 5370 c-13 -8 -12 -10 3 -10 9 0 17 5 17 10 0 12 -1 12 -20 0z"/>
<path d="M11705 5350 c-3 -5 -2 -10 4 -10 5 0 13 5 16 10 3 6 2 10 -4 10 -5 0
-13 -4 -16 -10z"/>
<path d="M11645 5330 c-8 -13 5 -13 25 0 13 8 13 10 -2 10 -9 0 -20 -4 -23
-10z"/>
<path d="M11585 5310 c-8 -13 5 -13 25 0 13 8 13 10 -2 10 -9 0 -20 -4 -23
-10z"/>
<path d="M11525 5290 c-8 -13 5 -13 25 0 13 8 13 10 -2 10 -9 0 -20 -4 -23
-10z"/>
<path d="M11465 5270 c-8 -13 5 -13 25 0 13 8 13 10 -2 10 -9 0 -20 -4 -23
-10z"/>
<path d="M11405 5250 c-8 -13 5 -13 25 0 13 8 13 10 -2 10 -9 0 -20 -4 -23
-10z"/>
<path d="M11345 5230 c-8 -13 5 -13 25 0 13 8 13 10 -2 10 -9 0 -20 -4 -23
-10z"/>
<path d="M11285 5210 c-8 -13 5 -13 25 0 13 8 13 10 -2 10 -9 0 -20 -4 -23
-10z"/>
<path d="M11220 5191 c0 -5 9 -7 20 -4 11 3 20 7 20 9 0 2 -9 4 -20 4 -11 0
-20 -4 -20 -9z"/>
<path d="M11178 5183 c-10 -2 -18 -8 -18 -13 0 -4 9 -6 20 -3 11 3 20 9 20 14
0 5 -1 8 -2 8 -2 -1 -11 -3 -20 -6z"/>
<path d="M11115 5160 c-19 -8 -19 -9 3 -9 12 -1 22 4 22 9 0 6 -1 10 -2 9 -2
0 -12 -4 -23 -9z"/>
<path d="M11050 5140 c-13 -8 -13 -10 2 -10 9 0 20 5 23 10 8 13 -5 13 -25 0z"/>
<path d="M10990 5120 c-13 -8 -13 -10 2 -10 9 0 20 5 23 10 8 13 -5 13 -25 0z"/>
<path d="M10925 5100 c-8 -13 5 -13 25 0 13 8 13 10 -2 10 -9 0 -20 -4 -23
-10z"/>
<path d="M10865 5080 c-8 -13 5 -13 25 0 13 8 13 10 -2 10 -9 0 -20 -4 -23
-10z"/>
<path d="M10808 5063 c6 -2 18 -2 25 0 6 3 1 5 -13 5 -14 0 -19 -2 -12 -5z"/>
<path d="M10755 5050 c-19 -8 -19 -9 3 -9 12 -1 22 4 22 9 0 6 -1 10 -2 9 -2
0 -12 -4 -23 -9z"/>
<path d="M10695 5030 c-19 -8 -19 -9 3 -9 12 -1 22 4 22 9 0 6 -1 10 -2 9 -2
0 -12 -4 -23 -9z"/>
<path d="M10630 5010 c-13 -8 -13 -10 2 -10 9 0 20 5 23 10 8 13 -5 13 -25 0z"/>
<path d="M10575 4990 c-3 -5 -2 -10 4 -10 5 0 13 5 16 10 3 6 2 10 -4 10 -5 0
-13 -4 -16 -10z"/>
<path d="M10510 4970 c0 -5 7 -7 15 -4 8 4 15 8 15 10 0 2 -7 4 -15 4 -8 0
-15 -4 -15 -10z"/>
<path d="M10450 4950 c0 -5 7 -7 15 -4 8 4 15 8 15 10 0 2 -7 4 -15 4 -8 0
-15 -4 -15 -10z"/>
<path d="M10398 4933 c7 -3 16 -2 19 1 4 3 -2 6 -13 5 -11 0 -14 -3 -6 -6z"/>
<path d="M10340 4920 c-13 -8 -12 -10 3 -10 9 0 17 5 17 10 0 12 -1 12 -20 0z"/>
<path d="M10280 4900 c-13 -8 -12 -10 3 -10 9 0 17 5 17 10 0 12 -1 12 -20 0z"/>
<path d="M10215 4880 c-3 -5 -2 -10 4 -10 5 0 13 5 16 10 3 6 2 10 -4 10 -5 0
-13 -4 -16 -10z"/>
<path d="M10155 4860 c-3 -5 -2 -10 4 -10 5 0 13 5 16 10 3 6 2 10 -4 10 -5 0
-13 -4 -16 -10z"/>
<path d="M10096 4841 c-4 -5 3 -7 14 -4 23 6 26 13 6 13 -8 0 -17 -4 -20 -9z"/>
<path d="M10030 4821 c0 -5 9 -7 20 -4 11 3 20 7 20 9 0 2 -9 4 -20 4 -11 0
-20 -4 -20 -9z"/>
<path d="M9970 4801 c0 -5 9 -7 20 -4 11 3 20 7 20 9 0 2 -9 4 -20 4 -11 0
-20 -4 -20 -9z"/>
<path d="M12220 4799 c0 -5 5 -7 10 -4 6 3 10 8 10 11 0 2 -4 4 -10 4 -5 0
-10 -5 -10 -11z"/>
<path d="M9920 4790 c-13 -8 -12 -10 3 -10 9 0 17 5 17 10 0 12 -1 12 -20 0z"/>
<path d="M12060 4790 c0 -5 5 -10 10 -10 6 0 10 5 10 10 0 6 -4 10 -10 10 -5
0 -10 -4 -10 -10z"/>
<path d="M9860 4770 c-13 -8 -13 -10 2 -10 9 0 20 5 23 10 8 13 -5 13 -25 0z"/>
<path d="M11750 4770 c0 -5 5 -10 10 -10 6 0 10 5 10 10 0 6 -4 10 -10 10 -5
0 -10 -4 -10 -10z"/>
<path d="M9800 4750 c-8 -5 -10 -10 -5 -10 6 0 17 5 25 10 8 5 11 10 5 10 -5
0 -17 -5 -25 -10z"/>
<path d="M11445 4750 c-3 -5 -1 -10 4 -10 6 0 11 5 11 10 0 6 -2 10 -4 10 -3
0 -8 -4 -11 -10z"/>
<path d="M11285 4740 c-3 -5 -1 -10 4 -10 6 0 11 5 11 10 0 6 -2 10 -4 10 -3
0 -8 -4 -11 -10z"/>
<path d="M9735 4730 c-8 -13 5 -13 25 0 13 8 13 10 -2 10 -9 0 -20 -4 -23 -10z"/>
<path d="M9675 4710 c-8 -13 5 -13 25 0 13 8 13 10 -2 10 -9 0 -20 -4 -23 -10z"/>
<path d="M9615 4690 c-8 -13 5 -13 25 0 13 8 13 10 -2 10 -9 0 -20 -4 -23 -10z"/>
<path d="M10920 4689 c0 -5 5 -7 10 -4 6 3 10 8 10 11 0 2 -4 4 -10 4 -5 0
-10 -5 -10 -11z"/>
<path d="M9560 4670 c-13 -8 -13 -10 2 -10 9 0 20 5 23 10 8 13 -5 13 -25 0z"/>
<path d="M9500 4640 c0 -5 7 -7 15 -4 8 4 15 8 15 10 0 2 -7 4 -15 4 -8 0 -15
-4 -15 -10z"/>
<path d="M10565 4640 c-3 -5 -1 -10 4 -10 6 0 11 5 11 10 0 6 -2 10 -4 10 -3
0 -8 -4 -11 -10z"/>
<path d="M9445 4620 c-8 -13 5 -13 25 0 13 8 13 10 -2 10 -9 0 -20 -4 -23 -10z"/>
<path d="M9398 4603 c-10 -2 -18 -8 -18 -13 0 -4 9 -6 20 -3 11 3 20 9 20 14
0 5 -1 8 -2 8 -2 -1 -11 -3 -20 -6z"/>
<path d="M10205 4590 c-3 -5 -1 -10 4 -10 6 0 11 5 11 10 0 6 -2 10 -4 10 -3
0 -8 -4 -11 -10z"/>
<path d="M9330 4570 c-13 -8 -13 -10 2 -10 9 0 20 5 23 10 8 13 -5 13 -25 0z"/>
<path d="M9990 4559 c0 -5 5 -7 10 -4 6 3 10 8 10 11 0 2 -4 4 -10 4 -5 0 -10
-5 -10 -11z"/>
<path d="M9280 4550 c-13 -8 -12 -10 3 -10 9 0 17 5 17 10 0 12 -1 12 -20 0z"/>
<path d="M9845 4540 c-3 -5 -1 -10 4 -10 6 0 11 5 11 10 0 6 -2 10 -4 10 -3 0
-8 -4 -11 -10z"/>
<path d="M9215 4520 c-8 -13 5 -13 25 0 13 8 13 10 -2 10 -9 0 -20 -4 -23 -10z"/>
<path d="M9635 4510 c-3 -5 -1 -10 4 -10 6 0 11 5 11 10 0 6 -2 10 -4 10 -3 0
-8 -4 -11 -10z"/>
<path d="M9160 4500 c-13 -8 -13 -10 2 -10 9 0 20 5 23 10 8 13 -5 13 -25 0z"/>
<path d="M9585 4500 c-3 -5 -1 -10 4 -10 6 0 11 5 11 10 0 6 -2 10 -4 10 -3 0
-8 -4 -11 -10z"/>
<path d="M9535 4490 c-3 -5 -1 -10 4 -10 6 0 11 5 11 10 0 6 -2 10 -4 10 -3 0
-8 -4 -11 -10z"/>
<path d="M9104 4475 c-10 -8 -14 -14 -9 -15 15 0 40 18 34 24 -3 3 -14 -1 -25
-9z"/>
<path d="M9040 4450 c-13 -8 -13 -10 2 -10 9 0 20 5 23 10 8 13 -5 13 -25 0z"/>
<path d="M8990 4430 c-8 -5 -12 -11 -9 -14 2 -3 11 -1 19 4 8 5 12 11 9 14 -2
3 -11 1 -19 -4z"/>
<path d="M8925 4400 c-8 -13 5 -13 25 0 13 8 13 10 -2 10 -9 0 -20 -4 -23 -10z"/>
<path d="M9070 4389 c0 -5 5 -7 10 -4 6 3 10 8 10 11 0 2 -4 4 -10 4 -5 0 -10
-5 -10 -11z"/>
<path d="M8878 4383 c-10 -2 -18 -8 -18 -13 0 -4 9 -6 20 -3 11 3 20 9 20 14
0 5 -1 8 -2 8 -2 -1 -11 -3 -20 -6z"/>
<path d="M9020 4379 c0 -5 5 -7 10 -4 6 3 10 8 10 11 0 2 -4 4 -10 4 -5 0 -10
-5 -10 -11z"/>
<path d="M8975 4370 c-3 -5 -1 -10 4 -10 6 0 11 5 11 10 0 6 -2 10 -4 10 -3 0
-8 -4 -11 -10z"/>
<path d="M8925 4360 c-3 -5 -1 -10 4 -10 6 0 11 5 11 10 0 6 -2 10 -4 10 -3 0
-8 -4 -11 -10z"/>
<path d="M8812 4348 c6 -18 25 -21 25 -3 0 8 -7 15 -14 15 -8 0 -13 -5 -11
-12z"/>
<path d="M8760 4330 c-12 -8 -10 -10 8 -10 13 0 20 4 17 10 -7 12 -6 12 -25 0z"/>
<path d="M8668 4302 c-27 -9 -48 -20 -48 -25 0 -5 6 -6 13 -3 6 3 31 11 55 18
23 7 42 16 42 20 0 10 -2 9 -62 -10z"/>
<path d="M8580 4270 c-13 -8 -13 -10 2 -10 9 0 20 5 23 10 8 13 -5 13 -25 0z"/>
<path d="M8515 4250 c-3 -5 1 -10 9 -10 8 0 18 5 21 10 3 6 -1 10 -9 10 -8 0
-18 -4 -21 -10z"/>
<path d="M8460 4230 c-13 -8 -13 -10 2 -10 9 0 20 5 23 10 8 13 -5 13 -25 0z"/>
<path d="M8365 4199 c-41 -15 -44 -18 -15 -13 40 7 103 32 80 32 -8 0 -37 -8
-65 -19z"/>
<path d="M8275 4170 c-3 -5 1 -10 9 -10 8 0 18 5 21 10 3 6 -1 10 -9 10 -8 0
-18 -4 -21 -10z"/>
<path d="M8215 4150 c-3 -5 1 -10 9 -10 8 0 18 5 21 10 3 6 -1 10 -9 10 -8 0
-18 -4 -21 -10z"/>
<path d="M8155 4130 c-3 -5 1 -10 9 -10 8 0 18 5 21 10 3 6 -1 10 -9 10 -8 0
-18 -4 -21 -10z"/>
<path d="M8090 4113 c-25 -8 -51 -17 -59 -19 -8 -2 -11 -7 -8 -10 7 -8 117 28
117 38 0 4 -1 8 -2 7 -2 0 -23 -7 -48 -16z"/>
<path d="M7970 4070 c0 -13 11 -13 30 0 12 8 11 10 -7 10 -13 0 -23 -4 -23
-10z"/>
<path d="M7920 4050 c0 -5 7 -7 15 -4 8 4 15 8 15 10 0 2 -7 4 -15 4 -8 0 -15
-4 -15 -10z"/>
<path d="M7870 4040 c-20 -12 -10 -19 14 -10 11 3 15 9 10 13 -6 3 -16 2 -24
-3z"/>
<path d="M7813 4023 c-21 -8 -15 -22 7 -16 11 3 20 9 20 14 0 10 -8 10 -27 2z"/>
<path d="M7753 4003 c-13 -2 -23 -9 -23 -14 0 -11 39 -2 55 12 9 9 7 10 -32 2z"/>
<path d="M7686 3980 c-11 -3 -15 -9 -10 -13 10 -6 42 9 34 16 -3 3 -14 1 -24
-3z"/>
<path d="M7630 3960 c-13 -8 -13 -10 2 -10 9 0 20 5 23 10 8 13 -5 13 -25 0z"/>
<path d="M7573 3943 c-21 -8 -15 -22 7 -16 11 3 20 9 20 14 0 10 -8 10 -27 2z"/>
<path d="M7482 3908 c-29 -12 -51 -23 -48 -25 7 -7 105 27 111 38 8 12 -1 10
-63 -13z"/>
<path d="M7390 3870 c-13 -8 -13 -10 2 -10 9 0 20 5 23 10 8 13 -5 13 -25 0z"/>
<path d="M7340 3850 c-8 -5 -12 -11 -9 -14 2 -3 11 -1 19 4 8 5 12 11 9 14 -2
3 -11 1 -19 -4z"/>
<path d="M7270 3821 c0 -5 9 -7 20 -4 11 3 20 7 20 9 0 2 -9 4 -20 4 -11 0
-20 -4 -20 -9z"/>
<path d="M7181 3789 c-65 -29 -44 -33 25 -4 32 13 50 24 39 24 -11 0 -40 -9
-64 -20z"/>
<path d="M7108 3762 c-10 -2 -18 -8 -18 -13 0 -11 11 -11 30 1 18 11 11 18
-12 12z"/>
<path d="M7040 3730 c0 -5 4 -10 9 -10 6 0 13 5 16 10 3 6 -1 10 -9 10 -9 0
-16 -4 -16 -10z"/>
<path d="M6985 3710 c-3 -5 1 -10 9 -10 8 0 18 5 21 10 3 6 -1 10 -9 10 -8 0
-18 -4 -21 -10z"/>
<path d="M6903 3681 c-42 -16 -76 -41 -38 -27 11 4 37 13 58 19 20 7 37 15 37
19 0 10 -7 9 -57 -11z"/>
<path d="M6805 3640 c-8 -13 5 -13 25 0 13 8 13 10 -2 10 -9 0 -20 -4 -23 -10z"/>
<path d="M6750 3620 c-13 -8 -13 -10 2 -10 9 0 20 5 23 10 8 13 -5 13 -25 0z"/>
<path d="M6695 3600 c-3 -5 1 -10 9 -10 9 0 16 5 16 10 0 6 -4 10 -9 10 -6 0
-13 -4 -16 -10z"/>
<path d="M6643 3583 c-21 -8 -15 -22 7 -16 11 3 20 9 20 14 0 10 -8 10 -27 2z"/>
<path d="M6588 3558 c-16 -5 -28 -13 -28 -18 0 -5 14 -3 30 3 17 6 30 15 30
19 0 4 -1 8 -2 7 -2 0 -15 -5 -30 -11z"/>
<path d="M6515 3529 c-11 -17 0 -20 21 -4 17 13 17 14 2 15 -9 0 -20 -5 -23
-11z"/>
<path d="M6462 3513 c-6 -2 -10 -9 -7 -13 7 -11 35 -2 35 11 0 10 -8 10 -28 2z"/>
<path d="M6410 3490 c-8 -5 -12 -11 -9 -14 2 -3 11 -1 19 4 8 5 12 11 9 14 -2
3 -11 1 -19 -4z"/>
<path d="M6345 3460 c-3 -5 -17 -10 -29 -10 -13 0 -29 -7 -36 -15 -14 -17 -8
-19 18 -6 9 5 33 16 52 25 19 8 27 16 18 16 -9 0 -20 -4 -23 -10z"/>
<path d="M6230 3420 c-8 -5 -11 -12 -7 -16 4 -4 15 0 24 9 18 18 8 23 -17 7z"/>
<path d="M6178 3402 c-10 -2 -18 -8 -18 -13 0 -13 27 -11 35 2 9 13 4 16 -17
11z"/>
<path d="M6105 3370 c-3 -5 3 -10 14 -10 12 0 21 5 21 10 0 6 -6 10 -14 10 -8
0 -18 -4 -21 -10z"/>
<path d="M6021 3339 c-24 -11 -41 -22 -38 -25 3 -3 14 -1 25 5 11 6 22 7 26 4
3 -3 6 -1 6 5 0 7 11 12 25 12 14 0 25 5 25 10 0 14 -19 11 -69 -11z"/>
<path d="M5935 3299 c-11 -17 -2 -18 19 -3 17 12 17 14 4 14 -9 0 -20 -5 -23
-11z"/>
<path d="M5880 3280 c-8 -5 -11 -12 -7 -16 4 -4 15 0 24 9 18 18 8 23 -17 7z"/>
<path d="M5820 3250 c-13 -8 -13 -10 2 -10 9 0 20 5 23 10 8 13 -5 13 -25 0z"/>
<path d="M5770 3230 c-8 -5 -12 -11 -9 -14 3 -3 14 1 25 9 21 16 8 20 -16 5z"/>
<path d="M5710 3204 c-23 -13 -24 -14 -4 -14 12 0 27 7 34 15 15 18 4 18 -30
-1z"/>
<path d="M5656 3180 c-11 -3 -15 -9 -10 -13 10 -6 42 9 34 16 -3 3 -14 1 -24
-3z"/>
<path d="M5596 3163 c-11 -11 -6 -23 9 -23 8 0 15 4 15 9 0 13 -16 22 -24 14z"/>
<path d="M5541 3131 c-12 -21 -6 -27 16 -13 7 5 9 13 4 21 -7 11 -11 9 -20 -8z"/>
<path d="M5495 3120 c-3 -5 -3 -10 2 -11 4 0 -1 -4 -12 -9 -19 -8 -19 -9 3 -9
16 -1 22 5 22 19 0 22 -5 26 -15 10z"/>
<path d="M5425 3070 c-3 -5 -2 -10 4 -10 5 0 13 5 16 10 3 6 2 10 -4 10 -5 0
-13 -4 -16 -10z"/>
<path d="M5354 3054 c3 -9 6 -17 6 -19 0 -2 9 -1 20 2 11 3 20 9 20 13 0 5
-10 6 -22 2 -14 -3 -19 -2 -14 6 4 7 2 12 -4 12 -7 0 -9 -7 -6 -16z"/>
<path d="M5300 3039 c0 -5 5 -7 10 -4 6 3 10 8 10 11 0 2 -4 4 -10 4 -5 0 -10
-5 -10 -11z"/>
<path d="M5310 3020 c-13 -8 -13 -10 2 -10 9 0 20 5 23 10 8 13 -5 13 -25 0z"/>
<path d="M5250 2990 c0 -5 7 -7 15 -4 8 4 15 8 15 10 0 2 -7 4 -15 4 -8 0 -15
-4 -15 -10z"/>
<path d="M5200 2970 c-8 -5 -12 -11 -9 -14 3 -3 14 1 25 9 21 16 8 20 -16 5z"/>
<path d="M5135 2940 c-8 -13 5 -13 25 0 13 8 13 10 -2 10 -9 0 -20 -4 -23 -10z"/>
<path d="M5090 2920 c-8 -5 -12 -11 -9 -14 2 -3 11 -1 19 4 8 5 12 11 9 14 -2
3 -11 1 -19 -4z"/>
<path d="M4965 2910 c-3 -5 -1 -10 4 -10 6 0 11 5 11 10 0 6 -2 10 -4 10 -3 0
-8 -4 -11 -10z"/>
<path d="M4915 2890 c-3 -5 -1 -10 4 -10 6 0 11 5 11 10 0 6 -2 10 -4 10 -3 0
-8 -4 -11 -10z"/>
<path d="M5025 2890 c-8 -13 5 -13 25 0 13 8 13 10 -2 10 -9 0 -20 -4 -23 -10z"/>
<path d="M4974 2865 c-10 -8 -14 -14 -9 -15 15 0 40 18 34 24 -3 3 -14 -1 -25
-9z"/>
<path d="M4910 2840 c-13 -8 -13 -10 2 -10 9 0 20 5 23 10 8 13 -5 13 -25 0z"/>
<path d="M4855 2810 c-8 -13 5 -13 25 0 13 8 13 10 -2 10 -9 0 -20 -4 -23 -10z"/>
<path d="M4800 2790 c-8 -5 -12 -11 -9 -14 3 -3 14 1 25 9 21 16 8 20 -16 5z"/>
<path d="M4740 2760 c-13 -8 -13 -10 2 -10 9 0 20 5 23 10 8 13 -5 13 -25 0z"/>
<path d="M4585 2740 c-3 -5 -1 -10 4 -10 6 0 11 5 11 10 0 6 -2 10 -4 10 -3 0
-8 -4 -11 -10z"/>
<path d="M4690 2740 c-8 -5 -12 -11 -9 -14 2 -3 11 -1 19 4 8 5 12 11 9 14 -2
3 -11 1 -19 -4z"/>
<path d="M4535 2720 c-3 -5 -1 -10 4 -10 6 0 11 5 11 10 0 6 -2 10 -4 10 -3 0
-8 -4 -11 -10z"/>
<path d="M4630 2710 c-13 -8 -13 -10 2 -10 9 0 20 5 23 10 8 13 -5 13 -25 0z"/>
<path d="M4574 2685 c-10 -8 -14 -14 -9 -15 15 0 40 18 34 24 -3 3 -14 -1 -25
-9z"/>
<path d="M4440 2669 c0 -5 5 -7 10 -4 6 3 10 8 10 11 0 2 -4 4 -10 4 -5 0 -10
-5 -10 -11z"/>
<path d="M4520 2660 c-9 -6 -10 -10 -3 -10 6 0 15 5 18 10 8 12 4 12 -15 0z"/>
<path d="M4395 2650 c-3 -5 -1 -10 4 -10 6 0 11 5 11 10 0 6 -2 10 -4 10 -3 0
-8 -4 -11 -10z"/>
<path d="M4455 2630 c-8 -13 5 -13 25 0 13 8 13 10 -2 10 -9 0 -20 -4 -23 -10z"/>
<path d="M4400 2610 c-8 -5 -12 -11 -9 -14 3 -3 14 1 25 9 21 16 8 20 -16 5z"/>
<path d="M4340 2580 c-13 -8 -13 -10 2 -10 9 0 20 5 23 10 8 13 -5 13 -25 0z"/>
<path d="M4290 2560 c-8 -5 -12 -11 -9 -14 2 -3 11 -1 19 4 8 5 12 11 9 14 -2
3 -11 1 -19 -4z"/>
<path d="M4230 2530 c-13 -8 -13 -10 2 -10 9 0 20 5 23 10 8 13 -5 13 -25 0z"/>
<path d="M4174 2505 c-10 -8 -14 -14 -9 -15 15 0 40 18 34 24 -3 3 -14 -1 -25
-9z"/>
<path d="M4120 2480 c-8 -5 -12 -11 -9 -14 2 -3 11 -1 19 4 8 5 12 11 9 14 -2
3 -11 1 -19 -4z"/>
<path d="M3970 2449 c0 -5 5 -7 10 -4 6 3 10 8 10 11 0 2 -4 4 -10 4 -5 0 -10
-5 -10 -11z"/>
<path d="M4055 2450 c-8 -13 5 -13 25 0 13 8 13 10 -2 10 -9 0 -20 -4 -23 -10z"/>
<path d="M3925 2430 c-3 -5 -1 -10 4 -10 6 0 11 5 11 10 0 6 -2 10 -4 10 -3 0
-8 -4 -11 -10z"/>
<path d="M4010 2430 c-8 -5 -12 -11 -9 -14 2 -3 11 -1 19 4 8 5 12 11 9 14 -2
3 -11 1 -19 -4z"/>
<path d="M3945 2400 c-3 -5 -2 -10 4 -10 5 0 13 5 16 10 3 6 2 10 -4 10 -5 0
-13 -4 -16 -10z"/>
<path d="M3885 2370 c-8 -13 5 -13 25 0 13 8 13 10 -2 10 -9 0 -20 -4 -23 -10z"/>
<path d="M3780 2359 c0 -5 5 -7 10 -4 6 3 10 8 10 11 0 2 -4 4 -10 4 -5 0 -10
-5 -10 -11z"/>
<path d="M3830 2350 c-13 -8 -13 -10 2 -10 9 0 20 5 23 10 8 13 -5 13 -25 0z"/>
<path d="M3735 2340 c-3 -5 -1 -10 4 -10 6 0 11 5 11 10 0 6 -2 10 -4 10 -3 0
-8 -4 -11 -10z"/>
<path d="M3775 2320 c-3 -6 1 -7 9 -4 18 7 21 14 7 14 -6 0 -13 -4 -16 -10z"/>
<path d="M3720 2300 c-8 -5 -12 -11 -9 -14 3 -3 14 1 25 9 21 16 8 20 -16 5z"/>
<path d="M3590 2269 c0 -5 5 -7 10 -4 6 3 10 8 10 11 0 2 -4 4 -10 4 -5 0 -10
-5 -10 -11z"/>
<path d="M3655 2270 c-8 -13 5 -13 25 0 13 8 13 10 -2 10 -9 0 -20 -4 -23 -10z"/>
<path d="M3610 2250 c-8 -5 -12 -11 -9 -14 2 -3 11 -1 19 4 8 5 12 11 9 14 -2
3 -11 1 -19 -4z"/>
<path d="M3545 2220 c-8 -13 5 -13 25 0 13 8 13 10 -2 10 -9 0 -20 -4 -23 -10z"/>
<path d="M3485 2190 c-8 -13 5 -13 25 0 13 8 13 10 -2 10 -9 0 -20 -4 -23 -10z"/>
<path d="M3430 2170 c-13 -8 -13 -10 2 -10 9 0 20 5 23 10 8 13 -5 13 -25 0z"/>
<path d="M3315 2140 c-3 -6 0 -10 7 -10 10 0 9 -3 -2 -10 -8 -5 -12 -11 -9
-14 3 -3 13 0 22 7 13 10 14 14 2 24 -9 8 -16 9 -20 3z"/>
<path d="M3375 2140 c-3 -5 -2 -10 4 -10 5 0 13 5 16 10 3 6 2 10 -4 10 -5 0
-13 -4 -16 -10z"/>
<path d="M3260 2090 c-13 -8 -13 -10 2 -10 9 0 20 5 23 10 8 13 -5 13 -25 0z"/>
<path d="M3170 2069 c0 -5 5 -7 10 -4 6 3 10 8 10 11 0 2 -4 4 -10 4 -5 0 -10
-5 -10 -11z"/>
<path d="M3210 2070 c-8 -5 -12 -11 -9 -14 2 -3 11 -1 19 4 8 5 12 11 9 14 -2
3 -11 1 -19 -4z"/>
<path d="M3126 2052 c-10 -16 34 -26 48 -12 8 10 7 11 -8 6 -11 -4 -22 -2 -26
5 -5 7 -10 8 -14 1z"/>
<path d="M3076 2031 c-4 -6 -2 -11 4 -11 6 0 8 -5 4 -12 -5 -8 -2 -9 10 -5 10
4 20 7 22 7 2 0 4 5 4 11 0 5 -5 7 -11 3 -6 -3 -15 -1 -19 6 -5 9 -9 9 -14 1z"/>
<path d="M3039 2002 c11 -8 11 -10 0 -15 -10 -4 -8 -6 4 -6 21 -1 18 21 -4 27
-12 3 -12 2 0 -6z"/>
<path d="M2977 1970 c-6 -22 0 -25 23 -10 11 7 11 10 2 10 -7 0 -10 5 -7 10 3
6 2 10 -3 10 -5 0 -12 -9 -15 -20z"/>
<path d="M2927 1949 c-22 -25 -18 -34 8 -16 10 8 16 19 14 26 -3 7 -11 4 -22
-10z"/>
<path d="M2846 1909 c3 -5 11 -9 19 -9 8 0 16 4 19 9 3 5 -5 9 -19 9 -14 0
-22 -4 -19 -9z"/>
<path d="M2790 1891 c0 -13 12 -20 26 -14 20 8 17 19 -6 20 -11 1 -20 -2 -20
-6z"/>
<path d="M2743 1865 c0 -8 6 -15 13 -15 20 0 26 17 8 24 -21 8 -21 8 -21 -9z"/>
<path d="M2692 1840 c-13 -21 -6 -25 18 -10 10 6 12 12 5 19 -7 7 -14 4 -23
-9z"/>
<path d="M2645 1820 c-10 -11 -13 -20 -8 -20 13 0 38 29 31 35 -3 3 -13 -4
-23 -15z"/>
<path d="M2567 1779 c8 -8 16 -8 30 0 16 9 14 10 -11 11 -22 0 -27 -3 -19 -11z"/>
<path d="M2510 1755 c0 -13 4 -14 20 -5 11 6 20 13 20 15 0 3 -9 5 -20 5 -11
0 -20 -7 -20 -15z"/>
<path d="M2465 1739 c-10 -15 3 -25 16 -12 7 7 7 13 1 17 -6 3 -14 1 -17 -5z"/>
<path d="M2405 1709 c-11 -17 0 -20 21 -4 17 13 17 14 2 15 -9 0 -20 -5 -23
-11z"/>
<path d="M2360 1690 c-8 -4 -33 -16 -55 -26 -22 -9 -34 -19 -27 -22 7 -2 24 3
37 12 13 9 31 16 38 16 8 0 20 7 27 15 14 16 4 19 -20 5z"/>
<path d="M2225 1630 c-3 -5 1 -10 9 -10 8 0 18 5 21 10 3 6 -1 10 -9 10 -8 0
-18 -4 -21 -10z"/>
<path d="M2188 1612 c-10 -2 -18 -8 -18 -13 0 -11 11 -11 30 1 18 11 11 18
-12 12z"/>
<path d="M2120 1580 c-13 -8 -13 -10 2 -10 9 0 20 5 23 10 8 13 -5 13 -25 0z"/>
<path d="M2070 1555 c-14 -16 -10 -18 14 -9 9 3 16 10 16 15 0 14 -16 11 -30
-6z"/>
<path d="M1219 9744 c-17 -21 0 -49 31 -49 31 0 48 28 31 49 -8 9 -21 16 -31
16 -10 0 -23 -7 -31 -16z"/>
<path d="M865 8737 c-27 -27 -34 -44 -40 -89 -4 -31 -4 -74 0 -97 20 -120 131
-159 198 -69 28 38 35 153 13 212 -32 83 -111 103 -171 43z m110 -37 c25 -28
32 -124 12 -171 -18 -44 -48 -54 -82 -27 -23 18 -25 26 -25 97 0 85 16 121 54
121 13 0 31 -9 41 -20z"/>
<path d="M1555 8751 c-47 -29 -73 -62 -86 -111 -34 -130 50 -242 152 -200 41
17 59 47 59 96 0 80 -74 129 -141 94 -23 -13 -24 -8 -4 30 19 37 69 64 106 56
36 -7 56 15 34 38 -22 22 -83 20 -120 -3z m65 -182 c16 -29 8 -62 -18 -75 -34
-17 -58 -7 -73 28 -11 28 -11 33 10 49 31 25 68 24 81 -2z"/>
<path d="M1219 8484 c-17 -21 0 -49 31 -49 31 0 48 28 31 49 -8 9 -21 16 -31
16 -10 0 -23 -7 -31 -16z"/>
<path d="M865 7477 c-27 -27 -34 -44 -40 -89 -4 -31 -4 -74 0 -97 20 -120 131
-159 198 -69 28 38 35 153 13 212 -32 83 -111 103 -171 43z m110 -37 c25 -28
32 -124 12 -171 -18 -44 -48 -54 -82 -27 -23 18 -25 26 -25 97 0 85 16 121 54
121 13 0 31 -9 41 -20z"/>
<path d="M1472 7418 c3 -92 3 -92 84 -73 60 14 99 -59 54 -100 -24 -22 -101
-25 -124 -6 -19 16 -46 8 -46 -13 0 -41 111 -69 172 -43 71 30 90 130 34 186
-21 21 -36 26 -76 26 -48 0 -50 1 -50 28 0 26 1 27 59 27 39 0 63 5 71 15 22
27 0 35 -91 35 l-90 0 3 -82z"/>
<path d="M1219 7224 c-17 -21 0 -49 31 -49 31 0 48 28 31 49 -8 9 -21 16 -31
16 -10 0 -23 -7 -31 -16z"/>
<path d="M865 6217 c-27 -27 -34 -44 -40 -89 -4 -31 -4 -74 0 -97 20 -120 131
-159 198 -69 28 38 35 153 13 212 -32 83 -111 103 -171 43z m110 -37 c25 -28
32 -124 12 -171 -18 -44 -48 -54 -82 -27 -23 18 -25 26 -25 97 0 85 16 121 54
121 13 0 31 -9 41 -20z"/>
<path d="M1505 6137 c-80 -136 -80 -141 15 -147 70 -5 74 -9 27 -24 -11 -3
-17 -13 -15 -23 5 -26 125 -32 135 -7 4 11 -1 22 -13 31 -18 13 -18 15 -1 27
21 16 22 35 2 42 -12 5 -15 26 -15 105 l0 99 -37 0 c-37 0 -39 -2 -98 -103z
m81 -83 c-5 -13 -76 -21 -76 -9 0 2 17 31 38 62 l37 58 3 -49 c2 -27 1 -55 -2
-62z"/>
<path d="M1219 5964 c-17 -21 0 -49 31 -49 31 0 48 28 31 49 -8 9 -21 16 -31
16 -10 0 -23 -7 -31 -16z"/>
<path d="M865 4957 c-27 -27 -34 -44 -40 -89 -4 -31 -4 -74 0 -97 20 -120 131
-159 198 -69 28 38 35 153 13 212 -32 83 -111 103 -171 43z m110 -37 c25 -28
32 -124 12 -171 -18 -44 -48 -54 -82 -27 -23 18 -25 26 -25 97 0 85 16 121 54
121 13 0 31 -9 41 -20z"/>
<path d="M1493 4975 c-25 -11 -33 -20 -33 -40 0 -29 23 -33 54 -10 26 20 71
19 90 -1 29 -29 12 -54 -40 -63 -30 -5 -39 -11 -39 -26 0 -14 9 -21 34 -26 18
-4 42 -16 53 -27 47 -47 -21 -91 -110 -71 -75 16 -88 -30 -15 -50 51 -15 87
-14 127 3 66 28 85 92 42 143 -24 28 -24 29 -5 52 27 33 24 68 -10 102 -24 23
-38 29 -73 29 -24 -1 -58 -7 -75 -15z"/>
<path d="M1219 4704 c-17 -21 0 -49 31 -49 31 0 48 28 31 49 -8 9 -21 16 -31
16 -10 0 -23 -7 -31 -16z"/>
<path d="M865 3697 c-27 -27 -34 -44 -40 -89 -4 -31 -4 -74 0 -97 20 -120 131
-159 198 -69 28 38 35 153 13 212 -32 83 -111 103 -171 43z m110 -37 c25 -28
32 -124 12 -171 -18 -44 -48 -54 -82 -27 -23 18 -25 26 -25 97 0 85 16 121 54
121 13 0 31 -9 41 -20z"/>
<path d="M1486 3709 c-45 -36 -55 -89 -17 -89 10 0 23 11 29 25 22 48 112 42
112 -8 0 -23 -39 -65 -143 -154 -24 -22 -37 -41 -37 -58 l0 -25 120 0 120 0 0
35 c0 41 -25 59 -45 32 -9 -12 -27 -17 -61 -17 l-49 1 67 62 c77 71 92 97 83
137 -16 72 -120 105 -179 59z"/>
<path d="M1219 3444 c-17 -21 0 -49 31 -49 31 0 48 28 31 49 -8 9 -21 16 -31
16 -10 0 -23 -7 -31 -16z"/>
<path d="M865 2427 c-27 -27 -34 -44 -40 -89 -4 -31 -4 -74 0 -97 20 -120 131
-159 198 -69 28 38 35 153 13 212 -32 83 -111 103 -171 43z m110 -37 c25 -28
32 -124 12 -171 -18 -44 -48 -54 -82 -27 -23 18 -25 26 -25 97 0 85 16 121 54
121 13 0 31 -9 41 -20z"/>
<path d="M1516 2445 c-57 -16 -71 -27 -62 -50 5 -14 14 -15 46 -10 l41 7 -3
-104 -3 -103 -40 -5 c-32 -4 -40 -9 -40 -25 0 -19 7 -20 105 -20 101 0 105 1
108 23 3 20 -1 22 -37 22 l-41 0 0 140 c0 106 -3 140 -12 139 -7 0 -35 -7 -62
-14z"/>
<path d="M1219 2174 c-17 -21 0 -49 31 -49 31 0 48 28 31 49 -8 9 -21 16 -31
16 -10 0 -23 -7 -31 -16z"/>
<path d="M1501 1184 c-34 -24 -51 -74 -51 -148 0 -102 32 -160 95 -172 79 -14
125 48 125 171 0 82 -14 123 -52 149 -29 21 -87 20 -117 0z m99 -54 c16 -16
20 -33 20 -95 0 -67 -3 -79 -25 -100 -29 -30 -36 -31 -66 -6 -20 16 -24 30
-27 92 -3 64 -1 78 18 102 25 32 52 35 80 7z"/>
<path d="M1667 663 c-50 -13 -58 -18 -55 -37 3 -18 9 -21 41 -18 l37 3 0 -105
0 -105 -37 -3 c-30 -2 -38 -7 -38 -23 0 -19 7 -20 105 -20 98 0 105 1 105 20
0 16 -8 21 -40 25 l-40 5 -3 138 c-1 75 -6 137 -10 136 -4 -1 -33 -8 -65 -16z"/>
<path d="M3113 660 c-32 -19 -51 -59 -38 -79 11 -19 31 -12 53 19 27 36 70 40
96 11 27 -30 13 -54 -80 -133 -69 -58 -84 -77 -84 -100 l0 -28 115 0 115 0 0
35 c0 40 -26 60 -42 32 -6 -12 -23 -17 -59 -17 l-49 0 75 73 c64 61 75 77 75
105 0 44 -14 68 -50 87 -40 21 -89 19 -127 -5z"/>
<path d="M4751 667 c-34 -17 -49 -43 -33 -59 10 -10 18 -9 41 5 66 39 143 0
95 -47 -8 -9 -26 -16 -38 -16 -27 0 -48 -21 -38 -36 4 -5 25 -14 47 -19 49
-12 70 -54 42 -82 -16 -16 -38 -18 -141 -10 -67 5 -31 -48 40 -59 123 -18 211
81 139 156 l-25 27 20 18 c52 47 -2 135 -82 135 -24 0 -54 -6 -67 -13z"/>
<path d="M7595 664 c-67 -35 -96 -87 -96 -169 0 -72 25 -123 69 -142 69 -29
137 8 148 79 7 40 -15 91 -45 108 -25 13 -88 13 -96 0 -14 -23 -24 -8 -11 18
25 48 53 66 103 67 49 0 64 15 43 40 -16 20 -77 19 -115 -1z m60 -188 c30 -46
-10 -94 -63 -75 -35 13 -44 49 -19 77 27 29 62 28 82 -2z"/>
<path d="M8674 646 c-40 -40 -43 -65 -11 -102 l23 -27 -23 -23 c-32 -32 -31
-87 1 -119 45 -45 147 -41 181 8 21 30 19 80 -6 110 l-20 27 20 22 c52 55 -4
138 -95 138 -28 0 -44 -8 -70 -34z m118 -33 c22 -20 23 -31 1 -55 -18 -20 -63
-24 -81 -6 -46 46 31 105 80 61z m6 -145 c33 -27 1 -72 -49 -70 -38 1 -61 19
-57 46 6 39 68 53 106 24z"/>
<path d="M9446 665 c-57 -16 -71 -27 -62 -50 5 -14 14 -15 46 -10 l41 7 -3
-104 -3 -103 -40 -5 c-32 -4 -40 -9 -40 -25 0 -19 7 -20 105 -20 101 0 105 1
108 23 3 20 -1 22 -37 22 l-41 0 0 140 c0 106 -3 140 -12 139 -7 0 -35 -7 -62
-14z"/>
<path d="M9738 657 c-37 -34 -51 -88 -46 -169 8 -106 61 -161 137 -142 66 17
100 101 86 212 -6 45 -13 62 -40 89 -42 42 -98 46 -137 10z m106 -49 c11 -16
16 -46 16 -99 0 -71 -2 -79 -26 -98 -35 -28 -65 -15 -82 35 -17 49 -9 139 14
165 23 26 59 24 78 -3z"/>
<path d="M11067 663 c-50 -13 -58 -18 -55 -37 3 -18 9 -21 41 -18 l37 3 0
-105 0 -105 -37 -3 c-30 -2 -38 -7 -38 -23 0 -19 7 -20 105 -20 98 0 105 1
105 20 0 16 -8 21 -40 25 l-40 5 -3 138 c-1 75 -6 137 -10 136 -4 -1 -33 -8
-65 -16z"/>
<path d="M12213 670 c-28 -11 -56 -53 -51 -77 5 -28 37 -28 47 0 17 44 89 48
111 8 15 -30 5 -45 -86 -122 -70 -59 -84 -76 -84 -100 l0 -29 115 0 115 0 0
35 c0 41 -25 59 -45 32 -8 -12 -27 -17 -60 -17 l-49 0 77 73 c82 76 90 97 65
152 -21 47 -96 69 -155 45z"/>
<path d="M12515 647 c-27 -27 -34 -44 -40 -89 -4 -31 -4 -74 0 -97 20 -120
131 -159 198 -69 28 38 35 153 13 212 -32 83 -111 103 -171 43z m110 -37 c25
-28 32 -124 12 -171 -18 -44 -48 -54 -82 -27 -23 18 -25 26 -25 97 0 85 16
121 54 121 13 0 31 -9 41 -20z"/>
<path d="M13841 667 c-34 -17 -49 -43 -33 -59 10 -10 18 -9 41 5 66 39 143 0
95 -47 -8 -9 -26 -16 -38 -16 -27 0 -48 -21 -38 -36 4 -5 25 -14 47 -19 49
-12 70 -54 42 -82 -16 -16 -38 -18 -141 -10 -67 5 -31 -48 40 -59 123 -18 211
81 139 156 l-25 27 20 18 c52 47 -2 135 -82 135 -24 0 -54 -6 -67 -13z"/>
<path d="M14145 647 c-27 -27 -34 -44 -40 -89 -4 -31 -4 -74 0 -97 20 -120
131 -159 198 -69 28 38 35 153 13 212 -32 83 -111 103 -171 43z m110 -37 c25
-28 32 -124 12 -171 -18 -44 -48 -54 -82 -27 -23 18 -25 26 -25 97 0 85 16
121 54 121 13 0 31 -9 41 -20z"/>
<path d="M2250 591 c0 -46 5 -83 11 -86 6 -4 30 -2 54 5 67 19 110 -18 90 -79
-10 -33 -74 -45 -125 -25 -36 14 -43 15 -51 3 -13 -21 -11 -27 14 -43 33 -22
100 -30 141 -16 50 16 76 53 76 107 0 38 -5 50 -35 80 -31 31 -40 35 -80 31
-43 -3 -45 -2 -45 24 0 26 1 27 68 30 59 3 67 5 67 23 0 18 -8 20 -92 23 l-93
3 0 -80z"/>
<path d="M5912 566 c-34 -57 -62 -114 -62 -125 0 -19 6 -21 70 -21 66 0 98
-15 48 -22 -15 -2 -23 -10 -23 -23 0 -18 8 -20 61 -23 51 -2 63 0 68 15 5 11
1 22 -10 30 -16 12 -16 14 2 34 18 20 18 22 1 34 -14 10 -17 29 -17 109 l0 96
-38 0 c-37 0 -38 -2 -100 -104z m78 -36 l0 -60 -35 0 c-19 0 -35 3 -35 6 0 6
63 113 68 114 1 0 2 -27 2 -60z"/>
<path d="M6770 591 c0 -46 5 -83 11 -86 6 -4 30 -2 54 5 67 19 110 -18 90 -79
-10 -33 -74 -45 -125 -25 -36 14 -43 15 -51 3 -13 -21 -11 -27 14 -43 33 -22
100 -30 141 -16 50 16 76 53 76 107 0 38 -5 50 -35 80 -31 31 -40 35 -80 31
-43 -3 -45 -2 -45 24 0 26 1 27 68 30 59 3 67 5 67 23 0 18 -8 20 -92 23 l-93
3 0 -80z"/>
<path d="M8100 636 c0 -38 21 -53 44 -31 9 10 35 15 69 15 l55 0 -41 -125
c-31 -94 -39 -127 -30 -136 6 -6 18 -9 26 -6 18 7 97 239 97 285 l0 32 -110 0
-110 0 0 -34z"/>
<path d="M11342 588 c3 -92 3 -92 84 -73 60 14 99 -59 54 -100 -24 -22 -101
-25 -124 -6 -19 16 -46 8 -46 -13 0 -41 111 -69 172 -43 71 30 90 130 34 186
-21 21 -36 26 -76 26 -48 0 -50 1 -50 28 0 26 1 27 59 27 39 0 63 5 71 15 22
27 0 35 -91 35 l-90 0 3 -82z"/>
<path d="M1999 394 c-17 -21 0 -49 31 -49 31 0 48 28 31 49 -8 9 -21 16 -31
16 -10 0 -23 -7 -31 -16z"/>
</g>
</svg>
