<?xml version="1.0" standalone="no"?>
<!DOCTYPE svg PUBLIC "-//W3C//DTD SVG 20010904//EN"
 "http://www.w3.org/TR/2001/REC-SVG-20010904/DTD/svg10.dtd">
<svg version="1.0" xmlns="http://www.w3.org/2000/svg"
 width="1500.000000pt" height="1050.000000pt" viewBox="0 0 1500.000000 1050.000000"
 preserveAspectRatio="xMidYMid meet">
<metadata>
Created by potrace 1.11, written by Peter Selinger 2001-2013
</metadata>
<g transform="translate(0.000000,1050.000000) scale(0.100000,-0.100000)"
fill="#000000" stroke="none">
<path d="M1192 10014 c-38 -26 -52 -67 -52 -149 0 -123 46 -185 125 -171 63
12 95 70 95 172 0 109 -37 164 -110 164 -20 0 -46 -7 -58 -16z m98 -61 c19
-24 21 -38 18 -102 -3 -62 -7 -76 -27 -92 -30 -25 -37 -24 -66 6 -22 21 -25
33 -25 100 0 62 4 79 20 95 28 28 55 25 80 -7z"/>
<path d="M1811 10017 c-34 -17 -49 -43 -33 -59 10 -10 18 -9 41 5 66 39 143 0
95 -47 -8 -9 -26 -16 -38 -16 -27 0 -48 -21 -38 -36 4 -5 25 -14 47 -19 49
-12 70 -54 42 -82 -16 -16 -38 -18 -141 -10 -67 5 -31 -48 40 -59 123 -18 211
81 139 156 l-25 27 20 18 c52 47 -2 135 -82 135 -24 0 -54 -6 -67 -13z"/>
<path d="M2330 5460 l0 -4430 5875 0 5875 0 0 4430 0 4430 -5875 0 -5875 0 0
-4430z m1120 4375 c0 -16 6 -25 15 -25 9 0 15 9 15 25 l0 25 780 0 780 0 0
-25 c0 -16 6 -25 15 -25 9 0 15 9 15 25 l0 25 545 0 545 0 0 -25 c0 -18 5 -25
20 -25 15 0 20 7 20 25 l0 25 420 0 420 0 0 -25 c0 -16 6 -25 15 -25 9 0 15 9
15 25 l0 25 340 0 340 0 0 -25 c0 -16 6 -25 15 -25 9 0 15 9 15 25 l0 25 285
0 285 0 0 -25 c0 -16 6 -25 15 -25 9 0 15 9 15 25 l0 25 250 0 250 0 0 -25 c0
-16 6 -25 15 -25 9 0 15 9 15 25 l0 25 420 0 420 0 0 -25 c0 -16 6 -25 15 -25
9 0 15 9 15 25 l0 25 775 0 775 0 0 -25 c0 -16 6 -25 15 -25 9 0 15 9 15 25
l0 25 550 0 550 0 0 -25 c0 -16 6 -25 15 -25 9 0 15 9 15 25 l0 25 775 0 775
0 0 -385 c0 -250 -4 -385 -10 -385 -13 0 -13 -37 0 -45 6 -4 10 -120 10 -316
l0 -309 -25 0 c-16 0 -25 -6 -25 -15 0 -9 9 -15 25 -15 l25 0 0 -725 0 -725
-25 0 c-16 0 -25 -6 -25 -15 0 -9 9 -15 25 -15 l25 0 0 -140 0 -140 -1352 0
c-1200 -1 -1446 -3 -2173 -25 -942 -28 -1034 -36 -1393 -116 -125 -27 -348
-87 -497 -133 -227 -71 -318 -105 -575 -218 -266 -117 -347 -159 -630 -323
-179 -103 -328 -190 -332 -192 -4 -2 -5 2 -2 10 3 8 -2 20 -11 27 -12 10 -18
10 -30 0 -14 -12 -14 -15 1 -31 23 -25 9 -37 -16 -14 -16 15 -22 16 -35 5 -14
-12 -14 -15 0 -30 10 -11 12 -20 6 -24 -5 -4 -15 3 -21 14 -9 17 -14 18 -30 8
-14 -9 -16 -16 -8 -31 12 -24 0 -38 -13 -14 -8 14 -14 15 -31 6 -15 -8 -17
-14 -9 -22 6 -6 11 -18 11 -26 0 -11 -4 -10 -20 4 -16 15 -22 16 -35 5 -12
-10 -13 -16 -4 -27 15 -18 4 -29 -14 -14 -14 11 -47 6 -47 -8 0 -4 5 -12 12
-19 6 -6 8 -15 4 -19 -4 -4 -12 0 -17 10 -15 26 -54 4 -39 -22 12 -24 0 -35
-15 -14 -11 15 -15 15 -29 4 -13 -11 -14 -17 -5 -28 16 -18 3 -29 -16 -13 -20
17 -51 -6 -35 -25 7 -9 7 -15 1 -19 -5 -4 -12 -2 -16 4 -8 12 -16 12 -34 1
-12 -8 -12 -12 -2 -24 7 -9 8 -18 3 -21 -6 -3 -13 1 -16 9 -10 26 -46 1 -38
-27 5 -21 4 -22 -11 -9 -14 11 -20 11 -32 1 -11 -9 -12 -16 -5 -25 13 -16 0
-28 -15 -15 -19 16 -47 1 -40 -21 4 -11 2 -19 -4 -19 -6 0 -11 5 -11 10 0 7
-7 7 -20 0 -16 -8 -19 -17 -14 -33 6 -19 5 -20 -10 -8 -20 17 -48 -2 -39 -26
5 -13 2 -15 -12 -10 -22 9 -46 -9 -38 -30 5 -11 1 -14 -13 -9 -23 7 -49 -8
-40 -22 3 -6 2 -13 -4 -17 -5 -3 -10 -1 -10 5 0 8 -6 8 -21 0 -13 -7 -18 -17
-15 -27 5 -11 2 -13 -10 -9 -22 8 -44 -11 -37 -31 4 -11 2 -14 -8 -11 -22 8
-49 -10 -42 -28 4 -10 1 -15 -8 -13 -25 4 -48 -12 -42 -29 5 -11 2 -14 -10 -9
-19 7 -42 -17 -31 -34 5 -9 1 -10 -14 -7 -24 7 -48 -15 -36 -33 5 -9 2 -10
-11 -6 -22 9 -46 -10 -38 -30 4 -11 2 -14 -8 -11 -22 8 -49 -10 -42 -28 4 -11
0 -15 -13 -12 -12 2 -23 -5 -29 -20 -5 -12 -15 -20 -22 -18 -16 6 -37 -20 -27
-35 5 -9 1 -10 -14 -7 -24 7 -48 -15 -36 -33 4 -7 2 -10 -7 -7 -22 8 -49 -10
-42 -28 4 -10 1 -15 -8 -13 -25 4 -48 -12 -42 -29 5 -11 2 -14 -10 -9 -19 7
-42 -17 -31 -34 5 -9 1 -10 -14 -7 -23 6 -48 -15 -38 -31 4 -5 2 -12 -3 -15
-5 -4 -13 -2 -16 4 -10 16 -37 -10 -30 -27 3 -9 0 -13 -7 -10 -21 7 -48 -12
-41 -29 4 -10 1 -15 -8 -13 -25 4 -48 -12 -42 -29 5 -11 2 -14 -10 -9 -15 6
-39 -13 -36 -29 3 -20 -2 -26 -15 -15 -15 13 -39 -7 -34 -30 2 -8 -7 -13 -22
-13 -18 -1 -25 -6 -24 -19 1 -9 -3 -17 -10 -16 -22 4 -45 -13 -39 -28 4 -10 0
-14 -13 -11 -12 2 -23 -5 -29 -20 -5 -12 -15 -20 -22 -18 -12 5 -35 -16 -32
-30 3 -20 -2 -26 -15 -15 -16 13 -39 -7 -34 -30 2 -8 -3 -13 -11 -11 -19 4
-41 -17 -34 -34 4 -10 -1 -13 -18 -12 -18 2 -25 -3 -27 -20 -2 -12 -8 -20 -13
-16 -15 9 -39 -15 -32 -32 4 -10 0 -15 -8 -13 -25 4 -48 -12 -42 -29 5 -11 2
-14 -10 -9 -18 7 -39 -14 -35 -34 2 -8 -3 -13 -11 -11 -20 4 -41 -17 -34 -35
5 -13 2 -15 -12 -10 -22 9 -46 -10 -38 -30 5 -12 2 -15 -10 -10 -19 7 -42 -17
-31 -34 4 -7 2 -10 -7 -7 -23 8 -49 -10 -42 -29 5 -12 2 -15 -10 -10 -18 7
-39 -14 -35 -34 2 -8 -4 -13 -14 -11 -16 2 -32 -13 -33 -33 -1 -5 -7 -9 -14
-7 -19 4 -41 -17 -34 -34 4 -11 0 -15 -13 -12 -12 2 -23 -5 -29 -20 -5 -12
-15 -20 -22 -18 -15 6 -37 -20 -28 -34 4 -7 0 -10 -11 -8 -12 2 -23 -5 -29
-19 -5 -12 -20 -25 -33 -28 -14 -3 -22 -12 -20 -23 2 -10 -3 -16 -11 -14 -19
4 -41 -17 -34 -34 4 -11 0 -15 -13 -12 -12 2 -23 -5 -29 -19 -5 -13 -16 -22
-25 -20 -8 1 -19 -8 -25 -21 -5 -12 -16 -22 -23 -22 -8 0 -16 -9 -19 -20 -3
-11 -14 -20 -25 -20 -11 0 -22 -8 -25 -18 -2 -10 -14 -22 -26 -28 -12 -5 -21
-15 -19 -22 1 -7 -4 -12 -12 -12 -8 0 -22 -10 -31 -22 -8 -13 -21 -23 -28 -23
-6 0 -16 -10 -22 -22 -5 -13 -15 -23 -22 -23 -7 0 -18 -9 -25 -20 -7 -11 -17
-20 -21 -20 -5 0 -29 -19 -53 -42 -25 -24 -65 -61 -90 -83 -25 -22 -54 -48
-65 -57 -169 -155 -277 -244 -639 -529 -14 -11 -26 -15 -28 -9 -2 5 -8 10 -14
10 -5 0 -7 -9 -3 -19 7 -23 -14 -39 -26 -20 -5 8 -9 12 -10 9 -7 -43 -10 -55
-16 -59 -3 -3 -8 0 -10 7 -3 6 -9 12 -14 12 -4 0 -6 -7 -3 -15 4 -8 1 -15 -5
-15 -6 0 -11 -7 -11 -15 0 -8 -8 -16 -17 -17 -10 0 -22 -2 -28 -3 -5 -2 -14
-3 -19 -4 -5 0 -3 -7 3 -15 10 -12 7 -15 -16 -18 -20 -2 -27 -8 -25 -20 2 -13
-3 -17 -20 -15 -17 1 -24 -4 -26 -21 -2 -12 -8 -20 -13 -16 -12 7 -139 -95
-139 -112 0 -8 -6 -11 -13 -8 -13 5 -44 -22 -40 -35 1 -3 -5 -5 -13 -3 -9 2
-18 -6 -21 -18 -3 -12 -12 -19 -22 -18 -9 2 -20 -7 -26 -20 -5 -12 -15 -20
-22 -18 -7 3 -21 -7 -32 -22 l-20 -27 -1 378 0 377 25 0 c16 0 25 6 25 15 0 9
-9 15 -25 15 l-25 0 0 720 0 720 25 0 c16 0 25 6 25 15 0 9 -9 15 -25 15 l-25
0 0 720 0 720 25 0 c16 0 25 6 25 15 0 9 -9 15 -25 15 l-25 0 0 720 0 720 25
0 c16 0 25 6 25 15 0 9 -9 15 -25 15 l-25 0 0 725 0 725 25 0 c16 0 25 6 25
15 0 9 -9 15 -25 15 l-25 0 0 720 0 720 545 0 545 0 0 -25z m10590 -3810 l0
-555 -25 0 c-16 0 -25 -6 -25 -15 0 -9 9 -15 25 -15 l25 0 0 -720 0 -720 -25
0 c-16 0 -25 -6 -25 -15 0 -9 9 -15 25 -15 l25 0 0 -720 0 -720 -25 0 c-16 0
-25 -6 -25 -15 0 -9 9 -15 25 -15 l25 0 0 -720 0 -720 -775 0 -775 0 0 25 c0
16 -6 25 -15 25 -9 0 -15 -9 -15 -25 l0 -25 -550 0 -550 0 0 25 c0 16 -6 25
-15 25 -9 0 -15 -9 -15 -25 l0 -25 -775 0 -775 0 0 25 c0 16 -6 25 -15 25 -9
0 -15 -9 -15 -25 l0 -25 -420 0 -420 0 0 25 c0 16 -6 25 -15 25 -9 0 -15 -9
-15 -25 l0 -25 -250 0 -250 0 0 25 c0 16 -6 25 -15 25 -9 0 -15 -9 -15 -25 l0
-25 -285 0 -285 0 0 25 c0 16 -6 25 -15 25 -9 0 -15 -9 -15 -25 l0 -25 -340 0
-340 0 0 25 c0 16 -6 25 -15 25 -9 0 -15 -9 -15 -25 l0 -25 -420 0 -420 0 0
25 c0 18 -5 25 -20 25 -15 0 -20 -7 -20 -25 l0 -25 -545 0 -545 0 0 25 c0 16
-6 25 -15 25 -9 0 -15 -9 -15 -25 l0 -25 -780 0 -780 0 0 25 c0 16 -6 25 -15
25 -9 0 -15 -9 -15 -25 l0 -25 -545 0 -545 0 1 308 0 307 341 275 c699 564
797 646 983 809 105 92 305 269 445 392 140 123 406 361 590 528 184 167 592
519 905 782 550 460 586 488 1005 785 389 276 472 330 791 514 317 184 389
221 656 338 246 109 345 146 559 212 359 111 684 182 964 210 397 39 1304 57
2973 59 l1467 1 0 -555z"/>
<path d="M13995 9710 c-3 -5 -1 -10 4 -10 6 0 11 5 11 10 0 6 -2 10 -4 10 -3
0 -8 -4 -11 -10z"/>
<path d="M13940 9690 c0 -5 5 -10 10 -10 6 0 10 5 10 10 0 6 -4 10 -10 10 -5
0 -10 -4 -10 -10z"/>
<path d="M13845 9660 c-3 -5 -1 -10 4 -10 6 0 11 5 11 10 0 6 -2 10 -4 10 -3
0 -8 -4 -11 -10z"/>
<path d="M13790 9640 c0 -5 5 -10 10 -10 6 0 10 5 10 10 0 6 -4 10 -10 10 -5
0 -10 -4 -10 -10z"/>
<path d="M13695 9610 c-3 -5 -1 -10 4 -10 6 0 11 5 11 10 0 6 -2 10 -4 10 -3
0 -8 -4 -11 -10z"/>
<path d="M13645 9590 c3 -5 8 -10 11 -10 2 0 4 5 4 10 0 6 -5 10 -11 10 -5 0
-7 -4 -4 -10z"/>
<path d="M13598 9573 c7 -3 16 -2 19 1 4 3 -2 6 -13 5 -11 0 -14 -3 -6 -6z"/>
<path d="M13550 9560 c0 -5 5 -10 10 -10 6 0 10 5 10 10 0 6 -4 10 -10 10 -5
0 -10 -4 -10 -10z"/>
<path d="M13495 9540 c4 -6 11 -8 16 -5 14 9 11 15 -7 15 -8 0 -12 -5 -9 -10z"/>
<path d="M13400 9510 c0 -5 5 -10 10 -10 6 0 10 5 10 10 0 6 -4 10 -10 10 -5
0 -10 -4 -10 -10z"/>
<path d="M13305 9480 c-3 -5 -1 -10 4 -10 6 0 11 5 11 10 0 6 -2 10 -4 10 -3
0 -8 -4 -11 -10z"/>
<path d="M13250 9460 c0 -5 5 -10 10 -10 6 0 10 5 10 10 0 6 -4 10 -10 10 -5
0 -10 -4 -10 -10z"/>
<path d="M13200 9439 c0 -5 5 -7 10 -4 6 3 10 8 10 11 0 2 -4 4 -10 4 -5 0
-10 -5 -10 -11z"/>
<path d="M13155 9430 c-3 -5 -1 -10 4 -10 6 0 11 5 11 10 0 6 -2 10 -4 10 -3
0 -8 -4 -11 -10z"/>
<path d="M13100 9410 c0 -5 5 -10 10 -10 6 0 10 5 10 10 0 6 -4 10 -10 10 -5
0 -10 -4 -10 -10z"/>
<path d="M13005 9380 c-3 -5 -1 -10 4 -10 6 0 11 5 11 10 0 6 -2 10 -4 10 -3
0 -8 -4 -11 -10z"/>
<path d="M12950 9360 c0 -5 5 -10 10 -10 6 0 10 5 10 10 0 6 -4 10 -10 10 -5
0 -10 -4 -10 -10z"/>
<path d="M12855 9330 c-3 -5 1 -10 10 -10 9 0 13 5 10 10 -3 6 -8 10 -10 10
-2 0 -7 -4 -10 -10z"/>
<path d="M12758 9293 c7 -3 16 -2 19 1 4 3 -2 6 -13 5 -11 0 -14 -3 -6 -6z"/>
<path d="M12710 9280 c0 -5 5 -10 10 -10 6 0 10 5 10 10 0 6 -4 10 -10 10 -5
0 -10 -4 -10 -10z"/>
<path d="M12660 9259 c0 -5 5 -7 10 -4 6 3 10 8 10 11 0 2 -4 4 -10 4 -5 0
-10 -5 -10 -11z"/>
<path d="M12610 9239 c0 -5 5 -7 10 -4 6 3 10 8 10 11 0 2 -4 4 -10 4 -5 0
-10 -5 -10 -11z"/>
<path d="M12565 9230 c-3 -5 -1 -10 4 -10 6 0 11 5 11 10 0 6 -2 10 -4 10 -3
0 -8 -4 -11 -10z"/>
<path d="M12510 9210 c0 -5 5 -10 10 -10 6 0 10 5 10 10 0 6 -4 10 -10 10 -5
0 -10 -4 -10 -10z"/>
<path d="M12460 9189 c0 -5 5 -7 10 -4 6 3 10 8 10 11 0 2 -4 4 -10 4 -5 0
-10 -5 -10 -11z"/>
<path d="M12365 9160 c-3 -5 -1 -10 4 -10 6 0 11 5 11 10 0 6 -2 10 -4 10 -3
0 -8 -4 -11 -10z"/>
<path d="M12315 9140 c-3 -5 1 -10 10 -10 9 0 13 5 10 10 -3 6 -8 10 -10 10
-2 0 -7 -4 -10 -10z"/>
<path d="M12270 9120 c0 -5 5 -10 11 -10 5 0 7 5 4 10 -3 6 -8 10 -11 10 -2 0
-4 -4 -4 -10z"/>
<path d="M12220 9100 c0 -5 5 -10 10 -10 6 0 10 5 10 10 0 6 -4 10 -10 10 -5
0 -10 -4 -10 -10z"/>
<path d="M12170 9080 c0 -5 5 -10 10 -10 6 0 10 5 10 10 0 6 -4 10 -10 10 -5
0 -10 -4 -10 -10z"/>
<path d="M13971 9071 c-21 -13 -5 -50 19 -44 23 6 25 13 8 36 -9 11 -18 14
-27 8z"/>
<path d="M12120 9060 c0 -5 5 -10 10 -10 6 0 10 5 10 10 0 6 -4 10 -10 10 -5
0 -10 -4 -10 -10z"/>
<path d="M12070 9040 c0 -5 5 -10 10 -10 6 0 10 5 10 10 0 6 -4 10 -10 10 -5
0 -10 -4 -10 -10z"/>
<path d="M13900 9038 c0 -7 4 -19 8 -26 11 -17 45 -4 38 15 -3 8 -6 17 -6 19
0 2 -9 4 -20 4 -11 0 -20 -6 -20 -12z"/>
<path d="M12025 9020 c3 -5 8 -10 11 -10 2 0 4 5 4 10 0 6 -5 10 -11 10 -5 0
-7 -4 -4 -10z"/>
<path d="M13846 9021 c-9 -14 4 -41 19 -41 18 0 26 15 19 34 -7 17 -29 21 -38
7z"/>
<path d="M11978 9003 c7 -3 16 -2 19 1 4 3 -2 6 -13 5 -11 0 -14 -3 -6 -6z"/>
<path d="M13792 9002 c-15 -10 -5 -42 13 -42 18 0 26 15 19 34 -7 18 -13 19
-32 8z"/>
<path d="M13732 8982 c-18 -12 -4 -42 20 -42 14 0 19 6 16 22 -3 24 -17 32
-36 20z"/>
<path d="M13679 8961 c-12 -4 -14 -12 -8 -28 10 -27 39 -21 39 7 0 23 -10 29
-31 21z"/>
<path d="M11835 8950 c-3 -5 -1 -10 4 -10 6 0 11 5 11 10 0 6 -2 10 -4 10 -3
0 -8 -4 -11 -10z"/>
<path d="M13623 8943 c-13 -5 -18 -35 -7 -45 3 -3 13 -4 23 -1 13 3 17 11 14
24 -6 23 -13 28 -30 22z"/>
<path d="M11785 8930 c-3 -5 -1 -10 4 -10 6 0 11 5 11 10 0 6 -2 10 -4 10 -3
0 -8 -4 -11 -10z"/>
<path d="M11735 8910 c-3 -5 -1 -10 4 -10 6 0 11 5 11 10 0 6 -2 10 -4 10 -3
0 -8 -4 -11 -10z"/>
<path d="M13552 8898 c3 -24 17 -32 36 -20 18 12 4 42 -20 42 -14 0 -19 -6
-16 -22z"/>
<path d="M11685 8890 c-3 -5 -1 -10 4 -10 6 0 11 5 11 10 0 6 -2 10 -4 10 -3
0 -8 -4 -11 -10z"/>
<path d="M13496 8891 c-9 -14 4 -41 19 -41 18 0 26 15 19 34 -7 17 -29 21 -38
7z"/>
<path d="M11640 8869 c0 -5 5 -7 10 -4 6 3 10 8 10 11 0 2 -4 4 -10 4 -5 0
-10 -5 -10 -11z"/>
<path d="M13442 8872 c-15 -10 -5 -42 13 -42 18 0 26 15 19 34 -7 18 -13 19
-32 8z"/>
<path d="M11590 8849 c0 -5 5 -7 10 -4 6 3 10 8 10 11 0 2 -4 4 -10 4 -5 0
-10 -5 -10 -11z"/>
<path d="M13383 8852 c-20 -13 -5 -51 18 -45 20 6 23 12 13 37 -7 18 -13 19
-31 8z"/>
<path d="M11540 8829 c0 -5 5 -7 10 -4 6 3 10 8 10 11 0 2 -4 4 -10 4 -5 0
-10 -5 -10 -11z"/>
<path d="M13327 8832 c-13 -3 -16 -9 -11 -25 9 -29 8 -29 28 -21 29 11 14 53
-17 46z"/>
<path d="M11490 8809 c0 -5 5 -7 10 -4 6 3 10 8 10 11 0 2 -4 4 -10 4 -5 0
-10 -5 -10 -11z"/>
<path d="M13267 8809 c-13 -8 -15 -14 -7 -29 13 -25 50 -16 43 11 -7 25 -15
29 -36 18z"/>
<path d="M13200 8771 c0 -24 13 -33 33 -25 21 8 9 44 -14 44 -12 0 -19 -7 -19
-19z"/>
<path d="M13143 8754 c-7 -20 11 -38 31 -31 9 4 12 13 9 26 -6 25 -31 28 -40
5z"/>
<path d="M11348 8753 c7 -3 16 -2 19 1 4 3 -2 6 -13 5 -11 0 -14 -3 -6 -6z"/>
<path d="M13091 8741 c-8 -5 -11 -16 -6 -30 5 -17 10 -19 25 -11 12 6 16 17
13 30 -6 22 -11 24 -32 11z"/>
<path d="M11300 8729 c0 -5 5 -7 10 -4 6 3 10 8 10 11 0 2 -4 4 -10 4 -5 0
-10 -5 -10 -11z"/>
<path d="M13031 8721 c-21 -13 -5 -50 19 -44 21 6 24 12 14 37 -7 18 -13 19
-33 7z"/>
<path d="M11250 8710 c0 -5 5 -10 10 -10 6 0 10 5 10 10 0 6 -4 10 -10 10 -5
0 -10 -4 -10 -10z"/>
<path d="M12977 8702 c-13 -3 -16 -9 -11 -25 9 -29 8 -29 28 -21 29 11 14 53
-17 46z"/>
<path d="M11205 8690 c-3 -5 -1 -10 4 -10 6 0 11 5 11 10 0 6 -2 10 -4 10 -3
0 -8 -4 -11 -10z"/>
<path d="M12918 8679 c-10 -5 -14 -17 -11 -29 6 -22 11 -24 32 -11 22 14 2 53
-21 40z"/>
<path d="M11160 8659 c0 -5 5 -7 10 -4 6 3 10 8 10 11 0 2 -4 4 -10 4 -5 0
-10 -5 -10 -11z"/>
<path d="M12848 8654 c-8 -7 2 -44 12 -44 27 0 39 13 29 31 -9 18 -30 25 -41
13z"/>
<path d="M11110 8640 c0 -5 5 -10 10 -10 6 0 10 5 10 10 0 6 -4 10 -10 10 -5
0 -10 -4 -10 -10z"/>
<path d="M12793 8632 c-20 -12 9 -47 31 -39 14 5 15 11 6 27 -12 22 -18 24
-37 12z"/>
<path d="M11065 8620 c-3 -5 -1 -10 4 -10 6 0 11 5 11 10 0 6 -2 10 -4 10 -3
0 -8 -4 -11 -10z"/>
<path d="M12741 8611 c-8 -5 -11 -16 -6 -30 5 -17 10 -19 25 -11 12 6 16 17
13 30 -6 22 -11 24 -32 11z"/>
<path d="M11020 8589 c0 -5 5 -7 10 -4 6 3 10 8 10 11 0 2 -4 4 -10 4 -5 0
-10 -5 -10 -11z"/>
<path d="M12681 8591 c-21 -14 -5 -50 20 -44 12 4 18 11 15 20 -3 8 -6 19 -6
24 0 11 -11 11 -29 0z"/>
<path d="M10970 8569 c0 -5 5 -7 10 -4 6 3 10 8 10 11 0 2 -4 4 -10 4 -5 0
-10 -5 -10 -11z"/>
<path d="M12628 8572 c-19 -4 -23 -19 -10 -40 8 -12 43 -7 41 7 -2 21 -16 36
-31 33z"/>
<path d="M10925 8550 c-3 -5 -1 -10 4 -10 6 0 11 5 11 10 0 6 -2 10 -4 10 -3
0 -8 -4 -11 -10z"/>
<path d="M12567 8548 c-17 -12 -15 -48 2 -48 22 1 34 20 25 40 -8 18 -12 19
-27 8z"/>
<path d="M12498 8525 c-3 -3 -3 -15 -1 -26 7 -26 38 -21 38 6 0 19 -25 32 -37
20z"/>
<path d="M10830 8499 c0 -5 5 -7 10 -4 6 3 10 8 10 11 0 2 -4 4 -10 4 -5 0
-10 -5 -10 -11z"/>
<path d="M12444 8504 c-19 -8 -4 -44 18 -44 14 0 19 6 16 22 -3 22 -15 30 -34
22z"/>
<path d="M12384 8484 c-19 -8 -4 -44 18 -44 14 0 19 6 16 22 -3 22 -15 30 -34
22z"/>
<path d="M10745 8460 c-3 -5 -1 -10 4 -10 6 0 11 5 11 10 0 6 -2 10 -4 10 -3
0 -8 -4 -11 -10z"/>
<path d="M12331 8461 c-21 -13 -5 -50 19 -44 23 6 25 13 8 36 -9 11 -18 14
-27 8z"/>
<path d="M12278 8442 c-19 -4 -22 -11 -12 -35 5 -14 45 -12 43 2 -2 21 -16 36
-31 33z"/>
<path d="M10690 8429 c0 -5 5 -7 10 -4 6 3 10 8 10 11 0 2 -4 4 -10 4 -5 0
-10 -5 -10 -11z"/>
<path d="M12200 8408 c0 -7 4 -19 8 -26 11 -17 45 -4 38 15 -3 8 -6 17 -6 19
0 2 -9 4 -20 4 -11 0 -20 -6 -20 -12z"/>
<path d="M10605 8390 c-3 -5 -1 -10 4 -10 6 0 11 5 11 10 0 6 -2 10 -4 10 -3
0 -8 -4 -11 -10z"/>
<path d="M12146 8391 c-9 -14 4 -41 19 -41 18 0 26 15 19 34 -7 17 -29 21 -38
7z"/>
<path d="M12086 8371 c-10 -16 5 -42 23 -39 21 4 21 42 -1 46 -9 2 -19 -1 -22
-7z"/>
<path d="M10550 8359 c0 -5 5 -7 10 -4 6 3 10 8 10 11 0 2 -4 4 -10 4 -5 0
-10 -5 -10 -11z"/>
<path d="M12034 8354 c-19 -8 -4 -44 18 -44 14 0 19 6 16 22 -3 22 -15 30 -34
22z"/>
<path d="M11974 8334 c-19 -8 -4 -44 18 -44 14 0 19 6 16 22 -3 22 -15 30 -34
22z"/>
<path d="M10465 8320 c-3 -5 -1 -10 4 -10 6 0 11 5 11 10 0 6 -2 10 -4 10 -3
0 -8 -4 -11 -10z"/>
<path d="M11923 8313 c-13 -5 -18 -35 -7 -45 3 -3 13 -4 23 -1 13 3 17 11 14
24 -6 23 -13 28 -30 22z"/>
<path d="M10410 8289 c0 -5 5 -7 10 -4 6 3 10 8 10 11 0 2 -4 4 -10 4 -5 0
-10 -5 -10 -11z"/>
<path d="M11852 8268 c3 -24 17 -32 36 -20 18 12 4 42 -20 42 -14 0 -19 -6
-16 -22z"/>
<path d="M11790 8258 c0 -7 4 -19 8 -26 11 -17 45 -4 38 15 -3 8 -6 17 -6 19
0 2 -9 4 -20 4 -11 0 -20 -6 -20 -12z"/>
<path d="M11736 8241 c-9 -14 4 -41 19 -41 18 0 26 15 19 34 -7 17 -29 21 -38
7z"/>
<path d="M10270 8220 c0 -5 5 -10 10 -10 6 0 10 5 10 10 0 6 -4 10 -10 10 -5
0 -10 -4 -10 -10z"/>
<path d="M11676 8221 c-9 -14 4 -41 19 -41 18 0 26 15 19 34 -7 17 -29 21 -38
7z"/>
<path d="M10230 8200 c0 -5 5 -10 11 -10 5 0 7 5 4 10 -3 6 -8 10 -11 10 -2 0
-4 -4 -4 -10z"/>
<path d="M11622 8202 c-18 -12 -4 -42 19 -42 20 0 23 8 13 34 -7 18 -13 19
-32 8z"/>
<path d="M10185 8180 c-3 -5 -1 -10 4 -10 6 0 11 5 11 10 0 6 -2 10 -4 10 -3
0 -8 -4 -11 -10z"/>
<path d="M11568 8183 c-21 -5 -21 -8 -8 -33 12 -23 40 -16 40 10 0 22 -9 28
-32 23z"/>
<path d="M11513 8163 c-13 -5 -18 -35 -7 -46 11 -11 34 5 34 23 0 22 -10 29
-27 23z"/>
<path d="M10130 8150 c0 -5 5 -10 10 -10 6 0 10 5 10 10 0 6 -4 10 -10 10 -5
0 -10 -4 -10 -10z"/>
<path d="M10090 8130 c0 -5 5 -10 10 -10 6 0 10 5 10 10 0 6 -4 10 -10 10 -5
0 -10 -4 -10 -10z"/>
<path d="M11440 8121 c0 -24 13 -33 33 -25 21 8 9 44 -14 44 -12 0 -19 -7 -19
-19z"/>
<path d="M11382 8098 c3 -24 17 -32 36 -20 18 12 4 42 -20 42 -14 0 -19 -6
-16 -22z"/>
<path d="M10040 8099 c0 -5 5 -7 10 -4 6 3 10 8 10 11 0 2 -4 4 -10 4 -5 0
-10 -5 -10 -11z"/>
<path d="M11326 8091 c-9 -14 4 -41 19 -41 18 0 26 15 19 34 -7 17 -29 21 -38
7z"/>
<path d="M9995 8080 c3 -5 8 -10 11 -10 2 0 4 5 4 10 0 6 -5 10 -11 10 -5 0
-7 -4 -4 -10z"/>
<path d="M11277 8068 c-15 -11 -16 -16 -5 -30 19 -25 45 -7 32 22 -8 18 -12
19 -27 8z"/>
<path d="M9950 8060 c0 -5 5 -10 10 -10 6 0 10 5 10 10 0 6 -4 10 -10 10 -5 0
-10 -4 -10 -10z"/>
<path d="M11213 8044 c-9 -4 -9 -11 -1 -29 9 -20 14 -22 30 -14 14 8 16 14 8
29 -11 20 -16 22 -37 14z"/>
<path d="M9900 8029 c0 -5 5 -7 10 -4 6 3 10 8 10 11 0 2 -4 4 -10 4 -5 0 -10
-5 -10 -11z"/>
<path d="M11156 8011 c-7 -10 3 -41 13 -41 17 1 31 18 25 33 -7 18 -29 23 -38
8z"/>
<path d="M9815 7990 c-3 -5 -1 -10 4 -10 6 0 11 5 11 10 0 6 -2 10 -4 10 -3 0
-8 -4 -11 -10z"/>
<path d="M11108 7992 c-21 -4 -22 -12 -5 -35 8 -11 17 -14 26 -8 20 13 2 48
-21 43z"/>
<path d="M9760 7959 c0 -5 5 -7 10 -4 6 3 10 8 10 11 0 2 -4 4 -10 4 -5 0 -10
-5 -10 -11z"/>
<path d="M11043 7964 c-9 -4 -9 -11 -1 -29 9 -20 14 -22 30 -14 14 8 16 14 8
29 -11 20 -16 22 -37 14z"/>
<path d="M9720 7940 c0 -5 5 -10 11 -10 5 0 7 5 4 10 -3 6 -8 10 -11 10 -2 0
-4 -4 -4 -10z"/>
<path d="M10986 7931 c-7 -10 3 -41 13 -41 17 1 31 18 25 33 -7 18 -29 23 -38
8z"/>
<path d="M9670 7910 c0 -5 5 -10 10 -10 6 0 10 5 10 10 0 6 -4 10 -10 10 -5 0
-10 -4 -10 -10z"/>
<path d="M10931 7911 c-18 -12 3 -53 24 -45 16 7 18 14 9 38 -7 18 -13 19 -33
7z"/>
<path d="M9630 7879 c0 -5 5 -7 10 -4 6 3 10 8 10 11 0 2 -4 4 -10 4 -5 0 -10
-5 -10 -11z"/>
<path d="M10873 7882 c-20 -12 7 -45 30 -37 13 6 14 11 6 26 -11 21 -18 23
-36 11z"/>
<path d="M9585 7860 c-3 -5 -1 -10 4 -10 6 0 11 5 11 10 0 6 -2 10 -4 10 -3 0
-8 -4 -11 -10z"/>
<path d="M10810 7848 c0 -7 4 -19 8 -26 11 -17 45 -4 38 15 -3 8 -6 17 -6 19
0 2 -9 4 -20 4 -11 0 -20 -6 -20 -12z"/>
<path d="M9540 7830 c0 -5 5 -10 10 -10 6 0 10 5 10 10 0 6 -4 10 -10 10 -5 0
-10 -4 -10 -10z"/>
<path d="M10762 7832 c-18 -12 -4 -42 19 -42 20 0 23 8 13 34 -7 18 -13 19
-32 8z"/>
<path d="M9495 7800 c3 -5 8 -10 11 -10 2 0 4 5 4 10 0 6 -5 10 -11 10 -5 0
-7 -4 -4 -10z"/>
<path d="M10703 7802 c-20 -12 7 -45 30 -37 13 6 14 11 6 26 -11 21 -18 23
-36 11z"/>
<path d="M9455 7780 c-3 -5 -1 -10 4 -10 6 0 11 5 11 10 0 6 -2 10 -4 10 -3 0
-8 -4 -11 -10z"/>
<path d="M10651 7781 c-8 -5 -11 -16 -6 -30 7 -23 13 -25 34 -12 10 7 11 13 2
30 -13 24 -12 23 -30 12z"/>
<path d="M9405 7750 c-3 -5 -1 -10 4 -10 6 0 11 5 11 10 0 6 -2 10 -4 10 -3 0
-8 -4 -11 -10z"/>
<path d="M10592 7752 c-15 -10 -5 -42 13 -42 18 0 26 15 19 34 -7 18 -13 19
-32 8z"/>
<path d="M9360 7719 c0 -5 5 -7 10 -4 6 3 10 8 10 11 0 2 -4 4 -10 4 -5 0 -10
-5 -10 -11z"/>
<path d="M10526 7721 c-10 -15 19 -42 37 -36 13 6 14 11 6 26 -10 20 -34 25
-43 10z"/>
<path d="M9315 7700 c-3 -5 1 -10 10 -10 9 0 13 5 10 10 -3 6 -8 10 -10 10 -2
0 -7 -4 -10 -10z"/>
<path d="M10481 7701 c-21 -14 -5 -50 20 -44 12 4 18 11 15 20 -3 8 -6 19 -6
24 0 11 -11 11 -29 0z"/>
<path d="M9270 7670 c0 -5 5 -10 10 -10 6 0 10 5 10 10 0 6 -4 10 -10 10 -5 0
-10 -4 -10 -10z"/>
<path d="M10422 7672 c-15 -10 -5 -42 13 -42 18 0 26 15 19 34 -7 18 -13 19
-32 8z"/>
<path d="M10366 7647 c-14 -10 -15 -15 -4 -30 17 -24 48 -13 41 14 -7 26 -17
31 -37 16z"/>
<path d="M9230 7639 c0 -5 5 -7 10 -4 6 3 10 8 10 11 0 2 -4 4 -10 4 -5 0 -10
-5 -10 -11z"/>
<path d="M10311 7621 c-8 -5 -11 -16 -6 -30 5 -17 10 -19 25 -11 12 6 16 17
13 30 -6 22 -11 24 -32 11z"/>
<path d="M9140 7590 c0 -5 5 -10 11 -10 5 0 7 5 4 10 -3 6 -8 10 -11 10 -2 0
-4 -4 -4 -10z"/>
<path d="M10246 7591 c-10 -16 5 -42 23 -39 21 4 21 42 -1 46 -9 2 -19 -1 -22
-7z"/>
<path d="M10197 7569 c-13 -8 -15 -14 -7 -29 13 -25 50 -16 43 11 -7 25 -15
29 -36 18z"/>
<path d="M9090 7560 c0 -5 5 -10 10 -10 6 0 10 5 10 10 0 6 -4 10 -10 10 -5 0
-10 -4 -10 -10z"/>
<path d="M10141 7541 c-11 -7 -12 -15 -5 -31 8 -18 12 -19 27 -8 11 9 16 20
11 31 -7 19 -13 21 -33 8z"/>
<path d="M9050 7529 c0 -5 5 -7 10 -4 6 3 10 8 10 11 0 2 -4 4 -10 4 -5 0 -10
-5 -10 -11z"/>
<path d="M10076 7511 c-10 -16 5 -42 23 -39 21 4 21 42 -1 46 -9 2 -19 -1 -22
-7z"/>
<path d="M9010 7499 c0 -5 5 -7 10 -4 6 3 10 8 10 11 0 2 -4 4 -10 4 -5 0 -10
-5 -10 -11z"/>
<path d="M10027 7488 c-15 -11 -16 -16 -5 -31 11 -15 16 -16 31 -5 15 11 16
16 5 31 -11 15 -16 16 -31 5z"/>
<path d="M8960 7469 c0 -5 5 -7 10 -4 6 3 10 8 10 11 0 2 -4 4 -10 4 -5 0 -10
-5 -10 -11z"/>
<path d="M9964 7455 c-7 -18 3 -35 21 -35 18 0 26 15 19 34 -8 20 -33 21 -40
1z"/>
<path d="M9917 7438 c-17 -12 -15 -48 2 -48 22 1 34 20 25 40 -8 18 -12 19
-27 8z"/>
<path d="M8875 7420 c-3 -5 1 -10 10 -10 9 0 13 5 10 10 -3 6 -8 10 -10 10 -2
0 -7 -4 -10 -10z"/>
<path d="M9859 7412 c-13 -5 -14 -13 -8 -30 7 -19 12 -21 29 -12 16 9 18 15
10 30 -6 11 -12 20 -13 19 -1 0 -9 -3 -18 -7z"/>
<path d="M8835 7390 c-3 -5 -1 -10 4 -10 6 0 11 5 11 10 0 6 -2 10 -4 10 -3 0
-8 -4 -11 -10z"/>
<path d="M9794 7375 c-7 -18 3 -35 21 -35 18 0 26 15 19 34 -8 20 -33 21 -40
1z"/>
<path d="M8790 7360 c0 -5 5 -10 10 -10 6 0 10 5 10 10 0 6 -4 10 -10 10 -5 0
-10 -4 -10 -10z"/>
<path d="M9745 7356 c-19 -14 -19 -16 -3 -32 23 -24 46 -5 32 26 -8 19 -11 19
-29 6z"/>
<path d="M8750 7329 c0 -5 5 -7 10 -4 6 3 10 8 10 11 0 2 -4 4 -10 4 -5 0 -10
-5 -10 -11z"/>
<path d="M9683 7323 c-9 -3 -10 -10 -3 -24 12 -21 19 -23 38 -11 7 5 10 16 6
25 -6 17 -18 20 -41 10z"/>
<path d="M8700 7300 c0 -5 5 -10 10 -10 6 0 10 5 10 10 0 6 -4 10 -10 10 -5 0
-10 -4 -10 -10z"/>
<path d="M9632 7291 c-11 -7 -12 -12 -1 -29 10 -16 16 -18 30 -9 13 8 15 15 8
29 -11 20 -18 22 -37 9z"/>
<path d="M8660 7269 c0 -5 5 -7 10 -4 6 3 10 8 10 11 0 2 -4 4 -10 4 -5 0 -10
-5 -10 -11z"/>
<path d="M9581 7261 c-10 -7 -11 -13 -1 -31 10 -19 14 -20 26 -8 8 8 12 22 8
31 -7 19 -13 21 -33 8z"/>
<path d="M8615 7240 c4 -6 11 -8 16 -5 14 9 11 15 -7 15 -8 0 -12 -5 -9 -10z"/>
<path d="M9528 7228 c-14 -11 -15 -16 -4 -30 11 -14 16 -15 30 -5 14 10 15 15
4 30 -11 15 -16 16 -30 5z"/>
<path d="M8575 7220 c-3 -5 -1 -10 4 -10 6 0 11 5 11 10 0 6 -2 10 -4 10 -3 0
-8 -4 -11 -10z"/>
<path d="M9471 7197 c-8 -10 -7 -18 2 -30 17 -23 41 -6 32 22 -7 24 -18 27
-34 8z"/>
<path d="M8530 7190 c0 -5 5 -10 10 -10 6 0 10 5 10 10 0 6 -4 10 -10 10 -5 0
-10 -4 -10 -10z"/>
<path d="M9421 7166 c-6 -7 -9 -21 -5 -30 7 -18 13 -19 33 -7 10 7 11 13 2 30
-14 25 -15 25 -30 7z"/>
<path d="M8485 7160 c-3 -5 -1 -10 4 -10 6 0 11 5 11 10 0 6 -2 10 -4 10 -3 0
-8 -4 -11 -10z"/>
<path d="M8440 7130 c0 -5 5 -10 10 -10 6 0 10 5 10 10 0 6 -4 10 -10 10 -5 0
-10 -4 -10 -10z"/>
<path d="M9363 7132 c-20 -12 7 -45 30 -37 13 6 14 11 6 26 -11 21 -18 23 -36
11z"/>
<path d="M8400 7099 c0 -5 5 -7 10 -4 6 3 10 8 10 11 0 2 -4 4 -10 4 -5 0 -10
-5 -10 -11z"/>
<path d="M9312 7102 c-15 -10 -5 -42 13 -42 18 0 26 15 19 34 -7 18 -13 19
-32 8z"/>
<path d="M8355 7070 c3 -5 8 -10 11 -10 2 0 4 5 4 10 0 6 -5 10 -11 10 -5 0
-7 -4 -4 -10z"/>
<path d="M9254 7066 c-3 -8 -2 -22 3 -30 8 -14 11 -14 28 -2 16 12 17 16 6 30
-17 20 -30 20 -37 2z"/>
<path d="M8310 7039 c0 -5 5 -7 10 -4 6 3 10 8 10 11 0 2 -4 4 -10 4 -5 0 -10
-5 -10 -11z"/>
<path d="M9202 7038 c-8 -8 -8 -17 -1 -30 8 -14 14 -16 29 -8 17 9 18 14 7 30
-14 23 -19 24 -35 8z"/>
<path d="M8270 7009 c0 -5 5 -7 10 -4 6 3 10 8 10 11 0 2 -4 4 -10 4 -5 0 -10
-5 -10 -11z"/>
<path d="M9151 7006 c-15 -18 -3 -49 16 -42 8 3 17 6 19 6 10 0 3 29 -10 39
-10 8 -16 8 -25 -3z"/>
<path d="M8225 6980 c4 -6 11 -8 16 -5 14 9 11 15 -7 15 -8 0 -12 -5 -9 -10z"/>
<path d="M9097 6979 c-13 -8 -15 -14 -7 -30 12 -21 18 -23 39 -10 22 14 -9 53
-32 40z"/>
<path d="M8185 6960 c-3 -5 -1 -10 4 -10 6 0 11 5 11 10 0 6 -2 10 -4 10 -3 0
-8 -4 -11 -10z"/>
<path d="M9036 6941 c-10 -16 5 -42 23 -39 21 4 21 42 -1 46 -9 2 -19 -1 -22
-7z"/>
<path d="M8145 6930 c-3 -5 -1 -10 4 -10 6 0 11 5 11 10 0 6 -2 10 -4 10 -3 0
-8 -4 -11 -10z"/>
<path d="M8984 6905 c-7 -18 3 -35 21 -35 21 0 28 19 15 35 -16 19 -29 19 -36
0z"/>
<path d="M8095 6900 c-3 -5 1 -10 10 -10 9 0 13 5 10 10 -3 6 -8 10 -10 10 -2
0 -7 -4 -10 -10z"/>
<path d="M8932 6878 c-8 -8 -8 -17 -1 -30 8 -15 14 -16 30 -8 15 9 17 15 9 30
-12 23 -21 25 -38 8z"/>
<path d="M8055 6870 c-3 -5 -1 -10 4 -10 6 0 11 5 11 10 0 6 -2 10 -4 10 -3 0
-8 -4 -11 -10z"/>
<path d="M8883 6853 c-17 -6 -17 -28 0 -41 19 -16 40 2 32 27 -6 21 -11 23
-32 14z"/>
<path d="M8015 6840 c-3 -5 -1 -10 4 -10 6 0 11 5 11 10 0 6 -2 10 -4 10 -3 0
-8 -4 -11 -10z"/>
<path d="M8827 6818 c-15 -11 -16 -16 -5 -31 9 -11 20 -16 31 -11 20 7 21 14
4 37 -10 15 -15 16 -30 5z"/>
<path d="M7970 6810 c0 -5 5 -10 10 -10 6 0 10 5 10 10 0 6 -4 10 -10 10 -5 0
-10 -4 -10 -10z"/>
<path d="M7925 6780 c-3 -5 -1 -10 4 -10 6 0 11 5 11 10 0 6 -2 10 -4 10 -3 0
-8 -4 -11 -10z"/>
<path d="M8764 6779 c-10 -17 23 -46 37 -32 7 7 9 19 6 27 -7 18 -33 21 -43 5z"/>
<path d="M7880 6750 c0 -5 5 -10 10 -10 6 0 10 5 10 10 0 6 -4 10 -10 10 -5 0
-10 -4 -10 -10z"/>
<path d="M8714 6745 c-7 -18 3 -35 21 -35 18 0 26 15 19 34 -8 20 -33 21 -40
1z"/>
<path d="M7840 6719 c0 -5 5 -7 10 -4 6 3 10 8 10 11 0 2 -4 4 -10 4 -5 0 -10
-5 -10 -11z"/>
<path d="M8662 6721 c-23 -14 6 -53 30 -40 15 8 16 14 8 29 -12 22 -18 24 -38
11z"/>
<path d="M7795 6690 c-3 -5 -1 -10 4 -10 6 0 11 5 11 10 0 6 -2 10 -4 10 -3 0
-8 -4 -11 -10z"/>
<path d="M8611 6691 c-18 -12 3 -53 24 -45 16 7 18 14 9 38 -7 18 -13 19 -33
7z"/>
<path d="M7750 6660 c0 -5 5 -10 10 -10 6 0 10 5 10 10 0 6 -4 10 -10 10 -5 0
-10 -4 -10 -10z"/>
<path d="M8558 6658 c-15 -11 -15 -16 -4 -31 8 -10 20 -15 30 -11 19 7 20 15
3 37 -10 15 -15 16 -29 5z"/>
<path d="M7710 6630 c0 -5 5 -10 10 -10 6 0 10 5 10 10 0 6 -4 10 -10 10 -5 0
-10 -4 -10 -10z"/>
<path d="M8507 6628 c-16 -12 -16 -15 -3 -33 20 -27 44 -6 30 25 -8 18 -12 19
-27 8z"/>
<path d="M7675 6600 c-3 -5 -1 -10 4 -10 6 0 11 5 11 10 0 6 -2 10 -4 10 -3 0
-8 -4 -11 -10z"/>
<path d="M8446 6591 c-9 -14 4 -41 19 -41 18 0 26 15 19 34 -7 17 -29 21 -38
7z"/>
<path d="M7630 6559 c0 -5 5 -7 10 -4 6 3 10 8 10 11 0 2 -4 4 -10 4 -5 0 -10
-5 -10 -11z"/>
<path d="M8393 6564 c-9 -4 -9 -11 -1 -29 9 -20 14 -22 30 -14 14 8 16 14 8
29 -11 20 -16 22 -37 14z"/>
<path d="M7590 6529 c0 -5 5 -7 10 -4 6 3 10 8 10 11 0 2 -4 4 -10 4 -5 0 -10
-5 -10 -11z"/>
<path d="M8341 6531 c-10 -7 -11 -13 -2 -30 10 -17 15 -19 30 -9 15 9 17 15 8
30 -13 20 -16 21 -36 9z"/>
<path d="M7550 6499 c0 -5 5 -7 10 -4 6 3 10 8 10 11 0 2 -4 4 -10 4 -5 0 -10
-5 -10 -11z"/>
<path d="M8291 6501 c-8 -5 -11 -16 -6 -30 8 -25 18 -27 35 -5 11 12 11 18 -1
29 -9 9 -19 11 -28 6z"/>
<path d="M7505 6470 c-3 -5 -1 -10 4 -10 6 0 11 5 11 10 0 6 -2 10 -4 10 -3 0
-8 -4 -11 -10z"/>
<path d="M8236 6467 c-15 -11 -15 -14 -2 -32 13 -18 16 -18 30 -5 12 12 13 18
2 32 -11 14 -16 15 -30 5z"/>
<path d="M7465 6440 c-3 -5 1 -10 10 -10 9 0 13 5 10 10 -3 6 -8 10 -10 10 -2
0 -7 -4 -10 -10z"/>
<path d="M8176 6431 c-10 -16 5 -42 23 -39 21 4 21 42 -1 46 -9 2 -19 -1 -22
-7z"/>
<path d="M7425 6400 c3 -5 8 -10 11 -10 2 0 4 5 4 10 0 6 -5 10 -11 10 -5 0
-7 -4 -4 -10z"/>
<path d="M8123 6403 c-9 -3 -10 -10 -3 -24 12 -21 18 -23 39 -10 12 8 12 12 2
25 -14 17 -18 18 -38 9z"/>
<path d="M7380 6370 c0 -5 5 -10 10 -10 6 0 10 5 10 10 0 6 -4 10 -10 10 -5 0
-10 -4 -10 -10z"/>
<path d="M8071 6371 c-10 -7 -11 -13 -2 -30 10 -17 15 -19 31 -9 14 9 16 16 9
30 -11 20 -18 22 -38 9z"/>
<path d="M7345 6340 c-3 -5 -1 -10 4 -10 6 0 11 5 11 10 0 6 -2 10 -4 10 -3 0
-8 -4 -11 -10z"/>
<path d="M8023 6343 c-17 -6 -16 -28 1 -42 17 -14 39 9 30 33 -6 17 -10 18
-31 9z"/>
<path d="M7305 6310 c-3 -5 -1 -10 4 -10 6 0 11 5 11 10 0 6 -2 10 -4 10 -3 0
-8 -4 -11 -10z"/>
<path d="M7967 6308 c-15 -11 -16 -16 -5 -31 11 -15 16 -16 31 -5 15 11 16 16
5 31 -11 15 -16 16 -31 5z"/>
<path d="M7265 6280 c-3 -5 -1 -10 4 -10 6 0 11 5 11 10 0 6 -2 10 -4 10 -3 0
-8 -4 -11 -10z"/>
<path d="M7910 6274 c-11 -12 -11 -18 1 -29 20 -20 43 -4 34 24 -8 25 -18 27
-35 5z"/>
<path d="M7858 6246 c-15 -11 -15 -16 -5 -30 8 -11 19 -15 30 -10 20 7 21 15
5 37 -11 13 -16 14 -30 3z"/>
<path d="M7220 6239 c0 -5 5 -7 10 -4 6 3 10 8 10 11 0 2 -4 4 -10 4 -5 0 -10
-5 -10 -11z"/>
<path d="M7180 6209 c0 -5 5 -7 10 -4 6 3 10 8 10 11 0 2 -4 4 -10 4 -5 0 -10
-5 -10 -11z"/>
<path d="M7800 6210 c-13 -8 -13 -11 1 -25 22 -22 52 -10 38 16 -11 21 -17 23
-39 9z"/>
<path d="M7140 6180 c0 -5 5 -10 10 -10 6 0 10 5 10 10 0 6 -4 10 -10 10 -5 0
-10 -4 -10 -10z"/>
<path d="M7753 6183 c-17 -6 -16 -28 1 -42 17 -14 39 9 30 33 -6 17 -10 18
-31 9z"/>
<path d="M7095 6150 c-3 -5 1 -10 10 -10 9 0 13 5 10 10 -3 6 -8 10 -10 10 -2
0 -7 -4 -10 -10z"/>
<path d="M7702 6147 c-16 -18 -5 -49 16 -45 21 4 25 20 9 42 -11 15 -15 16
-25 3z"/>
<path d="M7055 6110 c4 -6 11 -8 16 -5 14 9 11 15 -7 15 -8 0 -12 -5 -9 -10z"/>
<path d="M7650 6105 c-15 -19 3 -47 26 -38 18 7 18 27 0 42 -10 9 -16 8 -26
-4z"/>
<path d="M7020 6079 c0 -5 5 -7 10 -4 6 3 10 8 10 11 0 2 -4 4 -10 4 -5 0 -10
-5 -10 -11z"/>
<path d="M7603 6073 c-17 -6 -16 -28 1 -42 21 -17 45 15 25 33 -8 8 -20 12
-26 9z"/>
<path d="M6980 6039 c0 -5 5 -7 10 -4 6 3 10 8 10 11 0 2 -4 4 -10 4 -5 0 -10
-5 -10 -11z"/>
<path d="M7544 6025 c-7 -18 3 -35 21 -35 18 0 26 15 19 34 -8 20 -33 21 -40
1z"/>
<path d="M6945 6010 c-3 -5 -1 -10 4 -10 6 0 11 5 11 10 0 6 -2 10 -4 10 -3 0
-8 -4 -11 -10z"/>
<path d="M7501 5996 c-6 -7 -9 -21 -5 -30 7 -18 13 -19 33 -7 10 7 11 13 2 30
-14 25 -15 25 -30 7z"/>
<path d="M7453 5963 c-17 -6 -16 -28 1 -42 21 -17 45 15 25 33 -8 8 -20 12
-26 9z"/>
<path d="M6870 5929 c0 -5 5 -7 10 -4 6 3 10 8 10 11 0 2 -4 4 -10 4 -5 0 -10
-5 -10 -11z"/>
<path d="M7393 5914 c-3 -8 1 -22 9 -30 13 -13 16 -13 28 0 10 13 10 19 0 31
-16 19 -29 19 -37 -1z"/>
<path d="M6835 5900 c-3 -5 -1 -10 4 -10 6 0 11 5 11 10 0 6 -2 10 -4 10 -3 0
-8 -4 -11 -10z"/>
<path d="M7344 5875 c-7 -18 3 -35 21 -35 18 0 26 15 19 34 -8 20 -33 21 -40
1z"/>
<path d="M6795 5860 c-3 -5 -1 -10 4 -10 6 0 11 5 11 10 0 6 -2 10 -4 10 -3 0
-8 -4 -11 -10z"/>
<path d="M7299 5847 c-14 -11 -15 -16 -4 -30 7 -10 19 -15 29 -11 19 7 20 15
4 37 -11 13 -16 14 -29 4z"/>
<path d="M6760 5819 c0 -5 5 -7 10 -4 6 3 10 8 10 11 0 2 -4 4 -10 4 -5 0 -10
-5 -10 -11z"/>
<path d="M7246 5807 c-16 -12 -16 -14 2 -30 17 -16 20 -16 32 -2 11 13 11 19
-1 31 -12 12 -18 12 -33 1z"/>
<path d="M6720 5790 c0 -5 5 -10 10 -10 6 0 10 5 10 10 0 6 -4 10 -10 10 -5 0
-10 -4 -10 -10z"/>
<path d="M7191 5767 c-8 -11 -6 -18 8 -31 16 -15 19 -15 31 -1 10 12 10 18 0
30 -15 19 -24 19 -39 2z"/>
<path d="M6680 5750 c0 -5 5 -10 10 -10 6 0 10 5 10 10 0 6 -4 10 -10 10 -5 0
-10 -4 -10 -10z"/>
<path d="M7143 5733 c-9 -3 -10 -10 -3 -24 12 -21 19 -23 38 -11 7 5 10 16 6
25 -6 17 -18 20 -41 10z"/>
<path d="M6646 5721 c-4 -5 -2 -12 3 -15 5 -4 12 -2 15 3 4 5 2 12 -3 15 -5 4
-12 2 -15 -3z"/>
<path d="M7098 5698 c-15 -12 -15 -15 -2 -33 13 -17 16 -17 29 -4 13 12 13 18
2 32 -10 15 -15 16 -29 5z"/>
<path d="M6610 5679 c0 -5 5 -7 10 -4 6 3 10 8 10 11 0 2 -4 4 -10 4 -5 0 -10
-5 -10 -11z"/>
<path d="M6570 5639 c0 -5 5 -7 10 -4 6 3 10 8 10 11 0 2 -4 4 -10 4 -5 0 -10
-5 -10 -11z"/>
<path d="M6535 5610 c-3 -5 -1 -10 4 -10 6 0 11 5 11 10 0 6 -2 10 -4 10 -3 0
-8 -4 -11 -10z"/>
<path d="M6460 5529 c0 -5 5 -7 10 -4 6 3 10 8 10 11 0 2 -4 4 -10 4 -5 0 -10
-5 -10 -11z"/>
<path d="M6425 5500 c-3 -5 -1 -10 4 -10 6 0 11 5 11 10 0 6 -2 10 -4 10 -3 0
-8 -4 -11 -10z"/>
<path d="M6385 5460 c-3 -5 -1 -10 4 -10 6 0 11 5 11 10 0 6 -2 10 -4 10 -3 0
-8 -4 -11 -10z"/>
<path d="M6350 5419 c0 -5 5 -7 10 -4 6 3 10 8 10 11 0 2 -4 4 -10 4 -5 0 -10
-5 -10 -11z"/>
<path d="M6315 5390 c-3 -5 -1 -10 4 -10 6 0 11 5 11 10 0 6 -2 10 -4 10 -3 0
-8 -4 -11 -10z"/>
<path d="M6275 5350 c-3 -5 -1 -10 4 -10 6 0 11 5 11 10 0 6 -2 10 -4 10 -3 0
-8 -4 -11 -10z"/>
<path d="M6236 5321 c-4 -5 -2 -12 3 -15 5 -4 12 -2 15 3 4 5 2 12 -3 15 -5 4
-12 2 -15 -3z"/>
<path d="M6200 5280 c0 -5 5 -10 10 -10 6 0 10 5 10 10 0 6 -4 10 -10 10 -5 0
-10 -4 -10 -10z"/>
<path d="M6160 5239 c0 -5 5 -7 10 -4 6 3 10 8 10 11 0 2 -4 4 -10 4 -5 0 -10
-5 -10 -11z"/>
<path d="M6125 5210 c-3 -5 -1 -10 4 -10 6 0 11 5 11 10 0 6 -2 10 -4 10 -3 0
-8 -4 -11 -10z"/>
<path d="M6080 5169 c0 -5 5 -7 10 -4 6 3 10 8 10 11 0 2 -4 4 -10 4 -5 0 -10
-5 -10 -11z"/>
<path d="M6040 5140 c0 -5 5 -10 10 -10 6 0 10 5 10 10 0 6 -4 10 -10 10 -5 0
-10 -4 -10 -10z"/>
<path d="M6005 5110 c-3 -5 -1 -10 4 -10 6 0 11 5 11 10 0 6 -2 10 -4 10 -3 0
-8 -4 -11 -10z"/>
<path d="M5960 5070 c0 -5 5 -10 10 -10 6 0 10 5 10 10 0 6 -4 10 -10 10 -5 0
-10 -4 -10 -10z"/>
<path d="M5925 5040 c-3 -5 -1 -10 4 -10 6 0 11 5 11 10 0 6 -2 10 -4 10 -3 0
-8 -4 -11 -10z"/>
<path d="M5885 5011 c-3 -5 -1 -12 5 -16 5 -3 10 1 10 9 0 18 -6 21 -15 7z"/>
<path d="M5845 4970 c-3 -5 -1 -10 4 -10 6 0 11 5 11 10 0 6 -2 10 -4 10 -3 0
-8 -4 -11 -10z"/>
<path d="M5805 4940 c-3 -5 1 -10 10 -10 9 0 13 5 10 10 -3 6 -8 10 -10 10 -2
0 -7 -4 -10 -10z"/>
<path d="M5770 4899 c0 -5 5 -7 10 -4 6 3 10 8 10 11 0 2 -4 4 -10 4 -5 0 -10
-5 -10 -11z"/>
<path d="M5725 4870 c-3 -5 1 -10 10 -10 9 0 13 5 10 10 -3 6 -8 10 -10 10 -2
0 -7 -4 -10 -10z"/>
<path d="M5690 4829 c0 -5 5 -7 10 -4 6 3 10 8 10 11 0 2 -4 4 -10 4 -5 0 -10
-5 -10 -11z"/>
<path d="M5650 4799 c0 -5 5 -7 10 -4 6 3 10 8 10 11 0 2 -4 4 -10 4 -5 0 -10
-5 -10 -11z"/>
<path d="M5570 4729 c0 -5 5 -7 10 -4 6 3 10 8 10 11 0 2 -4 4 -10 4 -5 0 -10
-5 -10 -11z"/>
<path d="M5535 4700 c-3 -5 -1 -10 4 -10 6 0 11 5 11 10 0 6 -2 10 -4 10 -3 0
-8 -4 -11 -10z"/>
<path d="M5490 4659 c0 -5 5 -7 10 -4 6 3 10 8 10 11 0 2 -4 4 -10 4 -5 0 -10
-5 -10 -11z"/>
<path d="M5450 4630 c0 -5 5 -10 10 -10 6 0 10 5 10 10 0 6 -4 10 -10 10 -5 0
-10 -4 -10 -10z"/>
<path d="M5415 4600 c-3 -5 -1 -10 4 -10 6 0 11 5 11 10 0 6 -2 10 -4 10 -3 0
-8 -4 -11 -10z"/>
<path d="M5370 4560 c0 -5 5 -10 10 -10 6 0 10 5 10 10 0 6 -4 10 -10 10 -5 0
-10 -4 -10 -10z"/>
<path d="M5335 4530 c-3 -5 -1 -10 4 -10 6 0 11 5 11 10 0 6 -2 10 -4 10 -3 0
-8 -4 -11 -10z"/>
<path d="M5255 4460 c-3 -5 -1 -10 4 -10 6 0 11 5 11 10 0 6 -2 10 -4 10 -3 0
-8 -4 -11 -10z"/>
<path d="M5215 4430 c-3 -5 -1 -10 4 -10 6 0 11 5 11 10 0 6 -2 10 -4 10 -3 0
-8 -4 -11 -10z"/>
<path d="M5135 4360 c-3 -5 -1 -10 4 -10 6 0 11 5 11 10 0 6 -2 10 -4 10 -3 0
-8 -4 -11 -10z"/>
<path d="M5095 4320 c4 -6 11 -8 16 -5 14 9 11 15 -7 15 -8 0 -12 -5 -9 -10z"/>
<path d="M5020 4249 c0 -5 5 -7 10 -4 6 3 10 8 10 11 0 2 -4 4 -10 4 -5 0 -10
-5 -10 -11z"/>
<path d="M4985 4220 c-3 -5 -1 -10 4 -10 6 0 11 5 11 10 0 6 -2 10 -4 10 -3 0
-8 -4 -11 -10z"/>
<path d="M4945 4180 c-3 -5 -1 -10 4 -10 6 0 11 5 11 10 0 6 -2 10 -4 10 -3 0
-8 -4 -11 -10z"/>
<path d="M4910 4139 c0 -5 5 -7 10 -4 6 3 10 8 10 11 0 2 -4 4 -10 4 -5 0 -10
-5 -10 -11z"/>
<path d="M4875 4110 c-3 -5 -1 -10 4 -10 6 0 11 5 11 10 0 6 -2 10 -4 10 -3 0
-8 -4 -11 -10z"/>
<path d="M4835 4070 c-3 -5 -1 -10 4 -10 6 0 11 5 11 10 0 6 -2 10 -4 10 -3 0
-8 -4 -11 -10z"/>
<path d="M4800 4029 c0 -5 5 -7 10 -4 6 3 10 8 10 11 0 2 -4 4 -10 4 -5 0 -10
-5 -10 -11z"/>
<path d="M4765 4000 c-3 -5 -1 -10 4 -10 6 0 11 5 11 10 0 6 -2 10 -4 10 -3 0
-8 -4 -11 -10z"/>
<path d="M4725 3960 c-3 -5 -1 -10 4 -10 6 0 11 5 11 10 0 6 -2 10 -4 10 -3 0
-8 -4 -11 -10z"/>
<path d="M4690 3919 c0 -5 5 -7 10 -4 6 3 10 8 10 11 0 2 -4 4 -10 4 -5 0 -10
-5 -10 -11z"/>
<path d="M4615 3850 c-3 -5 -1 -10 4 -10 6 0 11 5 11 10 0 6 -2 10 -4 10 -3 0
-8 -4 -11 -10z"/>
<path d="M4575 3810 c3 -5 8 -10 11 -10 2 0 4 5 4 10 0 6 -5 10 -11 10 -5 0
-7 -4 -4 -10z"/>
<path d="M4540 3780 c0 -5 5 -10 11 -10 5 0 7 5 4 10 -3 6 -8 10 -11 10 -2 0
-4 -4 -4 -10z"/>
<path d="M4500 3740 c0 -5 5 -10 10 -10 6 0 10 5 10 10 0 6 -4 10 -10 10 -5 0
-10 -4 -10 -10z"/>
<path d="M4465 3700 c3 -5 8 -10 11 -10 2 0 4 5 4 10 0 6 -5 10 -11 10 -5 0
-7 -4 -4 -10z"/>
<path d="M4430 3670 c0 -5 5 -10 11 -10 5 0 7 5 4 10 -3 6 -8 10 -11 10 -2 0
-4 -4 -4 -10z"/>
<path d="M4390 3630 c0 -5 5 -10 10 -10 6 0 10 5 10 10 0 6 -4 10 -10 10 -5 0
-10 -4 -10 -10z"/>
<path d="M4315 3561 c-3 -5 -1 -12 5 -16 5 -3 10 1 10 9 0 18 -6 21 -15 7z"/>
<path d="M4280 3520 c0 -5 5 -10 10 -10 6 0 10 5 10 10 0 6 -4 10 -10 10 -5 0
-10 -4 -10 -10z"/>
<path d="M4240 3480 c0 -5 5 -10 10 -10 6 0 10 5 10 10 0 6 -4 10 -10 10 -5 0
-10 -4 -10 -10z"/>
<path d="M4206 3451 c-4 -5 -2 -12 3 -15 5 -4 12 -2 15 3 4 5 2 12 -3 15 -5 4
-12 2 -15 -3z"/>
<path d="M4170 3410 c0 -5 5 -10 10 -10 6 0 10 5 10 10 0 6 -4 10 -10 10 -5 0
-10 -4 -10 -10z"/>
<path d="M4130 3370 c0 -5 5 -10 10 -10 6 0 10 5 10 10 0 6 -4 10 -10 10 -5 0
-10 -4 -10 -10z"/>
<path d="M4100 3329 c0 -5 5 -7 10 -4 6 3 10 8 10 11 0 2 -4 4 -10 4 -5 0 -10
-5 -10 -11z"/>
<path d="M4065 3300 c-3 -5 -1 -10 4 -10 6 0 11 5 11 10 0 6 -2 10 -4 10 -3 0
-8 -4 -11 -10z"/>
<path d="M4025 3260 c-3 -5 -1 -10 4 -10 6 0 11 5 11 10 0 6 -2 10 -4 10 -3 0
-8 -4 -11 -10z"/>
<path d="M3990 3219 c0 -5 5 -7 10 -4 6 3 10 8 10 11 0 2 -4 4 -10 4 -5 0 -10
-5 -10 -11z"/>
<path d="M3955 3190 c-3 -5 -1 -10 4 -10 6 0 11 5 11 10 0 6 -2 10 -4 10 -3 0
-8 -4 -11 -10z"/>
<path d="M3915 3150 c-3 -5 -1 -10 4 -10 6 0 11 5 11 10 0 6 -2 10 -4 10 -3 0
-8 -4 -11 -10z"/>
<path d="M3880 3109 c0 -5 5 -7 10 -4 6 3 10 8 10 11 0 2 -4 4 -10 4 -5 0 -10
-5 -10 -11z"/>
<path d="M3840 3069 c0 -5 5 -7 10 -4 6 3 10 8 10 11 0 2 -4 4 -10 4 -5 0 -10
-5 -10 -11z"/>
<path d="M3805 3040 c-3 -5 -1 -10 4 -10 6 0 11 5 11 10 0 6 -2 10 -4 10 -3 0
-8 -4 -11 -10z"/>
<path d="M3770 2999 c0 -5 5 -7 10 -4 6 3 10 8 10 11 0 2 -4 4 -10 4 -5 0 -10
-5 -10 -11z"/>
<path d="M3730 2959 c0 -5 5 -7 10 -4 6 3 10 8 10 11 0 2 -4 4 -10 4 -5 0 -10
-5 -10 -11z"/>
<path d="M3695 2930 c-3 -5 -1 -10 4 -10 6 0 11 5 11 10 0 6 -2 10 -4 10 -3 0
-8 -4 -11 -10z"/>
<path d="M3660 2889 c0 -5 5 -7 10 -4 6 3 10 8 10 11 0 2 -4 4 -10 4 -5 0 -10
-5 -10 -11z"/>
<path d="M3620 2849 c0 -5 5 -7 10 -4 6 3 10 8 10 11 0 2 -4 4 -10 4 -5 0 -10
-5 -10 -11z"/>
<path d="M3585 2820 c-3 -5 -1 -10 4 -10 6 0 11 5 11 10 0 6 -2 10 -4 10 -3 0
-8 -4 -11 -10z"/>
<path d="M3550 2779 c0 -5 5 -7 10 -4 6 3 10 8 10 11 0 2 -4 4 -10 4 -5 0 -10
-5 -10 -11z"/>
<path d="M3510 2739 c0 -5 5 -7 10 -4 6 3 10 8 10 11 0 2 -4 4 -10 4 -5 0 -10
-5 -10 -11z"/>
<path d="M3475 2710 c-3 -5 -1 -10 4 -10 6 0 11 5 11 10 0 6 -2 10 -4 10 -3 0
-8 -4 -11 -10z"/>
<path d="M3435 2670 c-3 -5 -1 -10 4 -10 6 0 11 5 11 10 0 6 -2 10 -4 10 -3 0
-8 -4 -11 -10z"/>
<path d="M3395 2640 c-3 -5 1 -10 10 -10 9 0 13 5 10 10 -3 6 -8 10 -10 10 -2
0 -7 -4 -10 -10z"/>
<path d="M3360 2599 c0 -5 5 -7 10 -4 6 3 10 8 10 11 0 2 -4 4 -10 4 -5 0 -10
-5 -10 -11z"/>
<path d="M3315 2570 c-3 -5 1 -10 10 -10 9 0 13 5 10 10 -3 6 -8 10 -10 10 -2
0 -7 -4 -10 -10z"/>
<path d="M3280 2529 c0 -5 5 -7 10 -4 6 3 10 8 10 11 0 2 -4 4 -10 4 -5 0 -10
-5 -10 -11z"/>
<path d="M3240 2499 c0 -5 5 -7 10 -4 6 3 10 8 10 11 0 2 -4 4 -10 4 -5 0 -10
-5 -10 -11z"/>
<path d="M3200 2459 c0 -5 5 -7 10 -4 6 3 10 8 10 11 0 2 -4 4 -10 4 -5 0 -10
-5 -10 -11z"/>
<path d="M3160 2429 c0 -5 5 -7 10 -4 6 3 10 8 10 11 0 2 -4 4 -10 4 -5 0 -10
-5 -10 -11z"/>
<path d="M3125 2400 c-3 -5 -1 -10 4 -10 6 0 11 5 11 10 0 6 -2 10 -4 10 -3 0
-8 -4 -11 -10z"/>
<path d="M3080 2359 c0 -5 5 -7 10 -4 6 3 10 8 10 11 0 2 -4 4 -10 4 -5 0 -10
-5 -10 -11z"/>
<path d="M3040 2330 c0 -5 5 -10 10 -10 6 0 10 5 10 10 0 6 -4 10 -10 10 -5 0
-10 -4 -10 -10z"/>
<path d="M3005 2300 c-3 -5 -1 -10 4 -10 6 0 11 5 11 10 0 6 -2 10 -4 10 -3 0
-8 -4 -11 -10z"/>
<path d="M2845 2160 c-3 -5 -1 -10 4 -10 6 0 11 5 11 10 0 6 -2 10 -4 10 -3 0
-8 -4 -11 -10z"/>
<path d="M1529 9744 c-17 -21 0 -49 31 -49 31 0 48 28 31 49 -8 9 -21 16 -31
16 -10 0 -23 -7 -31 -16z"/>
<path d="M865 8527 c-27 -27 -34 -44 -40 -89 -4 -31 -4 -74 0 -97 20 -120 131
-159 198 -69 28 38 35 153 13 212 -32 83 -111 103 -171 43z m110 -37 c25 -28
32 -124 12 -171 -18 -44 -48 -54 -82 -27 -23 18 -25 26 -25 97 0 85 16 121 54
121 13 0 31 -9 41 -20z"/>
<path d="M1486 8539 c-45 -36 -55 -89 -17 -89 10 0 23 11 29 25 22 48 112 42
112 -8 0 -23 -39 -65 -143 -154 -24 -22 -37 -41 -37 -58 l0 -25 120 0 120 0 0
35 c0 41 -25 59 -45 32 -9 -12 -27 -17 -61 -17 l-49 1 67 62 c77 71 92 97 83
137 -16 72 -120 105 -179 59z"/>
<path d="M1780 8471 c0 -46 5 -83 11 -86 6 -4 30 -2 54 5 67 19 110 -18 90
-79 -10 -33 -74 -45 -125 -25 -36 14 -43 15 -51 3 -13 -21 -11 -27 14 -43 33
-22 100 -30 141 -16 50 16 76 53 76 107 0 38 -5 50 -35 80 -31 31 -40 35 -80
31 -43 -3 -45 -2 -45 24 0 26 1 27 68 30 59 3 67 5 67 23 0 18 -8 20 -92 23
l-93 3 0 -80z"/>
<path d="M1219 8274 c-17 -21 0 -49 31 -49 31 0 48 28 31 49 -8 9 -21 16 -31
16 -10 0 -23 -7 -31 -16z"/>
<path d="M1192 7074 c-38 -26 -52 -67 -52 -149 0 -123 46 -185 125 -171 63 12
95 70 95 172 0 109 -37 164 -110 164 -20 0 -46 -7 -58 -16z m98 -61 c19 -24
21 -38 18 -102 -3 -62 -7 -76 -27 -92 -30 -25 -37 -24 -66 6 -22 21 -25 33
-25 100 0 62 4 79 20 95 28 28 55 25 80 -7z"/>
<path d="M1813 7080 c-28 -11 -56 -53 -51 -77 5 -28 37 -28 47 0 17 44 89 48
111 8 15 -30 5 -45 -86 -122 -70 -59 -84 -76 -84 -100 l0 -29 115 0 115 0 0
35 c0 41 -25 59 -45 32 -8 -12 -27 -17 -60 -17 l-49 0 77 73 c82 76 90 97 65
152 -21 47 -96 69 -155 45z"/>
<path d="M1529 6804 c-17 -21 0 -49 31 -49 31 0 48 28 31 49 -8 9 -21 16 -31
16 -10 0 -23 -7 -31 -16z"/>
<path d="M865 5587 c-27 -27 -34 -44 -40 -89 -4 -31 -4 -74 0 -97 20 -120 131
-159 198 -69 28 38 35 153 13 212 -32 83 -111 103 -171 43z m110 -37 c25 -28
32 -124 12 -171 -18 -44 -48 -54 -82 -27 -23 18 -25 26 -25 97 0 85 16 121 54
121 13 0 31 -9 41 -20z"/>
<path d="M1516 5605 c-57 -16 -71 -27 -62 -50 5 -14 14 -15 46 -10 l41 7 -3
-104 -3 -103 -40 -5 c-32 -4 -40 -9 -40 -25 0 -19 7 -20 105 -20 101 0 105 1
108 23 3 20 -1 22 -37 22 l-41 0 0 140 c0 106 -3 140 -12 139 -7 0 -35 -7 -62
-14z"/>
<path d="M1780 5531 c0 -46 5 -83 11 -86 6 -4 30 -2 54 5 67 19 110 -18 90
-79 -10 -33 -74 -45 -125 -25 -36 14 -43 15 -51 3 -13 -21 -11 -27 14 -43 33
-22 100 -30 141 -16 50 16 76 53 76 107 0 38 -5 50 -35 80 -31 31 -40 35 -80
31 -43 -3 -45 -2 -45 24 0 26 1 27 68 30 59 3 67 5 67 23 0 18 -8 20 -92 23
l-93 3 0 -80z"/>
<path d="M1219 5334 c-17 -21 0 -49 31 -49 31 0 48 28 31 49 -8 9 -21 16 -31
16 -10 0 -23 -7 -31 -16z"/>
<path d="M1192 4134 c-38 -26 -52 -67 -52 -149 0 -123 46 -185 125 -171 63 12
95 70 95 172 0 109 -37 164 -110 164 -20 0 -46 -7 -58 -16z m98 -61 c19 -24
21 -38 18 -102 -3 -62 -7 -76 -27 -92 -30 -25 -37 -24 -66 6 -22 21 -25 33
-25 100 0 62 4 79 20 95 28 28 55 25 80 -7z"/>
<path d="M1826 4135 c-57 -16 -71 -27 -62 -50 5 -13 14 -15 46 -10 l40 7 0
-106 0 -105 -42 -3 c-35 -2 -43 -7 -43 -23 0 -19 8 -20 104 -23 73 -2 107 1
112 9 14 23 -3 39 -42 39 l-39 0 0 140 c0 106 -3 140 -12 139 -7 0 -35 -7 -62
-14z"/>
<path d="M1529 3864 c-17 -21 0 -49 31 -49 31 0 48 28 31 49 -8 9 -21 16 -31
16 -10 0 -23 -7 -31 -16z"/>
<path d="M865 2637 c-27 -27 -34 -44 -40 -89 -4 -31 -4 -74 0 -97 20 -120 131
-159 198 -69 28 38 35 153 13 212 -32 83 -111 103 -171 43z m110 -37 c25 -28
32 -124 12 -171 -18 -44 -48 -54 -82 -27 -23 18 -25 26 -25 97 0 85 16 121 54
121 13 0 31 -9 41 -20z"/>
<path d="M1501 2654 c-34 -24 -51 -74 -51 -148 0 -102 32 -160 95 -172 79 -14
125 48 125 171 0 82 -14 123 -52 149 -29 21 -87 20 -117 0z m99 -54 c16 -16
20 -33 20 -95 0 -67 -3 -79 -25 -100 -29 -30 -36 -31 -66 -6 -20 16 -24 30
-27 92 -3 64 -1 78 18 102 25 32 52 35 80 7z"/>
<path d="M1780 2581 c0 -46 5 -83 11 -86 6 -4 30 -2 54 5 67 19 110 -18 90
-79 -10 -33 -74 -45 -125 -25 -36 14 -43 15 -51 3 -13 -21 -11 -27 14 -43 33
-22 100 -30 141 -16 50 16 76 53 76 107 0 38 -5 50 -35 80 -31 31 -40 35 -80
31 -43 -3 -45 -2 -45 24 0 26 1 27 68 30 59 3 67 5 67 23 0 18 -8 20 -92 23
l-93 3 0 -80z"/>
<path d="M1219 2384 c-17 -21 0 -49 31 -49 31 0 48 28 31 49 -8 9 -21 16 -31
16 -10 0 -23 -7 -31 -16z"/>
<path d="M1808 1177 c-37 -34 -51 -88 -46 -169 8 -106 61 -161 137 -142 66 17
100 101 86 212 -6 45 -13 62 -40 89 -42 42 -98 46 -137 10z m106 -49 c11 -16
16 -46 16 -99 0 -71 -2 -79 -26 -98 -35 -28 -65 -15 -82 35 -17 49 -9 139 14
165 23 26 59 24 78 -3z"/>
<path d="M1986 665 c-57 -16 -71 -27 -62 -50 5 -14 14 -15 46 -10 l41 7 -3
-104 -3 -103 -40 -5 c-32 -4 -40 -9 -40 -25 0 -19 7 -20 105 -20 101 0 105 1
108 23 3 20 -1 22 -37 22 l-41 0 0 140 c0 106 -3 140 -12 139 -7 0 -35 -7 -62
-14z"/>
<path d="M3398 663 c-43 -27 -62 -93 -26 -93 5 0 23 14 38 30 42 45 110 34
110 -19 0 -18 -57 -76 -137 -140 -33 -26 -43 -41 -43 -63 l0 -28 120 0 120 0
0 24 c0 53 -24 72 -50 41 -8 -9 -30 -15 -59 -15 l-46 0 73 69 c67 65 72 73 72
111 0 59 -42 100 -102 100 -24 0 -55 -8 -70 -17z"/>
<path d="M4991 667 c-34 -17 -49 -43 -33 -59 10 -10 18 -9 41 5 66 39 143 0
95 -47 -8 -9 -26 -16 -38 -16 -27 0 -48 -21 -38 -36 4 -5 25 -14 47 -19 49
-12 70 -54 42 -82 -16 -16 -38 -18 -141 -10 -67 5 -31 -48 40 -59 123 -18 211
81 139 156 l-25 27 20 18 c52 47 -2 135 -82 135 -24 0 -54 -6 -67 -13z"/>
<path d="M7754 661 c-143 -87 -108 -342 43 -318 43 7 62 23 79 64 37 89 -54
177 -137 133 -23 -13 -24 -6 -2 31 21 35 76 63 108 55 14 -4 27 0 35 9 34 41
-67 62 -126 26z m64 -173 c19 -19 14 -65 -9 -81 -25 -18 -55 -11 -74 16 -19
28 -19 33 5 57 22 22 60 26 78 8z"/>
<path d="M8831 666 c-49 -27 -64 -87 -32 -127 19 -23 19 -24 0 -48 -27 -34
-25 -86 5 -116 45 -45 147 -41 181 8 23 32 19 84 -8 111 l-23 23 23 27 c32 37
29 62 -11 102 -27 27 -42 34 -72 34 -22 -1 -50 -7 -63 -14z m90 -46 c21 -12
25 -50 7 -68 -17 -17 -58 -15 -80 5 -22 20 -23 31 -1 55 18 20 45 23 74 8z
m17 -152 c32 -26 4 -69 -47 -70 -60 -2 -82 53 -31 79 25 13 54 9 78 -9z"/>
<path d="M9555 663 c-53 -16 -66 -28 -58 -50 4 -11 16 -13 44 -8 l39 7 0 -106
0 -106 -39 0 c-24 0 -41 -5 -44 -14 -11 -28 19 -37 119 -34 91 3 99 5 99 23 0
16 -8 21 -42 23 l-43 3 0 140 c0 105 -3 139 -12 138 -7 -1 -35 -8 -63 -16z"/>
<path d="M9862 664 c-38 -26 -52 -67 -52 -149 0 -123 46 -185 125 -171 63 12
95 70 95 172 0 109 -37 164 -110 164 -20 0 -46 -7 -58 -16z m98 -61 c19 -24
21 -38 18 -102 -3 -62 -7 -76 -27 -92 -30 -25 -37 -24 -66 6 -22 21 -25 33
-25 100 0 62 4 79 20 95 28 28 55 25 80 -7z"/>
<path d="M11146 665 c-57 -16 -71 -27 -62 -50 5 -14 14 -15 46 -10 l41 7 -3
-104 -3 -103 -40 -5 c-32 -4 -40 -9 -40 -25 0 -19 7 -20 105 -20 101 0 105 1
108 23 3 20 -1 22 -37 22 l-41 0 0 140 c0 106 -3 140 -12 139 -7 0 -35 -7 -62
-14z"/>
<path d="M12248 663 c-43 -27 -62 -93 -26 -93 5 0 23 14 38 30 42 45 110 34
110 -19 0 -18 -57 -76 -137 -140 -33 -26 -43 -41 -43 -63 l0 -28 120 0 120 0
0 24 c0 53 -24 72 -50 41 -8 -9 -30 -15 -59 -15 l-46 0 73 69 c67 65 72 73 72
111 0 59 -42 100 -102 100 -24 0 -55 -8 -70 -17z"/>
<path d="M12571 664 c-34 -24 -51 -74 -51 -148 0 -102 32 -160 95 -172 79 -14
125 48 125 171 0 82 -14 123 -52 149 -29 21 -87 20 -117 0z m99 -54 c16 -16
20 -33 20 -95 0 -67 -3 -79 -25 -100 -29 -30 -36 -31 -66 -6 -20 16 -24 30
-27 92 -3 64 -1 78 18 102 25 32 52 35 80 7z"/>
<path d="M13841 667 c-34 -17 -49 -43 -33 -59 10 -10 18 -9 41 5 66 39 143 0
95 -47 -8 -9 -26 -16 -38 -16 -27 0 -48 -21 -38 -36 4 -5 25 -14 47 -19 49
-12 70 -54 42 -82 -16 -16 -38 -18 -141 -10 -67 5 -31 -48 40 -59 123 -18 211
81 139 156 l-25 27 20 18 c52 47 -2 135 -82 135 -24 0 -54 -6 -67 -13z"/>
<path d="M14145 647 c-27 -27 -34 -44 -40 -89 -4 -31 -4 -74 0 -97 20 -120
131 -159 198 -69 28 38 35 153 13 212 -32 83 -111 103 -171 43z m110 -37 c25
-28 32 -124 12 -171 -18 -44 -48 -54 -82 -27 -23 18 -25 26 -25 97 0 85 16
121 54 121 13 0 31 -9 41 -20z"/>
<path d="M2560 591 c0 -45 5 -83 10 -86 6 -4 33 -1 60 6 45 11 51 11 70 -6 23
-20 27 -77 8 -92 -25 -20 -79 -23 -115 -8 -32 13 -39 14 -51 1 -21 -21 16 -53
73 -61 90 -14 158 36 157 113 -1 73 -52 118 -124 110 -29 -3 -33 0 -36 24 -3
27 -3 27 65 30 62 3 68 5 71 26 3 21 1 22 -92 22 l-96 0 0 -79z"/>
<path d="M6122 566 c-34 -57 -62 -114 -62 -125 0 -19 6 -21 70 -21 66 0 98
-15 48 -22 -15 -2 -23 -10 -23 -23 0 -18 8 -20 61 -23 51 -2 63 0 68 15 5 11
1 22 -10 30 -16 12 -16 14 2 34 18 20 18 22 1 34 -14 10 -17 29 -17 109 l0 96
-38 0 c-37 0 -38 -2 -100 -104z m78 -36 l0 -60 -35 0 c-19 0 -35 3 -35 6 0 6
63 113 68 114 1 0 2 -27 2 -60z"/>
<path d="M6962 588 c3 -92 3 -92 84 -73 60 14 99 -59 54 -100 -24 -22 -101
-25 -124 -6 -19 16 -46 8 -46 -13 0 -41 111 -69 172 -43 71 30 90 130 34 186
-21 21 -36 26 -76 26 -48 0 -50 1 -50 28 0 26 1 27 59 27 39 0 63 5 71 15 22
27 0 35 -91 35 l-90 0 3 -82z"/>
<path d="M8250 641 c0 -16 7 -35 16 -42 14 -11 18 -11 29 4 15 21 130 26 123
5 -3 -7 -22 -64 -43 -126 -37 -113 -38 -143 -2 -129 15 5 107 265 107 300 0
15 -12 17 -115 17 l-115 0 0 -29z"/>
<path d="M11410 591 c0 -46 5 -83 11 -86 6 -4 30 -2 54 5 67 19 110 -18 90
-79 -10 -33 -74 -45 -125 -25 -36 14 -43 15 -51 3 -13 -21 -11 -27 14 -43 33
-22 100 -30 141 -16 50 16 76 53 76 107 0 38 -5 50 -35 80 -31 31 -40 35 -80
31 -43 -3 -45 -2 -45 24 0 26 1 27 68 30 59 3 67 5 67 23 0 18 -8 20 -92 23
l-93 3 0 -80z"/>
<path d="M2317 404 c-15 -15 -7 -53 13 -59 27 -8 52 12 48 39 -3 21 -46 35
-61 20z"/>
</g>
</svg>
