<?xml version="1.0" standalone="no"?>
<!DOCTYPE svg PUBLIC "-//W3C//DTD SVG 20010904//EN"
 "http://www.w3.org/TR/2001/REC-SVG-20010904/DTD/svg10.dtd">
<svg version="1.0" xmlns="http://www.w3.org/2000/svg"
 width="1500.000000pt" height="1050.000000pt" viewBox="0 0 1500.000000 1050.000000"
 preserveAspectRatio="xMidYMid meet">
<metadata>
Created by potrace 1.11, written by Peter Selinger 2001-2013
</metadata>
<g transform="translate(0.000000,1050.000000) scale(0.100000,-0.100000)"
fill="#000000" stroke="none">
<path d="M1134 10032 c-73 -59 -81 -230 -14 -305 37 -41 95 -44 135 -7 35 33
59 119 51 183 -13 94 -54 147 -116 147 -19 0 -45 -8 -56 -18z m89 -10 c40 -43
47 -215 12 -282 -21 -41 -68 -43 -89 -2 -34 66 -28 241 11 284 21 23 45 23 66
0z"/>
<path d="M1476 10008 c-15 -39 -12 -50 8 -23 11 15 30 20 85 23 39 2 71 0 71
-5 0 -5 -22 -75 -49 -156 -43 -128 -47 -147 -32 -147 14 0 28 34 69 164 29 90
52 167 52 170 0 3 -43 6 -95 6 l-95 0 -14 -32z"/>
<path d="M2026 9874 c-3 -9 -6 -1863 -6 -4120 l0 -4104 6016 0 c5200 0 6017 2
6030 14 22 23 18 66 -6 66 -15 0 -20 -7 -20 -25 l0 -25 -795 0 -795 0 0 25 c0
16 -6 25 -15 25 -9 0 -15 -9 -15 -25 l0 -25 -565 0 -565 0 0 25 c0 16 -6 25
-15 25 -9 0 -15 -9 -15 -25 l0 -25 -800 0 -800 0 0 25 c0 16 -6 25 -15 25 -9
0 -15 -9 -15 -25 l0 -25 -430 0 -430 0 0 25 c0 16 -6 25 -15 25 -9 0 -15 -9
-15 -25 l0 -25 -255 0 -255 0 0 25 c0 16 -6 25 -15 25 -9 0 -15 -9 -15 -25 l0
-25 -295 0 -295 0 0 25 c0 16 -6 25 -15 25 -9 0 -15 -9 -15 -25 l0 -25 -350 0
-350 0 0 25 c0 16 -6 25 -15 25 -9 0 -15 -9 -15 -25 l0 -25 -430 0 -430 0 0
25 c0 18 -5 25 -20 25 -15 0 -20 -7 -20 -25 l0 -25 -560 0 -560 0 0 25 c0 16
-6 25 -15 25 -9 0 -15 -9 -15 -25 l0 -25 -800 0 -800 0 0 25 c0 16 -6 25 -15
25 -9 0 -15 -9 -15 -25 l0 -25 -560 0 -560 0 0 218 0 217 63 24 c34 13 105 44
157 68 52 25 102 46 110 48 31 6 176 70 209 92 19 13 41 24 50 25 9 0 21 2 26
2 24 3 181 70 190 81 17 20 92 54 101 46 12 -11 194 68 194 84 0 15 76 46 96
38 19 -7 193 68 188 82 -7 16 78 54 96 43 22 -14 190 58 190 81 0 24 78 56 96
40 20 -17 197 59 191 82 -3 11 9 23 40 38 41 20 46 20 57 6 10 -14 21 -11 104
22 87 36 112 58 75 65 -26 5 702 320 735 318 4 -1 -7 -9 -25 -18 -20 -11 -29
-22 -25 -29 11 -18 186 58 190 83 4 25 90 60 98 39 4 -10 28 -4 97 25 50 21
93 43 95 50 5 14 68 40 99 40 13 0 74 22 136 49 143 63 163 71 1227 456 223
80 470 170 550 199 80 30 154 56 165 59 11 3 79 24 150 46 120 37 277 85 595
181 69 21 184 57 255 79 81 25 304 74 590 130 434 85 505 96 1275 195 l815
105 595 36 c592 35 599 35 1378 35 688 0 782 2 782 15 0 13 -95 15 -797 15
-796 0 -799 0 -1383 -35 l-585 -36 -815 -105 c-684 -88 -869 -116 -1150 -170
-431 -84 -390 -77 -363 -65 14 6 21 16 17 25 -5 12 -16 11 -72 -10 -37 -14
-85 -33 -107 -43 -22 -10 -60 -24 -85 -30 -25 -7 -119 -35 -210 -63 -162 -49
-242 -74 -585 -178 -93 -29 -206 -63 -250 -77 -44 -13 -150 -49 -235 -80 -85
-31 -209 -75 -275 -98 -66 -24 -133 -48 -150 -55 -29 -12 -170 -62 -445 -160
-74 -27 -157 -57 -185 -68 -27 -11 -81 -30 -120 -43 -38 -12 -105 -37 -148
-56 -43 -18 -85 -33 -93 -33 -7 0 -71 -23 -141 -51 -71 -28 -344 -131 -608
-229 -384 -143 -590 -227 -1030 -420 -779 -342 -1963 -861 -2070 -905 -49 -21
-94 -42 -100 -47 -5 -4 -13 -8 -17 -8 -4 0 -8 151 -8 335 l0 335 25 0 c16 0
25 6 25 15 0 9 -9 15 -25 15 l-25 0 0 575 0 575 25 0 c16 0 25 6 25 15 0 9 -9
15 -25 15 l-25 0 0 570 0 570 25 0 c16 0 25 6 25 15 0 9 -9 15 -25 15 l-25 0
0 570 0 570 25 0 c16 0 25 6 25 15 0 9 -9 15 -25 15 l-25 0 0 570 0 570 25 0
c16 0 25 6 25 15 0 9 -9 15 -25 15 l-25 0 0 575 0 575 25 0 c16 0 25 6 25 15
0 9 -9 15 -25 15 l-25 0 0 570 0 570 25 0 c16 0 25 6 25 15 0 21 -66 21 -74
-1z m2214 -6809 c-14 -8 -29 -14 -35 -14 -5 0 1 6 15 14 14 8 30 14 35 14 6 0
-1 -6 -15 -14z"/>
<path d="M1367 9744 c-12 -12 -8 -42 6 -47 21 -8 39 8 35 29 -3 19 -29 30 -41
18z"/>
<path d="M1628 8876 c-26 -7 -63 -25 -83 -41 -109 -83 -96 -289 20 -311 38 -7
86 14 109 48 30 43 17 134 -23 165 -20 16 -76 16 -103 2 -18 -10 -20 -9 -15 6
4 9 7 20 7 25 0 20 58 75 97 92 24 10 43 21 43 23 0 3 -1 5 -2 4 -2 0 -24 -6
-50 -13z m-9 -165 c26 -26 34 -81 19 -127 -11 -33 -18 -39 -44 -42 -45 -4 -67
26 -72 100 -4 51 -2 64 14 75 25 18 61 16 83 -6z"/>
<path d="M1134 8862 c-73 -59 -81 -230 -14 -305 37 -41 95 -44 135 -7 35 33
59 119 51 183 -13 94 -54 147 -116 147 -19 0 -45 -8 -56 -18z m89 -10 c40 -43
47 -215 12 -282 -21 -41 -68 -43 -89 -2 -34 66 -28 241 11 284 21 23 45 23 66
0z"/>
<path d="M14013 8795 c-7 -21 -2 -25 25 -18 12 3 22 12 22 19 0 19 -39 18 -47
-1z"/>
<path d="M13903 8769 c-28 -10 -21 -39 8 -32 24 7 30 15 21 30 -4 6 -15 7 -29
2z"/>
<path d="M13778 8733 c-18 -5 -25 -33 -9 -33 21 0 41 13 41 26 0 14 -3 15 -32
7z"/>
<path d="M13643 8692 c-7 -4 -9 -13 -5 -19 9 -15 54 -5 49 11 -5 14 -28 18
-44 8z"/>
<path d="M13533 8660 c-31 -12 -29 -30 2 -30 18 0 25 5 25 20 0 11 -1 20 -2
19 -2 0 -13 -4 -25 -9z"/>
<path d="M13398 8623 c-20 -5 -23 -18 -8 -28 15 -9 52 5 47 18 -4 13 -16 16
-39 10z"/>
<path d="M13273 8583 c-15 -5 -18 -33 -4 -33 21 0 41 13 41 26 0 14 -14 17
-37 7z"/>
<path d="M1367 8574 c-12 -12 -8 -42 6 -47 21 -8 39 8 35 29 -3 19 -29 30 -41
18z"/>
<path d="M13153 8543 c-15 -5 -18 -33 -4 -33 21 0 41 13 41 26 0 14 -14 17
-37 7z"/>
<path d="M13028 8503 c-20 -5 -23 -18 -8 -28 17 -11 49 5 43 21 -5 15 -6 15
-35 7z"/>
<path d="M12908 8463 c-18 -5 -25 -33 -9 -33 21 0 41 13 41 26 0 14 -3 15 -32
7z"/>
<path d="M12783 8423 c-7 -2 -13 -11 -13 -19 0 -8 6 -14 13 -14 21 0 40 17 33
29 -8 12 -13 12 -33 4z"/>
<path d="M12658 8383 c-21 -5 -24 -33 -4 -33 27 0 45 12 39 26 -5 14 -6 15
-35 7z"/>
<path d="M12538 8343 c-10 -2 -18 -11 -18 -19 0 -22 44 -14 48 9 4 17 1 18
-30 10z"/>
<path d="M12413 8299 c-28 -10 -21 -39 8 -32 24 7 30 15 21 30 -4 6 -15 7 -29
2z"/>
<path d="M12280 8250 c-21 -13 -1 -31 27 -24 13 4 20 11 16 20 -6 16 -22 18
-43 4z"/>
<path d="M12165 8207 c-24 -18 -11 -41 16 -27 10 6 19 17 19 25 0 19 -11 19
-35 2z"/>
<path d="M12043 8163 c-15 -5 -18 -33 -4 -33 21 0 41 13 41 26 0 14 -14 17
-37 7z"/>
<path d="M11923 8119 c-28 -10 -21 -39 8 -32 11 3 22 10 25 15 10 16 -10 26
-33 17z"/>
<path d="M11798 8073 c-19 -5 -24 -18 -10 -27 14 -8 53 6 49 17 -4 13 -16 16
-39 10z"/>
<path d="M11682 8029 c-28 -10 -24 -36 4 -31 25 5 35 15 26 28 -5 8 -15 8 -30
3z"/>
<path d="M11553 7983 c-15 -5 -18 -33 -4 -33 21 0 41 13 41 26 0 14 -14 17
-37 7z"/>
<path d="M11438 7939 c-18 -10 -25 -39 -10 -39 5 0 17 6 28 14 24 18 8 40 -18
25z"/>
<path d="M11308 7892 c-26 -11 -6 -36 21 -27 12 4 20 12 18 18 -4 14 -18 17
-39 9z"/>
<path d="M11180 7840 c-10 -6 -12 -12 -5 -19 13 -13 57 -2 52 13 -5 15 -29 18
-47 6z"/>
<path d="M11072 7797 c-22 -10 -25 -28 -6 -34 16 -5 44 21 36 33 -5 8 -14 8
-30 1z"/>
<path d="M10952 7747 c-22 -10 -25 -28 -6 -34 16 -5 44 21 36 33 -5 8 -14 8
-30 1z"/>
<path d="M1134 7692 c-73 -59 -81 -230 -14 -305 37 -41 95 -44 135 -7 35 33
59 119 51 183 -13 94 -54 147 -116 147 -19 0 -45 -8 -56 -18z m89 -10 c40 -43
47 -215 12 -282 -21 -41 -68 -43 -89 -2 -34 66 -28 241 11 284 21 23 45 23 66
0z"/>
<path d="M1597 7703 l-57 -4 -25 -49 c-34 -67 -32 -76 15 -84 23 -3 54 -18 71
-34 26 -24 32 -36 32 -72 0 -35 -6 -48 -27 -67 -32 -27 -45 -28 -72 -8 -25 19
-64 19 -64 0 0 -36 64 -44 127 -16 49 23 73 62 73 120 0 52 -46 107 -96 117
-39 7 -47 15 -38 38 5 12 20 16 58 16 29 0 57 5 64 12 13 13 16 39 5 36 -5 -1
-34 -3 -66 -5z"/>
<path d="M10832 7697 c-26 -12 -24 -34 4 -29 25 5 35 15 26 28 -5 8 -14 8 -30
1z"/>
<path d="M10712 7649 c-28 -10 -24 -36 4 -31 25 5 35 15 26 28 -5 8 -15 8 -30
3z"/>
<path d="M10593 7599 c-23 -8 -30 -24 -15 -33 4 -2 17 1 29 7 29 16 16 38 -14
26z"/>
<path d="M10472 7547 c-22 -10 -25 -28 -6 -34 16 -5 44 21 36 33 -5 8 -14 8
-30 1z"/>
<path d="M10348 7489 c-9 -5 -15 -16 -12 -24 5 -11 11 -12 30 -3 14 6 23 16
21 22 -5 14 -20 17 -39 5z"/>
<path d="M10223 7425 c-7 -21 -2 -25 25 -18 12 3 22 12 22 19 0 19 -39 18 -47
-1z"/>
<path d="M1367 7404 c-12 -12 -8 -42 6 -47 21 -8 39 8 35 29 -3 19 -29 30 -41
18z"/>
<path d="M10115 7377 c-24 -18 -11 -41 16 -27 10 6 19 17 19 25 0 19 -11 19
-35 2z"/>
<path d="M9990 7320 c-11 -6 -12 -12 -4 -20 13 -13 44 -2 44 16 0 16 -18 18
-40 4z"/>
<path d="M9878 7269 c-9 -5 -15 -16 -12 -24 4 -11 11 -11 29 -3 14 6 21 16 18
24 -6 16 -12 17 -35 3z"/>
<path d="M9758 7212 c-26 -11 -6 -36 21 -27 12 4 20 12 18 18 -4 14 -18 17
-39 9z"/>
<path d="M9643 7157 c-15 -8 -19 -17 -14 -26 7 -10 13 -11 30 -2 21 12 27 26
13 35 -4 2 -17 -1 -29 -7z"/>
<path d="M9523 7103 c-15 -5 -18 -33 -4 -33 21 0 41 13 41 26 0 14 -14 17 -37
7z"/>
<path d="M9412 7049 c-28 -10 -24 -36 4 -31 25 5 35 15 26 28 -5 8 -15 8 -30
3z"/>
<path d="M9286 6987 c-13 -10 -16 -16 -7 -21 15 -10 53 3 48 17 -5 17 -21 18
-41 4z"/>
<path d="M9173 6937 c-15 -8 -19 -17 -14 -26 7 -10 13 -11 30 -2 21 12 27 26
13 35 -4 2 -17 -1 -29 -7z"/>
<path d="M9053 6883 c-15 -5 -18 -33 -4 -33 21 0 41 13 41 26 0 14 -14 17 -37
7z"/>
<path d="M8930 6820 c-11 -6 -12 -12 -4 -20 13 -13 44 -2 44 16 0 16 -18 18
-40 4z"/>
<path d="M8827 6769 c-20 -12 -23 -39 -3 -39 19 0 36 23 28 37 -5 8 -13 8 -25
2z"/>
<path d="M8700 6700 c-11 -6 -12 -12 -4 -20 13 -13 44 -2 44 16 0 16 -18 18
-40 4z"/>
<path d="M8592 6647 c-22 -10 -25 -28 -6 -34 16 -5 44 21 36 33 -5 8 -14 8
-30 1z"/>
<path d="M8473 6583 c-15 -5 -18 -33 -4 -33 21 0 41 13 41 26 0 14 -14 17 -37
7z"/>
<path d="M1134 6522 c-73 -59 -81 -230 -14 -305 37 -41 95 -44 135 -7 35 33
59 119 51 183 -13 94 -54 147 -116 147 -19 0 -45 -8 -56 -18z m89 -10 c40 -43
47 -215 12 -282 -21 -41 -68 -43 -89 -2 -34 66 -28 241 11 284 21 23 45 23 66
0z"/>
<path d="M1541 6432 c-41 -59 -77 -117 -79 -129 -4 -22 -2 -23 67 -23 l71 0 0
-45 c0 -38 3 -45 20 -45 17 0 20 7 20 45 0 43 1 45 30 45 20 0 30 5 30 15 0
10 -10 15 -30 15 l-30 0 0 115 c0 86 -3 115 -12 114 -7 0 -46 -48 -87 -107z
m56 -119 c-3 -2 -30 -3 -61 -1 l-56 3 58 82 57 82 3 -81 c2 -44 1 -82 -1 -85z"/>
<path d="M8362 6527 c-22 -10 -25 -28 -6 -34 16 -5 44 21 36 33 -5 8 -14 8
-30 1z"/>
<path d="M8243 6463 c-15 -5 -18 -33 -4 -33 21 0 41 13 41 26 0 14 -14 17 -37
7z"/>
<path d="M8128 6399 c-9 -5 -15 -16 -12 -24 5 -11 11 -12 30 -3 14 6 23 16 21
22 -5 14 -20 17 -39 5z"/>
<path d="M13948 6342 c-55 -17 -88 -32 -88 -41 0 -16 26 -12 132 20 44 13 68
25 68 34 0 19 -8 18 -112 -13z"/>
<path d="M8016 6335 c-14 -11 -17 -18 -9 -26 15 -15 54 6 47 26 -7 18 -14 18
-38 0z"/>
<path d="M7900 6265 c-6 -8 -9 -19 -5 -24 8 -13 45 9 45 26 0 18 -25 16 -40
-2z"/>
<path d="M13700 6270 c-14 -5 -51 -16 -82 -25 -36 -10 -58 -22 -58 -31 0 -18
-1 -18 107 12 59 17 93 32 93 40 0 16 -22 17 -60 4z"/>
<path d="M1367 6234 c-12 -12 -8 -42 6 -47 21 -8 39 8 35 29 -3 19 -29 30 -41
18z"/>
<path d="M7793 6207 c-15 -8 -19 -17 -14 -26 7 -10 13 -11 30 -2 21 12 27 26
13 35 -4 2 -17 -1 -29 -7z"/>
<path d="M13355 6171 c-63 -19 -91 -32 -93 -44 -2 -9 -2 -17 0 -17 2 0 46 13
98 28 67 20 96 33 98 45 4 21 7 21 -103 -12z"/>
<path d="M7678 6139 c-9 -5 -15 -16 -12 -24 5 -11 11 -12 30 -3 14 6 23 16 21
22 -5 14 -20 17 -39 5z"/>
<path d="M13048 6082 c-59 -17 -88 -30 -88 -40 0 -17 25 -13 132 19 44 13 68
25 68 34 0 19 -7 18 -112 -13z"/>
<path d="M7566 6075 c-10 -8 -15 -18 -11 -24 8 -14 17 -14 39 2 15 11 15 15 4
24 -10 8 -18 8 -32 -2z"/>
<path d="M7454 6006 c-13 -10 -16 -18 -8 -25 7 -8 16 -7 30 3 13 10 16 18 8
25 -7 8 -16 7 -30 -3z"/>
<path d="M12815 6015 c-5 -2 -43 -13 -82 -25 -51 -14 -73 -26 -73 -37 0 -10 6
-14 18 -10 9 2 54 15 100 27 51 14 82 28 82 37 0 12 -22 16 -45 8z"/>
<path d="M7340 5935 c-9 -10 -10 -19 -4 -25 13 -13 49 13 40 28 -10 16 -21 15
-36 -3z"/>
<path d="M12455 5911 c-63 -19 -91 -32 -93 -44 -2 -9 -2 -17 0 -17 2 0 46 13
98 29 65 19 96 34 98 45 4 20 7 20 -103 -13z"/>
<path d="M7226 5867 c-13 -10 -16 -16 -7 -21 15 -10 53 3 48 17 -5 17 -21 18
-41 4z"/>
<path d="M12153 5819 c-63 -20 -93 -35 -93 -44 0 -17 5 -16 121 19 49 15 75
28 77 39 4 21 5 21 -105 -14z"/>
<path d="M7119 5801 c-22 -18 -23 -20 -6 -27 23 -8 50 15 38 34 -6 10 -13 9
-32 -7z"/>
<path d="M11853 5728 c-60 -19 -93 -34 -93 -44 0 -18 0 -18 105 14 62 19 91
33 93 45 4 21 7 21 -105 -15z"/>
<path d="M7006 5735 c-14 -11 -17 -18 -9 -26 15 -15 54 6 47 26 -7 18 -14 18
-38 0z"/>
<path d="M6894 5666 c-14 -11 -16 -18 -8 -26 15 -15 54 8 47 27 -7 17 -15 16
-39 -1z"/>
<path d="M11630 5660 c-14 -5 -58 -19 -97 -30 -46 -14 -73 -27 -73 -36 0 -18
0 -18 107 13 71 22 93 32 93 46 0 9 -1 17 -2 16 -2 0 -14 -4 -28 -9z"/>
<path d="M6785 5596 c-29 -21 -6 -43 24 -24 21 13 23 29 5 35 -5 2 -19 -3 -29
-11z"/>
<path d="M11315 5565 c-22 -8 -66 -21 -97 -30 -36 -10 -58 -22 -58 -31 0 -18
-1 -18 107 12 75 22 93 30 93 45 0 11 -1 19 -2 18 -2 0 -21 -7 -43 -14z"/>
<path d="M6676 5525 c-14 -11 -17 -18 -9 -26 13 -13 56 6 50 24 -5 17 -20 18
-41 2z"/>
<path d="M10960 5461 c-62 -18 -95 -33 -95 -42 0 -17 15 -15 122 17 62 19 81
28 76 39 -3 8 -6 15 -7 14 0 0 -44 -13 -96 -28z"/>
<path d="M6573 5457 c-15 -8 -19 -17 -14 -26 7 -10 13 -11 30 -2 21 12 27 26
13 35 -4 2 -17 -1 -29 -7z"/>
<path d="M6468 5389 c-21 -12 -24 -39 -4 -39 7 0 19 7 26 15 17 21 1 37 -22
24z"/>
<path d="M10648 5372 c-54 -15 -88 -31 -88 -39 0 -18 11 -17 116 13 68 19 91
30 87 40 -6 18 -9 17 -115 -14z"/>
<path d="M1134 5342 c-73 -59 -81 -230 -14 -305 37 -41 95 -44 135 -7 35 33
59 119 51 183 -13 94 -54 147 -116 147 -19 0 -45 -8 -56 -18z m89 -10 c40 -43
47 -215 12 -282 -21 -41 -68 -43 -89 -2 -34 66 -28 241 11 284 21 23 45 23 66
0z"/>
<path d="M1509 5331 c-16 -16 -29 -34 -29 -40 0 -5 11 1 25 14 37 38 89 32
106 -11 12 -34 -7 -70 -50 -91 l-36 -17 32 -6 c62 -10 94 -59 74 -113 -16 -43
-52 -54 -101 -32 -29 13 -44 15 -51 8 -29 -29 37 -50 99 -33 57 15 92 59 92
116 0 36 -5 50 -26 69 l-26 24 21 27 c27 35 27 59 -4 89 -35 36 -88 34 -126
-4z"/>
<path d="M6358 5316 c-10 -7 -18 -18 -18 -25 0 -16 25 -14 40 4 18 22 0 37
-22 21z"/>
<path d="M10400 5300 c-14 -5 -51 -16 -82 -25 -39 -11 -58 -22 -58 -32 0 -10
6 -14 18 -10 9 2 54 15 100 27 51 14 82 28 82 37 0 15 -22 16 -60 3z"/>
<path d="M6241 5241 c-8 -5 -11 -16 -8 -25 6 -14 10 -14 27 -4 22 14 27 38 8
38 -7 0 -19 -4 -27 -9z"/>
<path d="M10055 5201 c-63 -19 -91 -32 -93 -44 -2 -9 -2 -17 0 -17 2 0 46 13
98 28 67 20 96 33 98 45 4 21 7 21 -103 -12z"/>
<path d="M6130 5165 c-6 -8 -9 -19 -5 -25 9 -14 45 6 45 25 0 19 -24 19 -40 0z"/>
<path d="M9748 5112 c-54 -15 -88 -31 -88 -39 0 -17 13 -16 75 2 28 9 67 20
88 26 21 5 37 16 37 24 0 19 -7 18 -112 -13z"/>
<path d="M6025 5097 c-24 -18 -11 -41 16 -27 10 6 19 17 19 25 0 19 -11 19
-35 2z"/>
<path d="M1367 5054 c-12 -12 -8 -42 6 -47 21 -8 39 8 35 29 -3 19 -29 30 -41
18z"/>
<path d="M9463 5011 c-51 -20 -93 -41 -93 -48 0 -19 17 -16 105 18 91 36 97
40 87 55 -5 7 -38 -2 -99 -25z"/>
<path d="M5916 5025 c-14 -11 -17 -18 -9 -26 14 -14 53 9 46 28 -6 16 -13 16
-37 -2z"/>
<path d="M5812 4951 c-20 -15 -21 -19 -9 -29 11 -9 17 -8 30 6 24 26 7 45 -21
23z"/>
<path d="M9165 4894 c-49 -19 -90 -36 -92 -37 -1 -2 2 -8 6 -15 11 -17 200 57
194 76 -6 16 -5 16 -108 -24z"/>
<path d="M5704 4876 c-15 -12 -17 -17 -6 -27 10 -11 15 -10 29 4 24 23 4 43
-23 23z"/>
<path d="M5592 4797 c-6 -7 -8 -18 -3 -25 5 -9 12 -8 29 4 23 16 21 34 -2 34
-8 0 -18 -6 -24 -13z"/>
<path d="M5488 4727 c-25 -20 -7 -43 21 -27 22 11 24 31 5 37 -5 1 -17 -3 -26
-10z"/>
<path d="M5386 4655 c-11 -8 -16 -21 -12 -30 5 -13 9 -13 26 -3 20 13 26 33
12 42 -4 2 -16 -2 -26 -9z"/>
<path d="M5275 4576 c-29 -21 -6 -43 24 -24 21 13 23 29 5 35 -5 2 -19 -3 -29
-11z"/>
<path d="M5169 4501 c-22 -18 -23 -20 -6 -27 23 -9 56 21 41 36 -8 8 -18 5
-35 -9z"/>
<path d="M5060 4425 c-6 -8 -9 -19 -5 -25 9 -14 45 6 45 25 0 19 -24 19 -40 0z"/>
<path d="M4956 4355 c-14 -11 -17 -18 -9 -26 15 -15 54 6 47 26 -7 18 -14 18
-38 0z"/>
<path d="M4846 4277 c-15 -11 -15 -15 -4 -24 16 -14 54 9 43 26 -8 14 -17 14
-39 -2z"/>
<path d="M4746 4204 c-16 -11 -17 -17 -8 -26 9 -9 16 -8 29 5 23 23 5 41 -21
21z"/>
<path d="M1134 4172 c-73 -59 -81 -230 -14 -305 37 -41 95 -44 135 -7 35 33
59 119 51 183 -13 94 -54 147 -116 147 -19 0 -45 -8 -56 -18z m89 -10 c40 -43
47 -215 12 -282 -21 -41 -68 -43 -89 -2 -34 66 -28 241 11 284 21 23 45 23 66
0z"/>
<path d="M1504 4156 c-19 -19 -34 -42 -34 -52 0 -15 6 -12 26 14 48 60 129 33
127 -43 -1 -45 -39 -108 -102 -170 -28 -27 -51 -53 -51 -57 0 -4 44 -8 98 -8
96 0 99 1 110 25 15 32 15 57 1 33 -8 -15 -24 -18 -87 -18 l-76 0 51 53 c108
111 129 173 74 228 -42 42 -92 40 -137 -5z"/>
<path d="M4638 4127 c-10 -8 -13 -18 -9 -26 7 -10 12 -10 30 1 21 13 24 29 5
35 -5 1 -17 -3 -26 -10z"/>
<path d="M4536 4055 c-11 -8 -16 -21 -12 -30 5 -13 9 -13 26 -3 20 13 26 33
12 42 -4 2 -16 -2 -26 -9z"/>
<path d="M4426 3975 c-14 -11 -17 -18 -9 -26 14 -14 53 9 46 28 -6 16 -13 16
-37 -2z"/>
<path d="M4317 3896 c-14 -11 -15 -16 -5 -24 16 -13 53 11 43 27 -8 14 -16 13
-38 -3z"/>
<path d="M1367 3884 c-12 -12 -8 -42 6 -47 21 -8 39 8 35 29 -3 19 -29 30 -41
18z"/>
<path d="M4216 3821 c-21 -23 -5 -37 24 -21 17 9 19 14 9 26 -14 17 -13 18
-33 -5z"/>
<path d="M4108 3747 c-25 -20 -7 -43 21 -27 22 11 24 31 5 37 -5 1 -17 -3 -26
-10z"/>
<path d="M4000 3665 c-6 -8 -9 -19 -5 -25 9 -14 45 6 45 25 0 19 -24 19 -40 0z"/>
<path d="M3899 3591 c-22 -18 -23 -20 -6 -27 23 -9 56 21 41 36 -8 8 -18 5
-35 -9z"/>
<path d="M3794 3516 c-15 -12 -17 -17 -6 -27 10 -11 15 -10 29 4 24 23 4 43
-23 23z"/>
<path d="M3686 3437 c-15 -11 -15 -15 -4 -24 16 -14 54 9 43 26 -8 14 -17 14
-39 -2z"/>
<path d="M3587 3362 c-24 -26 -7 -45 21 -23 20 15 21 19 9 29 -11 9 -17 8 -30
-6z"/>
<path d="M4775 3291 c-56 -23 -91 -44 -93 -54 -2 -10 -2 -17 1 -17 12 0 188
78 188 84 1 22 -15 20 -96 -13z"/>
<path d="M3482 3288 c-14 -14 -16 -38 -4 -38 18 0 45 28 38 38 -9 15 -19 15
-34 0z"/>
<path d="M3370 3205 c-6 -8 -9 -19 -5 -25 9 -14 45 6 45 25 0 19 -24 19 -40 0z"/>
<path d="M4486 3169 c-101 -44 -103 -46 -90 -59 7 -7 39 2 95 26 95 41 101 45
91 60 -5 8 -35 -1 -96 -27z"/>
<path d="M3272 3131 c-20 -15 -21 -19 -9 -29 11 -9 17 -8 30 6 24 26 7 45 -21
23z"/>
<path d="M3164 3056 c-14 -11 -16 -17 -7 -26 9 -10 16 -9 32 2 18 13 19 17 8
26 -10 9 -18 8 -33 -2z"/>
<path d="M1134 3002 c-73 -59 -81 -230 -14 -305 37 -41 95 -44 135 -7 35 33
59 119 51 183 -13 94 -54 147 -116 147 -19 0 -45 -8 -56 -18z m89 -10 c40 -43
47 -215 12 -282 -21 -41 -68 -43 -89 -2 -34 66 -28 241 11 284 21 23 45 23 66
0z"/>
<path d="M1550 2995 c-35 -19 -40 -24 -20 -22 l25 2 0 -145 0 -144 -25 -7
c-15 -4 4 -7 50 -7 54 -1 69 2 53 8 -23 9 -23 13 -23 175 0 91 -3 165 -7 165
-5 -1 -28 -12 -53 -25z"/>
<path d="M3051 2976 c-8 -10 -9 -16 -2 -21 14 -8 53 13 46 26 -9 13 -31 11
-44 -5z"/>
<path d="M2947 2908 c-10 -8 -13 -18 -9 -25 6 -10 13 -9 30 3 12 8 20 20 17
25 -8 12 -18 11 -38 -3z"/>
<path d="M2838 2837 c-25 -20 -7 -43 21 -27 22 11 24 31 5 37 -5 1 -17 -3 -26
-10z"/>
<path d="M2738 2769 c-21 -12 -24 -39 -4 -39 7 0 19 7 26 15 17 21 1 37 -22
24z"/>
<path d="M1367 2714 c-12 -12 -8 -42 6 -47 21 -8 39 8 35 29 -3 19 -29 30 -41
18z"/>
<path d="M2627 2696 c-18 -14 -23 -36 -8 -36 20 0 41 13 41 25 0 21 -13 25
-33 11z"/>
<path d="M2510 2615 c-20 -24 1 -38 28 -19 23 16 21 34 -2 34 -8 0 -19 -7 -26
-15z"/>
<path d="M2405 2546 c-29 -21 -6 -43 24 -24 21 13 23 29 5 35 -5 2 -19 -3 -29
-11z"/>
<path d="M2296 2475 c-14 -11 -17 -18 -9 -26 13 -13 56 6 50 24 -5 17 -20 18
-41 2z"/>
<path d="M2198 2409 c-21 -12 -24 -39 -4 -39 7 0 19 7 26 15 17 21 1 37 -22
24z"/>
<path d="M2080 2325 c-6 -8 -9 -19 -5 -24 8 -13 45 9 45 26 0 18 -25 16 -40
-2z"/>
<path d="M1524 1832 c-73 -59 -81 -230 -14 -305 37 -41 95 -44 135 -7 35 33
59 119 51 183 -13 94 -54 147 -116 147 -19 0 -45 -8 -56 -18z m89 -10 c40 -43
47 -215 12 -282 -21 -41 -68 -43 -89 -2 -34 66 -28 241 11 284 21 23 45 23 66
0z"/>
<path d="M7638 1326 c-26 -7 -63 -25 -83 -41 -109 -83 -96 -289 20 -311 38 -7
86 14 109 48 30 43 17 134 -23 165 -20 16 -76 16 -103 2 -18 -10 -20 -9 -15 6
4 9 7 20 7 25 0 20 58 75 97 92 24 10 43 21 43 23 0 3 -1 5 -2 4 -2 0 -24 -6
-50 -13z m-9 -165 c26 -26 34 -81 19 -127 -11 -33 -18 -39 -44 -42 -45 -4 -67
26 -72 100 -4 51 -2 64 14 75 25 18 61 16 83 -6z"/>
<path d="M1800 1305 c-35 -19 -40 -24 -20 -22 l25 2 0 -145 0 -144 -25 -7
c-15 -4 4 -7 50 -7 54 -1 69 2 53 8 -23 9 -23 13 -23 175 0 91 -3 165 -7 165
-5 -1 -28 -12 -53 -25z"/>
<path d="M2237 1323 l-57 -4 -25 -49 c-34 -67 -32 -76 15 -84 23 -3 54 -18 71
-34 26 -24 32 -36 32 -72 0 -35 -6 -48 -27 -67 -32 -27 -45 -28 -72 -8 -25 19
-64 19 -64 0 0 -36 64 -44 127 -16 49 23 73 62 73 120 0 52 -46 107 -96 117
-39 7 -47 15 -38 38 5 12 20 16 58 16 29 0 57 5 64 12 13 13 16 39 5 36 -5 -1
-34 -3 -66 -5z"/>
<path d="M3104 1296 c-19 -19 -34 -42 -34 -52 0 -15 6 -12 26 14 48 60 129 33
127 -43 -1 -45 -39 -108 -102 -170 -28 -27 -51 -53 -51 -57 0 -4 44 -8 98 -8
96 0 99 1 110 25 15 32 15 57 1 33 -8 -15 -24 -18 -87 -18 l-76 0 51 53 c108
111 129 173 74 228 -42 42 -92 40 -137 -5z"/>
<path d="M4739 1301 c-16 -16 -29 -34 -29 -40 0 -5 11 1 25 14 37 38 89 32
106 -11 12 -34 -7 -70 -50 -91 l-36 -17 32 -6 c62 -10 94 -59 74 -113 -16 -43
-52 -54 -101 -32 -29 13 -44 15 -51 8 -29 -29 37 -50 99 -33 57 15 92 59 92
116 0 36 -5 50 -26 69 l-26 24 21 27 c27 35 27 59 -4 89 -35 36 -88 34 -126
-4z"/>
<path d="M5921 1222 c-41 -59 -77 -117 -79 -129 -4 -22 -2 -23 67 -23 l71 0 0
-45 c0 -38 3 -45 20 -45 17 0 20 7 20 45 0 43 1 45 30 45 20 0 30 5 30 15 0
10 -10 15 -30 15 l-30 0 0 115 c0 86 -3 115 -12 114 -7 0 -46 -48 -87 -107z
m56 -119 c-3 -2 -30 -3 -61 -1 l-56 3 58 82 57 82 3 -81 c2 -44 1 -82 -1 -85z"/>
<path d="M6877 1323 l-57 -4 -25 -49 c-34 -67 -32 -76 15 -84 23 -3 54 -18 71
-34 26 -24 32 -36 32 -72 0 -35 -6 -48 -27 -67 -32 -27 -45 -28 -72 -8 -25 19
-64 19 -64 0 0 -36 64 -44 127 -16 49 23 73 62 73 120 0 52 -46 107 -96 117
-39 7 -47 15 -38 38 5 12 20 16 58 16 29 0 57 5 64 12 13 13 16 39 5 36 -5 -1
-34 -3 -66 -5z"/>
<path d="M8679 1301 c-40 -40 -36 -73 13 -127 19 -21 19 -22 -11 -52 -38 -38
-41 -80 -7 -119 21 -24 31 -28 77 -27 44 0 56 5 76 28 37 44 28 98 -25 143
l-26 22 32 29 c39 37 42 73 7 107 -36 37 -97 35 -136 -4z m99 3 c30 -21 30
-73 -2 -103 l-23 -22 -32 36 c-36 42 -38 58 -11 85 24 24 38 25 68 4z m-4
-198 c56 -52 43 -116 -24 -116 -35 0 -60 31 -60 75 0 31 24 75 40 75 5 0 25
-15 44 -34z"/>
<path d="M9480 1305 c-35 -19 -40 -24 -20 -22 l25 2 0 -145 0 -144 -25 -7
c-15 -4 4 -7 50 -7 54 -1 69 2 53 8 -23 9 -23 13 -23 175 0 91 -3 165 -7 165
-5 -1 -28 -12 -53 -25z"/>
<path d="M9714 1312 c-73 -59 -81 -230 -14 -305 37 -41 95 -44 135 -7 35 33
59 119 51 183 -13 94 -54 147 -116 147 -19 0 -45 -8 -56 -18z m89 -10 c40 -43
47 -215 12 -282 -21 -41 -68 -43 -89 -2 -34 66 -28 241 11 284 21 23 45 23 66
0z"/>
<path d="M11110 1305 c-35 -19 -40 -24 -20 -22 l25 2 0 -145 0 -144 -25 -7
c-15 -4 4 -7 50 -7 54 -1 69 2 53 8 -23 9 -23 13 -23 175 0 91 -3 165 -7 165
-5 -1 -28 -12 -53 -25z"/>
<path d="M11417 1323 l-57 -4 -25 -49 c-34 -67 -32 -76 15 -84 23 -3 54 -18
71 -34 26 -24 32 -36 32 -72 0 -35 -6 -48 -27 -67 -32 -27 -45 -28 -72 -8 -25
19 -64 19 -64 0 0 -36 64 -44 127 -16 49 23 73 62 73 120 0 52 -46 107 -96
117 -39 7 -47 15 -38 38 5 12 20 16 58 16 29 0 57 5 64 12 13 13 16 39 5 36
-5 -1 -34 -3 -66 -5z"/>
<path d="M12224 1296 c-19 -19 -34 -42 -34 -52 0 -15 6 -12 26 14 48 60 129
33 127 -43 -1 -45 -39 -108 -102 -170 -28 -27 -51 -53 -51 -57 0 -4 44 -8 98
-8 96 0 99 1 110 25 15 32 15 57 1 33 -8 -15 -24 -18 -87 -18 l-76 0 51 53
c108 111 129 173 74 228 -42 42 -92 40 -137 -5z"/>
<path d="M12504 1312 c-73 -59 -81 -230 -14 -305 37 -41 95 -44 135 -7 35 33
59 119 51 183 -13 94 -54 147 -116 147 -19 0 -45 -8 -56 -18z m89 -10 c40 -43
47 -215 12 -282 -21 -41 -68 -43 -89 -2 -34 66 -28 241 11 284 21 23 45 23 66
0z"/>
<path d="M13859 1301 c-16 -16 -29 -34 -29 -40 0 -5 11 1 25 14 37 38 89 32
106 -11 12 -34 -7 -70 -50 -91 l-36 -17 32 -6 c62 -10 94 -59 74 -113 -16 -43
-52 -54 -101 -32 -29 13 -44 15 -51 8 -29 -29 37 -50 99 -33 57 15 92 59 92
116 0 36 -5 50 -26 69 l-26 24 21 27 c27 35 27 59 -4 89 -35 36 -88 34 -126
-4z"/>
<path d="M14134 1312 c-73 -59 -81 -230 -14 -305 37 -41 95 -44 135 -7 35 33
59 119 51 183 -13 94 -54 147 -116 147 -19 0 -45 -8 -56 -18z m89 -10 c40 -43
47 -215 12 -282 -21 -41 -68 -43 -89 -2 -34 66 -28 241 11 284 21 23 45 23 66
0z"/>
<path d="M8106 1288 c-15 -39 -12 -50 8 -23 11 15 30 20 85 23 39 2 71 0 71
-5 0 -5 -22 -75 -49 -156 -43 -128 -47 -147 -32 -147 14 0 28 34 69 164 29 90
52 167 52 170 0 3 -43 6 -95 6 l-95 0 -14 -32z"/>
<path d="M2007 1024 c-12 -12 -8 -42 6 -47 21 -8 39 8 35 29 -3 19 -29 30 -41
18z"/>
<path d="M7748 543 c-22 -6 -23 -19 -3 -27 12 -4 15 -31 15 -150 0 -165 1
-166 82 -166 75 0 118 50 118 135 0 38 -5 52 -29 76 -16 16 -39 29 -51 29 -24
0 -61 -17 -72 -34 -4 -6 -8 24 -8 67 0 82 -1 83 -52 70z m137 -156 c72 -61 21
-206 -60 -169 -23 11 -25 16 -25 86 0 66 3 77 22 90 29 21 32 20 63 -7z"/>
<path d="M8037 377 c-31 -95 -57 -176 -57 -180 0 -4 6 -7 14 -7 10 0 34 60 74
180 51 152 58 180 44 180 -14 0 -31 -40 -75 -173z"/>
<path d="M8184 417 c-18 -16 -25 -30 -21 -40 10 -27 37 -21 37 8 0 31 32 50
60 35 13 -7 20 -21 20 -39 0 -23 -7 -31 -42 -46 -79 -34 -103 -69 -78 -116 13
-23 66 -26 97 -4 19 13 22 13 27 0 7 -19 50 -19 66 0 10 13 9 15 -9 15 -20 0
-21 5 -21 85 0 72 -3 88 -20 105 -28 28 -82 26 -116 -3z m84 -179 c-7 -4 -24
-7 -38 -6 -21 3 -25 8 -25 37 0 28 6 37 35 52 l35 19 3 -46 c2 -31 -1 -50 -10
-56z"/>
</g>
</svg>
