<?xml version="1.0" standalone="no"?>
<!DOCTYPE svg PUBLIC "-//W3C//DTD SVG 20010904//EN"
 "http://www.w3.org/TR/2001/REC-SVG-20010904/DTD/svg10.dtd">
<svg version="1.0" xmlns="http://www.w3.org/2000/svg"
 width="1500.000000pt" height="1050.000000pt" viewBox="0 0 1500.000000 1050.000000"
 preserveAspectRatio="xMidYMid meet">
<metadata>
Created by potrace 1.11, written by Peter Selinger 2001-2013
</metadata>
<g transform="translate(0.000000,1050.000000) scale(0.100000,-0.100000)"
fill="#000000" stroke="none">
<path d="M1134 10032 c-73 -59 -81 -230 -14 -305 37 -41 95 -44 135 -7 35 33
59 119 51 183 -13 94 -54 147 -116 147 -19 0 -45 -8 -56 -18z m89 -10 c40 -43
47 -215 12 -282 -21 -41 -68 -43 -89 -2 -34 66 -28 241 11 284 21 23 45 23 66
0z"/>
<path d="M1476 10008 c-15 -39 -12 -50 8 -23 11 15 30 20 85 23 39 2 71 0 71
-5 0 -5 -22 -75 -49 -156 -43 -128 -47 -147 -32 -147 14 0 28 34 69 164 29 90
52 167 52 170 0 3 -43 6 -95 6 l-95 0 -14 -32z"/>
<path d="M2026 9874 c-3 -9 -6 -1863 -6 -4120 l0 -4104 6016 0 c5200 0 6017 2
6030 14 22 23 18 66 -6 66 -15 0 -20 -7 -20 -25 l0 -25 -795 0 -795 0 0 25 c0
16 -6 25 -15 25 -9 0 -15 -9 -15 -25 l0 -25 -565 0 -565 0 0 25 c0 16 -6 25
-15 25 -9 0 -15 -9 -15 -25 l0 -25 -800 0 -800 0 0 25 c0 16 -6 25 -15 25 -9
0 -15 -9 -15 -25 l0 -25 -430 0 -430 0 0 25 c0 16 -6 25 -15 25 -9 0 -15 -9
-15 -25 l0 -25 -255 0 -255 0 0 25 c0 16 -6 25 -15 25 -9 0 -15 -9 -15 -25 l0
-25 -295 0 -295 0 0 25 c0 16 -6 25 -15 25 -9 0 -15 -9 -15 -25 l0 -25 -350 0
-350 0 0 25 c0 16 -6 25 -15 25 -9 0 -15 -9 -15 -25 l0 -25 -430 0 -430 0 0
25 c0 18 -5 25 -20 25 -15 0 -20 -7 -20 -25 l0 -25 -560 0 -560 0 0 25 c0 16
-6 25 -15 25 -9 0 -15 -9 -15 -25 l0 -25 -800 0 -800 0 0 25 c0 16 -6 25 -15
25 -9 0 -15 -9 -15 -25 l0 -25 -560 0 -560 0 0 483 1 482 57 36 c31 20 291
189 577 375 566 369 649 416 1057 592 183 79 224 101 218 113 -7 12 9 24 73
56 92 46 538 235 544 230 1 -2 -73 -36 -166 -76 -129 -55 -168 -76 -164 -87 3
-9 11 -13 17 -11 6 3 133 58 283 122 222 96 273 122 275 139 3 18 75 44 578
208 570 186 578 189 1035 293 693 158 1391 276 1420 239 8 -10 46 -6 180 17
293 50 617 65 2120 100 1313 30 1403 31 2600 25 682 -4 1255 -9 1273 -12 27
-5 32 -3 32 13 0 19 -13 20 -457 26 -975 14 -2169 8 -3303 -18 -1154 -26
-1677 -41 -1772 -52 -47 -5 -58 -3 -58 9 0 12 -20 11 -138 -8 -75 -12 -279
-36 -452 -53 -406 -39 -870 -121 -1475 -260 -428 -99 -455 -106 -1010 -287
-514 -168 -607 -201 -950 -345 -268 -112 -461 -200 -655 -300 -151 -78 -297
-152 -325 -164 -27 -12 -117 -59 -198 -104 -81 -44 -154 -81 -162 -81 -17 0
-521 -333 -526 -348 -2 -5 -62 -46 -134 -92 -71 -45 -187 -120 -257 -166 -71
-46 -130 -84 -133 -84 -3 0 -5 25 -5 55 0 30 4 55 10 55 16 0 120 84 120 98 0
20 -20 14 -60 -18 -75 -59 -70 -98 -70 545 l0 575 25 0 c16 0 25 6 25 15 0 9
-9 15 -25 15 l-25 0 0 570 0 570 25 0 c16 0 25 6 25 15 0 9 -9 15 -25 15 l-25
0 0 570 0 570 25 0 c16 0 25 6 25 15 0 9 -9 15 -25 15 l-25 0 0 570 0 570 25
0 c16 0 25 6 25 15 0 9 -9 15 -25 15 l-25 0 0 575 0 575 25 0 c16 0 25 6 25
15 0 9 -9 15 -25 15 l-25 0 0 570 0 570 25 0 c16 0 25 6 25 15 0 21 -66 21
-74 -1z m2664 -5784 c-8 -5 -19 -10 -25 -10 -5 0 -3 5 5 10 8 5 20 10 25 10 6
0 3 -5 -5 -10z m-60 -25 c-14 -8 -29 -14 -35 -14 -5 0 1 6 15 14 14 8 30 14
35 14 6 0 -1 -6 -15 -14z"/>
<path d="M1367 9744 c-12 -12 -8 -42 6 -47 21 -8 39 8 35 29 -3 19 -29 30 -41
18z"/>
<path d="M1628 8876 c-26 -7 -63 -25 -83 -41 -109 -83 -96 -289 20 -311 38 -7
86 14 109 48 30 43 17 134 -23 165 -20 16 -76 16 -103 2 -18 -10 -20 -9 -15 6
4 9 7 20 7 25 0 20 58 75 97 92 24 10 43 21 43 23 0 3 -1 5 -2 4 -2 0 -24 -6
-50 -13z m-9 -165 c26 -26 34 -81 19 -127 -11 -33 -18 -39 -44 -42 -45 -4 -67
26 -72 100 -4 51 -2 64 14 75 25 18 61 16 83 -6z"/>
<path d="M1134 8862 c-73 -59 -81 -230 -14 -305 37 -41 95 -44 135 -7 35 33
59 119 51 183 -13 94 -54 147 -116 147 -19 0 -45 -8 -56 -18z m89 -10 c40 -43
47 -215 12 -282 -21 -41 -68 -43 -89 -2 -34 66 -28 241 11 284 21 23 45 23 66
0z"/>
<path d="M1367 8574 c-12 -12 -8 -42 6 -47 21 -8 39 8 35 29 -3 19 -29 30 -41
18z"/>
<path d="M1134 7692 c-73 -59 -81 -230 -14 -305 37 -41 95 -44 135 -7 35 33
59 119 51 183 -13 94 -54 147 -116 147 -19 0 -45 -8 -56 -18z m89 -10 c40 -43
47 -215 12 -282 -21 -41 -68 -43 -89 -2 -34 66 -28 241 11 284 21 23 45 23 66
0z"/>
<path d="M1597 7703 l-57 -4 -25 -49 c-34 -67 -32 -76 15 -84 23 -3 54 -18 71
-34 26 -24 32 -36 32 -72 0 -35 -6 -48 -27 -67 -32 -27 -45 -28 -72 -8 -25 19
-64 19 -64 0 0 -36 64 -44 127 -16 49 23 73 62 73 120 0 52 -46 107 -96 117
-39 7 -47 15 -38 38 5 12 20 16 58 16 29 0 57 5 64 12 13 13 16 39 5 36 -5 -1
-34 -3 -66 -5z"/>
<path d="M1367 7404 c-12 -12 -8 -42 6 -47 21 -8 39 8 35 29 -3 19 -29 30 -41
18z"/>
<path d="M1134 6522 c-73 -59 -81 -230 -14 -305 37 -41 95 -44 135 -7 35 33
59 119 51 183 -13 94 -54 147 -116 147 -19 0 -45 -8 -56 -18z m89 -10 c40 -43
47 -215 12 -282 -21 -41 -68 -43 -89 -2 -34 66 -28 241 11 284 21 23 45 23 66
0z"/>
<path d="M1541 6432 c-41 -59 -77 -117 -79 -129 -4 -22 -2 -23 67 -23 l71 0 0
-45 c0 -38 3 -45 20 -45 17 0 20 7 20 45 0 43 1 45 30 45 20 0 30 5 30 15 0
10 -10 15 -30 15 l-30 0 0 115 c0 86 -3 115 -12 114 -7 0 -46 -48 -87 -107z
m56 -119 c-3 -2 -30 -3 -61 -1 l-56 3 58 82 57 82 3 -81 c2 -44 1 -82 -1 -85z"/>
<path d="M1367 6234 c-12 -12 -8 -42 6 -47 21 -8 39 8 35 29 -3 19 -29 30 -41
18z"/>
<path d="M13963 5893 c-48 -3 -63 -8 -63 -19 0 -12 14 -14 77 -12 65 3 78 6
81 21 2 11 -2 16 -15 15 -10 -1 -46 -3 -80 -5z"/>
<path d="M13548 5873 c-50 -5 -53 -33 -4 -33 66 0 126 12 126 26 0 14 -35 16
-122 7z"/>
<path d="M13143 5853 c-13 -2 -23 -11 -23 -20 0 -13 9 -15 53 -9 28 3 64 6 80
6 17 0 27 5 27 15 0 12 -12 15 -57 14 -32 -1 -68 -4 -80 -6z"/>
<path d="M12758 5833 c-31 -5 -39 -33 -9 -33 65 0 141 14 141 26 0 14 -65 17
-132 7z"/>
<path d="M12378 5813 c-45 -5 -54 -33 -10 -33 67 0 132 13 132 26 0 14 -35 16
-122 7z"/>
<path d="M12026 5791 c-42 -4 -71 -11 -74 -18 -3 -10 17 -13 77 -13 74 0 81 2
81 20 0 11 -3 19 -7 18 -5 -1 -39 -4 -77 -7z"/>
<path d="M11593 5763 c-41 -5 -46 -33 -5 -33 67 0 132 13 132 26 0 14 -49 16
-127 7z"/>
<path d="M11245 5741 c-53 -5 -70 -10 -70 -21 0 -8 6 -15 13 -14 6 1 41 2 77
3 58 1 65 3 65 21 0 11 -3 19 -7 18 -5 -1 -39 -4 -78 -7z"/>
<path d="M10860 5713 c-36 -2 -68 -7 -72 -11 -18 -18 13 -27 80 -24 63 3 72 6
72 23 0 10 -3 18 -7 17 -5 -1 -37 -3 -73 -5z"/>
<path d="M10472 5680 c-81 -9 -84 -10 -74 -27 5 -9 29 -10 80 -6 61 5 72 9 72
24 0 11 -1 18 -2 18 -2 -1 -36 -5 -76 -9z"/>
<path d="M10070 5641 c-40 -4 -56 -10 -58 -23 -3 -17 16 -17 116 -2 33 5 47
35 15 32 -10 -1 -43 -4 -73 -7z"/>
<path d="M9663 5603 c-56 -5 -61 -33 -5 -33 63 0 112 12 112 26 0 14 -15 15
-107 7z"/>
<path d="M13743 5567 c-236 -16 -303 -23 -303 -34 0 -17 10 -17 343 4 252 16
277 19 277 35 0 10 -3 17 -7 17 -5 -1 -144 -11 -310 -22z"/>
<path d="M9310 5563 c-61 -6 -80 -13 -80 -29 0 -11 8 -14 33 -10 17 3 54 8 80
11 31 4 47 11 44 18 -4 13 -25 16 -77 10z"/>
<path d="M8878 5513 c-45 -5 -54 -33 -10 -33 67 0 132 13 132 26 0 14 -35 16
-122 7z"/>
<path d="M12735 5501 c-207 -14 -230 -18 -233 -34 -3 -15 1 -17 30 -13 18 3
155 13 303 21 149 9 276 18 283 21 7 2 10 8 7 14 -8 13 -107 11 -390 -9z"/>
<path d="M8508 5461 c-53 -8 -60 -12 -50 -28 11 -18 152 4 152 23 0 15 -22 16
-102 5z"/>
<path d="M11870 5429 c-157 -15 -288 -28 -292 -28 -5 -1 -8 -8 -8 -17 0 -13 8
-15 43 -11 23 4 152 16 287 27 135 12 255 23 268 26 26 5 30 35 5 33 -10 -1
-146 -14 -303 -30z"/>
<path d="M8133 5407 c-49 -8 -63 -14 -63 -27 0 -15 6 -16 53 -8 87 14 97 18
97 33 0 16 1 16 -87 2z"/>
<path d="M10910 5336 c-162 -18 -274 -35 -273 -41 4 -18 38 -17 322 14 155 17
286 31 291 31 6 0 10 7 10 15 0 20 -18 19 -350 -19z"/>
<path d="M1134 5342 c-73 -59 -81 -230 -14 -305 37 -41 95 -44 135 -7 35 33
59 119 51 183 -13 94 -54 147 -116 147 -19 0 -45 -8 -56 -18z m89 -10 c40 -43
47 -215 12 -282 -21 -41 -68 -43 -89 -2 -34 66 -28 241 11 284 21 23 45 23 66
0z"/>
<path d="M1509 5331 c-16 -16 -29 -34 -29 -40 0 -5 11 1 25 14 37 38 89 32
106 -11 12 -34 -7 -70 -50 -91 l-36 -17 32 -6 c62 -10 94 -59 74 -113 -16 -43
-52 -54 -101 -32 -29 13 -44 15 -51 8 -29 -29 37 -50 99 -33 57 15 92 59 92
116 0 36 -5 50 -26 69 l-26 24 21 27 c27 35 27 59 -4 89 -35 36 -88 34 -126
-4z"/>
<path d="M7757 5345 c-71 -12 -87 -20 -71 -34 12 -12 146 11 151 26 7 19 -9
20 -80 8z"/>
<path d="M7425 5285 c-5 -2 -36 -9 -67 -15 -38 -8 -58 -16 -58 -26 0 -17 7
-17 85 -1 42 9 61 18 63 30 3 16 -2 19 -23 12z"/>
<path d="M9982 5236 c-237 -26 -282 -33 -280 -46 4 -17 -25 -19 343 21 148 16
273 29 277 29 4 0 5 7 2 15 -8 19 1 19 -342 -19z"/>
<path d="M6995 5199 c-22 -5 -50 -11 -62 -14 -15 -3 -20 -10 -16 -20 3 -9 13
-14 22 -11 9 3 42 10 74 16 37 8 57 16 57 26 0 16 -16 16 -75 3z"/>
<path d="M9095 5106 c-329 -58 -315 -55 -315 -71 0 -8 2 -15 4 -15 12 0 593
101 604 105 22 8 3 25 -26 24 -15 -1 -135 -20 -267 -43z"/>
<path d="M6607 5110 c-77 -21 -79 -21 -69 -37 11 -18 146 18 150 40 4 20 6 20
-81 -3z"/>
<path d="M1367 5054 c-12 -12 -8 -42 6 -47 21 -8 39 8 35 29 -3 19 -29 30 -41
18z"/>
<path d="M6220 5016 c-69 -19 -70 -20 -61 -34 10 -17 151 15 151 35 0 16 -30
15 -90 -1z"/>
<path d="M5850 4913 c-74 -28 -77 -30 -63 -44 14 -14 137 33 141 54 4 21 2 21
-78 -10z"/>
<path d="M7225 4769 c-312 -69 -302 -66 -287 -81 15 -15 612 111 612 130 0 19
-38 14 -325 -49z"/>
<path d="M5483 4787 c-68 -24 -78 -31 -69 -46 4 -6 35 0 81 15 54 19 72 29 68
40 -6 17 -4 17 -80 -9z"/>
<path d="M5108 4656 c-31 -11 -56 -24 -57 -28 -1 -5 -1 -12 -1 -18 0 -5 33 3
74 18 49 17 72 30 69 39 -6 17 -16 15 -85 -11z"/>
<path d="M6510 4614 c-58 -13 -192 -43 -297 -65 -134 -29 -193 -46 -193 -56 0
-7 8 -13 18 -12 9 0 145 28 302 63 229 50 286 65 288 79 2 9 0 17 -5 16 -4 -1
-55 -12 -113 -25z"/>
<path d="M4738 4519 c-55 -28 -74 -49 -45 -49 23 0 136 55 133 65 -5 19 -31
14 -88 -16z"/>
<path d="M5450 4339 c-140 -44 -272 -84 -292 -89 -23 -7 -38 -17 -38 -26 0
-20 -4 -21 325 80 204 62 271 86 273 99 2 9 0 17 -5 16 -4 -1 -123 -37 -263
-80z"/>
<path d="M4387 4357 c-48 -23 -65 -36 -59 -45 7 -9 24 -5 75 18 63 28 78 42
59 54 -4 2 -37 -10 -75 -27z"/>
<path d="M4060 4204 c-82 -46 -93 -55 -82 -66 15 -15 143 58 136 77 -7 18 -1
20 -54 -11z"/>
<path d="M1134 4172 c-73 -59 -81 -230 -14 -305 37 -41 95 -44 135 -7 35 33
59 119 51 183 -13 94 -54 147 -116 147 -19 0 -45 -8 -56 -18z m89 -10 c40 -43
47 -215 12 -282 -21 -41 -68 -43 -89 -2 -34 66 -28 241 11 284 21 23 45 23 66
0z"/>
<path d="M1504 4156 c-19 -19 -34 -42 -34 -52 0 -15 6 -12 26 14 48 60 129 33
127 -43 -1 -45 -39 -108 -102 -170 -28 -27 -51 -53 -51 -57 0 -4 44 -8 98 -8
96 0 99 1 110 25 15 32 15 57 1 33 -8 -15 -24 -18 -87 -18 l-76 0 51 53 c108
111 129 173 74 228 -42 42 -92 40 -137 -5z"/>
<path d="M3693 3992 c-45 -28 -59 -42 -53 -52 6 -10 22 -5 74 26 60 35 75 53
50 61 -5 1 -37 -15 -71 -35z"/>
<path d="M1367 3884 c-12 -12 -8 -42 6 -47 21 -8 39 8 35 29 -3 19 -29 30 -41
18z"/>
<path d="M3367 3801 c-58 -34 -71 -46 -63 -59 8 -13 136 58 136 76 0 19 -21
14 -73 -17z"/>
<path d="M3040 3585 c-51 -40 -69 -65 -45 -65 17 0 115 74 115 87 0 25 -17 20
-70 -22z"/>
<path d="M2745 3358 c-22 -16 -48 -36 -59 -43 -11 -8 -16 -20 -12 -30 5 -13
16 -8 66 30 33 25 60 50 60 55 0 20 -18 17 -55 -12z"/>
<path d="M2417 3108 c-52 -38 -72 -68 -47 -68 14 0 120 80 120 91 0 21 -22 15
-73 -23z"/>
<path d="M1134 3002 c-73 -59 -81 -230 -14 -305 37 -41 95 -44 135 -7 35 33
59 119 51 183 -13 94 -54 147 -116 147 -19 0 -45 -8 -56 -18z m89 -10 c40 -43
47 -215 12 -282 -21 -41 -68 -43 -89 -2 -34 66 -28 241 11 284 21 23 45 23 66
0z"/>
<path d="M1550 2995 c-35 -19 -40 -24 -20 -22 l25 2 0 -145 0 -144 -25 -7
c-15 -4 4 -7 50 -7 54 -1 69 2 53 8 -23 9 -23 13 -23 175 0 91 -3 165 -7 165
-5 -1 -28 -12 -53 -25z"/>
<path d="M1367 2714 c-12 -12 -8 -42 6 -47 21 -8 39 8 35 29 -3 19 -29 30 -41
18z"/>
<path d="M1524 1832 c-73 -59 -81 -230 -14 -305 37 -41 95 -44 135 -7 35 33
59 119 51 183 -13 94 -54 147 -116 147 -19 0 -45 -8 -56 -18z m89 -10 c40 -43
47 -215 12 -282 -21 -41 -68 -43 -89 -2 -34 66 -28 241 11 284 21 23 45 23 66
0z"/>
<path d="M7638 1326 c-26 -7 -63 -25 -83 -41 -109 -83 -96 -289 20 -311 38 -7
86 14 109 48 30 43 17 134 -23 165 -20 16 -76 16 -103 2 -18 -10 -20 -9 -15 6
4 9 7 20 7 25 0 20 58 75 97 92 24 10 43 21 43 23 0 3 -1 5 -2 4 -2 0 -24 -6
-50 -13z m-9 -165 c26 -26 34 -81 19 -127 -11 -33 -18 -39 -44 -42 -45 -4 -67
26 -72 100 -4 51 -2 64 14 75 25 18 61 16 83 -6z"/>
<path d="M1800 1305 c-35 -19 -40 -24 -20 -22 l25 2 0 -145 0 -144 -25 -7
c-15 -4 4 -7 50 -7 54 -1 69 2 53 8 -23 9 -23 13 -23 175 0 91 -3 165 -7 165
-5 -1 -28 -12 -53 -25z"/>
<path d="M2237 1323 l-57 -4 -25 -49 c-34 -67 -32 -76 15 -84 23 -3 54 -18 71
-34 26 -24 32 -36 32 -72 0 -35 -6 -48 -27 -67 -32 -27 -45 -28 -72 -8 -25 19
-64 19 -64 0 0 -36 64 -44 127 -16 49 23 73 62 73 120 0 52 -46 107 -96 117
-39 7 -47 15 -38 38 5 12 20 16 58 16 29 0 57 5 64 12 13 13 16 39 5 36 -5 -1
-34 -3 -66 -5z"/>
<path d="M3104 1296 c-19 -19 -34 -42 -34 -52 0 -15 6 -12 26 14 48 60 129 33
127 -43 -1 -45 -39 -108 -102 -170 -28 -27 -51 -53 -51 -57 0 -4 44 -8 98 -8
96 0 99 1 110 25 15 32 15 57 1 33 -8 -15 -24 -18 -87 -18 l-76 0 51 53 c108
111 129 173 74 228 -42 42 -92 40 -137 -5z"/>
<path d="M4739 1301 c-16 -16 -29 -34 -29 -40 0 -5 11 1 25 14 37 38 89 32
106 -11 12 -34 -7 -70 -50 -91 l-36 -17 32 -6 c62 -10 94 -59 74 -113 -16 -43
-52 -54 -101 -32 -29 13 -44 15 -51 8 -29 -29 37 -50 99 -33 57 15 92 59 92
116 0 36 -5 50 -26 69 l-26 24 21 27 c27 35 27 59 -4 89 -35 36 -88 34 -126
-4z"/>
<path d="M5921 1222 c-41 -59 -77 -117 -79 -129 -4 -22 -2 -23 67 -23 l71 0 0
-45 c0 -38 3 -45 20 -45 17 0 20 7 20 45 0 43 1 45 30 45 20 0 30 5 30 15 0
10 -10 15 -30 15 l-30 0 0 115 c0 86 -3 115 -12 114 -7 0 -46 -48 -87 -107z
m56 -119 c-3 -2 -30 -3 -61 -1 l-56 3 58 82 57 82 3 -81 c2 -44 1 -82 -1 -85z"/>
<path d="M6877 1323 l-57 -4 -25 -49 c-34 -67 -32 -76 15 -84 23 -3 54 -18 71
-34 26 -24 32 -36 32 -72 0 -35 -6 -48 -27 -67 -32 -27 -45 -28 -72 -8 -25 19
-64 19 -64 0 0 -36 64 -44 127 -16 49 23 73 62 73 120 0 52 -46 107 -96 117
-39 7 -47 15 -38 38 5 12 20 16 58 16 29 0 57 5 64 12 13 13 16 39 5 36 -5 -1
-34 -3 -66 -5z"/>
<path d="M8679 1301 c-40 -40 -36 -73 13 -127 19 -21 19 -22 -11 -52 -38 -38
-41 -80 -7 -119 21 -24 31 -28 77 -27 44 0 56 5 76 28 37 44 28 98 -25 143
l-26 22 32 29 c39 37 42 73 7 107 -36 37 -97 35 -136 -4z m99 3 c30 -21 30
-73 -2 -103 l-23 -22 -32 36 c-36 42 -38 58 -11 85 24 24 38 25 68 4z m-4
-198 c56 -52 43 -116 -24 -116 -35 0 -60 31 -60 75 0 31 24 75 40 75 5 0 25
-15 44 -34z"/>
<path d="M9480 1305 c-35 -19 -40 -24 -20 -22 l25 2 0 -145 0 -144 -25 -7
c-15 -4 4 -7 50 -7 54 -1 69 2 53 8 -23 9 -23 13 -23 175 0 91 -3 165 -7 165
-5 -1 -28 -12 -53 -25z"/>
<path d="M9714 1312 c-73 -59 -81 -230 -14 -305 37 -41 95 -44 135 -7 35 33
59 119 51 183 -13 94 -54 147 -116 147 -19 0 -45 -8 -56 -18z m89 -10 c40 -43
47 -215 12 -282 -21 -41 -68 -43 -89 -2 -34 66 -28 241 11 284 21 23 45 23 66
0z"/>
<path d="M11110 1305 c-35 -19 -40 -24 -20 -22 l25 2 0 -145 0 -144 -25 -7
c-15 -4 4 -7 50 -7 54 -1 69 2 53 8 -23 9 -23 13 -23 175 0 91 -3 165 -7 165
-5 -1 -28 -12 -53 -25z"/>
<path d="M11417 1323 l-57 -4 -25 -49 c-34 -67 -32 -76 15 -84 23 -3 54 -18
71 -34 26 -24 32 -36 32 -72 0 -35 -6 -48 -27 -67 -32 -27 -45 -28 -72 -8 -25
19 -64 19 -64 0 0 -36 64 -44 127 -16 49 23 73 62 73 120 0 52 -46 107 -96
117 -39 7 -47 15 -38 38 5 12 20 16 58 16 29 0 57 5 64 12 13 13 16 39 5 36
-5 -1 -34 -3 -66 -5z"/>
<path d="M12224 1296 c-19 -19 -34 -42 -34 -52 0 -15 6 -12 26 14 48 60 129
33 127 -43 -1 -45 -39 -108 -102 -170 -28 -27 -51 -53 -51 -57 0 -4 44 -8 98
-8 96 0 99 1 110 25 15 32 15 57 1 33 -8 -15 -24 -18 -87 -18 l-76 0 51 53
c108 111 129 173 74 228 -42 42 -92 40 -137 -5z"/>
<path d="M12504 1312 c-73 -59 -81 -230 -14 -305 37 -41 95 -44 135 -7 35 33
59 119 51 183 -13 94 -54 147 -116 147 -19 0 -45 -8 -56 -18z m89 -10 c40 -43
47 -215 12 -282 -21 -41 -68 -43 -89 -2 -34 66 -28 241 11 284 21 23 45 23 66
0z"/>
<path d="M13859 1301 c-16 -16 -29 -34 -29 -40 0 -5 11 1 25 14 37 38 89 32
106 -11 12 -34 -7 -70 -50 -91 l-36 -17 32 -6 c62 -10 94 -59 74 -113 -16 -43
-52 -54 -101 -32 -29 13 -44 15 -51 8 -29 -29 37 -50 99 -33 57 15 92 59 92
116 0 36 -5 50 -26 69 l-26 24 21 27 c27 35 27 59 -4 89 -35 36 -88 34 -126
-4z"/>
<path d="M14134 1312 c-73 -59 -81 -230 -14 -305 37 -41 95 -44 135 -7 35 33
59 119 51 183 -13 94 -54 147 -116 147 -19 0 -45 -8 -56 -18z m89 -10 c40 -43
47 -215 12 -282 -21 -41 -68 -43 -89 -2 -34 66 -28 241 11 284 21 23 45 23 66
0z"/>
<path d="M8106 1288 c-15 -39 -12 -50 8 -23 11 15 30 20 85 23 39 2 71 0 71
-5 0 -5 -22 -75 -49 -156 -43 -128 -47 -147 -32 -147 14 0 28 34 69 164 29 90
52 167 52 170 0 3 -43 6 -95 6 l-95 0 -14 -32z"/>
<path d="M2007 1024 c-12 -12 -8 -42 6 -47 21 -8 39 8 35 29 -3 19 -29 30 -41
18z"/>
<path d="M7748 543 c-22 -6 -23 -19 -3 -27 12 -4 15 -31 15 -150 0 -165 1
-166 82 -166 75 0 118 50 118 135 0 38 -5 52 -29 76 -16 16 -39 29 -51 29 -24
0 -61 -17 -72 -34 -4 -6 -8 24 -8 67 0 82 -1 83 -52 70z m137 -156 c72 -61 21
-206 -60 -169 -23 11 -25 16 -25 86 0 66 3 77 22 90 29 21 32 20 63 -7z"/>
<path d="M8037 377 c-31 -95 -57 -176 -57 -180 0 -4 6 -7 14 -7 10 0 34 60 74
180 51 152 58 180 44 180 -14 0 -31 -40 -75 -173z"/>
<path d="M8184 417 c-18 -16 -25 -30 -21 -40 10 -27 37 -21 37 8 0 31 32 50
60 35 13 -7 20 -21 20 -39 0 -23 -7 -31 -42 -46 -79 -34 -103 -69 -78 -116 13
-23 66 -26 97 -4 19 13 22 13 27 0 7 -19 50 -19 66 0 10 13 9 15 -9 15 -20 0
-21 5 -21 85 0 72 -3 88 -20 105 -28 28 -82 26 -116 -3z m84 -179 c-7 -4 -24
-7 -38 -6 -21 3 -25 8 -25 37 0 28 6 37 35 52 l35 19 3 -46 c2 -31 -1 -50 -10
-56z"/>
</g>
</svg>
